<svg id="Layer_1" data-name="Layer 1" xmlns="http://www.w3.org/2000/svg" viewBox="0 0 36 36"><defs><style>.cls-1{fill:#6ec399;}</style></defs><title>github</title><path class="cls-1" d="M18,2A16.2,16.2,0,1,0,34.2,18.2,16.26057,16.26057,0,0,0,18,2Zm2.1,18.9a2.44134,2.44134,0,0,1,.6,1.7v2.6c0,0.3-4.7.2-4.7,0V23.6c-2.6.6-3.2-1.3-3.2-1.3a2.47891,2.47891,0,0,0-1-1.4c-0.9-.6.1-0.6,0.1-0.6a2.0726,2.0726,0,0,1,1.4,1,2.04382,2.04382,0,0,0,2.7.8,2.26054,2.26054,0,0,1,.6-1.3c-2.1-.2-4.3-1-4.3-4.7a3.55183,3.55183,0,0,1,1-2.5,3.46037,3.46037,0,0,1,.1-2.5s0.8-.3,2.6,1a9.75034,9.75034,0,0,1,4.8,0c1.8-1.2,2.6-1,2.6-1a3.46022,3.46022,0,0,1,.1,2.5,3.73972,3.73972,0,0,1,1,2.5C24.4,19.9,22.2,20.7,20.1,20.9Z"/></svg>