<svg id="Layer_1" data-name="Layer 1" xmlns="http://www.w3.org/2000/svg" viewBox="0 0 36 36"><defs><style>.cls-1{fill:#6ec399;}</style></defs><title>tumblr</title><path class="cls-1" d="M17.902,1.699A16.203,16.203,0,1,0,34.105,17.902,16.20258,16.20258,0,0,0,17.902,1.699ZM21.63,17.6H18.787v2.603a5.09146,5.09146,0,0,0,.061,1.227,1.03454,1.03454,0,0,0,.435.491,1.63293,1.63293,0,0,0,.855.224,2.31349,2.31349,0,0,0,1.491-.447v1.708a6.36678,6.36678,0,0,1-1.305.452,5.39748,5.39748,0,0,1-1.274.138,3.47045,3.47045,0,0,1-1.224-.194,2.93325,2.93325,0,0,1-1.025-.564,1.98077,1.98077,0,0,1-.586-0.774,3.2704,3.2704,0,0,1-.165-1.193V17.288H14.527v-1.61a4.02719,4.02719,0,0,0,1.268-.624,3.15378,3.15378,0,0,0,.759-0.98,4.34039,4.34039,0,0,0,.402-1.444h1.832v2.842h2.843V17.6H21.63Z"/></svg>