<svg id="Layer_1" data-name="Layer 1" xmlns="http://www.w3.org/2000/svg" viewBox="0 0 36 36"><defs><style>.cls-1{fill:#6ec399;}</style></defs><title>twitter</title><path class="cls-1" d="M17.903,1.699A16.203,16.203,0,1,0,34.106,17.902,16.20343,16.20343,0,0,0,17.903,1.699Zm6.305,13.074c0.008,0.143.013,0.285,0.013,0.435A9.58227,9.58227,0,0,1,9.474,23.277a6.27442,6.27442,0,0,0,.805.046,6.761,6.761,0,0,0,4.175-1.436,3.39718,3.39718,0,0,1-3.145-2.346,2.97936,2.97936,0,0,0,.637.058,3.33024,3.33024,0,0,0,.884-0.112,3.38135,3.38135,0,0,1-2.697-3.308V16.142a3.32456,3.32456,0,0,0,1.521.416,3.36932,3.36932,0,0,1-1.036-4.5,9.52949,9.52949,0,0,0,6.939,3.522,3.492,3.492,0,0,1-.078-0.768,3.36761,3.36761,0,0,1,5.825-2.303,6.76258,6.76258,0,0,0,2.135-.815,3.35376,3.35376,0,0,1-1.482,1.861,7.00954,7.00954,0,0,0,1.939-.532,6.73463,6.73463,0,0,1-1.688,1.749v0.001Z"/></svg>