<svg id="Layer_1" data-name="Layer 1" xmlns="http://www.w3.org/2000/svg" viewBox="0 0 110.66667 118.66667"><defs><style>.cls-1,.cls-2,.cls-3{fill:#6fc39a;}.cls-1,.cls-2,.cls-4{stroke:#6fc39a;stroke-miterlimit:10;}.cls-1{stroke-width:2.14241px;}.cls-2,.cls-4{stroke-width:1.03206px;}.cls-4{fill:none;}.cls-5{fill:#fff;}</style></defs><title>about-icons</title><path class="cls-1" d="M102.24828,28.89994V22.393a2.19828,2.19828,0,0,0-2.19183-2.19183H11.65332A2.19828,2.19828,0,0,0,9.46148,22.393v78.99661h92.7868V28.89994ZM36.28267,22.37587H89.925a2.17469,2.17469,0,0,1,0,4.34938H36.28267A2.17469,2.17469,0,1,1,36.28267,22.37587Zm-12.11158.93657A1.23812,1.23812,0,1,1,22.933,24.55056,1.23748,1.23748,0,0,1,24.17109,23.31243Zm-3.71582,0a1.23812,1.23812,0,1,1-1.23812,1.23812A1.23748,1.23748,0,0,1,20.45527,23.31243Zm-3.71437,0a1.23812,1.23812,0,1,1-1.23812,1.23812A1.23748,1.23748,0,0,1,16.7409,23.31243Zm84.05759,76.6274H10.91128V28.89994h89.88721V99.93983Z"/><rect class="cls-2" x="19.61729" y="60.05745" width="14.49794" height="13.04814"/><rect class="cls-3" x="42.81399" y="61.50725" width="49.29298" height="1.44979"/><rect class="cls-3" x="42.81399" y="65.85663" width="49.29298" height="1.44979"/><rect class="cls-3" x="42.81399" y="70.20601" width="49.29298" height="1.44979"/><rect class="cls-2" x="19.61729" y="78.90477" width="14.49794" height="13.04814"/><rect class="cls-3" x="42.81399" y="80.35457" width="49.29298" height="1.44979"/><rect class="cls-3" x="42.81399" y="84.70395" width="49.29298" height="1.44979"/><rect class="cls-3" x="42.81399" y="89.05333" width="49.29298" height="1.44979"/><rect class="cls-4" x="19.61729" y="36.86075" width="72.48969" height="15.94773"/><circle class="cls-5" cx="16.7409" cy="24.55056" r="1.23812"/><circle class="cls-5" cx="20.45527" cy="24.55056" r="1.23812"/><circle class="cls-5" cx="24.17109" cy="24.55056" r="1.23812"/></svg>