<svg id="Layer_1" data-name="Layer 1" xmlns="http://www.w3.org/2000/svg" viewBox="0 0 110.66667 118.66667"><defs><style>.cls-1{fill:#6fc39a;}.cls-2,.cls-3{fill:none;stroke:#6fc39a;}.cls-2{stroke-miterlimit:10;stroke-width:3.05719px;}.cls-3{stroke-linecap:round;stroke-linejoin:round;stroke-width:2.01775px;}</style></defs><title>about-icons</title><path id="rect3368" class="cls-1" d="M46.5627,88.67414H61.07418a0.693,0.693,0,0,1,.63228.74875l-0.00047.00535v1.40631a0.693,0.693,0,0,1-.62645.75363l-0.00536.00047H46.5627a0.693,0.693,0,0,1-.63228-0.74875l0.00047-.00535V89.42824a0.693,0.693,0,0,1,.62645-0.75363Z"/><path id="rect3368-1" class="cls-1" d="M46.50156,92.7708H61.013a0.693,0.693,0,0,1,.63228.74875l-0.00047.00535v1.40631a0.693,0.693,0,0,1-.62645.75363l-0.00536.00047H46.50156a0.693,0.693,0,0,1-.63228-0.74875l0.00047-.00535V93.5249a0.693,0.693,0,0,1,.62645-0.75363Z"/><path id="rect3368-1-2" class="cls-1" d="M46.50156,96.78592H61.013a0.693,0.693,0,0,1,.63228.74875L61.64486,97.54v1.40631a0.693,0.693,0,0,1-.62645.75363l-0.00536.00047H46.50156a0.693,0.693,0,0,1-.63228-0.74875l0.00047-.00535V97.54a0.693,0.693,0,0,1,.62645-0.75363Z"/><path id="path3400" class="cls-1" d="M49.1715,101.12711a5.84938,5.84938,0,0,0,4.42273,2.32346,5.91061,5.91061,0,0,0,4.70807-2.405Z"/><path class="cls-2" d="M73.47619,52.956a19.566,19.566,0,0,0-39.0913,0A18.07817,18.07817,0,0,0,37.99237,63.758,52.115,52.115,0,0,1,43.59722,75.783a1.03911,1.03911,0,0,1,0,.34648v7.58184a1.03945,1.03945,0,0,0,1.03945,1.03943h18.0782a1.03945,1.03945,0,0,0,1.03945-1.03943V76.25175h0a54.45849,54.45849,0,0,1,6.6443-13.2886h0A18.03741,18.03741,0,0,0,73.47619,52.956Z"/><rect id="rect3531" class="cls-3" x="52.78919" y="13.29399" width="0.71334" height="12.63639"/><polygon id="rect3531-0" class="cls-3" points="87.009 31.209 87.499 31.739 77.695 40.014 77.206 39.484 87.009 31.209"/><polygon id="rect3531-6" class="cls-3" points="70.011 21.385 70.562 21.65 66.506 28.784 65.955 28.519 70.011 21.385"/><polygon id="rect3531-0-4" class="cls-3" points="20.933 31.27 20.464 31.8 30.268 40.075 30.737 39.545 20.933 31.27"/><polygon id="rect3531-6-9" class="cls-3" points="36.178 20.917 35.628 21.182 39.664 28.295 40.214 28.03 36.178 20.917"/><polygon id="rect3531-6-2" class="cls-3" points="90.8 47.799 90.841 48.391 82.485 48.757 82.424 48.166 90.8 47.799"/><polygon id="rect3531-6-2-5" class="cls-3" points="18.284 47.535 18.223 48.126 26.579 48.492 26.64 47.901 18.284 47.535"/><path class="cls-1" d="M58.22218,65.036c0.26926-.29793.53416-0.53814,0.53429-0.53827q0.27868-.23035.53279-0.44024c0.1713-.13833.34645-0.24457,0.50667-0.35957,0.32144-.22945.63032-0.36081,0.87495-0.5132,0.51737-.23175.81368-0.36486,0.81368-0.36486s-0.07912,0-.22827.00056c-0.14909.007-.37207-0.00174-0.6539,0.02631a5.95392,5.95392,0,0,0-1.00868.22765c-0.19058.07-.40056,0.1308-0.61284,0.2236q-0.31274.1629-.65589,0.34091c-0.21863.14654-.4464,0.30011-0.68238,0.45772-0.22441.17926-.4464,0.38414-0.68045,0.58846-0.21378.22827-.44547,0.45362-0.6636,0.70527-0.20849.26036-.4329,0.52191-0.6264,0.81555a10.63062,10.63062,0,0,0-.57814.90959,10.48275,10.48275,0,0,0-.52458.98311,19.48205,19.48205,0,0,0-.87638,2.11687c-0.22976.70117-.444,1.407-0.61148,2.11631,0.02028-.63754.04341-1.2844,0.02749-1.96274-0.01592-.50213-0.03135-1.00886-0.04777-1.51678-0.014-.50847-0.11-1.014-0.16358-1.52194L52.793,66.5714,52.625,65.82763a14.27265,14.27265,0,0,0-.37064-1.46186c-0.15494-.47172-0.29874-0.94517-0.48067-1.39064q-0.29314-.655-0.57957-1.29249c-0.21913-.40224-0.43676-0.79689-0.65974-1.17288-0.22877-.3707-0.485-0.70291-0.71616-1.03978a12.79469,12.79469,0,0,0-1.48736-1.679,10.6076,10.6076,0,0,0-1.40967-1.15945,5.91394,5.91394,0,0,0-.62211-0.4069c-0.19493-.11737-0.37543-0.22124-0.54337-0.30359a6.80843,6.80843,0,0,0-.78277-0.35379c-0.18436-.06948-0.28375-0.09635-0.28375-0.09635a11.61753,11.61753,0,0,1,.92558.752c0.1448,0.12085.29781,0.26677,0.46232,0.42849,0.166,0.15823.34558,0.32692,0.52608,0.52483,0.18436,0.191.38028,0.39235,0.56993,0.62877,0.19107,0.23237.40777,0.45306,0.60084,0.72567a19.37681,19.37681,0,0,1,1.20989,1.76253c0.18479,0.33743.39279,0.66727,0.57086,1.03038,0.16651,0.37307.35522,0.73737,0.53279,1.11684q0.22737,0.59459.46189,1.2061c0.14038,0.41567.24755,0.853,0.38657,1.27738a12.93831,12.93831,0,0,1,.31124,1.32875l0.14138,0.6743,0.0816,0.69358c0.0492,0.46295.14623,0.91712,0.16066,1.38479q0.03695,0.70048.0729,1.3935c0.02706,0.95979.05355,1.90378,0.07961,2.81748,0.06885,2.414.16016,2.42388,0.22155,5.023,0.05057,2.14082-.02165,2.543.10487,4.01816,0.09529,1.11106.23381,2.02115,0.33973,2.63262a1.16288,1.16288,0,0,0,1.06148-.04248c0.35422-.32045.06-0.99991-0.1698-2.3778a15.60236,15.60236,0,0,1-.21235-3.18458,16.87215,16.87215,0,0,1,.3021-2.35777c0.12085-.67056.239-1.126,0.43433-1.947,0.31852-1.33864.6988-2.74209,1.16212-4.09125,0.23455-.67025.48552-1.3323,0.76442-1.95752a16.51814,16.51814,0,0,1,.8933-1.773A15.06538,15.06538,0,0,1,58.22218,65.036Z"/><path class="cls-1" d="M66.37184,59.25692l-0.01014-.0035c-0.514-.1874-1.03517-0.3497-1.55252-0.5225-0.26012-.08-0.53279-0.11793-0.7987-0.17864l-0.8016-.164-0.82379-.03911a4.14134,4.14134,0,0,0-.82428.00876l-0.82717.08874a8.30225,8.30225,0,0,0-.817.22535,3.75763,3.75763,0,0,0-.79291.32635l-0.38849.19032a3.91082,3.91082,0,0,0-.36677.24928,4.413,4.413,0,0,0-.69108.56862,4.864,4.864,0,0,0-.61531.672l-0.276.36955-0.23937.40224a6.53781,6.53781,0,0,0-.41938.83776,8.841,8.841,0,0,0-.30162.89731,5.71257,5.71257,0,0,0-.17518.93117,6.37279,6.37279,0,0,1,.37932-0.815,7.65128,7.65128,0,0,1,.44447-0.7426,7.771,7.771,0,0,1,.51107-0.65795l0.26977-.30358,0.29487-.26271a3.66089,3.66089,0,0,1,.60421-0.47638,3.35327,3.35327,0,0,1,.64668-0.3678c0.112-.05021.21476-0.11968,0.32817-0.16288l0.34458-.11326a2.87019,2.87019,0,0,1,.694-0.18215c0.23744-.03269.47-0.08232,0.70652-0.10392l0.71907-.01576a3.43238,3.43238,0,0,1,.72148.05429l0.72149,0.08874,0.722,0.16989c0.24033,0.06188.4826,0.09983,0.72052,0.18039,0.29149,0.10333.58153,0.20959,0.87254,0.3135-0.00338.01985-.00579,0.04028-0.00965,0.05955-0.03378.24812-.09507,0.49332-0.14816,0.73968a7.1028,7.1028,0,0,1-.22682.714l-0.12982.35028c-0.04778.11384-.10473,0.22185-0.15636,0.33335-0.05357.10976-.10231,0.22535-0.16071,0.33218l-0.19111.30825c-0.06515.10158-.12354,0.21017-0.19352,0.30767l-0.22392.27906-0.22345.28023-0.24854.25337a4.06463,4.06463,0,0,1-.51927.48573l-0.56271.432-0.61.35554c-0.10183.05955-.20269,0.12552-0.30742,0.181l-0.32527.13661c-0.21669.09341-.43627,0.17981-0.65488,0.28139-0.22151.08524-.45171,0.14186-0.67853,0.21542l-0.68915.21017c-0.46764.09283-.93913,0.19149-1.41787,0.31117,0.47874,0.06772.96326,0.11443,1.45262,0.15587,0.24419,0.00876.48791-.0146,0.73355-0.02627,0.24516-.01751.4937-0.01927,0.73982-0.05138,0.24516-.0432.48887-0.10333,0.735-0.15587l0.37015-.08173c0.12161-.03736.24082-0.087,0.36243-0.13136,0.2413-.08991.48549-0.17864,0.72583-0.28315l0.69494-.40516a4.8269,4.8269,0,0,0,.66695-0.48865c0.10858-.08874.22151-0.17164,0.32624-0.268l0.2939-.31992,0.2939-.32343c0.09314-.11326.17615-0.24053,0.264-0.36079l0.26012-.3678c0.08059-.12785.15057-0.265,0.2273-0.39874a5.65788,5.65788,0,0,0,.40442-0.83718,8.19332,8.19332,0,0,0,.52314-1.83548,7.05139,7.05139,0,0,0,.10569-1.02691A0.82754,0.82754,0,0,0,66.37184,59.25692Z"/><path class="cls-1" d="M46.72914,61.50632a6.61748,6.61748,0,0,1-.71666-0.40341l-0.6877-.46a5.34427,5.34427,0,0,1-.66116-0.498c-0.2109-.18215-0.43579-0.33685-0.63317-0.53652l-0.59263-.58964C43.238,58.82724,43.07395,58.59022,42.891,58.38a5.68486,5.68486,0,0,1-.499-0.68422,6.85884,6.85884,0,0,1-.44882-0.72509,6.42941,6.42941,0,0,1-.39525-0.763L41.36748,55.816l-0.15057-.40925c-0.10907-.268-0.181-0.55228-0.26446-0.83075-0.06612-.28256-0.14961-0.56337-0.194-0.84768-0.01158-.05546-0.02172-0.11384-0.03137-0.17164l0.43772-.16755,0.98739-.30767c0.32961-.08524.65971-0.16814,0.99029-0.24111,0.33058-.04028.66309-0.12493,0.99222-0.13252l0.49466-.02977c0.16408-.00234.32624,0.01226,0.48984,0.01693a6.38342,6.38342,0,0,1,.96713.10976l0.4715,0.11793c0.15588,0.04379.30452,0.11267,0.458,0.167a3.13775,3.13775,0,0,1,.444.21017,2.7415,2.7415,0,0,1,.42758.25571,2.85948,2.85948,0,0,1,.41262.29307,3.51545,3.51545,0,0,1,.39139.33861,5.90218,5.90218,0,0,1,.71087.80623,9.662,9.662,0,0,1,1.136,1.99661c0.15733,0.36488.30114,0.74377,0.43144,1.13141,0.1332,0.38648.24323,0.78638,0.34844,1.18979a19.79543,19.79543,0,0,1,.47922,2.4981,14.727,14.727,0,0,0-.03957-2.61194c-0.05019-.43493-0.11148-0.86987-0.19593-1.3013a12.102,12.102,0,0,0-.762-2.522,8.0166,8.0166,0,0,0-.6018-1.16761,7.46088,7.46088,0,0,0-.7683-1.04384,4.889,4.889,0,0,0-.44206-0.46179,3.995,3.995,0,0,0-.47729-0.41333,3.65542,3.65542,0,0,0-.51107-0.35145,4.30041,4.30041,0,0,0-.53472-0.29541c-0.18339-.08057-0.36533-0.174-0.55209-0.24111l-0.56464-.18156c-0.18918-.056-0.38077-0.08232-0.57188-0.12377a2.97155,2.97155,0,0,0-.57381-0.07648c-0.19111-.01109-0.38367-0.03094-0.57429-0.03269l-0.56995.02043c-0.38222.0035-.75092,0.08524-1.12735,0.1261-0.36919.07239-.736,0.15646-1.10225,0.24345-0.35809.115-.71762,0.22885-1.07185,0.35437l-1.04579.42618-0.01834.007a0.82088,0.82088,0,0,0-.4493.83367,7.94351,7.94351,0,0,0,.15684,1.1139,9.24492,9.24492,0,0,0,.25915,1.01815c0.11245,0.32635.2162,0.6562,0.35712,0.96328l0.19931,0.46821L40.4462,57.0046a7.65013,7.65013,0,0,0,.498.85411c0.08928,0.13661.17277,0.27847,0.26591,0.40983l0.29969,0.37422a6.34639,6.34639,0,0,0,.62159.70991c0.222,0.21426.42662,0.45478,0.66261,0.64394L43.49815,60.56c0.23647,0.18215.49563,0.31584,0.74127,0.474a5.44956,5.44956,0,0,0,.75575.42034c0.25722,0.12318.51928,0.23177,0.7765,0.34736a6.45529,6.45529,0,0,0,.79146.27147L47.35748,62.309c0.53858,0.10508,1.07909.18156,1.61236,0.261-0.50866-.2306-1.012-0.456-1.51294-0.66846Z"/></svg>