<svg id="Layer_1" data-name="Layer 1" xmlns="http://www.w3.org/2000/svg" viewBox="0 0 110.66667 118.66667"><defs><style>.cls-1{fill:#6fc39a;}.cls-2{fill:#fff;}</style></defs><title>about-icons</title><path class="cls-1" d="M7.06776,17.99783h96.77436a1.36735,1.36735,0,0,1,1.36735,1.36735V32.16262a0,0,0,0,1,0,0H5.77489a0,0,0,0,1,0,0V19.29071A1.29287,1.29287,0,0,1,7.06776,17.99783Z"/><path class="cls-1" d="M105.20946,100.21994H5.77489V27.83422h99.43458v72.38572ZM10.18974,96.29262h90.79254V32.23115H10.18974V96.29262Z"/><circle class="cls-2" cx="13.27144" cy="25.28591" r="1.27458"/><circle class="cls-2" cx="17.68241" cy="25.28591" r="1.27458"/><circle class="cls-2" cx="22.14143" cy="25.28591" r="1.27458"/><path class="cls-1" d="M61.92416,49.34858a1.26726,1.26726,0,0,0-1.55936.64051L48.52142,77.31118a1.03554,1.03554,0,0,0,.6784,1.39382,1.304,1.304,0,0,0,.54844.06192,1.225,1.225,0,0,0,1.01169-.70187L62.60333,50.743A1.037,1.037,0,0,0,61.92416,49.34858Z"/><path class="cls-1" d="M33.851,63.06967a1.41128,1.41128,0,0,0,0,2.14266l8.16958,7.03959a1.41429,1.41429,0,0,0,1.8456-2.1435l-6.92642-5.96784,6.92642-5.9695a1.41429,1.41429,0,0,0-1.8456-2.1435Z"/><path class="cls-1" d="M67.15769,72.10381a1.41546,1.41546,0,0,0,1.99538.14812l8.16958-7.03959a1.41441,1.41441,0,0,0,0-2.14266l-8.16958-7.04209a1.41429,1.41429,0,1,0-1.8456,2.1435l6.92476,5.9695-6.92476,5.96784A1.41521,1.41521,0,0,0,67.15769,72.10381Z"/></svg>