<svg id="Layer_1" data-name="Layer 1" xmlns="http://www.w3.org/2000/svg" viewBox="0 0 110.66667 118.66667"><defs><style>.cls-1{fill:#6fc39a;}.cls-2{fill:none;stroke:#6fc39a;stroke-miterlimit:10;stroke-width:2.02904px;}</style></defs><title>about-icons</title><path class="cls-1" d="M18.58385,58.05288c-0.35731.94938-.68214,1.92829-0.96562,2.91015a1.47481,1.47481,0,0,0,1.00844,1.82789,1.46,1.46,0,0,0,.41046.05906,1.4763,1.4763,0,0,0,1.41742-1.0675c0.26281-.90656.56254-1.81312,0.89327-2.69163a1.47622,1.47622,0,1,0-2.764-1.038"/><path class="cls-1" d="M75.42405,38.956a1.47661,1.47661,0,0,0,.44147,2.0405c0.79583,0.51234,1.57984,1.06012,2.32841,1.62709a1.47606,1.47606,0,1,0,1.78212-2.35352c-0.80764-.61274-1.65366-1.20333-2.5115-1.75554a1.47428,1.47428,0,0,0-2.0405.44147"/><path class="cls-1" d="M36.11267,37.4574c-0.88.505-1.75554,1.05273-2.59861,1.62709a1.47612,1.47612,0,1,0,1.661,2.44063c0.78106-.53154,1.59017-1.038,2.40667-1.50454a1.47717,1.47717,0,0,0-1.4691-2.56318"/><path class="cls-1" d="M92.06846,59.02145a1.47887,1.47887,0,0,0-.95972,1.85594c0.28349,0.8918.536,1.81165,0.753,2.733a1.47609,1.47609,0,0,0,2.87472-.6718c-0.23181-.99663-0.50644-1.99178-0.81355-2.9574a1.47971,1.47971,0,0,0-1.85446-.95971"/><path class="cls-1" d="M90.30111,56.43613a1.47759,1.47759,0,0,0,1.32145-2.135c-0.45771-.91689-0.95381-1.822-1.475-2.69163a1.47688,1.47688,0,0,0-2.53217,1.52078c0.48281,0.80321.942,1.64037,1.3628,2.48787a1.47741,1.47741,0,0,0,1.32293.818"/><path class="cls-1" d="M95.66961,68.99362a1.47621,1.47621,0,0,0-2.94411.22147c0.034,0.45033.03248,0.90656,0.0502,1.36132H88.40235V82.38829h11.81187V70.57642H95.72867c-0.0192-.52858-0.0192-1.06012-0.05906-1.58279"/><path class="cls-1" d="M84.56054,44.33044a1.47591,1.47591,0,1,0-2.11875,2.05527c0.65408,0.67475,1.29192,1.38642,1.89432,2.11285a1.47635,1.47635,0,0,0,2.27231-1.88547c-0.65113-.78549-1.33917-1.55326-2.04788-2.28264"/><path class="cls-1" d="M30.7427,45.0672a1.47715,1.47715,0,0,0-2.0154-2.1601c-0.74267.69395-1.4691,1.42628-2.15862,2.17634a1.476,1.476,0,1,0,2.17338,1.99768c0.63784-.69395,1.31112-1.37165,2.00064-2.01392"/><path class="cls-1" d="M19.05485,70.163c0.04872-.94495.13288-1.89728,0.251-2.82747a1.47644,1.47644,0,0,0-2.92934-.37208c-0.12845,1.00253-.21852,2.02869-0.2702,3.05042a1.4592,1.4592,0,0,0,.08416.56254H11.62518V82.38829H23.43705V70.57642H18.9515a1.44034,1.44034,0,0,0,.10335-0.41342"/><path class="cls-1" d="M22.78,49.89383c-0.567.84455-1.10736,1.72306-1.60789,2.60895a1.47664,1.47664,0,0,0,2.572,1.45138c0.46214-.82092.96414-1.63447,1.4883-2.41553A1.47647,1.47647,0,1,0,22.78,49.89383"/><path class="cls-1" d="M17.53112,39.57025a5.90093,5.90093,0,0,0,5.69627-4.42945H41.15634a1.47553,1.47553,0,0,0,1.54883,2.44506c0.88294-.33811,1.78655-0.64522,2.68868-0.91247a1.45375,1.45375,0,0,0,1.02173-1.53259h3.41806a1.44485,1.44485,0,0,0,.18013.16389v4.26556H61.82564V35.63247c0.31449,0.0502.63046,0.09449,0.942,0.15355a1.59654,1.59654,0,0,0,.27463.0251,1.47273,1.47273,0,0,0,1.224-.67032h3.21726a1.403,1.403,0,0,0-.13879.23033,1.47506,1.47506,0,0,0,.8977,1.88547c0.89032,0.316,1.77768.67032,2.63552,1.04978a1.457,1.457,0,0,0,.598.127,1.47634,1.47634,0,0,0,.598-2.826c-0.38094-.1698-0.78106-0.30859-1.17086-0.46657H88.612a5.906,5.906,0,1,0,0-2.953H61.82564V27.75838H50.01377v4.42945H23.22739a5.89629,5.89629,0,1,0-5.69627,7.38242"/><circle class="cls-2" cx="55.762" cy="71.16272" r="24.61903"/></svg>