<svg id="Layer_1" data-name="Layer 1" xmlns="http://www.w3.org/2000/svg" viewBox="0 0 100 98.22"><defs><style>.cls-1{fill:#6ec399;stroke:#6ec399;stroke-miterlimit:10;stroke-width:2px;}</style></defs><title>arrow</title><path class="cls-1" d="M48.59,63.41a2,2,0,0,0,2.83,0l18-18a2,2,0,0,0-2.83-2.83L50,59.17,33.41,42.59a2,2,0,0,0-2.83,2.83Z"/><path class="cls-1" d="M8,50C8,72.77,27.23,92,50,92S92,72.77,92,50,72.77,8,50,8,8,27.23,8,50ZM50,12c20.6,0,38,17.4,38,38S70.6,88,50,88,12,70.6,12,50,29.4,12,50,12Z"/></svg>