<svg id="Layer_1" data-name="Layer 1" xmlns="http://www.w3.org/2000/svg" xmlns:xlink="http://www.w3.org/1999/xlink" viewBox="0 0 2641.5 742.19"><defs><style>.cls-1{fill:#bfe6f6;}.cls-10,.cls-2{fill:#2d5b72;}.cls-2{stroke:#081c29;}.cls-13,.cls-14,.cls-16,.cls-2,.cls-3,.cls-4,.cls-5{stroke-miterlimit:10;}.cls-13,.cls-2{stroke-width:9.04px;}.cls-13,.cls-14,.cls-16,.cls-3{fill:none;}.cls-3{stroke:#8cd4e1;stroke-width:3.3px;}.cls-13,.cls-14,.cls-16,.cls-4,.cls-5{stroke:#001a2a;}.cls-14,.cls-4,.cls-5{stroke-width:9.04px;}.cls-4{fill:url(#linear-gradient);}.cls-5{fill:#8d9091;}.cls-6{fill:#001a2a;}.cls-7{fill:#e7b07c;}.cls-8{fill:#81bed1;}.cls-9{fill:#77aab9;}.cls-11{fill:#194456;}.cls-12{fill:url(#linear-gradient-2);}.cls-15{fill:#95d6e3;}.cls-16{stroke-width:6.78px;}.cls-17{fill:#2d5a71;}</style><linearGradient id="linear-gradient" x1="2893.84" y1="-1025.21" x2="2963.14" y2="-1025.21" gradientTransform="translate(538.68 3153.55) rotate(-41.73)" gradientUnits="userSpaceOnUse"><stop offset="0.45" stop-color="#78acba"/><stop offset="0.46" stop-color="#77aab9"/><stop offset="0.63" stop-color="#95d6e3"/></linearGradient><linearGradient id="linear-gradient-2" x1="1702.24" y1="781.7" x2="1763.65" y2="781.7" gradientTransform="matrix(0.78, 0.75, -0.81, 0.84, 1118.22, -1392.63)" gradientUnits="userSpaceOnUse"><stop offset="0.61" stop-color="#d876ae"/><stop offset="1" stop-color="#e5a3c8"/></linearGradient></defs><title>brand-material</title><rect class="cls-1" x="1332.64" y="2.52" width="1308.87" height="739.68"/><rect class="cls-2" x="1951.35" y="160.46" width="77.51" height="487" rx="2.3" ry="2.3" transform="translate(2394.07 -1586.15) rotate(90)"/><line class="cls-3" x1="1762.48" y1="369.37" x2="1762.32" y2="412.67"/><line class="cls-3" x1="1774.12" y1="369.37" x2="1774.12" y2="391.02"/><line class="cls-3" x1="1787.37" y1="369.42" x2="1787.21" y2="412.71"/><line class="cls-3" x1="1799.01" y1="369.42" x2="1799.01" y2="391.07"/><line class="cls-3" x1="1809.61" y1="369.34" x2="1809.45" y2="412.64"/><line class="cls-3" x1="1821.25" y1="369.34" x2="1821.25" y2="390.99"/><line class="cls-3" x1="1834.5" y1="369.39" x2="1834.34" y2="412.69"/><line class="cls-3" x1="1846.13" y1="369.39" x2="1846.13" y2="391.04"/><line class="cls-3" x1="1858.87" y1="369.24" x2="1858.7" y2="412.54"/><line class="cls-3" x1="1870.5" y1="369.24" x2="1870.5" y2="390.89"/><line class="cls-3" x1="1883.75" y1="369.29" x2="1883.59" y2="412.59"/><line class="cls-3" x1="1895.39" y1="369.29" x2="1895.39" y2="390.94"/><line class="cls-3" x1="1905.99" y1="369.22" x2="1905.83" y2="412.51"/><line class="cls-3" x1="1917.63" y1="369.22" x2="1917.63" y2="390.86"/><line class="cls-3" x1="1930.88" y1="369.26" x2="1930.72" y2="412.56"/><line class="cls-3" x1="1942.52" y1="369.26" x2="1942.52" y2="390.91"/><line class="cls-3" x1="1954.44" y1="369.27" x2="1954.28" y2="412.56"/><line class="cls-3" x1="1967.24" y1="369.61" x2="1967.24" y2="391.26"/><line class="cls-3" x1="1980.49" y1="369.66" x2="1980.33" y2="412.95"/><line class="cls-3" x1="1992.12" y1="369.66" x2="1992.12" y2="391.3"/><line class="cls-3" x1="2002.73" y1="369.58" x2="2002.56" y2="412.88"/><line class="cls-3" x1="2014.36" y1="369.58" x2="2014.36" y2="391.23"/><line class="cls-3" x1="2027.61" y1="369.63" x2="2027.45" y2="412.93"/><line class="cls-3" x1="2039.25" y1="369.63" x2="2039.25" y2="391.28"/><line class="cls-3" x1="2051.98" y1="369.48" x2="2051.82" y2="412.78"/><line class="cls-3" x1="2063.62" y1="369.48" x2="2063.62" y2="391.13"/><line class="cls-3" x1="2076.87" y1="369.53" x2="2076.71" y2="412.82"/><line class="cls-3" x1="2088.51" y1="369.53" x2="2088.51" y2="391.18"/><line class="cls-3" x1="2099.11" y1="369.45" x2="2098.95" y2="412.75"/><line class="cls-3" x1="2110.75" y1="369.45" x2="2110.75" y2="391.1"/><line class="cls-3" x1="2124" y1="369.5" x2="2123.84" y2="412.8"/><line class="cls-3" x1="2135.63" y1="369.5" x2="2135.63" y2="391.15"/><line class="cls-3" x1="2145.88" y1="369.25" x2="2145.72" y2="412.55"/><line class="cls-3" x1="2157.51" y1="369.25" x2="2157.51" y2="390.9"/><line class="cls-3" x1="2170.77" y1="369.3" x2="2170.6" y2="412.6"/><line class="cls-3" x1="2182.4" y1="369.3" x2="2182.4" y2="390.95"/><line class="cls-3" x1="2193.01" y1="369.23" x2="2192.84" y2="412.52"/><line class="cls-3" x1="2204.64" y1="369.23" x2="2204.64" y2="390.88"/><line class="cls-3" x1="2217.89" y1="369.28" x2="2217.73" y2="412.57"/><path class="cls-4" d="M1877,306.68l51.42-45.91,269.68,301.75c4.4,4.93,4.73,11.82.73,15.39l-38.52,34.36c-3.29,2.94-8.9,2-12.53-2Z"/><path class="cls-5" d="M1864.86,286a63.07,63.07,0,0,0-40-19.44,3.9,3.9,0,0,1-3.51-3.9,106.82,106.82,0,0,0-27.08-71.63l22.55-20.66a104.67,104.67,0,0,0,68.57,31.77,4,4,0,0,1,3.68,3.72A74.45,74.45,0,0,0,1906.39,249Z"/><path class="cls-6" d="M1802.07,184.56l44.78,48.55a10,10,0,0,0,15.84,10.72c4.22-3.4,5.11-10.08,1.74-14.22a10.39,10.39,0,0,0-9.93-3.33L1809,177.64Z"/><path class="cls-2" d="M1856.43,293.57l59.94-53.47a2.25,2.25,0,0,1,3.07.57l13,14.53a2.25,2.25,0,0,1,.21,3.12l-59.94,53.47a2.25,2.25,0,0,1-3.07-.57l-13-14.53A2.25,2.25,0,0,1,1856.43,293.57Z"/><path class="cls-7" d="M2084.67,237.89l88.46-60.37,12.49,12.28L2136,290.07Z"/><path class="cls-8" d="M2088.15,239.41A40.11,40.11,0,0,1,2098.8,235c3.62-.88,6.55-1.58,8.27.08s1.28,4.25,1,7A34.73,34.73,0,0,1,2104,254.4a35.36,35.36,0,0,1,11.32-4.63c2.6-.51,4.58-0.87,6.16.13,2.43,1.54,2.17,5.22,2,7.63-0.35,5-2.61,9.66-4.08,12.32a15.19,15.19,0,0,1,9.42-4.81c1.66-.14,4.3-0.37,6.34,1.38,2.31,2,2.29,5.17,2.28,6.41a11.67,11.67,0,0,1-3.15,7.64L1912.3,525.28l-43.63-43.76Z"/><path class="cls-9" d="M1914.89,527.88l222.29-244.49a11.81,11.81,0,0,0,1.61-7,11.67,11.67,0,0,0-3.69-7.5,12,12,0,0,0-9.21-2.85,12.76,12.76,0,0,0-7.76,3.84L1898.51,511.44Z"/><polygon class="cls-10" points="1874.32 570.47 1828.28 524.28 1870.69 477.63 1916.73 523.81 1874.32 570.47"/><path class="cls-11" d="M1849.45,537.66l41.36-45.87-10.72-10.56-41.75,45.9Z"/><path class="cls-12" d="M1833.74,609.95l-41.11-41.21c-1.27-1.27-.54-4.23,1.62-6.6l35-38.47,45.87,46-34.67,38.15C1838.08,610.35,1835.1,611.31,1833.74,609.95Z"/><polygon class="cls-6" points="2156.89 191.45 2176.18 210.5 2192.7 172.19 2156.89 191.45"/><path class="cls-13" d="M1832.52,613.2c2.31,2.32,6.78,1.35,10-2.16l297.65-327.56a8.15,8.15,0,0,0,1.34-2l49.59-105.61a1.39,1.39,0,0,0-2-1.8L2088,233.11a7.77,7.77,0,0,0-1.85,1.51l-294.91,327a8.28,8.28,0,0,0,.25,11.33Z"/><path class="cls-14" d="M1829.43,520l54.4,50.33"/><path class="cls-15" d="M1887.63,495.53L2105,256.09a31.48,31.48,0,0,0,2.93-8c0.67-3.2,1.48-7.1-.42-9.76s-5.68-2.42-8.52-2.24a23.09,23.09,0,0,0-9.56,3L1871.8,479.65Z"/><path class="cls-14" d="M1870.92,474.24l54,51.3"/><path class="cls-16" d="M2087,234.24c0.69-.22,9.63-2.88,16.5,3.36a18.58,18.58,0,0,1,5.65,11.44,14.72,14.72,0,0,1,10.09,3.5c5.35,4.61,5.45,11.45,5.45,12.43a13.61,13.61,0,0,1,8.85,3.06c5.14,4.41,6.59,13.31,3.11,21.86"/><path class="cls-6" d="M1759,114.58l3.51-9.66a0.91,0.91,0,0,1,1.75.08l2.8,10a3.64,3.64,0,0,0,2.1,2.4l9.17,3.75a1,1,0,0,1-.07,1.85l-9.4,2.93a3.58,3.58,0,0,0-2.28,2.22l-3.52,9.67a0.91,0.91,0,0,1-1.75-.08l-2.8-10a3.64,3.64,0,0,0-2.1-2.41l-9.16-3.75a1,1,0,0,1,.07-1.85l9.39-2.93A3.6,3.6,0,0,0,1759,114.58Z"/><path class="cls-6" d="M1793.71,136.37l2.19-6a0.57,0.57,0,0,1,1.09,0l1.75,6.21a2.27,2.27,0,0,0,1.31,1.5l5.71,2.34a0.62,0.62,0,0,1,0,1.15l-5.86,1.83a2.23,2.23,0,0,0-1.42,1.38l-2.19,6a0.57,0.57,0,0,1-1.09,0l-1.75-6.21a2.27,2.27,0,0,0-1.31-1.5l-5.71-2.34a0.62,0.62,0,0,1,0-1.15l5.86-1.83A2.24,2.24,0,0,0,1793.71,136.37Z"/><path class="cls-6" d="M1756.45,156.06l1.36-3.76a0.35,0.35,0,0,1,.68,0l1.09,3.87a1.41,1.41,0,0,0,.82.93l3.56,1.46a0.39,0.39,0,0,1,0,.72l-3.65,1.14a1.39,1.39,0,0,0-.88.86l-1.37,3.76a0.35,0.35,0,0,1-.68,0l-1.09-3.87a1.42,1.42,0,0,0-.82-0.93l-3.56-1.46a0.39,0.39,0,0,1,0-.72l3.65-1.14A1.4,1.4,0,0,0,1756.45,156.06Z"/><path class="cls-6" d="M2234.64,114.1l9.31-3.52A0.94,0.94,0,0,1,2245,112l-5.48,8.73a3.88,3.88,0,0,0-.41,3.24l3.13,9.74a1,1,0,0,1-1.39,1.15l-8.17-5.57a3.34,3.34,0,0,0-3.08-.36l-9.32,3.52a0.94,0.94,0,0,1-1.06-1.44l5.48-8.73a3.89,3.89,0,0,0,.41-3.24l-3.13-9.74a1,1,0,0,1,1.39-1.15l8.16,5.56A3.36,3.36,0,0,0,2234.64,114.1Z"/><path class="cls-6" d="M2223.43,154.3l6.21,0a0.59,0.59,0,0,1,.3,1.08l-5.13,3.87a2.42,2.42,0,0,0-1,1.8l-0.33,6.37a0.6,0.6,0,0,1-1.07.36l-3.52-5.06a2.08,2.08,0,0,0-1.72-.89l-6.21,0a0.59,0.59,0,0,1-.3-1.08l5.13-3.87a2.42,2.42,0,0,0,1-1.8l0.33-6.37a0.6,0.6,0,0,1,1.07-.36l3.52,5.05A2.1,2.1,0,0,0,2223.43,154.3Z"/><path class="cls-6" d="M2195.88,129.88h3.87a0.37,0.37,0,0,1,.19.67l-3.2,2.41a1.51,1.51,0,0,0-.6,1.12l-0.21,4a0.37,0.37,0,0,1-.67.23l-2.2-3.15a1.3,1.3,0,0,0-1.07-.56h-3.87a0.37,0.37,0,0,1-.19-0.67l3.2-2.41a1.51,1.51,0,0,0,.6-1.12l0.21-4a0.37,0.37,0,0,1,.67-0.23l2.19,3.15A1.31,1.31,0,0,0,2195.88,129.88Z"/><rect class="cls-1" width="1313.32" height="742.19"/><path class="cls-17" d="M515.54,547.16l-102.2-177a36.67,36.67,0,0,1,0-36.67l102.2-177a36.67,36.67,0,0,1,31.76-18.33H751.69a36.67,36.67,0,0,1,31.76,18.33l102.2,177a36.67,36.67,0,0,1,0,36.67l-102.2,177a36.67,36.67,0,0,1-31.76,18.33H547.29A36.67,36.67,0,0,1,515.54,547.16Z"/><polygon class="cls-1" points="808.13 430.5 740.03 430.5 661.34 299.97 695.38 243.49 808.13 430.5"/><path class="cls-1" d="M646.62,300.13l-35-55.14-34,54.66,34.31,58.11"/><polygon class="cls-1" points="725.57 430.5 657.45 430.5 620.01 368.38 654.06 311.9 725.57 430.5"/><polygon class="cls-1" points="497.36 430.5 565.47 430.5 602.91 368.38 568.87 311.9 497.36 430.5"/></svg>