<?xml version="1.0" encoding="utf-8"?>
<!-- Generator: Adobe Illustrator 19.2.1, SVG Export Plug-In . SVG Version: 6.00 Build 0)  -->
<svg version="1.1" id="Layer_1" xmlns="http://www.w3.org/2000/svg" xmlns:xlink="http://www.w3.org/1999/xlink" x="0px" y="0px"
	 viewBox="0 0 54.1 48.7" style="enable-background:new 0 0 54.1 48.7;" xml:space="preserve">
<style type="text/css">
	.st0{fill:#6EC399;}
	.st1{fill:#6EC399;stroke:#F9F9F9;stroke-width:0.5571;stroke-miterlimit:10;}
	.st2{fill:none;stroke:#6EC399;stroke-width:0.2294;stroke-miterlimit:10;}
	.st3{fill:none;stroke:#F9F9F9;stroke-width:0.3605;stroke-miterlimit:10;}
	.st4{fill:#F9F9F9;stroke:#F9F9F9;stroke-width:0.5571;stroke-miterlimit:10;}
	.st5{fill:none;stroke:#F9F9F9;stroke-width:0.5571;stroke-miterlimit:10;}
	.st6{fill:#F9F9F9;}
	.st7{fill:none;stroke:#6EC399;stroke-width:0.6773;stroke-miterlimit:10;}
	.st8{fill:none;stroke:#6EC399;stroke-width:0.6336;stroke-linecap:round;stroke-miterlimit:10;}
	.st9{fill:none;stroke:#6EC399;stroke-width:0.5353;stroke-linecap:round;stroke-miterlimit:10;}
</style>
<title>icon-nav</title>
<path class="st0" d="M0.1-0.1L0.1-0.1L0,32.9L0.1,33l0.2,0.1L1,33.5l24.2,14.7c1.1,0.7,2.5,0.7,3.7,0l24.2-14.7l0.7-0.4L54,33
	l0.2-0.1V0l-0.1-0.1H0.1z"/>
<path class="st1" d="M28.1,17.9h11.9c0.2,0,0.4,0.2,0.4,0.4V22c0,0.2-0.2,0.4-0.4,0.4h-8.1"/>
<path class="st1" d="M21.2,22.4H13c-0.2,0-0.4-0.2-0.4-0.4v-3.7c0-0.2,0.2-0.4,0.4-0.4h12.1"/>
<line class="st2" x1="26.8" y1="21.9" x2="26.7" y2="21.9"/>
<line class="st3" x1="14.2" y1="18.2" x2="14.2" y2="20.2"/>
<line class="st3" x1="15.2" y1="18.2" x2="15.2" y2="19.2"/>
<line class="st3" x1="16.2" y1="18.2" x2="16.2" y2="20.2"/>
<line class="st3" x1="17.1" y1="18.2" x2="17.1" y2="19.2"/>
<line class="st3" x1="18.2" y1="18.2" x2="18.2" y2="20.2"/>
<line class="st2" x1="23.3" y1="17.6" x2="23.3" y2="18.7"/>
<line class="st3" x1="21.1" y1="18.2" x2="21.1" y2="19.3"/>
<path class="st4" d="M29.2,19.5l2.6,2.9l5.8,6.6c0.2,0.2,0.2,0.6,0,0.8l-2.1,1.9c-0.2,0.2-0.5,0.1-0.7-0.1c0,0,0,0,0,0l-8.1-9.1
	l-0.1-0.1"/>
<path class="st5" d="M19.5,13.9c-0.3-0.3-0.6-0.5-1-0.7c-0.4-0.2-0.8-0.3-1.2-0.4c-0.1,0-0.2-0.1-0.2-0.2c0-0.7-0.1-1.3-0.3-1.9
	c-0.2-0.7-0.6-1.4-1.1-2L17,7.6c0.6,0.6,1.3,1,2,1.3c0.5,0.2,1.1,0.3,1.7,0.4c0.1,0,0.2,0.1,0.2,0.2c0,0.5,0.1,0.9,0.3,1.3
	c0.2,0.4,0.4,0.7,0.6,1L19.5,13.9z"/>
<path class="st6" d="M16.1,8.3l2.4,2.6c-0.1,0.2,0,0.5,0.2,0.6c0.2,0.1,0.5,0.1,0.7,0c0.2-0.2,0.3-0.5,0.1-0.8
	c-0.1-0.2-0.3-0.2-0.5-0.2l-2.4-2.7L16.1,8.3z"/>
<line class="st3" x1="22.1" y1="18.2" x2="22.1" y2="20.3"/>
<path class="st5" d="M19,14.3l3.3-2.9c0,0,0.1,0,0.2,0l0.7,0.8c0,0,0,0.1,0,0.2l-3.3,2.9c0,0-0.1,0-0.2,0L19,14.5
	C19,14.4,19,14.4,19,14.3z"/>
<path class="st6" d="M35.6,8.9l0.7,0.6c0.1,0.1,0.2,0.1,0.2,0c0,0,0,0,0,0l0.6-1.3c0-0.1,0-0.2-0.1-0.2c0,0-0.1,0-0.1,0l-1.3,0.7
	C35.5,8.7,35.5,8.8,35.6,8.9C35.6,8.9,35.6,8.9,35.6,8.9z"/>
<path class="st5" d="M17.7,31.7c0.1,0,0.2,0,0.3,0c0.1,0,0.2-0.1,0.2-0.2l16.2-17.8c0,0,0.1-0.1,0.1-0.1l2.7-5.7
	c0-0.1,0-0.1-0.1-0.1c-1.8,1.1-3.7,2.2-5.5,3.2c0,0-0.1,0-0.1,0.1c-5.4,5.9-10.7,11.9-16,17.8c-0.2,0.2-0.2,0.4,0,0.6L17.7,31.7z"/>
<path class="st4" d="M24.1,19.4L22.8,18l-2.6-2.9l0,0c0.9-0.8,1.9-1.7,2.8-2.5l0,0l3.6,4"/>
<line class="st3" x1="31.4" y1="18.2" x2="31.4" y2="20.3"/>
<path class="st4" d="M31.5,11.1l-16.2,18c-0.1,0.1-0.1,0.3,0,0.4l2.4,2.3c0.1,0.1,0.3,0.1,0.4,0l16.3-18c0-0.3-0.2-0.5-0.4-0.7
	c-0.2-0.1-0.4-0.2-0.6-0.2c0-0.5-0.5-0.9-1-0.9c0,0,0,0,0,0c0-0.2-0.1-0.3-0.2-0.5C32.1,11.3,31.8,11.1,31.5,11.1z"/>
<line class="st7" x1="17" y1="26.6" x2="20.4" y2="29.7"/>
<line class="st8" x1="31.2" y1="13.2" x2="18.2" y2="27.6"/>
<line class="st8" x1="32.5" y1="14.2" x2="19.4" y2="28.8"/>
<line class="st3" x1="19.2" y1="18.2" x2="19.2" y2="19.2"/>
<line class="st3" x1="20.2" y1="18.2" x2="20.2" y2="20.3"/>
<line class="st3" x1="32.4" y1="18.2" x2="32.4" y2="19.2"/>
<line class="st3" x1="33.3" y1="18.2" x2="33.3" y2="20.3"/>
<line class="st3" x1="34.3" y1="18.2" x2="34.3" y2="19.3"/>
<line class="st3" x1="35.3" y1="18.2" x2="35.3" y2="20.3"/>
<line class="st3" x1="38.3" y1="18.2" x2="38.3" y2="19.3"/>
<line class="st3" x1="37.4" y1="18.2" x2="37.4" y2="20.3"/>
<line class="st3" x1="36.3" y1="18.3" x2="36.3" y2="19.3"/>
<line class="st3" x1="37.3" y1="18.3" x2="37.3" y2="20.3"/>
<path class="st9" d="M33.4,15.8L21.2,29.3"/>
<path class="st9" d="M30.1,11.9L17.2,26.2"/>
</svg>
