<svg id="Layer_1" data-name="Layer 1" xmlns="http://www.w3.org/2000/svg" viewBox="0 0 17.49 16.64"><defs><style>.cls-1,.cls-2,.cls-4{fill:#6ec399;}.cls-2,.cls-4,.cls-5,.cls-6{stroke:#fff;}.cls-2,.cls-3,.cls-4,.cls-5,.cls-6,.cls-9{stroke-miterlimit:10;}.cls-2,.cls-5,.cls-6{stroke-width:0.34px;}.cls-3,.cls-6,.cls-9{fill:none;}.cls-3,.cls-9{stroke:#6ec399;}.cls-3{stroke-width:0.14px;}.cls-4{stroke-width:0.22px;}.cls-5,.cls-7{fill:#fff;}.cls-8{fill:#f9f9f9;}.cls-9{stroke-linecap:round;stroke-width:0.33px;}</style></defs><title>icon</title><rect class="cls-1" width="17.49" height="16.64"/><path class="cls-2" d="M467.23,544.68h5.37a0.25,0.25,0,0,1,.26.24v2.21a0.24,0.24,0,0,1-.24.24h-4.89" transform="translate(-455.67 -537.31)"/><path class="cls-2" d="M461.29,547.38h-5a0.25,0.25,0,0,1-.26-0.24v-2.22a0.25,0.25,0,0,1,.26-0.24l7.31,0" transform="translate(-455.67 -537.31)"/><line class="cls-3" x1="9.01" y1="9.76" x2="8.92" y2="9.76"/><line class="cls-4" x1="1.42" y1="7.53" x2="1.41" y2="8.76"/><line class="cls-4" x1="2.01" y1="7.53" x2="2.01" y2="8.15"/><line class="cls-4" x1="2.6" y1="7.53" x2="2.6" y2="8.76"/><line class="cls-4" x1="3.16" y1="7.53" x2="3.16" y2="8.15"/><line class="cls-4" x1="3.8" y1="7.53" x2="3.8" y2="8.76"/><line class="cls-3" x1="6.87" y1="7.18" x2="6.87" y2="7.79"/><line class="cls-4" x1="5.57" y1="7.54" x2="5.57" y2="8.16"/><path class="cls-5" d="M466.13,545.64l1.56,1.74,3.52,3.93a0.36,0.36,0,0,1,0,.51L470,553a0.28,0.28,0,0,1-.41-0.07l-4.91-5.5,0-.05" transform="translate(-455.67 -537.31)"/><path class="cls-6" d="M460.26,542.23a2,2,0,0,0-.58-0.43,2.07,2.07,0,0,0-.73-0.21,0.12,0.12,0,0,1-.11-0.12,3.69,3.69,0,0,0-.19-1.18,3.63,3.63,0,0,0-.69-1.19l0.75-.68a3.46,3.46,0,0,0,1.22.81,3.21,3.21,0,0,0,1,.23,0.13,0.13,0,0,1,.12.12,2.27,2.27,0,0,0,.19.79,2.19,2.19,0,0,0,.38.62Z" transform="translate(-455.67 -537.31)"/><path class="cls-7" d="M458.17,538.85l1.47,1.59a0.34,0.34,0,0,0,.12.37,0.32,0.32,0,0,0,.4,0,0.34,0.34,0,0,0,.06-0.46,0.35,0.35,0,0,0-.33-0.11l-1.49-1.59Z" transform="translate(-455.67 -537.31)"/><line class="cls-4" x1="6.18" y1="7.54" x2="6.18" y2="8.77"/><path class="cls-6" d="M460,542.48l2-1.75a0.08,0.08,0,0,1,.1,0l0.43,0.47a0.07,0.07,0,0,1,0,.1l-2,1.75a0.08,0.08,0,0,1-.1,0l-0.43-.47A0.07,0.07,0,0,1,460,542.48Z" transform="translate(-455.67 -537.31)"/><path class="cls-8" d="M470,539.23l0.45,0.38a0.1,0.1,0,0,0,.16,0l0.34-.8a0.1,0.1,0,0,0-.14-0.13l-0.79.42A0.1,0.1,0,0,0,470,539.23Z" transform="translate(-455.67 -537.31)"/><path class="cls-7" d="M458.68,550.07l-1.15,1.3a0.25,0.25,0,0,0,0,.35l1.62,1.49a0.26,0.26,0,0,0,.37,0l1.18-1.26Z" transform="translate(-455.67 -537.31)"/><path class="cls-5" d="M463,545.55l-0.77-.86-1.57-1.76,0,0,1.69-1.5,0,0,2.17,2.43" transform="translate(-455.67 -537.31)"/><line class="cls-4" x1="11.57" y1="7.54" x2="11.56" y2="8.77"/><line class="cls-4" x1="4.39" y1="7.54" x2="4.39" y2="8.15"/><line class="cls-4" x1="5" y1="7.54" x2="5" y2="8.77"/><line class="cls-4" x1="12.17" y1="7.54" x2="12.17" y2="8.16"/><line class="cls-4" x1="12.75" y1="7.54" x2="12.75" y2="8.77"/><line class="cls-4" x1="13.32" y1="7.54" x2="13.32" y2="8.16"/><line class="cls-4" x1="13.95" y1="7.54" x2="13.95" y2="8.77"/><line class="cls-4" x1="15.73" y1="7.54" x2="15.73" y2="8.17"/><line class="cls-4" x1="16.33" y1="7.55" x2="16.33" y2="8.78"/><line class="cls-4" x1="14.55" y1="7.55" x2="14.55" y2="8.16"/><line class="cls-4" x1="15.15" y1="7.55" x2="15.15" y2="8.78"/><path class="cls-9" d="M468.66,543.36l-7.39,8.19" transform="translate(-455.67 -537.31)"/><path class="cls-9" d="M466.69,541l-7.81,8.66" transform="translate(-455.67 -537.31)"/><path class="cls-7" d="M458.93,549.79l8.51-9.41,3.39-2a0.18,0.18,0,0,1,.26.23l-1.55,3.48L461,551.6l-0.48-.44,7.78-8.64a0.19,0.19,0,0,0-.3-0.22l-7.78,8.63-0.47-.42,7.73-8.55a0.19,0.19,0,1,0-.29-0.25l-7.71,8.54Z" transform="translate(-455.67 -537.31)"/><path class="cls-1" d="M467.92,540.49l2.1-1.22,0.32,0.27-1,2.22a0.45,0.45,0,0,0-.46-0.34,0.56,0.56,0,0,0-.56-0.51,0.4,0.4,0,0,0-.06-0.25A0.42,0.42,0,0,0,467.92,540.49Z" transform="translate(-455.67 -537.31)"/></svg>