<svg id="Layer_1" data-name="Layer 1" xmlns="http://www.w3.org/2000/svg" xmlns:xlink="http://www.w3.org/1999/xlink" viewBox="0 0 496.04 301.29"><defs><style>.cls-1,.cls-19,.cls-66{fill:none;}.cls-2{fill:#fcf8d9;}.cls-3{fill:#f5f1e6;}.cls-4{fill:#d0e6f2;}.cls-5{fill:url(#linear-gradient);}.cls-6{opacity:0.93;fill:url(#linear-gradient-2);}.cls-7{fill:url(#linear-gradient-3);}.cls-8{fill:#80b6ca;}.cls-9{fill:#559cc0;}.cls-10{fill:#3481a1;opacity:0.81;}.cls-11{fill:#1c6d86;}.cls-12{fill:#094654;}.cls-13{opacity:0.75;fill:url(#linear-gradient-4);}.cls-14{fill:#b0d1ed;}.cls-15{fill:#c9e2f4;}.cls-16{fill:#d7e8f4;}.cls-17{fill:#fff;}.cls-18{fill:#e7f2f9;}.cls-19{stroke:#fff;}.cls-19,.cls-66{stroke-miterlimit:10;stroke-width:3.78px;}.cls-20{fill:url(#linear-gradient-5);}.cls-21{fill:#fffdfc;}.cls-22{fill:#f5afac;}.cls-23{fill:#f194a6;}.cls-24{fill:#ee7981;}.cls-25{fill:#e16874;}.cls-26{fill:#e7d8b8;}.cls-27{fill:#dbc9a0;}.cls-28{fill:#cbbb93;}.cls-29{fill:#b5a17e;}.cls-30{fill:#bca982;}.cls-31{fill:#867155;}.cls-32,.cls-33,.cls-34,.cls-35,.cls-36{opacity:0.66;}.cls-32{fill:url(#linear-gradient-6);}.cls-33{fill:url(#linear-gradient-7);}.cls-34{fill:url(#linear-gradient-8);}.cls-35{fill:url(#linear-gradient-9);}.cls-36{fill:url(#linear-gradient-10);}.cls-37{fill:#fcf6f5;}.cls-38{fill:#9a8362;}.cls-39{fill:#c9e7f0;}.cls-40{fill:#a0d7ea;}.cls-41{fill:#dff0f4;}.cls-42{fill:#b4deed;}.cls-43{fill:#899482;}.cls-44{fill:#7e8877;}.cls-45{fill:#737c6d;}.cls-46{fill:#6b7265;}.cls-47{fill:#93d1de;}.cls-48{fill:#cace2e;}.cls-49{fill:#f8f2c6;}.cls-50{fill:#c4bc8b;}.cls-51{fill:#666d79;}.cls-52{fill:#dfd9b2;}.cls-53{fill:#e95665;}.cls-54{fill:#3c424b;}.cls-55{fill:#46b7d5;}.cls-56{fill:#8cd0e8;}.cls-57{fill:#72c8e8;}.cls-58{fill:#bdd5e0;}.cls-59{fill:#a2ccdd;}.cls-60{fill:#c33d4c;}.cls-61{fill:#d94453;}.cls-62{fill:#5c626c;}.cls-63{fill:#d54c5a;}.cls-64{fill:#e1f1f7;}.cls-65{fill:#c4e2e9;}.cls-66{stroke:#e8e2b0;}</style><linearGradient id="linear-gradient" x1="83.2" y1="87.99" x2="83.2" y2="187.99" gradientUnits="userSpaceOnUse"><stop offset="0" stop-color="#4879bb"/><stop offset="0.28" stop-color="#b6d6ef"/><stop offset="0.35" stop-color="#d1ebf9"/><stop offset="0.4" stop-color="#dfecd1"/><stop offset="0.47" stop-color="#f0eda0"/></linearGradient><linearGradient id="linear-gradient-2" x1="60.06" y1="120.97" x2="60.06" y2="127.49" gradientUnits="userSpaceOnUse"><stop offset="0.22" stop-color="#fff"/><stop offset="1" stop-color="#e0ecce"/></linearGradient><linearGradient id="linear-gradient-3" x1="82.03" y1="130.98" x2="82.03" y2="147.21" gradientUnits="userSpaceOnUse"><stop offset="0.31" stop-color="#a9cfc7"/><stop offset="0.91" stop-color="#efeda2"/></linearGradient><linearGradient id="linear-gradient-4" x1="102.02" y1="113.31" x2="116.35" y2="113.31" gradientUnits="userSpaceOnUse"><stop offset="0.22" stop-color="#fff"/><stop offset="0.88" stop-color="#9abee3"/></linearGradient><linearGradient id="linear-gradient-5" x1="248.99" y1="85.21" x2="248.99" y2="189.75" gradientUnits="userSpaceOnUse"><stop offset="0" stop-color="#1cb2e2"/><stop offset="0.18" stop-color="#acc9d4"/><stop offset="0.29" stop-color="#f1d4cf"/></linearGradient><linearGradient id="linear-gradient-6" x1="241.84" y1="100.99" x2="241.84" y2="106.27" gradientUnits="userSpaceOnUse"><stop offset="0.1" stop-color="#fff"/><stop offset="0.4" stop-color="#f9fafb"/><stop offset="0.97" stop-color="#c6d0d4"/></linearGradient><linearGradient id="linear-gradient-7" x1="213.47" y1="114.94" x2="213.47" y2="118.12" gradientUnits="userSpaceOnUse"><stop offset="0.1" stop-color="#fff"/><stop offset="0.4" stop-color="#f9fafb"/><stop offset="0.8" stop-color="#faddd5"/></linearGradient><linearGradient id="linear-gradient-8" x1="233.32" y1="119.06" x2="233.32" y2="120.8" xlink:href="#linear-gradient-7"/><linearGradient id="linear-gradient-9" x1="259.62" y1="116.84" x2="259.62" y2="118.58" xlink:href="#linear-gradient-7"/><linearGradient id="linear-gradient-10" x1="285.76" y1="114.05" x2="285.76" y2="116.84" xlink:href="#linear-gradient-7"/></defs><title>image4</title><rect class="cls-1" width="496.04" height="301.29"/><rect class="cls-2" x="330.66" width="165.38" height="301.29"/><rect class="cls-3" x="165.35" width="165.38" height="301.29"/><rect class="cls-4" width="165.38" height="301.29"/><circle class="cls-5" cx="83.2" cy="137.99" r="50"/><circle class="cls-6" cx="60.06" cy="124.23" r="3.26"/><path class="cls-7" d="M29.18,135.34l15.1-3.19a7.95,7.95,0,0,1,3.6.9c0.61-.31,1.26-0.61,2-0.9A25.31,25.31,0,0,1,53.54,131l5.75,1.44a2.73,2.73,0,0,1,1.26-.63,2.82,2.82,0,0,1,2,.36l4.22,1.53a8.56,8.56,0,0,1,2.34-1A8.67,8.67,0,0,1,73,132.6l12.31,2.07,11.6-2.83,4.31,1.28L112,131.79c0.47,0,1.19.07,2.07,0.18,3,0.37,4.28,1.1,6.56,1.62a18.4,18.4,0,0,0,6,.45c2.08-.21,3.52-0.75,6.47-0.72,0.76,0,1.39.05,1.8,0.09L133,145.18l-101.8,2Z"/><path class="cls-8" d="M29.74,138.1a28.79,28.79,0,0,0,5.93-1.21c3.41-1.09,4.79-2.25,7.42-2.29a10.1,10.1,0,0,1,4.58,1.08A57,57,0,0,0,56,138c4,0.77,6.52,1.23,9.71.54A16.62,16.62,0,0,0,71,136.35,11.27,11.27,0,0,1,75,135c2.85-.36,5.22.51,8.22,1.62,1.41,0.52,2.53,1,3.24,1.37l15.91,2.67c0.6-.27,1.48-0.66,2.56-1.08a40.59,40.59,0,0,1,13.35-3.1,29.37,29.37,0,0,1,15.1,4L131,153.34H32.2Z"/><path class="cls-9" d="M133.11,143c-0.55.08-1.39,0.19-2.43,0.27-8.71.63-11.25-2.84-18-2.7-4.44.1-4,1.62-12,2.79a61.84,61.84,0,0,1-9,.65,13.85,13.85,0,0,0-4.4-2.45c-0.26-.09-0.44-0.13-3.06-0.81l-3.15-.81c-1.38-.33-3.89-0.26-8.45,2.34a12.77,12.77,0,0,1-2.52.81,15.46,15.46,0,0,1-6.2-.18c-4.63-.66-5.47,1.72-12,2.16-3.1.21-3.51-.28-6.83-0.36A38.54,38.54,0,0,0,31,147.13l2.74,10.92L131,153.34Z"/><path class="cls-10" d="M30.41,144a25.67,25.67,0,0,1,7.6-1.37c3.19-.08,3.92.53,14.56,2.7,1.75,0.36,4.15.84,7.37,1.44s3.52,0.61,5.93,1.08c4.23,0.83,4.27,1,6.29,1.26a37.63,37.63,0,0,0,6.47.36,32,32,0,0,0,5.57-.72c19.57-4.1,33.26.36,33.26,0.36a27,27,0,0,0,9.35,1.62,25.33,25.33,0,0,0,6.29-.9l-4.67,9.35H34.32Z"/><path class="cls-11" d="M33.2,156.36l5.88,10H93.38a132.06,132.06,0,0,0-12.58-6.83c-10.49-5-16.24-7.62-23.73-7.19A48,48,0,0,0,47,153.92c-3.26,1-6.35,2.41-11.15,2.52A25.65,25.65,0,0,1,33.2,156.36Z"/><path class="cls-12" d="M133.11,149.79a72.23,72.23,0,0,1-10.79.72c-9.61-.08-10.69-2-17.8-1.44-6.18.5-6.18,2-15.28,3.06a51,51,0,0,0-7.73,1.26,44.69,44.69,0,0,0-7.88,2.8,10.82,10.82,0,0,1-4.53,2.24c-2.45.53-3.89-.15-6.65-0.18a20.74,20.74,0,0,0-6.83,1.26c-3.26.92-9.26,1.47-21.31-.36C43.79,177.9,63,189.59,83.49,189,106.28,188.3,126.51,172.46,133.11,149.79Z"/><path class="cls-13" d="M116.35,110.19l-5.41,2q-4.27,1.61-8.44,3.25a0.66,0.66,0,0,0-.44.79,0.64,0.64,0,0,0,.88,0q3.59-1.59,7.22-3.25Q113.28,111.62,116.35,110.19Z"/><path class="cls-12" d="M85,106.16a4.9,4.9,0,0,1,.67.86,0.78,0.78,0,0,1,.22.71,0.49,0.49,0,0,1-.27.2,2.17,2.17,0,0,1-1.35-.24,1.85,1.85,0,0,0-1.79.44c0,0.24,1.66.24,1.69,0.57s-0.73.27-1.25,0.94a2.59,2.59,0,0,0-.4.94,3.85,3.85,0,0,0-.17,2.49c0.15,0.39.23,0.29,0.64,1.11a1.59,1.59,0,0,0,.54.88,1.2,1.2,0,0,0,1.21-.88,2.38,2.38,0,0,1,.13-1,0.37,0.37,0,0,1,.37-0.12c0.25,0.13.1,1.06-.17,1.74-0.68,1.74-1.85,1.64-2.21,3.11a2.65,2.65,0,0,1-.58,1.4,2,2,0,0,1-.71.47c-0.56.24-1.42,0.9-2.76,2.8a9.67,9.67,0,0,0-1.58,4.52A10.69,10.69,0,0,0,78.62,133c0.88,1.65,1.63,2,2.43,3.84a7.59,7.59,0,0,0,1.11,2.06c0.33,0.38.6,0.79,0.91,1.18a0.92,0.92,0,0,1,.24.37,1,1,0,0,1-.2.81,2.31,2.31,0,0,0-.2.54,6.64,6.64,0,0,0,.1,1.82c0,0.6-.11.58-0.1,1.18a4.56,4.56,0,0,0,.27,1.48,2.67,2.67,0,0,1,.74.94,2.61,2.61,0,0,1,.2.64,3.26,3.26,0,0,0,1.65,0,11.07,11.07,0,0,0-.17,1.62,5.08,5.08,0,0,1-.13,1.28,5.17,5.17,0,0,1-.24.67,6,6,0,0,0-.37,1.82l2.19-.3a1.87,1.87,0,0,1-.47-1.08,5.55,5.55,0,0,1,.24-1.08,4.29,4.29,0,0,1,.2-1.48,2.83,2.83,0,0,0,.3-0.54,2.13,2.13,0,0,0,.13-0.61A2.65,2.65,0,0,0,89.1,147a4,4,0,0,0,2.49-.45c0,0.16.06,0.41,0.13,0.72s0.15,0.54.17,0.61a5.37,5.37,0,0,1,0,2.09,12.89,12.89,0,0,0-.07,2l2.26-.44-0.71-1a0.59,0.59,0,0,0,.24-0.15,0.38,0.38,0,0,0,.13-0.29,0.35,0.35,0,0,0-.12-0.2,0.76,0.76,0,0,0-.32-0.2,4,4,0,0,1-.1-1,4,4,0,0,0,0-.91,8.14,8.14,0,0,0-.27-0.78,2.46,2.46,0,0,1-.07-0.88,5.16,5.16,0,0,0,2.33-1.36c0.36-.42.84-0.72,1.19-1.15a0.78,0.78,0,0,1,.4-0.29,1.4,1.4,0,0,1,.74.16s0.13,0,.76.16a3.15,3.15,0,0,0,2.76-.92,3.29,3.29,0,0,1,.52-0.79c0.55-.39,1.13,0,1.51-0.47a1.72,1.72,0,0,0,.3-0.7,1,1,0,0,1,.15-0.61,1.7,1.7,0,0,1,.47.08,0.87,0.87,0,0,0,.52-0.22,4.76,4.76,0,0,0,1.57-1.37,1.15,1.15,0,0,1,.22-0.52,2.62,2.62,0,0,1,.88-0.22c0.42-.16.39-0.4,0.94-0.65,0.26-.12.25-0.05,0.48-0.17a2.61,2.61,0,0,0,.85-0.72,1.55,1.55,0,0,0,.31-0.45,2.11,2.11,0,0,0,0-.92,0.76,0.76,0,0,1,0-.56,0.75,0.75,0,0,1,.47,0,1.25,1.25,0,0,0,1.18-.74,1.61,1.61,0,0,1,.08-0.57,1.55,1.55,0,0,0,.24-0.34,0.8,0.8,0,0,1,.08-0.3,0.32,0.32,0,0,1,.32,0,1.31,1.31,0,0,1,.16,1.12l0.24-.36a7.64,7.64,0,0,1-.05,2.36,25.5,25.5,0,0,1-.69,2.94,0.67,0.67,0,0,0-.07.34,0.61,0.61,0,0,0,.25-0.25,8.1,8.1,0,0,0,1.39-5.55,5.64,5.64,0,0,0-1.28-3,0.6,0.6,0,0,1-.29-0.32,0.62,0.62,0,0,1,.07-0.46,0.51,0.51,0,0,0,.19,0,0.23,0.23,0,0,0,.16-0.06,0.43,0.43,0,0,0,0-.22,0.55,0.55,0,0,1,0-.2c0.08-.12.86,0.09,2.16,0.92a9.18,9.18,0,0,1,2.69,2.27c0.44,0.58.78,1.21,0.83,1.18a2.8,2.8,0,0,0-.26-0.69,8.61,8.61,0,0,0-1.63-2.54,7.91,7.91,0,0,0-3.24-2,3.07,3.07,0,0,0,0-.84c0-.12,0-0.25-0.05-0.51a2.08,2.08,0,0,1,0-.34,0.32,0.32,0,0,1,.07-0.23,0.28,0.28,0,0,1,.25,0,4.17,4.17,0,0,1,.94,2.19,4.09,4.09,0,0,0,0-1.21,2.81,2.81,0,0,0-.12-0.46,1.34,1.34,0,0,0-.21-0.43,0.67,0.67,0,0,0-.17-0.17,0.28,0.28,0,0,1-.13-0.09,0.18,0.18,0,0,1,.13-0.14,8.3,8.3,0,0,1,.9.55,9,9,0,0,1,.86.69,11.58,11.58,0,0,1,1.58,1.78,3.41,3.41,0,0,0-.45-1.18,2.92,2.92,0,0,0-.59-0.78,1,1,0,0,1-.26-0.29,1,1,0,0,1-.12-0.49,18.62,18.62,0,0,1,3.3,3,10.53,10.53,0,0,0-1.54-2.21,11.58,11.58,0,0,0-6.54-3.47c0.35,0,.85-0.08,1.47-0.09h0.66a7.78,7.78,0,0,1,2.23.39,9.6,9.6,0,0,0-5.42-1.26,10.1,10.1,0,0,0-5.28,2.1c-1.39,1-1.23,1.41-3,2.88s-2.85,2.35-4.21,2.39a5.31,5.31,0,0,1-4.58-3c-0.63-1.32-.49-2.64-0.24-5,0.22-2,.57-2.32.4-3.71a11.56,11.56,0,0,0-1-3.37c-0.42-.91-0.64-1.14-1-1.85a12,12,0,0,1-1.25-4.25,2.6,2.6,0,0,0,1.84.83,3.94,3.94,0,0,0,1.51-.52,6.53,6.53,0,0,0,.7-0.4,2.12,2.12,0,0,1-.92-0.12,0.18,0.18,0,0,1-.08-0.15,0.21,0.21,0,0,1,.13-0.07l0.18-.07a0.31,0.31,0,0,0,.21-0.16,0.46,0.46,0,0,0-.33-0.16,3.45,3.45,0,0,0-.4-0.07,1.83,1.83,0,0,1-.46-0.15,2.21,2.21,0,0,0,.81-1c-0.05-.07-0.37.18-0.9,0.22a2.05,2.05,0,0,1-.58,0,2.12,2.12,0,0,1,.56-0.54c0.39-.26.75-0.29,0.74-0.36a1,1,0,0,0-.74-0.07,4.61,4.61,0,0,1-.87.25,0.49,0.49,0,0,1-.41-0.09,0.77,0.77,0,0,1,.25-0.76c0.26-.3.58-0.35,0.56-0.45a0.56,0.56,0,0,0-.45-0.11c-1,0-1.59.64-1.73,0.5a0.56,0.56,0,0,1,.12-0.4,2.54,2.54,0,0,1,.56-0.47,0.82,0.82,0,0,0-.55,0,4.73,4.73,0,0,1-.9.37,0.41,0.41,0,0,1,0-.44,2.61,2.61,0,0,1,.31-0.29,1.72,1.72,0,0,0-1,0,4.39,4.39,0,0,0-1.4.45,1.55,1.55,0,0,0-.76.6,1.21,1.21,0,0,0-.14.63,2.59,2.59,0,0,0-.51-0.07,1.36,1.36,0,0,0-.93.19,0.9,0.9,0,0,0,.42.22A3.54,3.54,0,0,1,85,106.16Z"/><circle class="cls-14" cx="58.52" cy="109.53" r="0.38" transform="translate(-53.62 162.89) rotate(-87.33)"/><circle class="cls-14" cx="59.54" cy="112.56" r="0.38" transform="translate(-55.67 166.8) rotate(-87.33)"/><circle class="cls-14" cx="60.32" cy="106.89" r="0.28" transform="translate(-49.27 162.17) rotate(-87.33)"/><circle class="cls-15" cx="69.37" cy="108.92" r="0.38" transform="translate(-42.66 173.15) rotate(-87.33)"/><circle class="cls-14" cx="61.8" cy="107.6" r="0.14" transform="translate(-48.56 164.33) rotate(-87.33)"/><circle class="cls-15" cx="75.18" cy="102.96" r="0.38" transform="translate(-31.17 173.26) rotate(-87.33)"/><circle class="cls-15" cx="59.61" cy="100.18" r="0.38" transform="translate(-43.23 155.06) rotate(-87.33)"/><circle class="cls-14" cx="66.11" cy="99.49" r="0.14" transform="translate(-36.35 160.9) rotate(-87.33)"/><circle class="cls-14" cx="68.08" cy="99.66" r="0.14" transform="translate(-34.64 163.03) rotate(-87.33)"/><circle class="cls-14" cx="92.59" cy="92.92" r="0.38" transform="translate(-26.05 148.87) rotate(-70.35)"/><circle class="cls-14" cx="89.39" cy="93.01" r="0.38" transform="matrix(0.34, -0.94, 0.94, 0.34, -28.26, 145.92)"/><circle class="cls-14" cx="94.59" cy="95.41" r="0.28" transform="translate(-27.07 152.4) rotate(-70.35)"/><circle class="cls-15" cx="90" cy="103.47" r="0.38" transform="translate(-37.71 153.44) rotate(-70.35)"/><circle class="cls-14" cx="93.48" cy="96.62" r="0.14" transform="translate(-28.95 152.16) rotate(-70.35)"/><circle class="cls-15" cx="94.01" cy="110.77" r="0.38" transform="translate(-41.92 162.06) rotate(-70.35)"/><circle class="cls-15" cx="101.22" cy="96.69" r="0.38" transform="translate(-23.88 159.5) rotate(-70.35)"/><circle class="cls-14" cx="99.98" cy="103.11" r="0.14" transform="translate(-30.75 162.59) rotate(-70.35)"/><circle class="cls-14" cx="99.24" cy="104.94" r="0.14" transform="translate(-32.96 163.11) rotate(-70.35)"/><circle class="cls-14" cx="84.26" cy="91.5" r="0.14" transform="translate(-11.06 171.41) rotate(-87.33)"/><circle class="cls-14" cx="86.23" cy="91.67" r="0.14" transform="matrix(0.05, -1, 1, 0.05, -9.35, 173.54)"/><circle class="cls-14" cx="82.59" cy="93.22" r="0.14" transform="translate(-14.37 171.39) rotate(-87.33)"/><circle class="cls-14" cx="84.56" cy="93.39" r="0.14" transform="translate(-12.66 173.51) rotate(-87.33)"/><circle class="cls-14" cx="50.94" cy="107.35" r="0.38" transform="translate(-58.67 153.24) rotate(-87.33)"/><circle class="cls-16" cx="47.77" cy="114.7" r="0.38" transform="translate(-69.03 157.08) rotate(-87.33)"/><circle class="cls-14" cx="52.73" cy="104.71" r="0.28" transform="translate(-54.32 152.52) rotate(-87.33)"/><circle class="cls-14" cx="54.22" cy="105.42" r="0.14" transform="translate(-53.61 154.67) rotate(-87.33)"/><circle class="cls-15" cx="119.44" cy="114.31" r="0.38" transform="translate(-45.56 124.71) rotate(-47.35)"/><circle class="cls-15" cx="109.3" cy="102.18" r="0.38" transform="translate(-39.91 113.34) rotate(-47.35)"/><circle class="cls-14" cx="114.72" cy="105.83" r="0.14" transform="translate(-40.84 118.5) rotate(-47.35)"/><circle class="cls-14" cx="116.12" cy="107.23" r="0.14" transform="translate(-41.42 119.98) rotate(-47.35)"/><circle class="cls-17" cx="96.37" cy="120.37" r="0.38" transform="translate(-30.3 208.3) rotate(-86.09)"/><circle class="cls-15" cx="112.25" cy="120.75" r="0.38" transform="translate(-15.87 224.49) rotate(-86.09)"/><circle class="cls-17" cx="105.73" cy="121.29" r="0.14" transform="translate(-22.49 218.5) rotate(-86.09)"/><circle class="cls-17" cx="103.77" cy="121.08" r="0.14" transform="translate(-24.11 216.35) rotate(-86.09)"/><circle class="cls-18" cx="76.86" cy="120.97" r="0.38" transform="translate(-47.55 192.12) rotate(-87.33)"/><circle class="cls-17" cx="71.98" cy="122.97" r="0.14" transform="translate(-55.61 186.4) rotate(-86.09)"/><circle class="cls-17" cx="70.02" cy="122.76" r="0.14" transform="translate(-57.23 184.25) rotate(-86.09)"/><circle class="cls-17" cx="55.48" cy="123.74" r="0.14" transform="translate(-58.29 49.94) rotate(-32.88)"/><circle class="cls-17" cx="54.48" cy="122.04" r="0.14" transform="translate(-57.53 49.12) rotate(-32.88)"/><circle class="cls-19" cx="83.02" cy="137.71" r="51.87"/><circle class="cls-20" cx="248.99" cy="137.48" r="52.27"/><circle class="cls-15" cx="223.28" cy="100.4" r="0.38" transform="translate(112.6 318.76) rotate(-87.33)"/><circle class="cls-14" cx="229.83" cy="99.7" r="0.14" transform="translate(119.54 324.64) rotate(-87.33)"/><circle class="cls-14" cx="231.81" cy="99.87" r="0.14" transform="translate(121.26 326.79) rotate(-87.33)"/><circle class="cls-14" cx="256.52" cy="93.08" r="0.38" transform="translate(82.6 303.36) rotate(-70.35)"/><circle class="cls-14" cx="253.3" cy="93.17" r="0.38" transform="translate(80.38 300.38) rotate(-70.35)"/><circle class="cls-14" cx="258.53" cy="95.59" r="0.28" transform="translate(81.57 306.92) rotate(-70.35)"/><circle class="cls-14" cx="257.41" cy="96.81" r="0.14" transform="translate(79.68 306.68) rotate(-70.35)"/><circle class="cls-15" cx="265.21" cy="96.88" r="0.38" transform="translate(84.79 314.07) rotate(-70.35)"/><circle class="cls-14" cx="248.12" cy="91.65" r="0.14" transform="translate(145.03 335.24) rotate(-87.33)"/><circle class="cls-14" cx="250.11" cy="91.82" r="0.14" transform="translate(146.75 337.38) rotate(-87.33)"/><circle class="cls-14" cx="246.44" cy="93.39" r="0.14" transform="translate(141.69 335.21) rotate(-87.33)"/><circle class="cls-14" cx="248.42" cy="93.56" r="0.14" transform="translate(143.41 337.36) rotate(-87.33)"/><circle class="cls-21" cx="272.56" cy="113.69" r="4.03"/><path class="cls-22" d="M301,123.76A24.62,24.62,0,0,1,290.13,127a50.45,50.45,0,0,1-8.65-.63c-1-.12-3.07-0.4-5.62-0.91a32.5,32.5,0,0,1-3.53-.82,24.92,24.92,0,0,0-3-.91,8.24,8.24,0,0,0-2.08-.27,6.35,6.35,0,0,0-2.9.82l-3.17,1.09-4.08-1.72a8,8,0,0,0-2.27-.72,6.47,6.47,0,0,0-3.11.41,20.49,20.49,0,0,1-2.69-.41c-2.56-.56-2.81-1.14-4.17-1.09-1,0-1.23.37-4,1.45-1.23.48-2.25,0.84-2.94,1.06-0.34-.05-0.86-0.13-1.49-0.25-2-.36-2.47-0.58-3.26-0.63a7.49,7.49,0,0,0-3.26.72c-0.24.08-2.21,0.51-6.16,1.36-1.7.37-4.14,0.88-7.16,1.45a41.43,41.43,0,0,1-4.71.54,32.21,32.21,0,0,1-8-.27c-2.09-.37-2.89-0.77-4.62-0.63a20,20,0,0,0-3.44.63c-0.6.16-1.09,0.33-1.45,0.45l-0.77,8.92H302.23Z"/><path class="cls-23" d="M194.12,131.21c0.45,0,1.14,0,2,0,4.72,0,5.75.67,8.63,0.61a25.89,25.89,0,0,0,7.34-1.49,43.78,43.78,0,0,0,5-1.83,25.86,25.86,0,0,0,4.69,1c0.69,0.07,1.35.12,2,.14a27.44,27.44,0,0,0,2.58-1.09,30.15,30.15,0,0,1,2.72-1.36,13.59,13.59,0,0,1,3.6-.41,15.69,15.69,0,0,1,4.48.14c0.51,0.13.43,0.15,2.17,0.68,0.77,0.23,1.49.44,2.58,0.75,0.31,0.09,2.85.8,5,1.36,7.28,1.88,13,3.06,13,3.06,4.53,0.93,10.61,2,18,2.92L194.12,138v-6.83Z"/><path class="cls-24" d="M302.41,135.45c-1.69-.45-4.23-1.13-7.34-2-5.24-1.46-6.36-1.84-8.34-1.81-2.44,0-3.4.65-7.43,1.81a83.61,83.61,0,0,1-9.69,2.17c-1.12,0-2.79-.05-4.8-0.18-4.21-.27-5.93-0.69-9.78-1.18-10.57-1.35-10.78.09-15.49-1.36a11.58,11.58,0,0,0-5.25-.72c-1.61.2-2.41,0.73-4.8,1.36a30.27,30.27,0,0,1-4.35.82c-2.85.21-5.36,0.23-7.43,0.18-4.61-.11-6.91-0.17-8.15-0.63a7,7,0,0,0-3.35-.54A7.93,7.93,0,0,0,204,134s-1.66.63-4.8,1.45a23,23,0,0,1-5.25.72l0.91,8.52,107.36,0.82Z"/><path class="cls-25" d="M302.5,140.89c-19.63.23-27-.47-29.81-1.27a18.82,18.82,0,0,0-6.7-.82,33.71,33.71,0,0,0-4,.63c-1.72.31-4.19,0.69-7.25,1-0.75-.1-1.89-0.27-3.26-0.54-2.18-.44-3.35-0.83-4.08-1-3.16-.72-5.61,1-8.24,1.9s-6.52,1.23-12.23-1a16.52,16.52,0,0,0-2.17-.54,19.46,19.46,0,0,0-5.44-.09c-3.72.23-4-1-8-1.09-3.16-.1-3.87.62-7.25,1a29.74,29.74,0,0,1-10.33-.72l1.36,12.32H300.33Z"/><path class="cls-26" d="M194.12,147.14c2.65-.38,6.56-1,11.22-2.17,8.45-2.07,8.65-3.12,14.95-4.62,5.55-1.33,14.66-3.39,23.92-.41,1.69,0.54,2.08.84,5.3,1.9A92.16,92.16,0,0,0,263,145.37a59.87,59.87,0,0,0,18.17.14L235.66,166H203.75Z"/><path class="cls-27" d="M302,142.95a58.64,58.64,0,0,1-12.18,27.16L223.54,166l1-.63a49.69,49.69,0,0,1,13-6c8.13-2.45,19.05-6.18,21.61-7.07,15.62-5.43,17.38-8.51,26.91-9.78A51.3,51.3,0,0,1,302,142.95Z"/><path class="cls-28" d="M203.75,166L214,178.12l70-1a130.36,130.36,0,0,0-15.36-6.25,134.56,134.56,0,0,0-44.3-6.8A136.65,136.65,0,0,0,203.75,166Z"/><path class="cls-29" d="M292,167c-2.73,3.81-12.82,16.89-31.26,21.34-25.43,6.14-45.19-9.35-47.57-11.28a50.28,50.28,0,0,0,19.57-1.09,66.24,66.24,0,0,0,7.07-2.45c3.38-1.22,9.13-3,29.08-4.89C275,168,282.82,167.41,292,167Z"/><path class="cls-30" d="M205.74,167.18c1.42,0.06,2.58,0,3.33,0a63.93,63.93,0,0,0,7.75-1,24.15,24.15,0,0,1,2.79-.41,32.36,32.36,0,0,1,4.55.34c2.88,0.18,2.91-.3,5,0a32.32,32.32,0,0,1,3.87,1c1.87,0.5,3.41.82,4.42,1q3.75,0.66,3.74,1.22t-2.65.88a13.27,13.27,0,0,0-3.47,0c-2,.27-2.5.83-4.48,1.16a35.84,35.84,0,0,1-4.76,0,35.15,35.15,0,0,0-5-.07c-2.28.27-2.27,0.77-4,.82s-2.39-.5-4.76-0.88a20.25,20.25,0,0,0-4.62-.21Z"/><path class="cls-31" d="M215.48,169.38l8.67,0a2,2,0,0,1-1.16-.91,4,4,0,0,1-.27-1.09c-0.18-.82-0.31-1-0.41-1.44a4.23,4.23,0,0,1,.14-2.17l0.92-3.16q1.27-1.5,2.72-3.06c1.43-1.53,2.84-2.92,4.21-4.18a26.23,26.23,0,0,0,8.19-.31l2.07-1.83-0.65.1-0.78.68,0.34-.78L238.9,151l-0.41,1.56a2.07,2.07,0,0,1-.44.27,2.35,2.35,0,0,1-1.22.17c-0.58-.05,1.22.17-3.16,0l-2.58-.1,2.14-2.07-0.58-.27a37.89,37.89,0,0,1-4.14,3.77c-1,.77-1.75,1.28-3,2.34a36.36,36.36,0,0,0-2.65,2.51l0-2.58c0.14-.31.34-0.76,0.6-1.29a15.79,15.79,0,0,1,1.6-2.92,7.17,7.17,0,0,1,1.7-1.54l2.41-.84-1.46-.07-1.53.31-0.78.75a8.44,8.44,0,0,0-1,1,7.13,7.13,0,0,0-.61,1.09c-0.38.72-.53,1-0.71,1.29a12.67,12.67,0,0,0-1,2.74,5.28,5.28,0,0,1-.15-1.38c0-.41.07-0.54,0.07-1a6,6,0,0,0-.17-1.29,4.89,4.89,0,0,1,.1-2l0.78-1a1.11,1.11,0,0,1-.78-0.41,1.81,1.81,0,0,1,0-1.29c0-.33.12-0.72,0.23-1.16l-0.67-.41a1.82,1.82,0,0,1-.78-0.54,1.34,1.34,0,0,1,.51-1.12l0.49-.42-0.54-.54-0.69,1.47-0.34-1.29-0.2.37,0.24,1.22,0,0.51-1.63-.88-1.19-1.63-0.36,0c0.82,1.13.91,1.44,0.84,1.51a1.79,1.79,0,0,1-.85-0.44,3.9,3.9,0,0,1-.8-0.84l-0.89.12,1.62,1.28,4.76,2.13-0.59,3,0.09,7.29c0,0.23-.05.56-0.1,1a1.23,1.23,0,0,1-.17.78,2.74,2.74,0,0,1-.68-0.92,2.56,2.56,0,0,1-.63-1,1.45,1.45,0,0,1,0-.5c0.09-.59.21-1.73,0.36-3.31l-0.54-3.53-0.48.06,0.43,1.26v2.14a11.1,11.1,0,0,0-.37,3.43l-2-.5a0.84,0.84,0,0,1-.54-0.18,1,1,0,0,1-.27-0.77,7.37,7.37,0,0,0-.5-2.17l-0.35,0,0.24,1.12-0.92-.92-2.28-1.72-1-1.49-0.42.09,1.26,1.8a19.42,19.42,0,0,1,2.51,2c0.38,0.36.73,0.72,1.05,1.07l0.1,0.8-2.62-.65-3.77-3.7-2.65-.28-1.22-2-0.51.1,1.19,1.83-3.67,0-1.63-.94-0.31.2,1.94,1.26,3.84,0,2.75,0.71,3.53,3.51,6.32,1.76a2.4,2.4,0,0,1,1,1.48,2.21,2.21,0,0,1,0,.89,8.47,8.47,0,0,1-2.34,3.64,5.1,5.1,0,0,0,.75,2.31,2.27,2.27,0,0,1-.59,1.09,3,3,0,0,1-.91.59,4.87,4.87,0,0,0-.82.36A2.64,2.64,0,0,0,215.48,169.38Z"/><path class="cls-28" d="M206.15,144.83a13,13,0,0,0-3-.41,6.27,6.27,0,0,1-2.24-.34,1.42,1.42,0,0,1-1-.68c-0.08-.48.78-1,1.9-1.63a8.53,8.53,0,0,1,3.6-1.49c1.2-.11,1.26.26,2.51,0.14,1.42-.14,1.49-0.65,3.06-1a8.91,8.91,0,0,1,4.28.07,14.15,14.15,0,0,1,2,.82c3.58,1.36,5.42-.88,8.29.48,1.22,0.57,1.39,1.22,3,2a1.14,1.14,0,0,1,.75.68,1.26,1.26,0,0,1-.75.88,3.66,3.66,0,0,1-.68.68c-1.21.92-2.72,0.85-4.21,0.68-3.21-.36-3.2-0.79-5.23-1-2.86-.22-2.94.63-5.84,0.27a22.72,22.72,0,0,0-3.6-.41A15.21,15.21,0,0,0,206.15,144.83Z"/><path class="cls-28" d="M222.18,147.55c0.43-.21,1.07-0.54,1.83-1,2.39-1.29,2.92-1.79,3.74-2.17,1.77-.83,2.74-0.13,6.52.14,4.18,0.29,4.43-.46,7.41-0.14a19.07,19.07,0,0,1,7.47,2.51,6.56,6.56,0,0,0,2.45.75,4.33,4.33,0,0,1,2.31.48,1.17,1.17,0,0,1,.61.68c0.14,0.87-1.83,2-3.6,2.51-1.08.3-1.37,0.14-3.74,0.2-4.4.11-4.71,0.67-6.66,0.2a11.4,11.4,0,0,0-2.51-.48c-1.28-.06-1.37.2-2.65,0.2a14.85,14.85,0,0,1-4.14-.75c-1.51-.41-1.35-0.49-2.11-0.61a12.39,12.39,0,0,0-3.87.14c-2.1.28-2.63,0.57-3.06,0.2S221.58,149.47,222.18,147.55Z"/><path class="cls-28" d="M197.25,147.75a5,5,0,0,1,1.36-1,5.56,5.56,0,0,1,2.79-.48c1.16,0.09,1.31.45,2,.27s0.74-.59,1.56-0.82a6.44,6.44,0,0,1,1.9,0,11.58,11.58,0,0,0,2-.2c1.49-.17,2.31.63,4.48,1.49,3.53,1.4,5.32.85,6,2.31a1.52,1.52,0,0,1,.07,1.49c-0.39.44-1.32,0.12-2.31-.07a11.26,11.26,0,0,0-4.28.07,6.09,6.09,0,0,1-3.33.75c-1.78-.15-2.33-1.11-4.08-1.09-1.2,0-1.2.48-2.92,0.88-0.88.2-4.24,1-5.37-.54C196.48,149.84,197.07,148.21,197.25,147.75Z"/><path class="cls-28" d="M224.94,152.85a4.46,4.46,0,0,0-.85-0.41,9.39,9.39,0,0,0-3.19-.2c-1.06,0-.85-0.2-2.14-0.31-2.29-.18-2.3.4-4.28,0.2a2.78,2.78,0,0,0-2,.17,1.89,1.89,0,0,0-.68.92,1.85,1.85,0,0,0,.68,1.09,2.78,2.78,0,0,0,1.83.17c2.15-.1,2.17.36,3.74,0.14a17.48,17.48,0,0,1,2.34-.48,11.26,11.26,0,0,1,2.07.24c1.76,0.2,3.86,0,3.94-.51C226.46,153.69,226.23,153.39,224.94,152.85Z"/><path class="cls-32" d="M231.94,106.27a1.9,1.9,0,0,1,3.08-1,2.43,2.43,0,0,1,1.58-2,2.55,2.55,0,0,1,2.27.37,3.29,3.29,0,0,1,6.43,0,2.69,2.69,0,0,1,2.72.48,2.37,2.37,0,0,1,.66,1.18,1.89,1.89,0,0,1,3.07,1h-19.8Z"/><path class="cls-33" d="M207.81,118.12a1.2,1.2,0,0,1,.72-0.84,1.1,1.1,0,0,1,1,.21,1.45,1.45,0,0,1,.9-1.19,1.4,1.4,0,0,1,1.3.22,1.86,1.86,0,0,1,3.67,0,1.47,1.47,0,0,1,1.55.29,1.46,1.46,0,0,1,.38.71,1.1,1.1,0,0,1,1-.22,1.21,1.21,0,0,1,.73.84H207.81Z"/><path class="cls-34" d="M230.23,120.8a0.66,0.66,0,0,1,.39-0.46,0.6,0.6,0,0,1,.57.11,0.79,0.79,0,0,1,.49-0.65,0.76,0.76,0,0,1,.71.12,1,1,0,0,1,2,0,0.81,0.81,0,0,1,.85.16,0.8,0.8,0,0,1,.21.39,0.6,0.6,0,0,1,.56-0.12,0.66,0.66,0,0,1,.4.46h-6.18Z"/><path class="cls-35" d="M256.52,118.58a0.66,0.66,0,0,1,.39-0.46,0.6,0.6,0,0,1,.57.11,0.79,0.79,0,0,1,.49-0.65,0.76,0.76,0,0,1,.71.12,1,1,0,0,1,2,0,0.81,0.81,0,0,1,.85.16,0.8,0.8,0,0,1,.21.39,0.6,0.6,0,0,1,.56-0.12,0.66,0.66,0,0,1,.4.46h-6.18Z"/><path class="cls-36" d="M280.51,116.84a1,1,0,0,1,1.63-.56,1.29,1.29,0,0,1,.84-1,1.35,1.35,0,0,1,1.2.19,1.74,1.74,0,0,1,3.41,0,1.43,1.43,0,0,1,1.44.25,1.26,1.26,0,0,1,.35.62,1,1,0,0,1,1.63.55H280.51Z"/><circle class="cls-37" cx="276.82" cy="102.12" r="0.38" transform="translate(87.56 328.48) rotate(-70.35)"/><circle class="cls-37" cx="244.99" cy="99.32" r="0.38" transform="translate(69.07 296.65) rotate(-70.35)"/><circle class="cls-37" cx="272.1" cy="107.4" r="0.28" transform="translate(79.45 327.54) rotate(-70.35)"/><circle class="cls-37" cx="265.21" cy="111.47" r="0.14" transform="translate(71.05 323.75) rotate(-70.35)"/><circle class="cls-37" cx="286.15" cy="111.33" r="0.38" transform="translate(85.08 343.38) rotate(-70.35)"/><circle class="cls-37" cx="261.69" cy="103.46" r="0.14" transform="translate(146.16 360.05) rotate(-87.33)"/><circle class="cls-37" cx="263.67" cy="103.63" r="0.14" transform="translate(147.88 362.2) rotate(-87.33)"/><circle class="cls-37" cx="260.01" cy="105.2" r="0.14" transform="translate(142.82 360.03) rotate(-87.33)"/><circle class="cls-37" cx="255.75" cy="108.85" r="0.14" transform="translate(135.12 359.25) rotate(-87.33)"/><circle class="cls-37" cx="237" cy="91.82" r="0.38" transform="translate(70.83 284.14) rotate(-70.35)"/><circle class="cls-37" cx="228.23" cy="107.12" r="0.38" transform="translate(50.6 286.04) rotate(-70.35)"/><circle class="cls-37" cx="236.18" cy="107.12" r="0.28" transform="translate(55.87 293.52) rotate(-70.35)"/><circle class="cls-37" cx="223.28" cy="118.46" r="0.14" transform="translate(36.63 288.9) rotate(-70.35)"/><circle class="cls-37" cx="253.3" cy="121.14" r="0.38" transform="translate(54.03 318.95) rotate(-70.35)"/><circle class="cls-37" cx="216.15" cy="107.49" r="0.14" transform="translate(98.72 318.4) rotate(-87.33)"/><circle class="cls-37" cx="218.13" cy="107.66" r="0.14" transform="translate(100.44 320.54) rotate(-87.33)"/><circle class="cls-37" cx="214.46" cy="109.22" r="0.14" transform="translate(95.38 318.37) rotate(-87.33)"/><circle class="cls-37" cx="207.78" cy="120.73" r="0.14" transform="translate(77.51 322.67) rotate(-87.33)"/><path class="cls-38" d="M256.29,170.11a2.31,2.31,0,0,1,1.36-.86c0.85-.14,1.65.38,1.77,0.18a1.16,1.16,0,0,0-.23-0.5,1.93,1.93,0,0,1,0-1.36,1.82,1.82,0,0,1,.77-0.91,2,2,0,0,1,1.22-.27,1.7,1.7,0,0,1,.45-0.54,1.75,1.75,0,0,1,1-.36,2,2,0,0,1,4-.32,1.37,1.37,0,0,1,1.27-.68,1.4,1.4,0,0,1,1.22,1.31l0.59,0a1.4,1.4,0,0,1,.5-1.09,1.44,1.44,0,0,1,.91-0.27,1.85,1.85,0,0,1,1.27.41,0.58,0.58,0,0,0,1.13.23,1.26,1.26,0,0,1,1.09,0,1.29,1.29,0,0,1,.63.63,1,1,0,0,1,.68.5,1,1,0,0,1,.09.63,0.56,0.56,0,0,1,1.09.23,0.56,0.56,0,0,1,.54-0.32,0.57,0.57,0,0,1,.5.54,1.38,1.38,0,0,1,1.18-.36,1.29,1.29,0,0,1,.72.45,1,1,0,0,1,.59-0.41,7.68,7.68,0,0,0,.82.09,0.47,0.47,0,0,0,0-.5,1.29,1.29,0,0,1,1-2.37,1.84,1.84,0,0,1,3.58-.85,3.95,3.95,0,0,1,2.49.32,1.68,1.68,0,0,1,3.35-.32l1-.59-3,5.12q-5.48,0-11.33.27C270.64,168.44,263.21,169.16,256.29,170.11Z"/><path class="cls-39" d="M361.23,137.71H468.11l-2.59,13.13-102.26.37Z"/><path class="cls-38" d="M222.32,181.89a1.25,1.25,0,0,1,.85-0.34c0.43,0,.54.32,1,0.34a1.64,1.64,0,0,0,.85-0.24c0.41-.22.39-0.38,0.68-0.51a1.28,1.28,0,0,1,1.56.41,1.07,1.07,0,0,1,0,.82l0.75,0.07a1.52,1.52,0,0,1,.61-1.22,1.47,1.47,0,0,1,1.77.17,2.08,2.08,0,0,1,4,1,1.06,1.06,0,0,1,1.3.54,1.78,1.78,0,0,1,1.64,3.06l0.42,0.24a1.48,1.48,0,0,1,2-.48,1.46,1.46,0,0,1,.54,1.66l1.39,0.65a2.25,2.25,0,0,1,2.16-.82,2.8,2.8,0,0,1,5.41-.85,1.58,1.58,0,0,1,1.87-.31,1.56,1.56,0,0,1,.78,1.36l1,0.58a1.84,1.84,0,0,1,.07-1.12,1.76,1.76,0,0,1,1.19-1.05,1.79,1.79,0,0,1,1.39.41,2.3,2.3,0,0,1,.68.78l1.36-.14a1.26,1.26,0,0,1,1-.61,1.23,1.23,0,0,1,1.16,1.09A46.46,46.46,0,0,1,222.32,181.89Z"/><path class="cls-40" d="M368.07,110.34l93.75-.18,3.12,13.5H364.35Z"/><path class="cls-38" d="M230.75,161.91a1.68,1.68,0,0,1,.5-0.82,6.29,6.29,0,0,0,.82-0.54,1.23,1.23,0,0,0,.23-0.86,0.84,0.84,0,0,1,1-1.22,0.54,0.54,0,0,0,.59,0,0.55,0.55,0,0,0,.23-0.41,0.91,0.91,0,0,1,.72-1.13,0.88,0.88,0,0,1,.82.63h0.54a1.21,1.21,0,0,1,.41-1.54,0.91,0.91,0,0,1,.72.08,1.58,1.58,0,0,1,2.76-1.42h1.18a1.35,1.35,0,0,1,1.86.12,1.27,1.27,0,0,1,.09,1.3h0.72a1,1,0,0,1,1.95-.3h1a0.82,0.82,0,0,1,.86-0.77,0.79,0.79,0,0,1,.63.63l0.48,0.12Z"/><path class="cls-38" d="M250.56,155.21a1,1,0,0,1,.8-1.6,1.32,1.32,0,0,1,2.08-1.42,0.81,0.81,0,0,1,.59-0.43,0.77,0.77,0,0,1,.77.43,1.32,1.32,0,0,1,1.31-1.39,1.31,1.31,0,0,1,1.18,1.13,3.12,3.12,0,0,1,1.86.36Z"/><circle class="cls-19" cx="247.99" cy="137.71" r="53.28"/><path class="cls-41" d="M362.9,150.84l103.92-.18-5.45,13-93.47.1Z"/><rect class="cls-42" x="362.9" y="123.66" width="103.92" height="14.05"/><path class="cls-40" d="M461.36,163.78a53.83,53.83,0,0,1-47.8,27.27C383.7,190.44,368.67,165,368,163.78"/><path class="cls-43" d="M398.86,166.28c1,0.05,2.79.12,4.81,0.09a10.44,10.44,0,0,0,2.87-.37c0.35-.1.64-0.2,0.83-0.28l0.83,1.57,5.36,3.51A4.58,4.58,0,0,0,415,173c1,0.76,1.88.71,3.14,1.11a9.27,9.27,0,0,1,3.61,2.21l-20.62-.1Z"/><path class="cls-44" d="M387.12,165.45a13.85,13.85,0,0,1,2.31-.28,24.26,24.26,0,0,1,5.27.65c0.95,0.15,2.37.35,4.16,0.46,0.43,0.72,1.18,2,2.13,3.61,1.14,2,1.35,2.38,1.94,2.59,0.75,0.27,1.12-.15,4.25-0.74a5.47,5.47,0,0,1,1.57-.18c0.93,0.09,1.38.49,2.87,1.2a14.17,14.17,0,0,0,1.94.83,10.37,10.37,0,0,0,3.51.28,7.54,7.54,0,0,1,4.81,2.31l-27.27.17h-4.53Z"/><path class="cls-17" d="M364,121.58a1.58,1.58,0,0,1,1.57.79,1.47,1.47,0,0,1,.09,1,2.62,2.62,0,0,1,4,1.11,4,4,0,0,1,7.21,2.08,8.2,8.2,0,0,1,11-.42,8.86,8.86,0,0,1,1.94,2.4,19.69,19.69,0,0,0,8,6.75,9.21,9.21,0,0,1,9.89,5.82,9.11,9.11,0,0,1-2.4,9.52,3.55,3.55,0,0,1,4.62-.37,3.51,3.51,0,0,1,1.11,3.79,3.06,3.06,0,0,1,3.33,5,2.65,2.65,0,0,1,3.42-.46,2.51,2.51,0,0,1,.83,1.94,1.52,1.52,0,0,1,2.84.74,15.76,15.76,0,0,1,5.3,2.5l-57.93-.1A53.79,53.79,0,0,1,364,121.58Z"/><path class="cls-45" d="M371,166.06a59.94,59.94,0,0,0,16.85-.73L391,174l3.61,1.39v0.91h-15.2q-2.37-2.76-4.77-5.71Q372.77,168.32,371,166.06Z"/><path class="cls-46" d="M371,166.14a27.19,27.19,0,0,0,5.89,2.15,3.35,3.35,0,0,1,1.87.83,9.75,9.75,0,0,1,.83,1.18,7.5,7.5,0,0,0,1.32,1.39c1.21,0.93,1.94.15,3.4,0.9,1.25,0.65.92,1.27,2.57,2.36,1.28,0.85,2.57,1.17,2.52,1.34a1.32,1.32,0,0,1-.73,0c-0.59,0-1.18,0-1.77,0-1.26,0-1.17,0-3.22,0-1.3,0-1.45,0-2.41,0s-1.79.05-1.87,0C378.19,176.25,374.87,175.39,371,166.14Z"/><path class="cls-47" d="M423.16,172.8h-3.34l0.43,0.51,1.13,0.3,0.32-.15,0.65,0Z"/><path class="cls-47" d="M421.79,176.35a18.17,18.17,0,0,1-4.39,1.54,4.81,4.81,0,0,0-2.36,1,4.13,4.13,0,0,0-1.11,1.53,7.89,7.89,0,0,0-3.88,1.39c-1,.7-1,1.14-2.5,2.22a7.9,7.9,0,0,1-2.77,1.53,11.77,11.77,0,0,1-2.77.14,7,7,0,0,0-4.16,2.08l-18.43-11.39h42.38Z"/><path class="cls-43" d="M397.85,173.49a5.91,5.91,0,0,1,3.7,1.2c0.63,0.51.82,0.94,1.66,1.76a12,12,0,0,0,2.5,1.85h-7.86v-4.81Z"/><path class="cls-44" d="M392,178.3c0.25-.23.65-0.61,1.11-1.11,1.65-1.79,2-2.88,3.33-3.42a3.73,3.73,0,0,1,1.39-.28l1,0.83,1.66,0.55v2.5l2.77,0.92H392Z"/><path class="cls-47" d="M416.57,185.41H408l1.11,1.25,2.91,0.72,0.83-.36,1.66,0Z"/><path class="cls-44" d="M408,185.51h8.6l-1.11-2.15-2.91-1.25-0.83.62-1.66.07Z"/><path class="cls-43" d="M412.55,182.11c0.16,0.53.26,1,.32,1.27a2.93,2.93,0,0,0,.23.79c0.14,0.28.23,0.26,0.51,0.69a1.52,1.52,0,0,0,.39.54,1.17,1.17,0,0,0,.62.1c0.36,0,.53,0,0.87,0s0.66,0,1.14,0l-1.18-2.15Z"/><path class="cls-44" d="M419.81,172.79h3.34l-0.43-.74-1.13-.43-0.32.22-0.65,0Z"/><path class="cls-43" d="M421.59,171.62l0.32,0.72a0.73,0.73,0,0,0,.3.42,1.2,1.2,0,0,0,.49,0h0.46l-0.43-.75Z"/><polygon class="cls-44" points="428.49 177.93 426.53 180.66 435.22 180.66 433.65 179.02 429.97 177.93 428.49 177.93"/><polygon class="cls-47" points="428.49 182.11 426.53 180.67 435.22 180.67 433.65 181.54 429.97 182.11 428.49 182.11"/><path class="cls-43" d="M429.22,177.93l0.42,0.44,0.73,0.1a2.21,2.21,0,0,0,.66,1.14l0.8,0.07,0.73,0,0.66,0.95h2L433.65,179,430,177.93h-0.75Z"/><path class="cls-48" d="M367.3,161.21a64.21,64.21,0,0,0,9.06.45c1.77-.05,3.34-0.18,3.34-0.18,2.34-.19,3.59-0.45,7.48-0.65,0,0,9.17-.47,15.95,1.71a13.5,13.5,0,0,1,2.77,1.53c1.26,0.87,1.47,1.36,1.39,1.66-0.42,1.57-9.42.53-10.4,0.42-3-.35-4-0.7-5.51-0.87a12,12,0,0,0-4.56.26,44.39,44.39,0,0,1-4.72.62,49.57,49.57,0,0,1-5.53.26c-1.69,0-3.65-.08-5.81-0.29Z"/><path class="cls-49" d="M385.09,162h15.45a1.66,1.66,0,0,1,1.66,1.66v0a0,0,0,0,1,0,0H383.61a0,0,0,0,1,0,0V163.5A1.48,1.48,0,0,1,385.09,162Z"/><path class="cls-50" d="M400,155.74H385.89a0.94,0.94,0,0,0-.94.83L384.35,162H401.5l-0.57-5.45A0.93,0.93,0,0,0,400,155.74Z"/><path class="cls-51" d="M393,158h0a1.15,1.15,0,0,1,1.15,1.15V162a0,0,0,0,1,0,0h-2.31a0,0,0,0,1,0,0v-2.91A1.16,1.16,0,0,1,393,158Z"/><polygon class="cls-52" points="386.61 155.74 392.99 155.74 392.92 127.68 386.61 127.68 388.35 129.21 386.61 155.74"/><path class="cls-49" d="M399.3,155.74h-6.38V127.68h6.38l-1.73,1.53Z"/><path class="cls-53" d="M388.35,129.2L388,134.48l9.69-3.19-0.13-2.08h-9.22Z"/><polygon class="cls-53" points="387.67 139.54 387.32 144.84 398.38 141.71 398.02 136.15 387.67 139.54"/><path class="cls-53" d="M387,150.2l-0.37,5.54L399,151.67l-0.34-5.17Z"/><path class="cls-49" d="M392.9,147.83h0a0.61,0.61,0,0,1,.61.61v1.79a0,0,0,0,1,0,0h-1.15a0,0,0,0,1,0,0v-1.78A0.62,0.62,0,0,1,392.9,147.83Z"/><rect class="cls-54" x="392.42" y="148.27" width="0.96" height="1.77"/><path class="cls-49" d="M392.9,139.79h0a0.61,0.61,0,0,1,.61.61v1.79a0,0,0,0,1,0,0h-1.15a0,0,0,0,1,0,0v-1.78a0.62,0.62,0,0,1,.62-0.62Z"/><rect class="cls-54" x="392.42" y="140.22" width="0.96" height="1.77"/><path class="cls-49" d="M393,131.66h0a0.61,0.61,0,0,1,.61.61v1.79a0,0,0,0,1,0,0h-1.15a0,0,0,0,1,0,0v-1.78a0.62,0.62,0,0,1,.62-0.62Z"/><rect class="cls-54" x="392.51" y="132.09" width="0.96" height="1.77"/><path class="cls-17" d="M466.82,136.28a1.88,1.88,0,0,0-1.71.83,2,2,0,0,0-.14,1.8,1.47,1.47,0,0,0,0,2.84,2.44,2.44,0,0,0-.83,1.11,2.4,2.4,0,0,0-.14,1,3.86,3.86,0,0,0-5.82,4.09,1.78,1.78,0,0,0-1.87,1.59,2,2,0,0,0-3.12,1.8,4,4,0,0,0-3.4,0,3.86,3.86,0,0,0-1.87,2.22,3,3,0,0,0-1.94.62,2.91,2.91,0,0,0-1,1.46,2.8,2.8,0,0,0-4.92,1.11,1.24,1.24,0,0,0-1.25,1,1.33,1.33,0,0,0,.76,1,1.73,1.73,0,0,0,.83.21,2.49,2.49,0,0,0-1.11.28,1.86,1.86,0,0,0-.69.55,1.8,1.8,0,0,0-.32,1.16,1.17,1.17,0,0,0-1.62-.55,1.15,1.15,0,0,0-.42,1.34,1.13,1.13,0,0,0-1,.18,1.08,1.08,0,0,0-.3,1.2,1.57,1.57,0,0,0-1.53.74h26.84A40.61,40.61,0,0,0,466.82,136.28Z"/><path class="cls-55" d="M376.13,133.41a2.68,2.68,0,0,1,1.63.83,2.65,2.65,0,0,1,.66,1.39,3,3,0,0,1,3-1.46,2.25,2.25,0,0,0-2.84.49,2,2,0,0,0-.87-1.07A2,2,0,0,0,376.13,133.41Z"/><path class="cls-56" d="M379.72,96.29l69.34-.18,12.76,14.24-93.75.18Z"/><path class="cls-57" d="M383.24,96.28a48.77,48.77,0,0,1,63.24,0H383.24Z"/><path class="cls-55" d="M416.83,153.5a2.68,2.68,0,0,1,1.83.07,2.65,2.65,0,0,1,1.18,1,3,3,0,0,1,2.1-2.57,2.25,2.25,0,0,0-2.38,1.63,2,2,0,0,0-1.24-.61A2,2,0,0,0,416.83,153.5Z"/><path class="cls-55" d="M432.37,141.59a2.68,2.68,0,0,1,1.62.85,2.65,2.65,0,0,1,.64,1.4,2.69,2.69,0,0,1,2.42-1.37,2,2,0,0,0-2.27.4,2,2,0,0,0-.85-1.09A2,2,0,0,0,432.37,141.59Z"/><path class="cls-55" d="M442.12,134.05a2.68,2.68,0,0,1,1.76.51,2.65,2.65,0,0,1,.91,1.24,2.69,2.69,0,0,1,2.09-1.83,2,2,0,0,0-2.14.85,2,2,0,0,0-1.05-.89A2,2,0,0,0,442.12,134.05Z"/><path class="cls-55" d="M438.2,128.47a2.14,2.14,0,0,1,1.46.09,2.11,2.11,0,0,1,.92.8,2.15,2.15,0,0,1,1.31-1.79,3.08,3.08,0,0,0-1.61.76,2,2,0,0,0-.88-0.23A2,2,0,0,0,438.2,128.47Z"/><path class="cls-55" d="M402.78,105.55a2.68,2.68,0,0,1,1.83.06,2.65,2.65,0,0,1,1.19,1,2.69,2.69,0,0,1,1.58-2.29,2,2,0,0,0-1.86,1.35,2,2,0,0,0-1.24-.6A2,2,0,0,0,402.78,105.55Z"/><rect class="cls-58" x="388.48" y="121.89" width="8.98" height="5.79"/><rect class="cls-59" x="389.98" y="121.89" width="0.31" height="5.79"/><rect class="cls-59" x="391.92" y="121.89" width="0.31" height="5.79"/><rect class="cls-59" x="393.77" y="121.89" width="0.31" height="5.79"/><rect class="cls-59" x="395.72" y="121.89" width="0.31" height="5.79"/><path class="cls-60" d="M397.59,121.89h-9.32a0.23,0.23,0,1,1,0-.37h9.3A0.2,0.2,0,1,1,397.59,121.89Z"/><path class="cls-53" d="M388.29,121.52a4.72,4.72,0,0,1,1.91-3.4,4.63,4.63,0,0,1,2.68-.68,4.53,4.53,0,0,1,4.76,4.09h-9.36Z"/><rect class="cls-61" x="392.67" y="116.9" width="0.44" height="0.55"/><rect class="cls-61" x="392.38" y="116.45" width="0.98" height="0.44" rx="0.22" ry="0.22"/><path class="cls-61" d="M392.87,111.11h0a0.09,0.09,0,0,1,.09.09v5.26a0,0,0,0,1,0,0h-0.17a0,0,0,0,1,0,0v-5.26a0.08,0.08,0,0,1,.08-0.08Z"/><polygon class="cls-61" points="392.78 111.3 390.44 112.63 392.78 114.02 392.78 111.3"/><polygon class="cls-1" points="388.35 129.21 392.99 129.21 392.92 155.74 386.61 155.74 388.35 129.21"/><rect class="cls-62" x="386.85" y="126.1" width="0.33" height="1.58"/><rect class="cls-62" x="388.54" y="126.1" width="0.33" height="1.58"/><rect class="cls-62" x="389.93" y="126.1" width="0.33" height="1.58"/><rect class="cls-62" x="391.31" y="126.1" width="0.33" height="1.58"/><rect class="cls-62" x="392.67" y="126.1" width="0.33" height="1.58"/><rect class="cls-62" x="394.35" y="126.1" width="0.33" height="1.58"/><rect class="cls-62" x="395.75" y="126.1" width="0.33" height="1.58"/><rect class="cls-62" x="397.13" y="126.1" width="0.33" height="1.58"/><rect class="cls-62" x="398.81" y="126.1" width="0.33" height="1.58"/><rect class="cls-62" x="387.02" y="126.58" width="12.12" height="0.31"/><path class="cls-63" d="M392.87,121.53h-4.58a4.42,4.42,0,0,1,1.44-3.08,4.63,4.63,0,0,1,1.68-.83,4.9,4.9,0,0,1,1.47-.17Z"/><path class="cls-64" d="M409,165.73h1.56a1.34,1.34,0,0,1-.25.14l-0.17.06a1.78,1.78,0,0,1-.2.24l-0.15.14a0.56,0.56,0,0,0-.35-0.29A0.88,0.88,0,0,1,409,165.73Z"/><path class="cls-64" d="M415.85,165.16h1.56a1.34,1.34,0,0,1-.25.14l-0.17.06a1.78,1.78,0,0,1-.2.24l-0.15.14a0.56,0.56,0,0,0-.35-0.29A0.88,0.88,0,0,1,415.85,165.16Z"/><path class="cls-64" d="M416.21,168.54H418a1.54,1.54,0,0,1-.29.15l-0.2.06a2,2,0,0,1-.22.27l-0.17.15a0.63,0.63,0,0,0-.18-0.22,0.64,0.64,0,0,0-.21-0.1,1,1,0,0,1-.26-0.12A1,1,0,0,1,416.21,168.54Z"/><path class="cls-64" d="M422.69,164.66h1.4l-0.15.09-0.08,0-0.14.07a0.25,0.25,0,0,0-.12.07,0.73,0.73,0,0,0-.07.12,0.35,0.35,0,0,1-.14.12,0.49,0.49,0,0,0-.15-0.17,0.51,0.51,0,0,0-.17-0.08,0.8,0.8,0,0,1-.21-0.09A0.78,0.78,0,0,1,422.69,164.66Z"/><path class="cls-64" d="M424,168.86h1.4l-0.15.09-0.08,0-0.14.07a0.25,0.25,0,0,0-.12.07,0.73,0.73,0,0,0-.07.12,0.35,0.35,0,0,1-.14.12,0.49,0.49,0,0,0-.15-0.17,0.51,0.51,0,0,0-.17-0.08,0.8,0.8,0,0,1-.21-0.09A0.78,0.78,0,0,1,424,168.86Z"/><path class="cls-64" d="M427.7,165.74h1.17l-0.12.08-0.07,0a1,1,0,0,0-.22.13,0.67,0.67,0,0,0-.06.11,0.3,0.3,0,0,1-.11.11,0.44,0.44,0,0,0-.12-0.15A0.41,0.41,0,0,0,428,166a0.65,0.65,0,0,1-.17-0.08A0.67,0.67,0,0,1,427.7,165.74Z"/><path class="cls-64" d="M432.14,164.66h1.54l-0.16.09-0.09,0a1.32,1.32,0,0,0-.29.16,0.8,0.8,0,0,0-.07.13,0.38,0.38,0,0,1-.15.13,0.54,0.54,0,0,0-.16-0.19,0.56,0.56,0,0,0-.18-0.09,0.88,0.88,0,0,1-.23-0.1A0.86,0.86,0,0,1,432.14,164.66Z"/><path class="cls-64" d="M432.91,167.71h1.4l-0.15.09-0.08,0a1.21,1.21,0,0,0-.27.14,0.73,0.73,0,0,0-.07.12,0.35,0.35,0,0,1-.14.12,1.54,1.54,0,0,0-.31-0.25,0.8,0.8,0,0,1-.21-0.09A0.78,0.78,0,0,1,432.91,167.71Z"/><path class="cls-64" d="M428,171h1.64l-0.17.12-0.09.05-0.17.1a1.07,1.07,0,0,0-.22.27,0.45,0.45,0,0,1-.16.17,0.68,0.68,0,0,0-.17-0.24,0.56,0.56,0,0,0-.19-0.11,0.87,0.87,0,0,1-.24-0.13A1,1,0,0,1,428,171Z"/><path class="cls-64" d="M439.19,166.33h1.17l-0.12.08-0.07,0a1,1,0,0,0-.22.13,0.67,0.67,0,0,0-.06.11,0.3,0.3,0,0,1-.11.11,0.44,0.44,0,0,0-.12-0.15,0.41,0.41,0,0,0-.14-0.07,0.65,0.65,0,0,1-.17-0.08A0.67,0.67,0,0,1,439.19,166.33Z"/><path class="cls-64" d="M443.16,164.93h1.54l-0.16.09-0.09,0a1.32,1.32,0,0,0-.29.16,0.8,0.8,0,0,0-.07.13,0.38,0.38,0,0,1-.15.13,0.54,0.54,0,0,0-.16-0.19,0.56,0.56,0,0,0-.18-0.09,0.88,0.88,0,0,1-.23-0.1A0.86,0.86,0,0,1,443.16,164.93Z"/><path class="cls-64" d="M443.93,171h1.64l-0.17.12-0.09.05-0.17.1a1.07,1.07,0,0,0-.22.27,0.45,0.45,0,0,1-.16.17,0.68,0.68,0,0,0-.17-0.24,0.56,0.56,0,0,0-.19-0.11,0.87,0.87,0,0,1-.24-0.13A1,1,0,0,1,443.93,171Z"/><path class="cls-64" d="M436.57,170h2.23l-0.24.09-0.13,0a2.31,2.31,0,0,0-.42.16,0.78,0.78,0,0,0-.11.13,0.53,0.53,0,0,1-.22.13,0.65,0.65,0,0,0-.23-0.19,1,1,0,0,0-.26-0.09,1.63,1.63,0,0,1-.33-0.1A1.22,1.22,0,0,1,436.57,170Z"/><path class="cls-64" d="M438.49,173.81h1.4l-0.15.09-0.08,0-0.14.07a0.25,0.25,0,0,0-.12.07,0.73,0.73,0,0,0-.07.12,0.35,0.35,0,0,1-.14.12,0.49,0.49,0,0,0-.15-0.17,0.51,0.51,0,0,0-.17-0.08,0.8,0.8,0,0,1-.21-0.09A0.78,0.78,0,0,1,438.49,173.81Z"/><path class="cls-64" d="M448.08,166.33h1.17l-0.12.08-0.07,0a1,1,0,0,0-.22.13,0.67,0.67,0,0,0-.06.11,0.3,0.3,0,0,1-.11.11,0.44,0.44,0,0,0-.12-0.15,0.41,0.41,0,0,0-.14-0.07,0.65,0.65,0,0,1-.17-0.08A0.67,0.67,0,0,1,448.08,166.33Z"/><path class="cls-64" d="M451.78,170.48h1.54l-0.16.09-0.09,0a1.32,1.32,0,0,0-.29.16,0.8,0.8,0,0,0-.07.13,0.38,0.38,0,0,1-.15.13,0.54,0.54,0,0,0-.16-0.19,0.56,0.56,0,0,0-.18-0.09,0.88,0.88,0,0,1-.23-0.1A0.86,0.86,0,0,1,451.78,170.48Z"/><path class="cls-64" d="M441.21,178.24h2.72l-0.29.12-0.16,0a2.76,2.76,0,0,0-.52.2,1,1,0,0,0-.13.16,0.64,0.64,0,0,1-.26.17,0.79,0.79,0,0,0-.28-0.24,1.2,1.2,0,0,0-.32-0.11,1.94,1.94,0,0,1-.4-0.12A1.48,1.48,0,0,1,441.21,178.24Z"/><path class="cls-65" d="M417.1,179h1.4l-0.15.09-0.08,0-0.14.07a0.25,0.25,0,0,0-.12.07,0.73,0.73,0,0,0-.07.12,0.35,0.35,0,0,1-.14.12,0.49,0.49,0,0,0-.15-0.17,0.51,0.51,0,0,0-.17-0.08,0.8,0.8,0,0,1-.21-0.09A0.78,0.78,0,0,1,417.1,179Z"/><path class="cls-65" d="M432.32,182.57h1.17l-0.12.08-0.07,0a1,1,0,0,0-.22.13,0.67,0.67,0,0,0-.06.11,0.3,0.3,0,0,1-.11.11,0.44,0.44,0,0,0-.12-0.15,0.41,0.41,0,0,0-.14-0.07,0.65,0.65,0,0,1-.17-0.08A0.67,0.67,0,0,1,432.32,182.57Z"/><path class="cls-65" d="M422.69,181.78h1.4l-0.15.09-0.08,0a1.21,1.21,0,0,0-.27.14,0.73,0.73,0,0,0-.07.12,0.35,0.35,0,0,1-.14.12,1.54,1.54,0,0,0-.31-0.25,0.8,0.8,0,0,1-.21-0.09A0.78,0.78,0,0,1,422.69,181.78Z"/><path class="cls-65" d="M420.37,186.83h2.23l-0.24.09-0.13,0a2.31,2.31,0,0,0-.42.16,0.78,0.78,0,0,0-.11.13,0.53,0.53,0,0,1-.22.13,0.65,0.65,0,0,0-.23-0.19,1,1,0,0,0-.26-0.09,1.63,1.63,0,0,1-.33-0.1A1.22,1.22,0,0,1,420.37,186.83Z"/><path class="cls-64" d="M430.7,174.61h2.72l-0.29.12-0.16,0a2.76,2.76,0,0,0-.52.2,1,1,0,0,0-.13.16,0.64,0.64,0,0,1-.26.17,0.79,0.79,0,0,0-.28-0.24,1.2,1.2,0,0,0-.32-0.11,1.94,1.94,0,0,1-.4-0.12A1.48,1.48,0,0,1,430.7,174.61Z"/><circle class="cls-66" cx="414.61" cy="137.32" r="53.28"/></svg>