<svg id="Layer_1" data-name="Layer 1" xmlns="http://www.w3.org/2000/svg" xmlns:xlink="http://www.w3.org/1999/xlink" viewBox="0 0 165.5 158.5"><defs><style>.cls-1,.cls-10{fill:#3c7282;}.cls-1{stroke:#001b2a;}.cls-1,.cls-13,.cls-15,.cls-2,.cls-3,.cls-4,.cls-5{stroke-miterlimit:10;}.cls-1,.cls-13,.cls-4,.cls-5{stroke-width:3px;}.cls-13,.cls-15,.cls-2,.cls-3{fill:none;}.cls-2{stroke:#c0eef2;}.cls-3{stroke:#8cd4e2;stroke-width:0.885px;}.cls-13,.cls-15,.cls-4,.cls-5{stroke:#001a2a;}.cls-4{fill:url(#linear-gradient);}.cls-5{fill:#b7b7b7;}.cls-6{fill:#001a2a;}.cls-7{fill:#e8b17c;}.cls-8{fill:#a1d9e2;}.cls-9{fill:#91d1d8;}.cls-11{fill:#2f616d;}.cls-12{fill:url(#linear-gradient-2);}.cls-14{fill:#c0eef2;}.cls-15{stroke-width:2px;}.cls-16{fill:#b1e8ef;}</style><linearGradient id="linear-gradient" x1="88.277" y1="108.368" x2="101.527" y2="95.868" gradientUnits="userSpaceOnUse"><stop offset="0.532" stop-color="#91d1d8"/><stop offset="0.746" stop-color="#b1e8ef"/></linearGradient><linearGradient id="linear-gradient-2" x1="40.921" y1="129.181" x2="29.943" y2="148.197" gradientUnits="userSpaceOnUse"><stop offset="0.613" stop-color="#d976af"/><stop offset="1" stop-color="#e5a3c9"/></linearGradient></defs><title>line-marque</title><path class="cls-1" d="M152.7,100.5V80.9a2.112,2.112,0,0,0-2.1-2.1H13.3a2.112,2.112,0,0,0-2.1,2.1v19.6a2.112,2.112,0,0,0,2.1,2.1H150.7A2.094,2.094,0,0,0,152.7,100.5Z"/><line class="cls-2" x1="15.8" y1="80.378" x2="15.7" y2="90.722"/><line class="cls-2" x1="20.2" y1="80.378" x2="20.2" y2="85.55"/><line class="cls-2" x1="25" y1="80.378" x2="25" y2="90.722"/><line class="cls-2" x1="29.4" y1="80.378" x2="29.4" y2="85.55"/><line class="cls-2" x1="33.5" y1="80.3" x2="33.4" y2="90.722"/><line class="cls-2" x1="37.9" y1="80.3" x2="37.9" y2="85.55"/><line class="cls-2" x1="42.7" y1="80.378" x2="42.7" y2="90.722"/><line class="cls-2" x1="47.1" y1="80.378" x2="47.1" y2="85.55"/><line class="cls-2" x1="51.8" y1="80.3" x2="51.7" y2="90.722"/><line class="cls-2" x1="56.2" y1="80.3" x2="56.2" y2="85.55"/><line class="cls-2" x1="61" y1="80.3" x2="61" y2="90.722"/><line class="cls-2" x1="65.4" y1="80.3" x2="65.4" y2="85.55"/><line class="cls-3" x1="68.1" y1="80.3" x2="68.1" y2="85.55"/><line class="cls-3" x1="71.6" y1="80.3" x2="71.5" y2="90.722"/><line class="cls-3" x1="75.3" y1="80.378" x2="75.3" y2="85.628"/><line class="cls-3" x1="79.1" y1="80.378" x2="79.1" y2="90.8"/><line class="cls-3" x1="82.5" y1="80.378" x2="82.5" y2="85.628"/><line class="cls-3" x1="85.6" y1="80.378" x2="85.6" y2="90.8"/><line class="cls-3" x1="89" y1="80.378" x2="89" y2="85.628"/><line class="cls-3" x1="92.8" y1="80.378" x2="92.8" y2="90.8"/><line class="cls-2" x1="99.5" y1="80.378" x2="99.5" y2="85.55"/><line class="cls-2" x1="103.6" y1="80.378" x2="103.6" y2="90.8"/><line class="cls-2" x1="108" y1="80.378" x2="108" y2="85.55"/><line class="cls-2" x1="112.8" y1="80.378" x2="112.8" y2="90.8"/><line class="cls-2" x1="117.2" y1="80.378" x2="117.2" y2="85.55"/><line class="cls-2" x1="121.2" y1="80.3" x2="121.2" y2="90.722"/><line class="cls-2" x1="125.6" y1="80.3" x2="125.6" y2="85.55"/><line class="cls-2" x1="130.4" y1="80.3" x2="130.4" y2="90.722"/><line class="cls-2" x1="134.8" y1="80.3" x2="134.8" y2="85.55"/><line class="cls-2" x1="138.9" y1="80.3" x2="138.9" y2="90.722"/><line class="cls-2" x1="143.3" y1="80.3" x2="143.3" y2="85.472"/><line class="cls-2" x1="148.1" y1="80.3" x2="148.1" y2="90.722"/><path class="cls-4" d="M47.8,63c5-4.4,10-8.9,14.9-13.3q39.15,43.8,78.4,87.7a3.179,3.179,0,0,1,.2,4.5l-11.2,10a2.524,2.524,0,0,1-3.6-.6Z"/><path class="cls-5" d="M44.3,57a17.629,17.629,0,0,0-5.1-3.8,18.286,18.286,0,0,0-6.5-1.9,1.09,1.09,0,0,1-1-1.1A32.62,32.62,0,0,0,30,39.8a32.077,32.077,0,0,0-6.1-10.5l6.6-6a30.644,30.644,0,0,0,10.8,7.2,28.4,28.4,0,0,0,9.1,2,1.182,1.182,0,0,1,1.1,1.1,20.077,20.077,0,0,0,1.7,7,19.356,19.356,0,0,0,3.4,5.5Z"/><path class="cls-6" d="M26,27.6c4.3,4.7,8.7,9.4,13,14.1A2.992,2.992,0,0,0,40.1,45a2.856,2.856,0,0,0,3.5-.2,2.989,2.989,0,0,0,.5-4.1,3.117,3.117,0,0,0-2.9-1L28,25.6Z"/><path class="cls-1" d="M41.8,59.2L59.2,43.7a0.682,0.682,0,0,1,.9.2l3.8,4.2a0.647,0.647,0,0,1,.1.9L46.6,64.5a0.682,0.682,0,0,1-.9-0.2l-3.8-4.2A0.647,0.647,0,0,1,41.8,59.2Z"/><path class="cls-7" d="M108.2,43.1c8.6-5.8,17.1-11.7,25.7-17.5l3.6,3.6L123.1,58.3C118.1,53.2,113.1,48.1,108.2,43.1Z"/><path class="cls-8" d="M109.2,43.5a12.875,12.875,0,0,1,3.1-1.3c1.1-.3,1.9-0.5,2.4,0,0.5,0.4.4,1.2,0.3,2a11,11,0,0,1-1.2,3.6,8.941,8.941,0,0,1,3.3-1.3,2.735,2.735,0,0,1,1.8,0c0.7,0.4.6,1.5,0.6,2.2a10.121,10.121,0,0,1-1.2,3.6,4.244,4.244,0,0,1,2.7-1.4,2.409,2.409,0,0,1,1.8.4,2.382,2.382,0,0,1,.7,1.9,3.222,3.222,0,0,1-.9,2.2Q90.35,90.95,58.1,126.6L45.4,113.9Q77.35,78.65,109.2,43.5Z"/><path class="cls-9" d="M58.8,127.3l64.6-71.1a3.02,3.02,0,0,0,.5-2,3.071,3.071,0,0,0-1.1-2.2,3.341,3.341,0,0,0-2.7-.8,4,4,0,0,0-2.3,1.1Q85.85,87.4,54,122.5Z"/><polygon class="cls-10" points="47 139.7 33.7 126.3 46 112.7 59.4 126.2 47 139.7"/><path class="cls-11" d="M40.8,130.2c4-4.4,8-8.9,12-13.3-1-1-2.1-2-3.1-3.1-4,4.4-8.1,8.9-12.1,13.3C38.7,128.1,39.7,129.2,40.8,130.2Z"/><path class="cls-12" d="M35.2,151.2l-11.9-12c-0.4-.4-0.2-1.2.5-1.9l11.033-11.633,13.167,13L37.2,150.6a1.206,1.206,0,0,1-.867.9A1.273,1.273,0,0,1,35.2,151.2Z"/><path class="cls-6" d="M129.2,29.6l6.05,4.9L139.6,24Z"/><path class="cls-13" d="M34.9,152.1a2.271,2.271,0,0,0,1.683.233A2.242,2.242,0,0,0,37.8,151.5l86.5-95.2a2.092,2.092,0,0,0,.4-0.6c4.8-10.2,9.6-20.5,14.4-30.7,0.2-.4-0.2-0.7-0.6-0.5-9.8,5.7-19.6,11.4-29.4,17.2a2.181,2.181,0,0,0-.5.4q-42.9,47.55-85.7,95a2.457,2.457,0,0,0,.1,3.3Z"/><path class="cls-13" d="M34,124.4l15.667,14.933"/><path class="cls-14" d="M50.9,117.9q31.65-34.8,63.2-69.6A10.972,10.972,0,0,0,115,46a3.828,3.828,0,0,0-.1-2.8c-0.6-.8-1.6-0.7-2.5-0.7a7.651,7.651,0,0,0-2.8.9L46.3,113.3C47.8,114.9,49.4,116.4,50.9,117.9Z"/><path class="cls-15" d="M108.9,42a5.131,5.131,0,0,1,4.8,1,5.26,5.26,0,0,1,1.6,3.3,4.408,4.408,0,0,1,2.9,1,4.7,4.7,0,0,1,1.6,3.6,3.88,3.88,0,0,1,2.6.9c1.5,1.3,1.9,3.9.9,6.4"/><path class="cls-16" d="M9.859,7.462l0.677-3.435c0.064-.367.431-0.3,0.582-0.087l1.437,3.238a1.245,1.245,0,0,0,.821.711L16.712,8.7c0.25,0.082.32,0.548,0.087,0.582L13.811,10.8a1.583,1.583,0,0,0-.711.821l-0.677,3.435c-0.064.367-.431,0.3-0.582,0.087L10.4,11.906a1.245,1.245,0,0,0-.821-0.711l-3.336-.811C6,10.3,5.927,9.836,6.16,9.8L9.148,8.283A0.882,0.882,0,0,0,9.859,7.462Z"/><path class="cls-16" d="M23.884,12.867l0.385-2.2a0.182,0.182,0,0,1,.349-0.052l0.9,2.009a0.635,0.635,0,0,0,.536.4l2.1,0.519c0.134,0.1.169,0.332,0.052,0.349l-1.893.878a0.919,0.919,0,0,0-.4.536l-0.385,2.2a0.182,0.182,0,0,1-.349.052l-0.9-2.009a0.635,0.635,0,0,0-.536-0.4l-2.1-.519c-0.134-.1-0.169-0.332-0.052-0.349l1.893-.878A0.635,0.635,0,0,0,23.884,12.867Z"/><path class="cls-16" d="M13.117,22.484l0.274-1.351c-0.017-.116.216-0.151,0.233-0.035l0.541,1.229a0.624,0.624,0,0,0,.285.315l1.234,0.292c0.116-.017.151,0.216,0.035,0.233l-1.229.541a0.5,0.5,0,0,0-.3.4L13.919,25.46c0.017,0.116-.216.151-0.233,0.035l-0.541-1.229a0.624,0.624,0,0,0-.285-0.315l-1.234-.292c-0.116.017-.151-0.216-0.035-0.233l1.229-.541Z"/><path class="cls-16" d="M153.244,6.762l3.7-1.372c0.274-.137.686,0.274,0.412,0.549l-2.195,3.429a1.333,1.333,0,0,0-.137,1.235l1.234,3.841a0.346,0.346,0,0,1-.549.412l-3.292-2.195a1.333,1.333,0,0,0-1.234-.137l-3.7,1.372c-0.274.137-.686-0.274-0.412-0.549l2.195-3.429a1.333,1.333,0,0,0,.137-1.235l-1.234-3.841a0.346,0.346,0,0,1,.549-0.412l3.292,2.195A1.834,1.834,0,0,0,153.244,6.762Z"/><path class="cls-16" d="M152.089,21.81h2.469c0.274,0,.274.274,0.137,0.412l-2.058,1.509a0.754,0.754,0,0,0-.412.686l-0.137,2.606c0,0.274-.274.274-0.412,0.137L150.306,25.1a0.754,0.754,0,0,0-.686-0.412h-2.469c-0.274,0-.274-0.274-0.137-0.412l2.058-1.509a0.754,0.754,0,0,0,.412-0.686l0.137-2.606c0-.274.274-0.274,0.412-0.137L151.4,21.4A0.754,0.754,0,0,0,152.089,21.81Z"/><path class="cls-16" d="M138.347,14.769h1.528c0.139,0,.139.139,0.139,0.278l-1.25.972a0.736,0.736,0,0,0-.278.417L138.347,18.1c0,0.139-.139.139-0.278,0.139l-0.833-1.25a0.736,0.736,0,0,0-.417-0.278h-1.528c-0.139,0-.139-0.139-0.139-0.278l1.25-.972a0.736,0.736,0,0,0,.278-0.417l0.139-1.667c0-.139.139-0.139,0.278-0.139l0.833,1.25A0.736,0.736,0,0,0,138.347,14.769Z"/><path class="cls-13" d="M45.6,111.8c5.2,5,10.5,9.9,15.7,14.9"/></svg>