<svg id="Layer_1" data-name="Layer 1" xmlns="http://www.w3.org/2000/svg" viewBox="0 0 15.5 15.438"><defs><style>.cls-1,.cls-2,.cls-7{fill:none;}.cls-1,.cls-3,.cls-6,.cls-7{stroke:#fff;}.cls-1,.cls-2,.cls-3,.cls-6,.cls-7{stroke-miterlimit:10;}.cls-1{stroke-width:0.275px;}.cls-2{stroke:#6ec399;stroke-width:0.11px;}.cls-3,.cls-6{fill:#6ec399;}.cls-3{stroke-width:0.176px;}.cls-4{fill:#fff;}.cls-5{fill:#f9f9f9;}.cls-6{stroke-width:0.188px;}.cls-7{stroke-width:0.389px;}</style></defs><title>line-marque</title><path class="cls-1" d="M9.882,8.017c1.43,0,2.86,0,4.291.008a0.2,0.2,0,0,1,.208.2v1.817a0.2,0.2,0,0,1-.192.2H10.282"/><path class="cls-1" d="M6.334,8.044l-0.109,0c-0.264-.006-0.461,0-0.516,0l-0.894,0c-1.218,0-2.432-.006-3.652-0.012a0.2,0.2,0,0,0-.2.2v1.817a0.2,0.2,0,0,0,.2.2H5.134"/><line class="cls-2" x1="7.846" y1="9.981" x2="7.769" y2="9.981"/><line class="cls-3" x1="1.778" y1="8.148" x2="1.769" y2="9.158"/><line class="cls-3" x1="2.255" y1="8.147" x2="2.255" y2="8.652"/><line class="cls-3" x1="2.722" y1="8.147" x2="2.722" y2="9.157"/><line class="cls-3" x1="3.174" y1="8.143" x2="3.174" y2="8.656"/><line class="cls-3" x1="3.681" y1="8.147" x2="3.681" y2="9.157"/><line class="cls-2" x1="6.137" y1="7.858" x2="6.137" y2="8.364"/><line class="cls-3" x1="5.098" y1="8.15" x2="5.098" y2="8.663"/><path class="cls-1" d="M4.312,6a1.6,1.6,0,0,0-.461-0.353A1.616,1.616,0,0,0,3.264,5.47a0.1,0.1,0,0,1-.09-0.1A3.112,3.112,0,0,0,3.021,4.4,3,3,0,0,0,2.47,3.425l0.6-.558a2.766,2.766,0,0,0,.975.669,2.5,2.5,0,0,0,.822.186,0.108,0.108,0,0,1,.1.1,1.911,1.911,0,0,0,.154.651,1.807,1.807,0,0,0,.307.511Z"/><path class="cls-4" d="M2.644,3.221c0.388,0.437.786,0.874,1.174,1.31a0.283,0.283,0,0,0,.1.307A0.252,0.252,0,0,0,4.233,4.82a0.283,0.283,0,0,0,.045-0.381,0.277,0.277,0,0,0-.262-0.093L2.824,3.035Z"/><line class="cls-3" x1="5.579" y1="8.158" x2="5.579" y2="9.168"/><path class="cls-5" d="M12.072,3.533l0.359,0.314a0.081,0.081,0,0,0,.13-0.032l0.269-.662a0.084,0.084,0,0,0-.115-0.108l-0.628.348A0.086,0.086,0,0,0,12.072,3.533Z"/><line class="cls-6" x1="9.891" y1="8.017" x2="9.882" y2="9.166"/><line class="cls-3" x1="4.155" y1="8.153" x2="4.155" y2="8.658"/><line class="cls-3" x1="4.637" y1="8.153" x2="4.637" y2="9.163"/><line class="cls-3" x1="10.369" y1="8.155" x2="10.369" y2="8.66"/><line class="cls-3" x1="10.836" y1="8.155" x2="10.836" y2="9.165"/><line class="cls-3" x1="11.288" y1="8.151" x2="11.288" y2="8.664"/><line class="cls-3" x1="11.794" y1="8.155" x2="11.794" y2="9.165"/><line class="cls-3" x1="13.211" y1="8.158" x2="13.211" y2="8.671"/><line class="cls-3" x1="13.693" y1="8.166" x2="13.693" y2="9.176"/><line class="cls-3" x1="12.268" y1="8.161" x2="12.268" y2="8.666"/><line class="cls-3" x1="12.75" y1="8.161" x2="12.75" y2="9.171"/><path class="cls-4" d="M12.756,2.869L10.047,4.481l-6.8,7.737L3.655,12.6q3.08-3.515,6.16-7.022a0.154,0.154,0,0,1,.232-0.008,0.166,0.166,0,0,1,0,.214L3.871,12.81l0.375,0.345,6.216-7.087a0.149,0.149,0,0,1,.216-0.008,0.152,0.152,0,0,1,.024.181L4.452,13.381,4.87,13.706,11.725,5.92l1.238-2.861A0.148,0.148,0,0,0,12.756,2.869ZM11.533,5.624a0.355,0.355,0,0,0-.36-0.288,0.394,0.394,0,0,0-.455-0.411,0.285,0.285,0,0,0,0-.081A0.327,0.327,0,0,0,10.528,4.6a0.314,0.314,0,0,0-.1-0.025l1.678-1L12.372,3.79Z"/><path class="cls-4" d="M9.357,9.015L7.947,10.63l3.786,4.332a0.225,0.225,0,0,0,.324.019l1.23-1.127a0.223,0.223,0,0,0,.017-0.31Z"/><path class="cls-4" d="M6.137,8.541L7.553,6.935,6.091,5.256,4.548,6.664,5.712,8.039Z"/><rect class="cls-7" x="3.933" y="5.367" width="2.394" height="0.65" rx="0.063" ry="0.063" transform="translate(-2.49 4.888) rotate(-41.947)"/><path class="cls-4" d="M3.248,12.218L4.87,13.706,3.7,14.972a0.2,0.2,0,0,1-.278.012l-1.309-1.19A0.221,0.221,0,0,1,2.1,13.482Z"/><path class="cls-4" d="M0.772,0.832l0.093-.47c0.009-.05.059-0.041,0.08-0.012l0.2,0.443a0.17,0.17,0,0,0,.112.1L1.709,1c0.034,0.011.044,0.075,0.012,0.08l-0.408.208a0.216,0.216,0,0,0-.1.112l-0.093.47c-0.009.05-.059,0.041-0.08,0.012l-0.2-.443a0.17,0.17,0,0,0-.112-0.1L0.279,1.231C0.244,1.22.235,1.156,0.267,1.151l0.408-.208A0.121,0.121,0,0,0,.772.832Z"/><path class="cls-4" d="M2.583,1.33l0.053-.3a0.025,0.025,0,0,1,.048-0.007L2.806,1.3a0.087,0.087,0,0,0,.073.054L3.167,1.422C3.185,1.436,3.19,1.467,3.174,1.47l-0.259.12a0.126,0.126,0,0,0-.054.073l-0.053.3a0.025,0.025,0,0,1-.048.007L2.638,1.7a0.087,0.087,0,0,0-.073-0.054L2.278,1.571C2.259,1.558,2.254,1.526,2.27,1.523L2.529,1.4A0.087,0.087,0,0,0,2.583,1.33Z"/><path class="cls-4" d="M1.178,2.775l0.04-.2c0-.017.031-0.022,0.034-0.005L1.331,2.752a0.091,0.091,0,0,0,.042.046l0.18,0.043c0.017,0,.022.031,0.005,0.034l-0.179.079a0.073,0.073,0,0,0-.043.059l-0.04.2c0,0.017-.031.022-0.034,0.005L1.182,3.035a0.091,0.091,0,0,0-.042-0.046l-0.18-.043c-0.017,0-.022-0.031-0.005-0.034l0.179-.079Z"/><path class="cls-4" d="M14.626,0.74l0.5-.184c0.037-.018.092,0.037,0.055,0.074l-0.3.461a0.179,0.179,0,0,0-.018.166l0.166,0.516a0.047,0.047,0,0,1-.074.055l-0.443-.3a0.179,0.179,0,0,0-.166-0.018l-0.5.184c-0.037.018-.092-0.037-0.055-0.074l0.3-.461A0.179,0.179,0,0,0,14.11,1l-0.166-.516A0.047,0.047,0,0,1,14.018.427l0.443,0.3A0.247,0.247,0,0,0,14.626.74Z"/><path class="cls-4" d="M14.387,2.7h0.332c0.037,0,.037.037,0.018,0.055l-0.277.2a0.1,0.1,0,0,0-.055.092l-0.018.35c0,0.037-.037.037-0.055,0.018l-0.184-.277a0.1,0.1,0,0,0-.092-0.055H13.723c-0.037,0-.037-0.037-0.018-0.055l0.277-.2a0.1,0.1,0,0,0,.055-0.092l0.018-.35c0-.037.037-0.037,0.055-0.018L14.3,2.645A0.1,0.1,0,0,0,14.387,2.7Z"/><path class="cls-4" d="M12.68,1.646h0.149c0.014,0,.014.014,0.014,0.027l-0.122.1a0.072,0.072,0,0,0-.027.041l-0.014.163c0,0.014-.014.014-0.027,0.014l-0.081-.122a0.072,0.072,0,0,0-.041-0.027H12.381c-0.014,0-.014-0.014-0.014-0.027l0.122-.1a0.072,0.072,0,0,0,.027-0.041l0.014-.163c0-.014.014-0.014,0.027-0.014l0.081,0.122A0.072,0.072,0,0,0,12.68,1.646Z"/></svg>