<svg id="Layer_1" data-name="Layer 1" xmlns="http://www.w3.org/2000/svg" xmlns:xlink="http://www.w3.org/1999/xlink" viewBox="0 0 151.43 150.16"><defs><style>.cls-1,.cls-10{fill:#3c7282;}.cls-1{stroke:#001b2a;}.cls-1,.cls-13,.cls-15,.cls-2,.cls-3,.cls-4,.cls-5{stroke-miterlimit:10;}.cls-1,.cls-13,.cls-4,.cls-5{stroke-width:3px;}.cls-13,.cls-15,.cls-2,.cls-3{fill:none;}.cls-2{stroke:#c0eef2;}.cls-3{stroke:#8cd4e2;stroke-width:0.89px;}.cls-13,.cls-15,.cls-4,.cls-5{stroke:#001a2a;}.cls-4{fill:url(#linear-gradient);}.cls-5{fill:#b7b7b7;}.cls-6{fill:#001a2a;}.cls-7{fill:#e8b17c;}.cls-8{fill:#a1d9e2;}.cls-9{fill:#91d1d8;}.cls-11{fill:#2f616d;}.cls-12{fill:url(#linear-gradient-2);}.cls-14{fill:#c0eef2;}.cls-15{stroke-width:2px;}.cls-16{fill:#b1e8ef;}</style><linearGradient id="linear-gradient" x1="88.28" y1="108.37" x2="101.53" y2="95.87" gradientUnits="userSpaceOnUse"><stop offset="0.53" stop-color="#91d1d8"/><stop offset="0.75" stop-color="#b1e8ef"/></linearGradient><linearGradient id="linear-gradient-2" x1="40.92" y1="129.18" x2="29.94" y2="148.2" gradientUnits="userSpaceOnUse"><stop offset="0.61" stop-color="#d976af"/><stop offset="1" stop-color="#e5a3c9"/></linearGradient></defs><title>marque</title><path class="cls-1" d="M152.7,100.5V80.9a2.11,2.11,0,0,0-2.1-2.1H13.3a2.11,2.11,0,0,0-2.1,2.1v19.6a2.11,2.11,0,0,0,2.1,2.1H150.7A2.09,2.09,0,0,0,152.7,100.5Z" transform="translate(-6.02 -3.77)"/><line class="cls-2" x1="9.78" y1="76.61" x2="9.68" y2="86.96"/><line class="cls-2" x1="14.18" y1="76.61" x2="14.18" y2="81.78"/><line class="cls-2" x1="18.98" y1="76.61" x2="18.98" y2="86.96"/><line class="cls-2" x1="23.38" y1="76.61" x2="23.38" y2="81.78"/><line class="cls-2" x1="27.48" y1="76.53" x2="27.38" y2="86.96"/><line class="cls-2" x1="31.88" y1="76.53" x2="31.88" y2="81.78"/><line class="cls-2" x1="36.68" y1="76.61" x2="36.68" y2="86.96"/><line class="cls-2" x1="41.08" y1="76.61" x2="41.08" y2="81.78"/><line class="cls-2" x1="45.78" y1="76.53" x2="45.68" y2="86.96"/><line class="cls-2" x1="50.18" y1="76.53" x2="50.18" y2="81.78"/><line class="cls-2" x1="54.98" y1="76.53" x2="54.98" y2="86.96"/><line class="cls-2" x1="59.38" y1="76.53" x2="59.38" y2="81.78"/><line class="cls-3" x1="62.08" y1="76.53" x2="62.08" y2="81.78"/><line class="cls-3" x1="65.58" y1="76.53" x2="65.48" y2="86.96"/><line class="cls-3" x1="69.28" y1="76.61" x2="69.28" y2="81.86"/><line class="cls-3" x1="73.08" y1="76.61" x2="73.08" y2="87.03"/><line class="cls-3" x1="76.48" y1="76.61" x2="76.48" y2="81.86"/><line class="cls-3" x1="79.58" y1="76.61" x2="79.58" y2="87.03"/><line class="cls-3" x1="82.98" y1="76.61" x2="82.98" y2="81.86"/><line class="cls-3" x1="86.78" y1="76.61" x2="86.78" y2="87.03"/><line class="cls-2" x1="93.48" y1="76.61" x2="93.48" y2="81.78"/><line class="cls-2" x1="97.58" y1="76.61" x2="97.58" y2="87.03"/><line class="cls-2" x1="101.98" y1="76.61" x2="101.98" y2="81.78"/><line class="cls-2" x1="106.78" y1="76.61" x2="106.78" y2="87.03"/><line class="cls-2" x1="111.18" y1="76.61" x2="111.18" y2="81.78"/><line class="cls-2" x1="115.18" y1="76.53" x2="115.18" y2="86.96"/><line class="cls-2" x1="119.58" y1="76.53" x2="119.58" y2="81.78"/><line class="cls-2" x1="124.38" y1="76.53" x2="124.38" y2="86.96"/><line class="cls-2" x1="128.78" y1="76.53" x2="128.78" y2="81.78"/><line class="cls-2" x1="132.88" y1="76.53" x2="132.88" y2="86.96"/><line class="cls-2" x1="137.28" y1="76.53" x2="137.28" y2="81.71"/><line class="cls-2" x1="142.08" y1="76.53" x2="142.08" y2="86.96"/><path class="cls-4" d="M47.8,63c5-4.4,10-8.9,14.9-13.3l78.4,87.7a3.18,3.18,0,0,1,.2,4.5l-11.2,10a2.52,2.52,0,0,1-3.6-.6Z" transform="translate(-6.02 -3.77)"/><path class="cls-5" d="M44.3,57a17.63,17.63,0,0,0-5.1-3.8,18.29,18.29,0,0,0-6.5-1.9,1.09,1.09,0,0,1-1-1.1A32.62,32.62,0,0,0,30,39.8a32.08,32.08,0,0,0-6.1-10.5l6.6-6a30.64,30.64,0,0,0,10.8,7.2,28.4,28.4,0,0,0,9.1,2,1.18,1.18,0,0,1,1.1,1.1,20.08,20.08,0,0,0,1.7,7,19.36,19.36,0,0,0,3.4,5.5Z" transform="translate(-6.02 -3.77)"/><path class="cls-6" d="M26,27.6c4.3,4.7,8.7,9.4,13,14.1A3,3,0,0,0,40.1,45a2.86,2.86,0,0,0,3.5-.2,3,3,0,0,0,.5-4.1,3.12,3.12,0,0,0-2.9-1L28,25.6Z" transform="translate(-6.02 -3.77)"/><path class="cls-1" d="M41.8,59.2L59.2,43.7a0.68,0.68,0,0,1,.9.2l3.8,4.2a0.65,0.65,0,0,1,.1.9L46.6,64.5a0.68,0.68,0,0,1-.9-0.2l-3.8-4.2A0.65,0.65,0,0,1,41.8,59.2Z" transform="translate(-6.02 -3.77)"/><path class="cls-7" d="M108.2,43.1c8.6-5.8,17.1-11.7,25.7-17.5l3.6,3.6L123.1,58.3Z" transform="translate(-6.02 -3.77)"/><path class="cls-8" d="M109.2,43.5a12.87,12.87,0,0,1,3.1-1.3c1.1-.3,1.9-0.5,2.4,0s0.4,1.2.3,2a11,11,0,0,1-1.2,3.6,8.94,8.94,0,0,1,3.3-1.3,2.74,2.74,0,0,1,1.8,0c0.7,0.4.6,1.5,0.6,2.2a10.12,10.12,0,0,1-1.2,3.6,4.24,4.24,0,0,1,2.7-1.4,2.41,2.41,0,0,1,1.8.4,2.38,2.38,0,0,1,.7,1.9,3.22,3.22,0,0,1-.9,2.2Q90.35,91,58.1,126.6L45.4,113.9Q77.35,78.65,109.2,43.5Z" transform="translate(-6.02 -3.77)"/><path class="cls-9" d="M58.8,127.3l64.6-71.1a3,3,0,0,0,.5-2,3.07,3.07,0,0,0-1.1-2.2,3.34,3.34,0,0,0-2.7-.8,4,4,0,0,0-2.3,1.1Q85.85,87.4,54,122.5Z" transform="translate(-6.02 -3.77)"/><polygon class="cls-10" points="40.98 135.94 27.68 122.53 39.98 108.94 53.38 122.44 40.98 135.94"/><path class="cls-11" d="M40.8,130.2c4-4.4,8-8.9,12-13.3-1-1-2.1-2-3.1-3.1L37.6,127.1C38.7,128.1,39.7,129.2,40.8,130.2Z" transform="translate(-6.02 -3.77)"/><path class="cls-12" d="M35.2,151.2l-11.9-12c-0.4-.4-0.2-1.2.5-1.9l11-11.63,13.17,13L37.2,150.6a1.21,1.21,0,0,1-.87.9A1.27,1.27,0,0,1,35.2,151.2Z" transform="translate(-6.02 -3.77)"/><path class="cls-6" d="M129.2,29.6l6.05,4.9L139.6,24Z" transform="translate(-6.02 -3.77)"/><path class="cls-13" d="M34.9,152.1a2.27,2.27,0,0,0,1.68.23,2.24,2.24,0,0,0,1.22-.83l86.5-95.2a2.09,2.09,0,0,0,.4-0.6c4.8-10.2,9.6-20.5,14.4-30.7,0.2-.4-0.2-0.7-0.6-0.5-9.8,5.7-19.6,11.4-29.4,17.2a2.18,2.18,0,0,0-.5.4q-42.9,47.55-85.7,95a2.46,2.46,0,0,0,.1,3.3Z" transform="translate(-6.02 -3.77)"/><path class="cls-13" d="M34,124.4l15.67,14.93" transform="translate(-6.02 -3.77)"/><path class="cls-14" d="M50.9,117.9q31.65-34.8,63.2-69.6A11,11,0,0,0,115,46a3.83,3.83,0,0,0-.1-2.8c-0.6-.8-1.6-0.7-2.5-0.7a7.65,7.65,0,0,0-2.8.9L46.3,113.3C47.8,114.9,49.4,116.4,50.9,117.9Z" transform="translate(-6.02 -3.77)"/><path class="cls-15" d="M108.9,42a5.13,5.13,0,0,1,4.8,1,5.26,5.26,0,0,1,1.6,3.3,4.41,4.41,0,0,1,2.9,1,4.7,4.7,0,0,1,1.6,3.6,3.88,3.88,0,0,1,2.6.9c1.5,1.3,1.9,3.9.9,6.4" transform="translate(-6.02 -3.77)"/><path class="cls-16" d="M9.86,7.46L10.54,4c0.06-.37.43-0.3,0.58-0.09l1.44,3.24a1.25,1.25,0,0,0,.82.71L16.71,8.7C17,8.78,17,9.25,16.8,9.28l-3,1.52a1.58,1.58,0,0,0-.71.82l-0.68,3.44c-0.06.37-.43,0.3-0.58,0.09L10.4,11.91a1.25,1.25,0,0,0-.82-0.71l-3.34-.81C6,10.3,5.93,9.84,6.16,9.8l3-1.52A0.88,0.88,0,0,0,9.86,7.46Z" transform="translate(-6.02 -3.77)"/><path class="cls-16" d="M23.88,12.87l0.39-2.2a0.18,0.18,0,0,1,.35-0.05l0.9,2A0.63,0.63,0,0,0,26,13l2.1,0.52c0.13,0.1.17,0.33,0.05,0.35l-1.89.88a0.92,0.92,0,0,0-.4.54l-0.39,2.2a0.18,0.18,0,0,1-.35.05l-0.9-2a0.63,0.63,0,0,0-.54-0.4l-2.1-.52c-0.13-.1-0.17-0.33-0.05-0.35l1.89-.88A0.63,0.63,0,0,0,23.88,12.87Z" transform="translate(-6.02 -3.77)"/><path class="cls-16" d="M13.12,22.48l0.27-1.35c0-.12.22-0.15,0.23,0l0.54,1.23a0.62,0.62,0,0,0,.29.31l1.23,0.29c0.12,0,.15.22,0,0.23l-1.23.54a0.5,0.5,0,0,0-.3.4l-0.27,1.35c0,0.12-.22.15-0.23,0l-0.54-1.23A0.62,0.62,0,0,0,12.86,24l-1.23-.29c-0.12,0-.15-0.22,0-0.23l1.23-.54Z" transform="translate(-6.02 -3.77)"/><path class="cls-16" d="M153.24,6.76l3.7-1.37c0.27-.14.69,0.27,0.41,0.55l-2.19,3.43A1.33,1.33,0,0,0,155,10.6l1.23,3.84a0.35,0.35,0,0,1-.55.41l-3.29-2.19a1.33,1.33,0,0,0-1.23-.14l-3.7,1.37c-0.27.14-.69-0.27-0.41-0.55l2.19-3.43a1.33,1.33,0,0,0,.14-1.23l-1.23-3.84a0.35,0.35,0,0,1,.55-0.41L152,6.62A1.83,1.83,0,0,0,153.24,6.76Z" transform="translate(-6.02 -3.77)"/><path class="cls-16" d="M152.09,21.81h2.47c0.27,0,.27.27,0.14,0.41l-2.06,1.51a0.75,0.75,0,0,0-.41.69L152.09,27c0,0.27-.27.27-0.41,0.14l-1.37-2.06a0.75,0.75,0,0,0-.69-0.41h-2.47c-0.27,0-.27-0.27-0.14-0.41l2.06-1.51a0.75,0.75,0,0,0,.41-0.69l0.14-2.61c0-.27.27-0.27,0.41-0.14l1.37,2.06A0.75,0.75,0,0,0,152.09,21.81Z" transform="translate(-6.02 -3.77)"/><path class="cls-16" d="M138.35,14.77h1.53c0.14,0,.14.14,0.14,0.28l-1.25,1a0.74,0.74,0,0,0-.28.42l-0.14,1.67c0,0.14-.14.14-0.28,0.14L137.24,17a0.74,0.74,0,0,0-.42-0.28h-1.53c-0.14,0-.14-0.14-0.14-0.28l1.25-1a0.74,0.74,0,0,0,.28-0.42l0.14-1.67c0-.14.14-0.14,0.28-0.14l0.83,1.25A0.74,0.74,0,0,0,138.35,14.77Z" transform="translate(-6.02 -3.77)"/><path class="cls-13" d="M45.6,111.8c5.2,5,10.5,9.9,15.7,14.9" transform="translate(-6.02 -3.77)"/></svg>