<svg id="Layer_1" data-name="Layer 1" xmlns="http://www.w3.org/2000/svg" xmlns:xlink="http://www.w3.org/1999/xlink" viewBox="0 0 590.78 280.74"><defs><style>.cls-1{fill:#fdf9da;}.cls-2{fill:#f6f2e7;}.cls-3{fill:#d1e7f3;}.cls-4{fill:url(#linear-gradient);}.cls-5{opacity:0.93;fill:url(#linear-gradient-2);}.cls-6{fill:url(#linear-gradient-3);}.cls-7{fill:#80b7cb;}.cls-8{fill:#559dc1;}.cls-9{fill:#3482a2;opacity:0.81;}.cls-10{fill:#1c6d87;}.cls-11{fill:#094654;}.cls-12{opacity:0.75;fill:url(#linear-gradient-4);}.cls-13{fill:#b1d2ee;}.cls-14{fill:#c9e2f4;}.cls-15{fill:#d7e8f4;}.cls-16{fill:#fff;}.cls-17{fill:#e8f3f9;}.cls-18,.cls-61,.cls-66{fill:none;}.cls-18{stroke:#fff;}.cls-18,.cls-66{stroke-miterlimit:10;stroke-width:4.5px;}.cls-19{fill:url(#linear-gradient-5);}.cls-20{fill:#fffefd;}.cls-21{fill:#f6b0ad;}.cls-22{fill:#f295a7;}.cls-23{fill:#ef7982;}.cls-24{fill:#e26874;}.cls-25{fill:#e8d9b9;}.cls-26{fill:#dccaa1;}.cls-27{fill:#ccbc94;}.cls-28{fill:#b6a27e;}.cls-29{fill:#bdaa83;}.cls-30{fill:#877155;}.cls-31,.cls-32,.cls-33,.cls-34,.cls-35{opacity:0.66;}.cls-31{fill:url(#linear-gradient-6);}.cls-32{fill:url(#linear-gradient-7);}.cls-33{fill:url(#linear-gradient-8);}.cls-34{fill:url(#linear-gradient-9);}.cls-35{fill:url(#linear-gradient-10);}.cls-36{fill:#fcf6f5;}.cls-37{fill:#9b8462;}.cls-38{fill:#cae8f1;}.cls-39{fill:#a1d8eb;}.cls-40{fill:#e0f1f5;}.cls-41{fill:#b5dfee;}.cls-42{fill:#8a9583;}.cls-43{fill:#7e8977;}.cls-44{fill:#737c6d;}.cls-45{fill:#6b7265;}.cls-46{fill:#94d2df;}.cls-47{fill:#cbcf2e;}.cls-48{fill:#f9f3c7;}.cls-49{fill:#c5bd8c;}.cls-50{fill:#666d79;}.cls-51{fill:#e0dab3;}.cls-52{fill:#ea5665;}.cls-53{fill:#3c424b;}.cls-54{fill:#46b8d6;}.cls-55{fill:#8dd1e9;}.cls-56{fill:#72c9e9;}.cls-57{fill:#bed6e1;}.cls-58{fill:#a3cdde;}.cls-59{fill:#c43d4c;}.cls-60{fill:#da4453;}.cls-62{fill:#5c626c;}.cls-63{fill:#d64c5a;}.cls-64{fill:#e2f2f8;}.cls-65{fill:#c5e3ea;}.cls-66{stroke:#e9e3b1;}</style><linearGradient id="linear-gradient" x1="99.09" y1="80.37" x2="99.09" y2="199.47" gradientUnits="userSpaceOnUse"><stop offset="0" stop-color="#4879bc"/><stop offset="0.28" stop-color="#b7d7f0"/><stop offset="0.35" stop-color="#d2ecfa"/><stop offset="0.4" stop-color="#e0edd2"/><stop offset="0.47" stop-color="#f1eea1"/></linearGradient><linearGradient id="linear-gradient-2" x1="71.53" y1="119.65" x2="71.53" y2="127.42" gradientUnits="userSpaceOnUse"><stop offset="0.22" stop-color="#fff"/><stop offset="1" stop-color="#e1edcf"/></linearGradient><linearGradient id="linear-gradient-3" x1="97.7" y1="131.57" x2="97.7" y2="150.9" gradientUnits="userSpaceOnUse"><stop offset="0.31" stop-color="#aad0c8"/><stop offset="0.91" stop-color="#f0eea3"/></linearGradient><linearGradient id="linear-gradient-4" x1="121.51" y1="110.53" x2="138.57" y2="110.53" gradientUnits="userSpaceOnUse"><stop offset="0.22" stop-color="#fff"/><stop offset="0.88" stop-color="#9bbfe4"/></linearGradient><linearGradient id="linear-gradient-5" x1="296.55" y1="77.07" x2="296.55" y2="201.56" gradientUnits="userSpaceOnUse"><stop offset="0" stop-color="#1cb3e3"/><stop offset="0.18" stop-color="#adcad5"/><stop offset="0.29" stop-color="#f2d5d0"/></linearGradient><linearGradient id="linear-gradient-6" x1="288.02" y1="95.86" x2="288.02" y2="102.14" gradientUnits="userSpaceOnUse"><stop offset="0.1" stop-color="#fff"/><stop offset="0.4" stop-color="#fafbfc"/><stop offset="0.97" stop-color="#c7d1d5"/></linearGradient><linearGradient id="linear-gradient-7" x1="254.24" y1="112.47" x2="254.24" y2="116.26" gradientUnits="userSpaceOnUse"><stop offset="0.1" stop-color="#fff"/><stop offset="0.4" stop-color="#fafbfc"/><stop offset="0.8" stop-color="#fbded6"/></linearGradient><linearGradient id="linear-gradient-8" x1="277.88" y1="117.38" x2="277.88" y2="119.45" xlink:href="#linear-gradient-7"/><linearGradient id="linear-gradient-9" x1="309.2" y1="114.74" x2="309.2" y2="116.81" xlink:href="#linear-gradient-7"/><linearGradient id="linear-gradient-10" x1="340.34" y1="111.4" x2="340.34" y2="114.74" xlink:href="#linear-gradient-7"/></defs><title>master-apprentice</title><rect class="cls-1" x="393.81" width="196.97" height="280.74"/><rect class="cls-2" x="196.93" width="196.97" height="280.74"/><rect class="cls-3" width="196.97" height="280.74"/><circle class="cls-4" cx="99.09" cy="139.92" r="59.55"/><circle class="cls-5" cx="71.53" cy="123.53" r="3.89"/><path class="cls-6" d="M34.75,136.77l18-3.8A9.46,9.46,0,0,1,57,134c0.72-.37,1.51-0.73,2.36-1.07a30.15,30.15,0,0,1,4.39-1.39l6.85,1.71a3.25,3.25,0,0,1,1.5-.75,3.36,3.36,0,0,1,2.36.43l5,1.82a10.19,10.19,0,0,1,2.78-1.18,10.32,10.32,0,0,1,4.6-.11L101.55,136l13.81-3.37,5.14,1.53,12.85-1.58c0.56,0,1.42.08,2.46,0.21,3.6,0.45,5.09,1.31,7.82,1.93a21.92,21.92,0,0,0,7.17.54c2.48-.25,4.19-0.9,7.71-0.86,0.91,0,1.65.06,2.14,0.11l-2.25,14L37.16,150.9Z"/><path class="cls-7" d="M35.42,140.05a34.29,34.29,0,0,0,7.07-1.45c4.06-1.3,5.7-2.68,8.83-2.73a12,12,0,0,1,5.46,1.28,67.87,67.87,0,0,0,10,2.73c4.73,0.91,7.77,1.47,11.56.64A19.8,19.8,0,0,0,84.56,138a13.42,13.42,0,0,1,4.82-1.61c3.39-.43,6.22.61,9.8,1.93,1.68,0.62,3,1.23,3.85,1.64L122,143.1c0.72-.33,1.77-0.79,3.05-1.28,2.78-1.08,9.1-3.53,15.9-3.69a35,35,0,0,1,18,4.82L156,158.2H38.34Z"/><path class="cls-8" d="M158.54,145.83c-0.65.1-1.66,0.23-2.89,0.32-10.37.75-13.4-3.39-21.41-3.21-5.29.12-4.77,1.93-14.24,3.32a73.66,73.66,0,0,1-10.71.78,16.5,16.5,0,0,0-5.25-2.92c-0.31-.1-0.52-0.16-3.64-1l-3.75-1C95,141.81,92,141.88,86.59,145a15.21,15.21,0,0,1-3,1,18.41,18.41,0,0,1-7.39-.21c-5.51-.79-6.51,2-14.35,2.57-3.69.25-4.18-.34-8.14-0.43a45.91,45.91,0,0,0-16.86,2.94l3.27,13L156,158.2Z"/><path class="cls-9" d="M36.22,147a30.58,30.58,0,0,1,9-1.63c3.8-.09,4.67.63,17.34,3.21,2.08,0.42,4.94,1,8.78,1.71s4.19,0.72,7.07,1.28c5,1,5.09,1.17,7.49,1.5a44.82,44.82,0,0,0,7.71.43,38.14,38.14,0,0,0,6.64-.86c23.31-4.88,39.61.43,39.61,0.43A32.1,32.1,0,0,0,151,155a30.16,30.16,0,0,0,7.49-1.07L153,165.1H40.87Z"/><path class="cls-10" d="M39.55,161.8l7,11.87h64.66a157.29,157.29,0,0,0-15-8.14C83.74,159.61,76.88,156.46,68,157a57.2,57.2,0,0,0-12,1.93c-3.88,1.17-7.56,2.87-13.28,3A30.54,30.54,0,0,1,39.55,161.8Z"/><path class="cls-11" d="M158.54,154a86,86,0,0,1-12.85.86c-11.44-.09-12.73-2.4-21.2-1.71-7.35.6-7.36,2.42-18.2,3.64a60.69,60.69,0,0,0-9.21,1.5,53.23,53.23,0,0,0-9.38,3.33,12.88,12.88,0,0,1-5.39,2.66c-2.91.63-4.64-.18-7.92-0.21a24.7,24.7,0,0,0-8.14,1.5c-3.88,1.1-11,1.75-25.38-.43,11.28,22.35,34.22,36.27,58.57,35.54C126.58,199.84,150.68,181,158.54,154Z"/><path class="cls-12" d="M138.57,106.81q-3.21,1.18-6.45,2.4-5.09,1.92-10,3.87a0.78,0.78,0,0,0-.52.94,0.77,0.77,0,0,0,1,.06q4.27-1.9,8.6-3.87Q134.91,108.52,138.57,106.81Z"/><path class="cls-11" d="M101.28,102a5.83,5.83,0,0,1,.8,1,0.93,0.93,0,0,1,.26.84,0.58,0.58,0,0,1-.32.24,2.59,2.59,0,0,1-1.61-.28,2.2,2.2,0,0,0-2.13.52c0,0.29,2,.29,2,0.68s-0.87.33-1.49,1.12a3.08,3.08,0,0,0-.48,1.12,4.58,4.58,0,0,0-.2,3c0.17,0.46.27,0.34,0.76,1.32a1.89,1.89,0,0,0,.64,1,1.43,1.43,0,0,0,1.45-1c0.14-.5-0.13-0.92.16-1.2a0.45,0.45,0,0,1,.44-0.15c0.3,0.16.12,1.26-.2,2.07-0.81,2.08-2.2,1.95-2.64,3.71a3.15,3.15,0,0,1-.7,1.67,2.41,2.41,0,0,1-.84.56c-0.66.28-1.69,1.08-3.29,3.33A11.51,11.51,0,0,0,92,127a12.74,12.74,0,0,0,1.61,7c1,2,1.94,2.41,2.89,4.58A9,9,0,0,0,97.85,141c0.39,0.45.71,0.94,1.08,1.41a1.1,1.1,0,0,1,.28.44,1.23,1.23,0,0,1-.24,1,2.75,2.75,0,0,0-.24.64,7.91,7.91,0,0,0,.12,2.17c0,0.71-.13.69-0.12,1.41a5.43,5.43,0,0,0,.32,1.77,3.17,3.17,0,0,1,.88,1.12,3.11,3.11,0,0,1,.24.76,3.88,3.88,0,0,0,2,0,13.19,13.19,0,0,0-.2,1.93,6.05,6.05,0,0,1-.16,1.53,6.15,6.15,0,0,1-.28.8,7.1,7.1,0,0,0-.44,2.17l2.61-.36a2.22,2.22,0,0,1-.56-1.28,6.61,6.61,0,0,1,.28-1.28c0.16-1-.06-1.25.24-1.77a3.37,3.37,0,0,0,.36-0.64,2.54,2.54,0,0,0,.16-0.72,3.16,3.16,0,0,0,2-1.37,4.74,4.74,0,0,0,3-.54c0,0.19.07,0.49,0.16,0.86s0.18,0.64.2,0.72a6.4,6.4,0,0,1,0,2.49,15.35,15.35,0,0,0-.08,2.41l2.69-.52-0.84-1.24a0.71,0.71,0,0,0,.28-0.18,0.46,0.46,0,0,0,.16-0.34,0.42,0.42,0,0,0-.14-0.24,0.91,0.91,0,0,0-.38-0.24,4.81,4.81,0,0,1-.12-1.2,4.73,4.73,0,0,0,0-1.08,9.7,9.7,0,0,0-.32-0.92,2.93,2.93,0,0,1-.08-1,6.15,6.15,0,0,0,2.77-1.62c0.43-.5,1-0.86,1.42-1.37a0.92,0.92,0,0,1,.48-0.35,1.67,1.67,0,0,1,.88.19s0.15,0,.91.19a3.75,3.75,0,0,0,3.29-1.1,3.92,3.92,0,0,1,.62-0.94c0.66-.47,1.35-0.05,1.79-0.56a2,2,0,0,0,.36-0.83,1.22,1.22,0,0,1,.18-0.72,2,2,0,0,1,.56.1,1,1,0,0,0,.62-0.26,5.67,5.67,0,0,0,1.87-1.63,1.37,1.37,0,0,1,.26-0.62,3.12,3.12,0,0,1,1-.26c0.51-.19.47-0.48,1.12-0.77,0.31-.14.29-0.06,0.58-0.2a3.11,3.11,0,0,0,1-.86,1.85,1.85,0,0,0,.37-0.54,2.51,2.51,0,0,0,0-1.1,0.91,0.91,0,0,1,0-.67,0.89,0.89,0,0,1,.56,0,1.49,1.49,0,0,0,1.41-.88,1.92,1.92,0,0,1,.1-0.68,1.84,1.84,0,0,0,.28-0.4,1,1,0,0,1,.1-0.36,0.39,0.39,0,0,1,.38,0c0.42,0.24.21,1.28,0.19,1.33l0.29-.43a9.1,9.1,0,0,1-.06,2.81,30.37,30.37,0,0,1-.82,3.51,0.8,0.8,0,0,0-.08.4,0.73,0.73,0,0,0,.29-0.29,9.65,9.65,0,0,0,1.66-6.61,6.71,6.71,0,0,0-1.52-3.63,0.72,0.72,0,0,1-.34-0.38,0.73,0.73,0,0,1,.08-0.54,0.61,0.61,0,0,0,.23,0,0.27,0.27,0,0,0,.19-0.07,0.51,0.51,0,0,0,0-.26,0.66,0.66,0,0,1,0-.24c0.09-.14,1,0.11,2.57,1.1a10.93,10.93,0,0,1,3.2,2.7c0.52,0.69.93,1.44,1,1.41a3.33,3.33,0,0,0-.31-0.82,10.25,10.25,0,0,0-1.94-3,9.43,9.43,0,0,0-3.85-2.44,3.66,3.66,0,0,0,0-1c0-.14,0-0.3-0.06-0.6a2.47,2.47,0,0,1,0-.4,0.38,0.38,0,0,1,.08-0.27,0.34,0.34,0,0,1,.3,0,5,5,0,0,1,1.11,2.61,4.87,4.87,0,0,0,0-1.44,3.35,3.35,0,0,0-.14-0.54,1.6,1.6,0,0,0-.25-0.51,0.79,0.79,0,0,0-.2-0.2,0.33,0.33,0,0,1-.16-0.11,0.22,0.22,0,0,1,.15-0.17,9.89,9.89,0,0,1,1.07.65,10.71,10.71,0,0,1,1,.82,13.79,13.79,0,0,1,1.88,2.12,4.06,4.06,0,0,0-.53-1.41,3.48,3.48,0,0,0-.7-0.92,1.19,1.19,0,0,1-.31-0.35,1.17,1.17,0,0,1-.14-0.58,22.18,22.18,0,0,1,3.93,3.54,12.55,12.55,0,0,0-1.84-2.63,13.79,13.79,0,0,0-7.79-4.14c0.42,0,1-.09,1.75-0.11h0.78a9.27,9.27,0,0,1,2.66.46,11.43,11.43,0,0,0-6.45-1.5,12,12,0,0,0-6.28,2.5c-1.65,1.21-1.46,1.67-3.59,3.43s-3.4,2.8-5,2.85a6.33,6.33,0,0,1-5.46-3.61c-0.75-1.57-.58-3.15-0.28-5.94,0.26-2.41.68-2.76,0.48-4.42a13.77,13.77,0,0,0-1.24-4c-0.5-1.08-.76-1.35-1.2-2.21a14.34,14.34,0,0,1-1.49-5.06,3.1,3.1,0,0,0,2.19,1,4.69,4.69,0,0,0,1.79-.62,7.77,7.77,0,0,0,.83-0.48,2.52,2.52,0,0,1-1.1-.15,0.22,0.22,0,0,1-.09-0.17,0.24,0.24,0,0,1,.16-0.08l0.21-.08a0.37,0.37,0,0,0,.25-0.19,0.55,0.55,0,0,0-.39-0.19,4.11,4.11,0,0,0-.48-0.08,2.18,2.18,0,0,1-.55-0.17c0.86-.86,1-1.12,1-1.18s-0.44.21-1.07,0.26a2.44,2.44,0,0,1-.7,0,2.52,2.52,0,0,1,.67-0.64c0.47-.3.89-0.34,0.88-0.43a1.16,1.16,0,0,0-.88-0.08,5.49,5.49,0,0,1-1,.29,0.58,0.58,0,0,1-.49-0.11,0.92,0.92,0,0,1,.29-0.91c0.31-.35.69-0.42,0.67-0.54a0.66,0.66,0,0,0-.54-0.13c-1.13,0-1.9.77-2.06,0.59a0.66,0.66,0,0,1,.14-0.48,3,3,0,0,1,.67-0.56,1,1,0,0,0-.65,0,5.64,5.64,0,0,1-1.07.44,0.49,0.49,0,0,1,0-.53,3.11,3.11,0,0,1,.37-0.34,2,2,0,0,0-1.22-.05,5.23,5.23,0,0,0-1.67.54,1.85,1.85,0,0,0-.91.71,1.44,1.44,0,0,0-.17.76A3.08,3.08,0,0,0,101,101a1.63,1.63,0,0,0-1.1.22,1.07,1.07,0,0,0,.5.26A4.22,4.22,0,0,1,101.28,102Z"/><circle class="cls-13" cx="69.7" cy="106.03" r="0.45" transform="translate(-39.46 170.72) rotate(-87.33)"/><circle class="cls-13" cx="70.91" cy="109.64" r="0.45" transform="translate(-41.91 175.37) rotate(-87.33)"/><circle class="cls-13" cx="71.84" cy="102.89" r="0.33" transform="translate(-34.28 169.86) rotate(-87.33)"/><circle class="cls-14" cx="82.62" cy="105.3" r="0.45" transform="translate(-26.41 182.94) rotate(-87.33)"/><circle class="cls-13" cx="73.61" cy="103.73" r="0.16" transform="translate(-33.43 172.42) rotate(-87.33)"/><circle class="cls-14" cx="89.54" cy="98.2" r="0.45" transform="translate(-12.72 183.07) rotate(-87.33)"/><circle class="cls-14" cx="71" cy="94.89" r="0.45" transform="translate(-27.09 161.39) rotate(-87.33)"/><circle class="cls-13" cx="78.74" cy="94.07" r="0.16" transform="translate(-18.89 168.34) rotate(-87.33)"/><circle class="cls-13" cx="81.08" cy="94.27" r="0.16" transform="translate(-16.86 170.88) rotate(-87.33)"/><circle class="cls-13" cx="110.27" cy="86.24" r="0.45" transform="translate(-8.02 161.09) rotate(-70.35)"/><circle class="cls-13" cx="106.47" cy="86.35" r="0.45" transform="translate(-10.65 157.58) rotate(-70.35)"/><circle class="cls-13" cx="112.65" cy="89.2" r="0.33" transform="translate(-9.24 165.3) rotate(-70.35)"/><circle class="cls-14" cx="107.19" cy="98.81" r="0.45" transform="translate(-21.91 166.54) rotate(-70.35)"/><circle class="cls-13" cx="111.33" cy="90.65" r="0.16" transform="translate(-11.47 165.02) rotate(-70.35)"/><circle class="cls-14" cx="111.97" cy="107.5" r="0.45" transform="translate(-26.92 176.8) rotate(-70.35)"/><circle class="cls-14" cx="120.55" cy="90.73" r="0.45" transform="translate(-5.44 173.75) rotate(-70.35)"/><circle class="cls-13" cx="119.07" cy="98.38" r="0.16" transform="translate(-13.62 177.44) rotate(-70.35)"/><circle class="cls-13" cx="118.2" cy="100.56" r="0.16" transform="translate(-16.25 178.06) rotate(-70.35)"/><circle class="cls-13" cx="100.36" cy="84.55" r="0.16" transform="translate(11.23 180.86) rotate(-87.33)"/><circle class="cls-13" cx="102.7" cy="84.75" r="0.16" transform="translate(13.26 183.4) rotate(-87.33)"/><circle class="cls-13" cx="98.37" cy="86.6" r="0.16" transform="translate(7.28 180.83) rotate(-87.33)"/><circle class="cls-13" cx="100.71" cy="86.8" r="0.16" transform="translate(9.32 183.37) rotate(-87.33)"/><circle class="cls-13" cx="60.66" cy="103.43" r="0.45" transform="translate(-45.48 159.22) rotate(-87.33)"/><circle class="cls-15" cx="56.9" cy="112.19" r="0.45" transform="translate(-57.82 163.8) rotate(-87.33)"/><circle class="cls-13" cx="62.81" cy="100.29" r="0.33" transform="translate(-40.3 158.36) rotate(-87.33)"/><circle class="cls-13" cx="64.57" cy="101.13" r="0.16" transform="translate(-39.45 160.93) rotate(-87.33)"/><circle class="cls-14" cx="142.26" cy="111.72" r="0.45" transform="translate(-36.3 140.65) rotate(-47.35)"/><circle class="cls-14" cx="130.18" cy="97.27" r="0.45" transform="translate(-29.57 127.11) rotate(-47.35)"/><circle class="cls-13" cx="136.64" cy="101.62" r="0.16" transform="translate(-30.68 133.26) rotate(-47.35)"/><circle class="cls-13" cx="138.3" cy="103.28" r="0.16" transform="translate(-31.37 135.02) rotate(-47.35)"/><circle class="cls-16" cx="114.77" cy="118.93" r="0.45" transform="translate(-11.72 225.33) rotate(-86.09)"/><circle class="cls-14" cx="133.68" cy="119.38" r="0.45" transform="translate(5.46 244.61) rotate(-86.09)"/><circle class="cls-16" cx="125.93" cy="120.04" r="0.16" transform="translate(-2.42 237.48) rotate(-86.09)"/><circle class="cls-16" cx="123.59" cy="119.78" r="0.16" transform="translate(-4.35 234.91) rotate(-86.09)"/><circle class="cls-17" cx="91.54" cy="119.65" r="0.45" transform="translate(-32.24 205.52) rotate(-87.33)"/><circle class="cls-16" cx="85.73" cy="122.04" r="0.16" transform="translate(-41.87 199.25) rotate(-86.09)"/><circle class="cls-16" cx="83.39" cy="121.79" r="0.16" transform="translate(-43.8 196.68) rotate(-86.09)"/><circle class="cls-16" cx="66.08" cy="122.95" r="0.16" transform="translate(-56.16 55.57) rotate(-32.88)"/><circle class="cls-16" cx="64.88" cy="120.93" r="0.16" transform="translate(-55.26 54.6) rotate(-32.88)"/><circle class="cls-18" cx="98.88" cy="139.59" r="61.77"/><circle class="cls-19" cx="296.55" cy="139.32" r="62.25"/><circle class="cls-14" cx="265.92" cy="95.15" r="0.45" transform="translate(158.5 356.36) rotate(-87.33)"/><circle class="cls-13" cx="273.72" cy="94.32" r="0.17" transform="translate(166.77 363.36) rotate(-87.33)"/><circle class="cls-13" cx="276.09" cy="94.53" r="0.17" transform="translate(168.82 365.92) rotate(-87.33)"/><circle class="cls-13" cx="305.51" cy="86.43" r="0.45" transform="translate(121.38 345.09) rotate(-70.35)"/><circle class="cls-13" cx="301.67" cy="86.54" r="0.45" transform="translate(118.73 341.55) rotate(-70.35)"/><circle class="cls-13" cx="307.91" cy="89.42" r="0.33" transform="translate(120.15 349.33) rotate(-70.35)"/><circle class="cls-13" cx="306.58" cy="90.88" r="0.17" transform="translate(117.9 349.04) rotate(-70.35)"/><circle class="cls-14" cx="315.87" cy="90.96" r="0.45" transform="translate(123.98 357.85) rotate(-70.35)"/><circle class="cls-13" cx="295.51" cy="84.73" r="0.17" transform="translate(197.12 375.98) rotate(-87.33)"/><circle class="cls-13" cx="297.88" cy="84.93" r="0.17" transform="translate(199.17 378.53) rotate(-87.33)"/><circle class="cls-13" cx="293.51" cy="86.8" r="0.17" transform="translate(193.15 375.95) rotate(-87.33)"/><circle class="cls-13" cx="295.87" cy="87" r="0.17" transform="translate(195.2 378.5) rotate(-87.33)"/><circle class="cls-20" cx="324.62" cy="110.98" r="4.8"/><path class="cls-21" d="M358.44,123a29.33,29.33,0,0,1-12.89,3.88,60.09,60.09,0,0,1-10.3-.76c-1.21-.15-3.66-0.47-6.69-1.08a38.71,38.71,0,0,1-4.21-1,29.68,29.68,0,0,0-3.56-1.08,9.82,9.82,0,0,0-2.48-.32,7.56,7.56,0,0,0-3.45,1l-3.78,1.29-4.86-2.05a9.56,9.56,0,0,0-2.7-.86,7.7,7.7,0,0,0-3.71.49,24.41,24.41,0,0,1-3.2-.49c-3-.67-3.35-1.35-5-1.29-1.2,0-1.47.44-4.75,1.73-1.46.57-2.68,1-3.51,1.27-0.4-.06-1-0.16-1.78-0.3-2.35-.43-2.94-0.69-3.88-0.76a8.92,8.92,0,0,0-3.88.86c-0.29.1-2.64,0.61-7.34,1.62-2,.44-4.93,1-8.52,1.73a49.34,49.34,0,0,1-5.61.65,38.37,38.37,0,0,1-9.5-.32c-2.49-.44-3.45-0.92-5.5-0.76a23.83,23.83,0,0,0-4.1.76c-0.71.19-1.3,0.39-1.73,0.54l-0.92,10.63H360Z"/><path class="cls-22" d="M231.19,131.84c0.54,0,1.36,0,2.35,0,5.63,0,6.85.8,10.28,0.73,2.95-.06,5.13-0.71,8.74-1.78a52.14,52.14,0,0,0,6-2.19,30.8,30.8,0,0,0,5.58,1.13c0.82,0.09,1.6.14,2.35,0.16a32.68,32.68,0,0,0,3.08-1.29,35.91,35.91,0,0,1,3.24-1.62,16.19,16.19,0,0,1,4.29-.49,18.69,18.69,0,0,1,5.34.16c0.61,0.15.51,0.18,2.59,0.81,0.92,0.28,1.77.53,3.08,0.89,0.37,0.1,3.39.95,6,1.62,8.66,2.24,15.46,3.64,15.46,3.64,5.4,1.11,12.64,2.41,21.45,3.48L231.19,140v-8.13Z"/><path class="cls-23" d="M360.17,136.9c-2-.53-5-1.34-8.74-2.37-6.25-1.74-7.57-2.19-9.93-2.16-2.91,0-4,.77-8.85,2.16a99.58,99.58,0,0,1-11.55,2.59c-1.34,0-3.32-.06-5.72-0.22-5-.33-7.06-0.82-11.65-1.4-12.59-1.6-12.84.1-18.45-1.62A13.79,13.79,0,0,0,279,133c-1.92.24-2.87,0.87-5.72,1.62a36,36,0,0,1-5.18,1c-3.4.25-6.38,0.27-8.85,0.22-5.49-.13-8.23-0.2-9.71-0.76a8.29,8.29,0,0,0-4-.65,9.45,9.45,0,0,0-2.59.76s-2,.75-5.72,1.73a27.37,27.37,0,0,1-6.26.86l1.08,10.14,127.87,1Z"/><path class="cls-24" d="M360.28,143.37c-23.38.28-32.19-.56-35.5-1.51a22.41,22.41,0,0,0-8-1,40.15,40.15,0,0,0-4.75.76c-2.05.36-5,.83-8.63,1.19-0.89-.12-2.25-0.32-3.88-0.65-2.6-.52-4-1-4.86-1.19-3.76-.86-6.69,1.23-9.82,2.27s-7.76,1.47-14.57-1.19a19.68,19.68,0,0,0-2.59-.65,23.17,23.17,0,0,0-6.47-.11c-4.44.28-4.71-1.15-9.5-1.29-3.77-.11-4.62.74-8.63,1.19a35.42,35.42,0,0,1-12.3-.86L232.41,155H357.69Z"/><path class="cls-25" d="M231.19,150.82c3.15-.45,7.81-1.23,13.36-2.59,10.07-2.46,10.3-3.71,17.8-5.5,6.61-1.58,17.46-4,28.49-.49,2,0.65,2.47,1,6.31,2.27a109.77,109.77,0,0,0,16,4.21,71.3,71.3,0,0,0,21.63.16l-54.14,24.39h-38Z"/><path class="cls-26" d="M359.73,145.82a69.84,69.84,0,0,1-14.51,32.35l-79-4.91,1.13-.76a59.19,59.19,0,0,1,15.54-7.12c9.69-2.91,22.69-7.36,25.74-8.42,18.6-6.47,20.7-10.14,32-11.65A61.1,61.1,0,0,1,359.73,145.82Z"/><path class="cls-27" d="M242.66,173.26l12.25,14.46,83.36-1.13A155.26,155.26,0,0,0,320,179.14a160.27,160.27,0,0,0-52.77-8.09A162.75,162.75,0,0,0,242.66,173.26Z"/><path class="cls-28" d="M347.81,174.45c-3.26,4.54-15.27,20.11-37.23,25.41-30.29,7.31-53.82-11.14-56.65-13.43a59.88,59.88,0,0,0,23.31-1.29,78.89,78.89,0,0,0,8.42-2.91c4-1.46,10.87-3.58,34.64-5.83C327.51,175.71,336.84,175,347.81,174.45Z"/><path class="cls-29" d="M245,174.69c1.7,0.07,3.07,0,4,0a76.14,76.14,0,0,0,9.23-1.13,28.76,28.76,0,0,1,3.32-.49c2.22-.12,2.82.24,5.42,0.4,3.43,0.21,3.47-.36,6,0a38.49,38.49,0,0,1,4.61,1.21c2.23,0.6,4.06,1,5.26,1.21q4.47,0.78,4.45,1.46t-3.16,1.05a15.8,15.8,0,0,0-4.13,0c-2.43.32-3,1-5.34,1.38a42.68,42.68,0,0,1-5.66,0c-4.44-.13-4.64-0.23-5.91-0.08-2.72.32-2.7,0.92-4.77,1s-2.85-.59-5.66-1.05a24.11,24.11,0,0,0-5.5-.25Z"/><path class="cls-30" d="M256.63,177.31L267,177.36a2.44,2.44,0,0,1-1.38-1.08,4.81,4.81,0,0,1-.32-1.29c-0.21-1-.37-1.17-0.49-1.71a5,5,0,0,1,.16-2.59l1.09-3.76q1.51-1.79,3.24-3.64c1.7-1.82,3.39-3.47,5-5a31.24,31.24,0,0,0,9.75-.36l2.47-2.19-0.77.12-0.93.81,0.4-.93-0.69-.32L284,157.29a2.47,2.47,0,0,1-.53.32,2.8,2.8,0,0,1-1.46.2c-0.69-.06,1.45.21-3.76,0l-3.08-.12,2.55-2.47-0.69-.32a45.12,45.12,0,0,1-4.94,4.49c-1.18.92-2.09,1.53-3.56,2.79a43.3,43.3,0,0,0-3.16,3l0.05-3.08c0.17-.37.41-0.9,0.71-1.54a18.81,18.81,0,0,1,1.9-3.48,8.53,8.53,0,0,1,2-1.83l2.87-1-1.74-.08-1.82.36-0.93.89a10.06,10.06,0,0,0-1.17,1.17,8.49,8.49,0,0,0-.73,1.29c-0.45.86-.64,1.14-0.85,1.54a15.09,15.09,0,0,0-1.24,3.26,6.28,6.28,0,0,1-.18-1.65c0-.49.08-0.64,0.08-1.13a7.1,7.1,0,0,0-.2-1.54,5.82,5.82,0,0,1,.12-2.43l0.93-1.13a1.33,1.33,0,0,1-.93-0.49,2.16,2.16,0,0,1,0-1.54c0.06-.39.14-0.86,0.27-1.38l-0.8-.49a2.17,2.17,0,0,1-.93-0.65,1.59,1.59,0,0,1,.61-1.34l0.58-.5-0.65-.65-0.82,1.75-0.4-1.54-0.24.45,0.28,1.46,0,0.61-1.94-1.05-1.42-1.94-0.43-.06c1,1.35,1.09,1.72,1,1.8a2.13,2.13,0,0,1-1-.53,4.65,4.65,0,0,1-1-1l-1.07.15,1.93,1.52,5.66,2.54-0.7,3.56,0.11,8.69c0,0.27-.06.66-0.12,1.13a1.47,1.47,0,0,1-.2.93c-0.15,0-.26-0.34-0.81-1.09a3,3,0,0,1-.76-1.24,1.72,1.72,0,0,1,0-.59c0.11-.71.25-2.06,0.43-3.94l-0.65-4.21-0.57.07,0.51,1.5v2.55a13.22,13.22,0,0,0-.45,4.09l-2.43-.59a1,1,0,0,1-.65-0.22,1.24,1.24,0,0,1-.32-0.92,8.77,8.77,0,0,0-.59-2.59l-0.42,0,0.28,1.34-1.09-1.09-2.71-2.05-1.24-1.78-0.5.11,1.5,2.14a23.13,23.13,0,0,1,3,2.39c0.46,0.43.87,0.86,1.25,1.28l0.12,1-3.12-.78-4.49-4.41-3.16-.34-1.46-2.41-0.61.12,1.42,2.19-4.37-.05-1.94-1.12-0.36.24,2.31,1.5,4.57,0,3.28,0.85,4.21,4.18,7.53,2.09a2.86,2.86,0,0,1,1.13,1.77,2.63,2.63,0,0,1,0,1.07A10.09,10.09,0,0,1,259,171.7a6.08,6.08,0,0,0,.89,2.75,2.71,2.71,0,0,1-.7,1.29,3.59,3.59,0,0,1-1.08.7,5.81,5.81,0,0,0-1,.43A3.14,3.14,0,0,0,256.63,177.31Z"/><path class="cls-27" d="M245.52,148.07a15.54,15.54,0,0,0-3.56-.49,7.46,7.46,0,0,1-2.67-.4,1.69,1.69,0,0,1-1.21-.81c-0.1-.57.93-1.18,2.27-1.94,1.9-1.1,2.86-1.64,4.29-1.78s1.5,0.31,3,.16c1.7-.17,1.77-0.77,3.64-1.21a10.61,10.61,0,0,1,5.1.08,16.86,16.86,0,0,1,2.43,1c4.26,1.62,6.46-1,9.87.57,1.45,0.68,1.65,1.45,3.56,2.35a1.35,1.35,0,0,1,.89.81,1.5,1.5,0,0,1-.89,1.05,4.36,4.36,0,0,1-.81.81c-1.44,1.1-3.24,1-5,.81-3.82-.43-3.81-0.94-6.23-1.13-3.41-.27-3.51.75-7,0.32a27.06,27.06,0,0,0-4.29-.49A18.12,18.12,0,0,0,245.52,148.07Z"/><path class="cls-27" d="M264.62,151.3c0.52-.26,1.28-0.64,2.19-1.13,2.84-1.54,3.47-2.13,4.45-2.59,2.11-1,3.27-.16,7.77.16,5,0.35,5.28-.55,8.82-0.16a22.72,22.72,0,0,1,8.9,3,7.82,7.82,0,0,0,2.91.89,5.16,5.16,0,0,1,2.75.57,1.4,1.4,0,0,1,.73.81c0.16,1-2.18,2.42-4.29,3-1.28.35-1.64,0.17-4.45,0.24-5.24.13-5.61,0.79-7.93,0.24a13.57,13.57,0,0,0-3-.57c-1.52-.08-1.63.24-3.16,0.24a17.68,17.68,0,0,1-4.94-.89c-1.8-.49-1.61-0.58-2.51-0.73a14.76,14.76,0,0,0-4.61.16c-2.5.34-3.14,0.68-3.64,0.24S263.91,153.6,264.62,151.3Z"/><path class="cls-27" d="M234.92,151.55a5.92,5.92,0,0,1,1.62-1.13,6.62,6.62,0,0,1,3.32-.57c1.38,0.11,1.56.54,2.43,0.32s0.88-.7,1.86-1a7.67,7.67,0,0,1,2.27,0,13.79,13.79,0,0,0,2.43-.24c1.78-.21,2.75.75,5.34,1.78,4.21,1.67,6.34,1,7.2,2.75a1.8,1.8,0,0,1,.08,1.78c-0.46.53-1.57,0.14-2.75-.08a13.41,13.41,0,0,0-5.1.08,7.25,7.25,0,0,1-4,.89c-2.12-.17-2.78-1.33-4.86-1.29-1.43,0-1.43.57-3.48,1.05-1,.24-5,1.18-6.39-0.65C234,154,234.71,152.1,234.92,151.55Z"/><path class="cls-27" d="M267.9,157.62a5.31,5.31,0,0,0-1-.49c-1.33-.47-2.27-0.19-3.8-0.24-1.26,0-1-.24-2.55-0.36-2.73-.22-2.74.48-5.1,0.24a3.32,3.32,0,0,0-2.35.2,2.25,2.25,0,0,0-.81,1.09,2.21,2.21,0,0,0,.81,1.29c0.61,0.42,1.26.25,2.19,0.2,2.56-.12,2.59.43,4.45,0.16a20.82,20.82,0,0,1,2.79-.57,13.42,13.42,0,0,1,2.47.28c2.1,0.24,4.6,0,4.69-.61C269.71,158.62,269.44,158.26,267.9,157.62Z"/><path class="cls-31" d="M276.23,102.14a2.26,2.26,0,0,1,3.66-1.25,2.89,2.89,0,0,1,1.88-2.36,3,3,0,0,1,2.7.44,3.91,3.91,0,0,1,7.66,0,3.2,3.2,0,0,1,3.24.57,2.83,2.83,0,0,1,.78,1.4,2.25,2.25,0,0,1,3.66,1.23H276.23Z"/><path class="cls-32" d="M247.51,116.26a1.43,1.43,0,0,1,.85-1,1.31,1.31,0,0,1,1.24.25,1.73,1.73,0,0,1,1.07-1.42,1.66,1.66,0,0,1,1.54.26,2.21,2.21,0,0,1,4.37,0,1.75,1.75,0,0,1,1.85.34,1.74,1.74,0,0,1,.45.85,1.31,1.31,0,0,1,1.22-.26,1.44,1.44,0,0,1,.87,1H247.51Z"/><path class="cls-33" d="M274.2,119.45a0.78,0.78,0,0,1,.47-0.55,0.72,0.72,0,0,1,.68.14,0.94,0.94,0,0,1,.59-0.78,0.91,0.91,0,0,1,.84.14,1.21,1.21,0,0,1,2.39,0,1,1,0,0,1,1,.19,1,1,0,0,1,.24.46,0.72,0.72,0,0,1,.67-0.14,0.78,0.78,0,0,1,.48.55H274.2Z"/><path class="cls-34" d="M305.52,116.81a0.78,0.78,0,0,1,.47-0.55,0.72,0.72,0,0,1,.68.14,0.94,0.94,0,0,1,.59-0.78,0.91,0.91,0,0,1,.84.14,1.21,1.21,0,0,1,2.39,0,1,1,0,0,1,1,.19,1,1,0,0,1,.24.46,0.72,0.72,0,0,1,.67-0.14,0.78,0.78,0,0,1,.48.55h-7.36Z"/><path class="cls-35" d="M334.09,114.74a1.2,1.2,0,0,1,1.94-.66,1.53,1.53,0,0,1,1-1.25,1.61,1.61,0,0,1,1.43.23,2.08,2.08,0,0,1,4.06,0,1.7,1.7,0,0,1,1.72.3,1.5,1.5,0,0,1,.42.74,1.2,1.2,0,0,1,1.94.65H334.09Z"/><circle class="cls-36" cx="329.69" cy="97.2" r="0.45" transform="translate(127.29 375) rotate(-70.35)"/><circle class="cls-36" cx="291.78" cy="93.87" r="0.45" transform="translate(105.26 337.09) rotate(-70.35)"/><circle class="cls-36" cx="324.07" cy="103.49" r="0.33" transform="translate(117.63 373.88) rotate(-70.35)"/><circle class="cls-36" cx="315.87" cy="108.33" r="0.17" transform="translate(107.62 369.38) rotate(-70.35)"/><circle class="cls-36" cx="340.81" cy="108.17" r="0.45" transform="translate(124.34 392.76) rotate(-70.35)"/><circle class="cls-36" cx="311.67" cy="98.8" r="0.17" transform="translate(198.48 405.53) rotate(-87.33)"/><circle class="cls-36" cx="314.03" cy="99" r="0.17" transform="translate(200.53 408.09) rotate(-87.33)"/><circle class="cls-36" cx="309.67" cy="100.87" r="0.17" transform="translate(194.5 405.5) rotate(-87.33)"/><circle class="cls-36" cx="304.6" cy="105.21" r="0.17" transform="translate(185.32 404.58) rotate(-87.33)"/><circle class="cls-36" cx="282.27" cy="84.93" r="0.45" transform="translate(107.36 322.2) rotate(-70.35)"/><circle class="cls-36" cx="271.82" cy="103.16" r="0.45" transform="translate(83.27 324.46) rotate(-70.35)"/><circle class="cls-36" cx="281.29" cy="103.16" r="0.33" transform="translate(89.55 333.37) rotate(-70.35)"/><circle class="cls-36" cx="265.92" cy="116.66" r="0.17" transform="translate(66.63 327.87) rotate(-70.35)"/><circle class="cls-36" cx="301.67" cy="119.85" r="0.45" transform="translate(87.36 363.66) rotate(-70.35)"/><circle class="cls-36" cx="257.43" cy="103.59" r="0.17" transform="translate(141.97 355.92) rotate(-87.33)"/><circle class="cls-36" cx="259.79" cy="103.8" r="0.17" transform="translate(144.02 358.48) rotate(-87.33)"/><circle class="cls-36" cx="255.42" cy="105.66" r="0.17" transform="translate(137.99 355.89) rotate(-87.33)"/><circle class="cls-36" cx="247.47" cy="119.36" r="0.17" transform="translate(116.71 361.01) rotate(-87.33)"/><path class="cls-37" d="M305.25,178.17a2.75,2.75,0,0,1,1.62-1c1-.16,2,0.45,2.1.22a1.39,1.39,0,0,0-.27-0.59,2.3,2.3,0,0,1-.05-1.62,2.17,2.17,0,0,1,.92-1.08,2.34,2.34,0,0,1,1.46-.32,2,2,0,0,1,.54-0.65,2.08,2.08,0,0,1,1.19-.43,2.42,2.42,0,0,1,4.8-.38,1.63,1.63,0,0,1,1.51-.81,1.67,1.67,0,0,1,1.46,1.56l0.7-.05a1.66,1.66,0,0,1,.59-1.29,1.72,1.72,0,0,1,1.08-.32,2.2,2.2,0,0,1,1.51.49,0.69,0.69,0,0,0,1.35.27,1.5,1.5,0,0,1,1.29-.05,1.53,1.53,0,0,1,.76.76,1.21,1.21,0,0,1,.81.59,1.17,1.17,0,0,1,.11.76,0.67,0.67,0,0,1,1.29.27,0.67,0.67,0,0,1,.65-0.38,0.68,0.68,0,0,1,.59.65,1.65,1.65,0,0,1,1.4-.43,1.53,1.53,0,0,1,.86.54,1.16,1.16,0,0,1,.7-0.49,9.15,9.15,0,0,0,1,.11,0.56,0.56,0,0,0-.05-0.59,1.54,1.54,0,0,1,1.19-2.82,2.19,2.19,0,0,1,4.26-1,4.7,4.7,0,0,1,3,.38,2,2,0,0,1,4-.38l1.24-.7-3.56,6.1q-6.53,0-13.49.32C322.33,176.18,313.48,177,305.25,178.17Z"/><path class="cls-38" d="M430.23,139.59H557.52l-3.08,15.64-121.79.44Z"/><path class="cls-37" d="M264.78,192.21a1.49,1.49,0,0,1,1-.4c0.51,0,.64.38,1.21,0.4a2,2,0,0,0,1-.28c0.49-.26.46-0.45,0.81-0.61a1.53,1.53,0,0,1,1.86.49,1.27,1.27,0,0,1,0,1l0.89,0.08a1.81,1.81,0,0,1,.73-1.46,1.75,1.75,0,0,1,2.1.2,2.48,2.48,0,0,1,4.74,1.13,1.27,1.27,0,0,1,1.55.65,2.12,2.12,0,0,1,1.95,3.64l0.5,0.28a1.77,1.77,0,0,1,2.39-.57,1.74,1.74,0,0,1,.65,2l1.66,0.77a2.68,2.68,0,0,1,2.58-1,3.34,3.34,0,0,1,6.45-1,1.88,1.88,0,0,1,2.23-.36,1.86,1.86,0,0,1,.93,1.62l1.13,0.69a2.19,2.19,0,0,1,.08-1.34,2.09,2.09,0,0,1,1.42-1.25,2.14,2.14,0,0,1,1.66.49,2.75,2.75,0,0,1,.81.93l1.62-.16a1.51,1.51,0,0,1,1.17-.73,1.46,1.46,0,0,1,1.38,1.29A55.33,55.33,0,0,1,264.78,192.21Z"/><path class="cls-39" d="M438.37,107L550,106.78l3.71,16.08H433.94Z"/><path class="cls-37" d="M274.82,168.41a2,2,0,0,1,.59-1,7.5,7.5,0,0,0,1-.65,1.46,1.46,0,0,0,.27-1,1,1,0,0,1,1.13-1.46,0.64,0.64,0,0,0,.7,0,0.66,0.66,0,0,0,.27-0.49,1.09,1.09,0,0,1,.86-1.35,1,1,0,0,1,1,.76h0.65a1.44,1.44,0,0,1,.49-1.83,1.08,1.08,0,0,1,.86.09,1.88,1.88,0,0,1,3.29-1.69h1.4a1.61,1.61,0,0,1,2.21.14,1.52,1.52,0,0,1,.11,1.55h0.86a1.18,1.18,0,0,1,2.32-.36H294a1,1,0,0,1,1-.92,0.94,0.94,0,0,1,.76.76l0.57,0.15Z"/><path class="cls-37" d="M298.42,160.43a1.25,1.25,0,0,1,.95-1.9,1.57,1.57,0,0,1,2.48-1.7,1,1,0,0,1,.7-0.52,0.92,0.92,0,0,1,.92.52,1.58,1.58,0,0,1,1.56-1.65,1.56,1.56,0,0,1,1.4,1.35,3.72,3.72,0,0,1,2.21.43Z"/><circle class="cls-18" cx="295.35" cy="139.59" r="63.45"/><path class="cls-40" d="M432.21,155.23L556,155l-6.5,15.52-111.33.12Z"/><rect class="cls-41" x="432.21" y="122.85" width="123.77" height="16.74"/><path class="cls-39" d="M549.48,170.64a64.11,64.11,0,0,1-56.93,32.48c-35.56-.73-53.46-31-54.29-32.48"/><path class="cls-42" d="M475,173.61c1.18,0.06,3.32.15,5.73,0.11a12.44,12.44,0,0,0,3.41-.44c0.42-.12.76-0.24,1-0.33l1,1.87,6.39,4.18a5.46,5.46,0,0,0,1.76,2.64c1.16,0.9,2.23.84,3.74,1.32a11,11,0,0,1,4.29,2.63l-24.55-.12Z"/><path class="cls-43" d="M461.06,172.62a16.49,16.49,0,0,1,2.75-.33,28.89,28.89,0,0,1,6.28.77c1.13,0.18,2.83.42,5,.55,0.51,0.85,1.41,2.36,2.53,4.29,1.36,2.34,1.61,2.83,2.31,3.08,0.9,0.32,1.34-.18,5.07-0.88a6.51,6.51,0,0,1,1.87-.22c1.11,0.1,1.64.58,3.41,1.43a16.87,16.87,0,0,0,2.31,1,12.35,12.35,0,0,0,4.18.33c1.37,0.05,3.33.57,5.73,2.75l-32.48.21h-5.4Z"/><path class="cls-16" d="M433.53,120.37a1.89,1.89,0,0,1,1.87.94,1.75,1.75,0,0,1,.11,1.21,3.12,3.12,0,0,1,4.79,1.32,4.74,4.74,0,0,1,8.59,2.48,9.76,9.76,0,0,1,13.16-.5,10.55,10.55,0,0,1,2.31,2.86c1.47,2.3,4.15,5.29,9.47,8a11,11,0,0,1,11.78,6.94A10.85,10.85,0,0,1,482.75,155a4.23,4.23,0,0,1,5.51-.44,4.18,4.18,0,0,1,1.32,4.51,3.64,3.64,0,0,1,4,5.95,3.16,3.16,0,0,1,4.07-.55,3,3,0,0,1,1,2.31,1.81,1.81,0,0,1,3.38.88,18.76,18.76,0,0,1,6.31,3l-69-.12A64.07,64.07,0,0,1,433.53,120.37Z"/><path class="cls-44" d="M441.87,173.35a71.39,71.39,0,0,0,20.07-.87l3.74,10.38,4.29,1.65v1.09h-18.1q-2.82-3.29-5.68-6.8Q444,176,441.87,173.35Z"/><path class="cls-45" d="M441.88,173.45a32.39,32.39,0,0,0,7,2.56,4,4,0,0,1,2.23,1,11.61,11.61,0,0,1,1,1.4,8.93,8.93,0,0,0,1.57,1.65c1.45,1.11,2.3.17,4,1.07,1.49,0.77,1.1,1.51,3.06,2.81,1.53,1,3.06,1.39,3,1.59a1.58,1.58,0,0,1-.87,0c-0.7,0-1.4,0-2.11,0-1.5,0-1.4,0-3.84,0-1.54,0-1.73,0-2.87,0s-2.13.06-2.23,0.06C450.42,185.48,446.46,184.47,441.88,173.45Z"/><path class="cls-46" d="M504,181.38h-4l0.51,0.61,1.35,0.35,0.39-.18,0.77,0Z"/><path class="cls-46" d="M502.35,185.61a21.64,21.64,0,0,1-5.23,1.83,5.73,5.73,0,0,0-2.81,1.16,4.92,4.92,0,0,0-1.32,1.82,9.4,9.4,0,0,0-4.62,1.65c-1.15.83-1.24,1.36-3,2.64a9.41,9.41,0,0,1-3.3,1.82c-1.42.38-2,.05-3.3,0.17a8.33,8.33,0,0,0-5,2.48l-22-13.57h50.47Z"/><path class="cls-42" d="M473.83,182.2a7,7,0,0,1,4.4,1.43c0.74,0.61,1,1.12,2,2.09a14.23,14.23,0,0,0,3,2.2h-9.36V182.2Z"/><path class="cls-43" d="M466.89,187.93c0.3-.28.77-0.73,1.32-1.32,2-2.13,2.41-3.43,4-4.07a4.44,4.44,0,0,1,1.65-.33l1.21,1,2,0.66v3l3.3,1.1H466.89Z"/><path class="cls-46" d="M496.13,196.4H485.89l1.32,1.49,3.47,0.86,1-.43,2,0Z"/><path class="cls-43" d="M485.89,196.52h10.24L494.81,194l-3.47-1.49-1,.74-2,.08Z"/><path class="cls-42" d="M491.34,192.47c0.19,0.63.31,1.15,0.39,1.51a3.49,3.49,0,0,0,.28.94c0.17,0.34.27,0.31,0.61,0.83a1.81,1.81,0,0,0,.47.65,1.39,1.39,0,0,0,.74.12c0.42,0,.64,0,1,0s0.79,0,1.36,0l-1.4-2.56Z"/><path class="cls-43" d="M500,181.37h4l-0.51-.89-1.35-.51-0.39.26-0.77,0Z"/><path class="cls-42" d="M502.11,180l0.39,0.86a0.87,0.87,0,0,0,.35.5,1.43,1.43,0,0,0,.58,0l0.55,0-0.52-.89Z"/><polygon class="cls-43" points="510.33 187.49 508 190.74 518.35 190.74 516.47 188.78 512.1 187.49 510.33 187.49"/><polygon class="cls-46" points="510.33 192.47 508 190.75 518.35 190.75 516.47 191.79 512.1 192.47 510.33 192.47"/><path class="cls-42" d="M511.2,187.49l0.5,0.52,0.87,0.12a2.63,2.63,0,0,0,.78,1.36l0.95,0.08,0.87,0,0.78,1.13h2.39l-1.87-2-4.38-1.29H511.2Z"/><path class="cls-47" d="M437.45,167.57a76.48,76.48,0,0,0,10.79.54c2.11-.06,4-0.22,4-0.22,2.78-.23,4.27-0.54,8.91-0.77,0,0,10.92-.56,19,2a16.08,16.08,0,0,1,3.3,1.82c1.5,1,1.75,1.63,1.65,2-0.5,1.87-11.22.63-12.39,0.5-3.56-.41-4.75-0.83-6.56-1a14.32,14.32,0,0,0-5.43.31,52.86,52.86,0,0,1-5.62.74,59,59,0,0,1-6.59.3c-2,0-4.34-.09-6.92-0.35Z"/><path class="cls-48" d="M458.64,168.55H477a2,2,0,0,1,2,2v0a0,0,0,0,1,0,0H456.87a0,0,0,0,1,0,0v-0.21a1.76,1.76,0,0,1,1.76-1.76Z"/><path class="cls-49" d="M476.39,161.06h-16.8a1.12,1.12,0,0,0-1.11,1l-0.72,6.5h20.43l-0.68-6.5A1.11,1.11,0,0,0,476.39,161.06Z"/><path class="cls-50" d="M468.05,163.7h0a1.37,1.37,0,0,1,1.37,1.37v3.47a0,0,0,0,1,0,0h-2.75a0,0,0,0,1,0,0v-3.47A1.38,1.38,0,0,1,468.05,163.7Z"/><polygon class="cls-51" points="460.45 161.06 468.05 161.06 467.97 127.64 460.45 127.64 462.52 129.46 460.45 161.06"/><path class="cls-48" d="M475.57,161.06H468V127.64h7.6l-2.06,1.82Z"/><path class="cls-52" d="M462.52,129.46l-0.41,6.28,11.55-3.8-0.15-2.48h-11Z"/><polygon class="cls-52" points="461.71 141.77 461.3 148.08 474.47 144.35 474.04 137.72 461.71 141.77"/><path class="cls-52" d="M460.89,154.47l-0.44,6.59,14.8-4.85-0.4-6.16Z"/><path class="cls-48" d="M467.94,151.65h0a0.73,0.73,0,0,1,.73.73v2.14a0.05,0.05,0,0,1-.05.05h-1.37a0.05,0.05,0,0,1-.05-0.05v-2.12A0.74,0.74,0,0,1,467.94,151.65Z"/><rect class="cls-53" x="467.37" y="152.16" width="1.14" height="2.11"/><path class="cls-48" d="M467.94,142.07h0a0.73,0.73,0,0,1,.73.73v2.14a0.05,0.05,0,0,1-.05.05h-1.37a0.05,0.05,0,0,1-.05-0.05v-2.12a0.74,0.74,0,0,1,.74-0.74Z"/><rect class="cls-53" x="467.37" y="142.58" width="1.14" height="2.11"/><path class="cls-48" d="M468.06,132.38h0a0.73,0.73,0,0,1,.73.73v2.14a0.05,0.05,0,0,1-.05.05h-1.37a0.05,0.05,0,0,1-.05-0.05v-2.12a0.74,0.74,0,0,1,.74-0.74Z"/><rect class="cls-53" x="467.48" y="132.9" width="1.14" height="2.11"/><path class="cls-16" d="M556,137.88a2.24,2.24,0,0,0-2,1,2.36,2.36,0,0,0-.17,2.15,1.75,1.75,0,0,0,0,3.39,2.91,2.91,0,0,0-1,1.32,2.85,2.85,0,0,0-.17,1.16,4.6,4.6,0,0,0-6.94,4.87,2.12,2.12,0,0,0-2.23,1.9,2.33,2.33,0,0,0-3.72,2.15,4.72,4.72,0,0,0-4,0,4.6,4.6,0,0,0-2.23,2.64,3.51,3.51,0,0,0-2.31.74,3.47,3.47,0,0,0-1.16,1.73,3.33,3.33,0,0,0-5.86,1.32,1.47,1.47,0,0,0-1.49,1.16,1.58,1.58,0,0,0,.91,1.16,2.06,2.06,0,0,0,1,.25,3,3,0,0,0-1.32.33,2.22,2.22,0,0,0-.83.66,2.14,2.14,0,0,0-.39,1.38,1.4,1.4,0,0,0-1.93-.66,1.37,1.37,0,0,0-.5,1.6,1.35,1.35,0,0,0-1.21.22,1.29,1.29,0,0,0-.36,1.43,1.87,1.87,0,0,0-1.82.88h32A48.37,48.37,0,0,0,556,137.88Z"/><path class="cls-54" d="M448,134.46a3.19,3.19,0,0,1,1.94,1,3.15,3.15,0,0,1,.78,1.65,3.59,3.59,0,0,1,3.55-1.73,2.67,2.67,0,0,0-3.39.58,2.36,2.36,0,0,0-1-1.28A2.39,2.39,0,0,0,448,134.46Z"/><path class="cls-55" d="M452.25,90.26L534.84,90,550,107l-111.66.22Z"/><path class="cls-56" d="M456.43,90.25a58.08,58.08,0,0,1,75.32,0H456.43Z"/><path class="cls-54" d="M496.45,158.4a3.19,3.19,0,0,1,2.18.09,3.15,3.15,0,0,1,1.41,1.17,3.59,3.59,0,0,1,2.5-3.06,2.67,2.67,0,0,0-2.83,1.95,2.36,2.36,0,0,0-1.47-.73A2.39,2.39,0,0,0,496.45,158.4Z"/><path class="cls-54" d="M515,144.21a3.19,3.19,0,0,1,1.93,1,3.15,3.15,0,0,1,.76,1.66,3.21,3.21,0,0,1,2.88-1.63,2.38,2.38,0,0,0-2.7.48,2.36,2.36,0,0,0-1-1.29A2.39,2.39,0,0,0,515,144.21Z"/><path class="cls-54" d="M526.57,135.23a3.19,3.19,0,0,1,2.09.61,3.15,3.15,0,0,1,1.08,1.47,3.21,3.21,0,0,1,2.49-2.18,2.38,2.38,0,0,0-2.55,1,2.36,2.36,0,0,0-1.26-1.06A2.39,2.39,0,0,0,526.57,135.23Z"/><path class="cls-54" d="M521.9,128.58a2.55,2.55,0,0,1,1.74.1,2.52,2.52,0,0,1,1.1,1,2.56,2.56,0,0,1,1.55-2.13,3.67,3.67,0,0,0-1.91.91,2.35,2.35,0,0,0-1.05-.28A2.4,2.4,0,0,0,521.9,128.58Z"/><path class="cls-54" d="M479.7,101.29a3.19,3.19,0,0,1,2.18.07,3.15,3.15,0,0,1,1.41,1.16,3.21,3.21,0,0,1,1.88-2.72,2.38,2.38,0,0,0-2.22,1.61,2.36,2.36,0,0,0-1.48-.72A2.39,2.39,0,0,0,479.7,101.29Z"/><rect class="cls-57" x="462.68" y="120.75" width="10.69" height="6.9"/><rect class="cls-58" x="464.46" y="120.75" width="0.37" height="6.9"/><rect class="cls-58" x="466.78" y="120.75" width="0.37" height="6.9"/><rect class="cls-58" x="468.98" y="120.75" width="0.37" height="6.9"/><rect class="cls-58" x="471.31" y="120.75" width="0.37" height="6.9"/><path class="cls-59" d="M473.53,120.75h-11.1a0.27,0.27,0,1,1,0-.44h11.08A0.24,0.24,0,1,1,473.53,120.75Z"/><path class="cls-52" d="M462.46,120.3a5.62,5.62,0,0,1,2.28-4,5.52,5.52,0,0,1,3.19-.81,5.39,5.39,0,0,1,5.67,4.87H462.46Z"/><rect class="cls-60" x="467.67" y="114.8" width="0.52" height="0.65"/><rect class="cls-60" x="467.32" y="114.27" width="1.17" height="0.53" rx="0.26" ry="0.26"/><path class="cls-60" d="M467.89,107.9h0a0.09,0.09,0,0,1,.09.09v6.28a0,0,0,0,1,0,0h-0.2a0,0,0,0,1,0,0V108A0.08,0.08,0,0,1,467.89,107.9Z"/><polygon class="cls-60" points="467.8 108.14 465.01 109.72 467.8 111.37 467.8 108.14"/><polygon class="cls-61" points="462.52 129.46 468.05 129.46 467.97 161.06 460.45 161.06 462.52 129.46"/><rect class="cls-62" x="460.74" y="125.76" width="0.39" height="1.88"/><rect class="cls-62" x="462.75" y="125.76" width="0.39" height="1.88"/><rect class="cls-62" x="464.4" y="125.76" width="0.39" height="1.88"/><rect class="cls-62" x="466.05" y="125.76" width="0.39" height="1.88"/><rect class="cls-62" x="467.66" y="125.76" width="0.39" height="1.88"/><rect class="cls-62" x="469.67" y="125.76" width="0.39" height="1.88"/><rect class="cls-62" x="471.34" y="125.76" width="0.39" height="1.88"/><rect class="cls-62" x="472.98" y="125.76" width="0.39" height="1.88"/><rect class="cls-62" x="474.98" y="125.76" width="0.39" height="1.88"/><rect class="cls-62" x="460.94" y="126.33" width="14.44" height="0.37"/><path class="cls-63" d="M467.91,120.31h-5.45a5.26,5.26,0,0,1,1.71-3.67,5.51,5.51,0,0,1,2-1,5.84,5.84,0,0,1,1.75-.2Z"/><path class="cls-64" d="M487.07,173h1.86a1.59,1.59,0,0,1-.3.17l-0.21.07a2.13,2.13,0,0,1-.23.29l-0.18.17a0.66,0.66,0,0,0-.41-0.34A1,1,0,0,1,487.07,173Z"/><path class="cls-64" d="M495.27,172.28h1.86a1.59,1.59,0,0,1-.3.17l-0.21.07a2.13,2.13,0,0,1-.23.29l-0.18.17a0.66,0.66,0,0,0-.41-0.34A1,1,0,0,1,495.27,172.28Z"/><path class="cls-64" d="M495.7,176.31h2.12a1.83,1.83,0,0,1-.35.18l-0.24.08a2.37,2.37,0,0,1-.27.32l-0.2.18a0.74,0.74,0,0,0-.22-0.26,0.77,0.77,0,0,0-.25-0.12,1.21,1.21,0,0,1-.31-0.14A1.18,1.18,0,0,1,495.7,176.31Z"/><path class="cls-64" d="M503.42,171.68h1.67l-0.18.1-0.1,0-0.17.08a0.3,0.3,0,0,0-.15.09,0.87,0.87,0,0,0-.08.14,0.41,0.41,0,0,1-.16.14,0.59,0.59,0,0,0-.17-0.2,0.61,0.61,0,0,0-.2-0.1,1,1,0,0,1-.25-0.11A0.93,0.93,0,0,1,503.42,171.68Z"/><path class="cls-64" d="M505,176.69h1.67l-0.18.1-0.1,0-0.17.08a0.3,0.3,0,0,0-.15.09,0.87,0.87,0,0,0-.08.14,0.41,0.41,0,0,1-.16.14,0.59,0.59,0,0,0-.17-0.2,0.61,0.61,0,0,0-.2-0.1,1,1,0,0,1-.25-0.11A0.93,0.93,0,0,1,505,176.69Z"/><path class="cls-64" d="M509.39,173h1.39l-0.15.09-0.08,0a1.17,1.17,0,0,0-.26.15,0.8,0.8,0,0,0-.07.13,0.36,0.36,0,0,1-.13.13,0.52,0.52,0,0,0-.14-0.18,0.49,0.49,0,0,0-.17-0.09,0.77,0.77,0,0,1-.21-0.1A0.8,0.8,0,0,1,509.39,173Z"/><path class="cls-64" d="M514.67,171.68h1.83l-0.19.11-0.1,0a1.58,1.58,0,0,0-.35.19,1,1,0,0,0-.09.16,0.45,0.45,0,0,1-.18.16,0.64,0.64,0,0,0-.19-0.22,0.66,0.66,0,0,0-.22-0.11,1,1,0,0,1-.27-0.12A1,1,0,0,1,514.67,171.68Z"/><path class="cls-64" d="M515.59,175.31h1.67l-0.18.1-0.1,0a1.44,1.44,0,0,0-.32.17,0.87,0.87,0,0,0-.08.14,0.41,0.41,0,0,1-.16.14,1.83,1.83,0,0,0-.37-0.3,1,1,0,0,1-.25-0.11A0.93,0.93,0,0,1,515.59,175.31Z"/><path class="cls-64" d="M509.8,179.28h2l-0.21.14-0.11.06-0.2.12a1.28,1.28,0,0,0-.26.32,0.53,0.53,0,0,1-.19.2,0.81,0.81,0,0,0-.2-0.29,0.66,0.66,0,0,0-.23-0.14,1,1,0,0,1-.29-0.15A1.19,1.19,0,0,1,509.8,179.28Z"/><path class="cls-64" d="M523.07,173.67h1.39l-0.15.09-0.08,0a1.17,1.17,0,0,0-.26.15,0.8,0.8,0,0,0-.07.13,0.36,0.36,0,0,1-.13.13,0.52,0.52,0,0,0-.14-0.18,0.49,0.49,0,0,0-.17-0.09,0.77,0.77,0,0,1-.21-0.1A0.8,0.8,0,0,1,523.07,173.67Z"/><path class="cls-64" d="M527.8,172h1.83l-0.19.11-0.1,0a1.58,1.58,0,0,0-.35.19,1,1,0,0,0-.09.16,0.45,0.45,0,0,1-.18.16,0.64,0.64,0,0,0-.19-0.22,0.66,0.66,0,0,0-.22-0.11,1,1,0,0,1-.27-0.12A1,1,0,0,1,527.8,172Z"/><path class="cls-64" d="M528.71,179.28h2l-0.21.14-0.11.06-0.2.12a1.28,1.28,0,0,0-.26.32,0.53,0.53,0,0,1-.19.2,0.81,0.81,0,0,0-.2-0.29,0.66,0.66,0,0,0-.23-0.14,1,1,0,0,1-.29-0.15A1.19,1.19,0,0,1,528.71,179.28Z"/><path class="cls-64" d="M520,178h2.66l-0.28.11-0.15,0a2.75,2.75,0,0,0-.5.19,0.93,0.93,0,0,0-.13.16,0.63,0.63,0,0,1-.26.16,0.77,0.77,0,0,0-.28-0.22,1.19,1.19,0,0,0-.32-0.11,1.94,1.94,0,0,1-.39-0.12A1.46,1.46,0,0,1,520,178Z"/><path class="cls-64" d="M522.24,182.58h1.67l-0.18.1-0.1,0-0.17.08a0.3,0.3,0,0,0-.15.09,0.87,0.87,0,0,0-.08.14,0.41,0.41,0,0,1-.16.14,0.59,0.59,0,0,0-.17-0.2,0.61,0.61,0,0,0-.2-0.1,1,1,0,0,1-.25-0.11A0.93,0.93,0,0,1,522.24,182.58Z"/><path class="cls-64" d="M533.66,173.67h1.39l-0.15.09-0.08,0a1.17,1.17,0,0,0-.26.15,0.8,0.8,0,0,0-.07.13,0.36,0.36,0,0,1-.13.13,0.52,0.52,0,0,0-.14-0.18,0.49,0.49,0,0,0-.17-0.09,0.77,0.77,0,0,1-.21-0.1A0.8,0.8,0,0,1,533.66,173.67Z"/><path class="cls-64" d="M538.07,178.61h1.83l-0.19.11-0.1,0a1.58,1.58,0,0,0-.35.19,1,1,0,0,0-.09.16,0.45,0.45,0,0,1-.18.16,0.64,0.64,0,0,0-.19-0.22,0.66,0.66,0,0,0-.22-0.11,1,1,0,0,1-.27-0.12A1,1,0,0,1,538.07,178.61Z"/><path class="cls-64" d="M525.48,187.86h3.24l-0.34.14-0.18.06a3.29,3.29,0,0,0-.61.23,1.16,1.16,0,0,0-.15.2,0.76,0.76,0,0,1-.31.2,1,1,0,0,0-.34-0.28,1.43,1.43,0,0,0-.38-0.13,2.31,2.31,0,0,1-.48-0.15A1.77,1.77,0,0,1,525.48,187.86Z"/><path class="cls-65" d="M496.76,188.82h1.67l-0.18.1-0.1,0L498,189a0.3,0.3,0,0,0-.15.09,0.87,0.87,0,0,0-.08.14,0.41,0.41,0,0,1-.16.14,0.59,0.59,0,0,0-.17-0.2,0.61,0.61,0,0,0-.2-0.1A1,1,0,0,1,497,189,0.93,0.93,0,0,1,496.76,188.82Z"/><path class="cls-65" d="M514.89,193h1.39l-0.15.09-0.08,0a1.17,1.17,0,0,0-.26.15,0.8,0.8,0,0,0-.07.13,0.36,0.36,0,0,1-.13.13,0.52,0.52,0,0,0-.14-0.18,0.49,0.49,0,0,0-.17-0.09,0.77,0.77,0,0,1-.21-0.1A0.8,0.8,0,0,1,514.89,193Z"/><path class="cls-65" d="M503.42,192.08h1.67l-0.18.1-0.1,0a1.44,1.44,0,0,0-.32.17,0.87,0.87,0,0,0-.08.14,0.41,0.41,0,0,1-.16.14,1.83,1.83,0,0,0-.37-0.3,1,1,0,0,1-.25-0.11A0.93,0.93,0,0,1,503.42,192.08Z"/><path class="cls-65" d="M500.65,198.09h2.66l-0.28.11-0.15,0a2.75,2.75,0,0,0-.5.19,0.93,0.93,0,0,0-.13.16,0.63,0.63,0,0,1-.26.16,0.77,0.77,0,0,0-.28-0.22,1.19,1.19,0,0,0-.32-0.11,1.94,1.94,0,0,1-.39-0.12A1.46,1.46,0,0,1,500.65,198.09Z"/><path class="cls-64" d="M513,183.53h3.24l-0.34.14-0.18.06a3.29,3.29,0,0,0-.61.23,1.16,1.16,0,0,0-.15.2,0.76,0.76,0,0,1-.31.2,1,1,0,0,0-.34-0.28,1.43,1.43,0,0,0-.38-0.13,2.31,2.31,0,0,1-.48-0.15A1.77,1.77,0,0,1,513,183.53Z"/><circle class="cls-66" cx="493.79" cy="139.13" r="63.45"/></svg>