<svg id="Layer_1" data-name="Layer 1" xmlns="http://www.w3.org/2000/svg" viewBox="0 0 153.99 171.29"><defs><style>.cls-1{fill:#6fc49a;stroke-width:2.9px;}.cls-1,.cls-3,.cls-4{stroke:#fff;}.cls-1,.cls-4{stroke-miterlimit:10;}.cls-2,.cls-4{fill:#fff;}.cls-3{fill:none;stroke-linecap:round;stroke-linejoin:round;stroke-width:0.99px;}.cls-4{stroke-width:1.53px;}</style></defs><title>paper</title><path class="cls-1" d="M176.58,209.83l-55.92,32.28a19.63,19.63,0,0,1-19.63,0L45.12,209.83a19.63,19.63,0,0,1-9.81-17V128.27a19.63,19.63,0,0,1,9.81-17L101,79a19.63,19.63,0,0,1,19.63,0l55.92,32.28a19.63,19.63,0,0,1,9.81,17v64.57A19.63,19.63,0,0,1,176.58,209.83Z" transform="translate(-33.85 -74.9)"/><path id="rect3368" class="cls-2" d="M103.81,171.15h7.12a0.34,0.34,0,0,1,.31.37v0.69a0.34,0.34,0,0,1-.31.37h-7.12a0.34,0.34,0,0,1-.31-0.37v-0.69A0.34,0.34,0,0,1,103.81,171.15Z" transform="translate(-33.85 -74.9)"/><path id="rect3368-1" class="cls-2" d="M103.78,173.16h7.12a0.34,0.34,0,0,1,.31.37v0.69a0.34,0.34,0,0,1-.31.37h-7.12a0.34,0.34,0,0,1-.31-0.37v-0.69A0.34,0.34,0,0,1,103.78,173.16Z" transform="translate(-33.85 -74.9)"/><path id="rect3368-1-2" class="cls-2" d="M103.78,175.13h7.12a0.34,0.34,0,0,1,.31.37v0.69a0.34,0.34,0,0,1-.31.37h-7.12a0.34,0.34,0,0,1-.31-0.37V175.5A0.34,0.34,0,0,1,103.78,175.13Z" transform="translate(-33.85 -74.9)"/><path id="path3400" class="cls-2" d="M105.09,177.26a2.87,2.87,0,0,0,2.17,1.14,2.9,2.9,0,0,0,2.31-1.18Z" transform="translate(-33.85 -74.9)"/><path class="cls-2" d="M117,154.44a9.6,9.6,0,0,0-19.18,0,8.87,8.87,0,0,0,1.77,5.3,25.57,25.57,0,0,1,2.75,5.9,0.51,0.51,0,0,1,0,.17v3.72a0.51,0.51,0,0,0,.51.51h8.87a0.51,0.51,0,0,0,.51-0.51v-3.66h0a26.72,26.72,0,0,1,3.26-6.52h0A8.85,8.85,0,0,0,117,154.44Z" transform="translate(-33.85 -74.9)"/><rect id="rect3531" class="cls-3" x="73" y="62.08" width="0.35" height="6.2"/><polygon id="rect3531-0" class="cls-3" points="87.79 68.87 88.03 69.13 83.22 73.19 82.98 72.93 87.79 68.87"/><polygon id="rect3531-6" class="cls-3" points="80.45 66.05 80.72 66.18 78.73 69.68 78.46 69.55 80.45 66.05"/><polygon id="rect3531-0-4" class="cls-3" points="58.37 68.9 58.14 69.16 62.95 73.22 63.18 72.96 58.37 68.9"/><polygon id="rect3531-6-9" class="cls-3" points="65.85 65.82 65.58 65.95 67.56 69.44 67.83 69.31 65.85 65.82"/><polygon id="rect3531-6-2" class="cls-3" points="89.65 77.01 89.67 77.3 85.57 77.48 85.54 77.19 89.65 77.01"/><polygon id="rect3531-6-2-5" class="cls-3" points="57.07 74.88 57.04 75.17 61.14 75.35 61.17 75.06 57.07 74.88"/><path class="cls-4" d="M152.05,136.75c0-10.39-3.84-14.22-8.57-14.22H85.19a8.84,8.84,0,0,0-8.83,8.83v55.53H67.78c0,13,4.79,14.93,10.7,14.93H129.6a8.84,8.84,0,0,0,8.83-8.83V136.75h13.62ZM134.9,193a5.3,5.3,0,0,1-5.3,5.3c-4.73,0-7.15-1-7.15-11.4H79.9V131.36a5.3,5.3,0,0,1,5.3-5.3h52c-1.4,2.22-2.27,5.58-2.31,10.38a3.11,3.11,0,0,0,0,.31V193h0Z" transform="translate(-33.85 -74.9)"/></svg>