<svg id="Layer_1" data-name="Layer 1" xmlns="http://www.w3.org/2000/svg" viewBox="0 0 153.99 171.29"><defs><style>.cls-1{fill:#6fc49a;stroke:#fff;stroke-miterlimit:10;stroke-width:2.9px;}.cls-2{fill:#fff;}</style></defs><title>perfecting</title><path class="cls-1" d="M799.71,215.06l-55.92,32.28a19.63,19.63,0,0,1-19.63,0l-55.92-32.28a19.63,19.63,0,0,1-9.81-17V133.5a19.63,19.63,0,0,1,9.81-17l55.92-32.28a19.63,19.63,0,0,1,19.63,0l55.92,32.28a19.63,19.63,0,0,1,9.81,17v64.57A19.63,19.63,0,0,1,799.71,215.06Z" transform="translate(-656.98 -80.14)"/><circle class="cls-2" cx="58.5" cy="108.17" r="5.94"/><path class="cls-2" d="M707,188.31a7.68,7.68,0,0,1,.46-2.63,0.26,0.26,0,0,0-.16-0.33h-7.6a3.09,3.09,0,0,0-3.13,2.66,3,3,0,0,0,2.65,3.26l0.31,0h7.65a0.26,0.26,0,0,0,.24-0.34A7.68,7.68,0,0,1,707,188.31Z" transform="translate(-656.98 -80.14)"/><path class="cls-2" d="M724,188.31a7.68,7.68,0,0,1-.46,2.63,0.26,0.26,0,0,0,.16.33h45.43a3.09,3.09,0,0,0,3.13-2.66,3,3,0,0,0-2.65-3.26l-0.25,0H723.74a0.26,0.26,0,0,0-.24.34A7.68,7.68,0,0,1,724,188.31Z" transform="translate(-656.98 -80.14)"/><circle class="cls-2" cx="87.02" cy="87.28" r="5.94"/><path class="cls-2" d="M735.5,167.42a8,8,0,0,1,.49-2.61,0.27,0.27,0,0,0-.18-0.34H699.68a3.09,3.09,0,0,0-3.13,2.66,3,3,0,0,0,2.65,3.26l0.31,0h36.18a0.27,0.27,0,0,0,.25-0.36A8,8,0,0,1,735.5,167.42Z" transform="translate(-656.98 -80.14)"/><path class="cls-2" d="M752.48,167.42A8,8,0,0,1,752,170a0.27,0.27,0,0,0,.18.34h16.91a3.09,3.09,0,0,0,3.13-2.66,3,3,0,0,0-2.65-3.26l-0.25,0H752.24a0.27,0.27,0,0,0-.25.36A8,8,0,0,1,752.48,167.42Z" transform="translate(-656.98 -80.14)"/><circle class="cls-2" cx="70.38" cy="64.12" r="5.94"/><path class="cls-2" d="M718.86,144.24a8,8,0,0,1,.49-2.61,0.27,0.27,0,0,0-.18-0.34H699.68a3.09,3.09,0,0,0-3.13,2.66,3,3,0,0,0,2.65,3.26l0.31,0H719a0.27,0.27,0,0,0,.25-0.36A8,8,0,0,1,718.86,144.24Z" transform="translate(-656.98 -80.14)"/><path class="cls-2" d="M735.84,144.24a8,8,0,0,1-.49,2.63,0.27,0.27,0,0,0,.18.34h33.55a3.09,3.09,0,0,0,3.13-2.66,3,3,0,0,0-2.63-3.28l-0.27,0H735.6a0.27,0.27,0,0,0-.25.36A8,8,0,0,1,735.84,144.24Z" transform="translate(-656.98 -80.14)"/></svg>