<svg id="Layer_1" data-name="Layer 1" xmlns="http://www.w3.org/2000/svg" viewBox="0 0 153.99 171.29"><defs><style>.cls-1{fill:#6fc49a;stroke:#fff;stroke-width:2.9px;}.cls-1,.cls-4{stroke-miterlimit:10;}.cls-2{fill:#fff;}.cls-3{fill:#f9f9f9;}.cls-4{fill:none;stroke:#f9f9f9;stroke-width:3.84px;}</style></defs><title>pixel</title><path class="cls-1" d="M476.58,210.46l-55.92,32.28a19.63,19.63,0,0,1-19.63,0l-55.92-32.28a19.63,19.63,0,0,1-9.81-17V128.89a19.63,19.63,0,0,1,9.81-17L401,79.61a19.63,19.63,0,0,1,19.63,0l55.92,32.28a19.63,19.63,0,0,1,9.81,17v64.57A19.63,19.63,0,0,1,476.58,210.46Z" transform="translate(-333.85 -75.53)"/><path class="cls-2" d="M450.83,166.92v-6a3.41,3.41,0,0,0-3.41-3.41h-1.18A34.07,34.07,0,0,0,425,132.16h12.89a6.66,6.66,0,1,0,0-3.91l-19.6,0v-1a3.41,3.41,0,0,0-3.41-3.41h-6a3.41,3.41,0,0,0-3.41,3.41v1l-19.6,0a6.66,6.66,0,1,0,0,3.91h12.89a34.07,34.07,0,0,0-21.35,25.29H376a3.41,3.41,0,0,0-3.41,3.41v6a3.41,3.41,0,0,0,3.41,3.41h6a3.41,3.41,0,0,0,3.41-3.41v-6a3.41,3.41,0,0,0-3.41-3.41h-0.66a30.12,30.12,0,0,1,24.28-23.13,3.37,3.37,0,0,0,3.21,2.31h6a3.4,3.4,0,0,0,3.21-2.3,30.11,30.11,0,0,1,24.23,23.19h-0.85A3.41,3.41,0,0,0,438,160.9v6a3.41,3.41,0,0,0,3.41,3.41h6A3.41,3.41,0,0,0,450.83,166.92Zm-69.34-5.57v5h-5v-5h5Zm27.84-28.65v-2.5h0v-2.5h5v5h-5Zm32.59,33.72v-5h5v5h-5Z" transform="translate(-333.85 -75.53)"/><path class="cls-3" d="M429.75,179.14a29.55,29.55,0,0,0-6.34,17.09v0.08L401.11,196v0a23.5,23.5,0,0,0-1.63-8.44,24.66,24.66,0,0,0-4.77-7.86,1.48,1.48,0,0,1,0-2A42.41,42.41,0,0,0,406,149.58c1.43,0,2.84,0,4.27,0,0,7.5.09,15.07,0.11,22.55a4.08,4.08,0,0,0-1.92,4.32,3.88,3.88,0,0,0,3.69,3,4,4,0,0,0,4.24-3.65,4.24,4.24,0,0,0-2-3.65c-0.1-7.52-.19-15-0.27-22.56,1.33,0,2.64,0,4,0a41.51,41.51,0,0,0,4.22,17.1A38.93,38.93,0,0,0,429.64,177,1.58,1.58,0,0,1,429.75,179.14Z" transform="translate(-333.85 -75.53)"/><path class="cls-4" d="M397.26,196.11l29.8,0a0.87,0.87,0,0,1,.69,1l0.06,7.24a0.83,0.83,0,0,1-.67.95l-29.8,0a0.87,0.87,0,0,1-.69-1l-0.06-7.24A0.83,0.83,0,0,1,397.26,196.11Z" transform="translate(-333.85 -75.53)"/></svg>