<?xml version="1.0" encoding="utf-8"?>
<!-- Generator: Adobe Illustrator 19.2.1, SVG Export Plug-In . SVG Version: 6.00 Build 0)  -->
<svg version="1.1" id="Layer_1" xmlns="http://www.w3.org/2000/svg" xmlns:xlink="http://www.w3.org/1999/xlink" x="0px" y="0px"
	 viewBox="0 0 904.5 526.8" style="enable-background:new 0 0 904.5 526.8;" xml:space="preserve">
<style type="text/css">
	.st0{fill:none;stroke:#70C49B;stroke-width:3;stroke-miterlimit:10;}
	.st1{opacity:0.53;fill:none;stroke:#70C49B;stroke-miterlimit:10;enable-background:new    ;}
	.st2{fill:#70C49C;stroke:#B9DFC7;stroke-width:2;stroke-miterlimit:10;}
	.st3{opacity:0.53;fill:none;stroke:#70C49B;stroke-width:0.9863;stroke-miterlimit:10;enable-background:new    ;}
	.st4{fill:#FFFFFF;}
	.st5{fill:none;stroke:#FFFFFF;stroke-width:2.49;stroke-miterlimit:10;}
	.st6{fill:none;stroke:#FFFFFF;stroke-width:1.64;stroke-linecap:round;stroke-linejoin:round;}
	.st7{fill:none;stroke:#FFFFFF;stroke-width:2.43;stroke-miterlimit:10;}
	.st8{fill:#FFFFFF;stroke:#FFFFFF;stroke-width:1.17;stroke-miterlimit:10;}
	.st9{fill:#70C49C;}
	.st10{fill:#474648;}
</style>
<title>skills</title>
<line class="st0" x1="76.4" y1="179.5" x2="218.9" y2="179.5"/>
<line class="st0" x1="377.2" y1="179.5" x2="519.7" y2="179.5"/>
<line class="st1" x1="305.4" y1="27" x2="305.4" y2="241.1"/>
<line class="st1" x1="600.2" y1="27" x2="600.2" y2="241.1"/>
<line class="st0" x1="673" y1="181.9" x2="815.5" y2="181.9"/>
<line class="st0" x1="76.4" y1="447.1" x2="218.9" y2="447.1"/>
<line class="st1" x1="305.9" y1="299.5" x2="305.9" y2="513.6"/>
<line class="st1" x1="600.2" y1="299.5" x2="600.2" y2="513.6"/>
<path class="st2" d="M193.8,133.3l-39.1,22.6c-4.2,2.5-9.5,2.5-13.7,0l-39.1-22.6c-4.2-2.5-6.9-7-6.9-11.9V76.3
	c0-4.9,2.6-9.4,6.9-11.9L141,41.8c4.2-2.5,9.5-2.5,13.7,0l39.1,22.6c4.2,2.5,6.9,7,6.9,11.9v45.2
	C200.7,126.4,198.1,130.9,193.8,133.3z"/>
<line class="st3" x1="12.8" y1="270.4" x2="873" y2="270.4"/>
<line class="st0" x1="381" y1="448.5" x2="523.5" y2="448.5"/>
<line class="st0" x1="680.7" y1="447.2" x2="823.2" y2="447.2"/>
<path id="rect3368" class="st4" d="M142.4,126h11.8c0.3,0,0.5,0.3,0.5,0.6c0,0,0,0,0,0l0,0v1.2c0,0.3-0.2,0.6-0.5,0.6c0,0,0,0,0,0
	h-11.8c-0.3,0-0.5-0.3-0.5-0.6c0,0,0,0,0,0l0,0v-1.2C141.8,126.3,142,126,142.4,126C142.3,126,142.3,126,142.4,126L142.4,126
	L142.4,126z"/>
<path id="rect3368-1" class="st4" d="M142.3,129.3h11.8c0.3,0,0.5,0.3,0.5,0.6c0,0,0,0,0,0l0,0v1.1c0,0.3-0.2,0.6-0.5,0.6
	c0,0,0,0,0,0h-11.8c-0.3,0-0.5-0.3-0.5-0.6c0,0,0,0,0,0l0,0v-1.1C141.8,129.6,142,129.4,142.3,129.3
	C142.3,129.3,142.3,129.3,142.3,129.3L142.3,129.3L142.3,129.3z"/>
<path class="st5" d="M164.3,96.9c-0.4-8.8-7.8-15.6-16.6-15.2c-8.3,0.4-14.9,7-15.2,15.2c0,3.2,1,6.3,2.9,8.8
	c1.9,3.1,3.5,6.4,4.6,9.8c0,0.1,0,0.2,0,0.3v6.2c0,0.5,0.4,0.8,0.9,0.8l0,0h14.7c0.5,0,0.9-0.4,0.9-0.8c0,0,0,0,0,0v-6.1l0,0
	c1.3-3.9,3.1-7.5,5.4-10.9l0,0C163.4,102.6,164.3,99.8,164.3,96.9z"/>
<rect id="rect3531" x="147.4" y="64.6" class="st6" width="0.6" height="10.3"/>
<path class="st2" d="M192.6,398.7l-39.1,22.6c-4.2,2.5-9.5,2.5-13.7,0l-39.1-22.6c-4.2-2.5-6.9-7-6.9-11.9v-45.2
	c0-4.9,2.6-9.4,6.9-11.9l39.1-22.6c4.2-2.5,9.5-2.5,13.7,0l39.1,22.6c4.2,2.5,6.9,7,6.9,11.9v45.2
	C199.5,391.7,196.9,396.2,192.6,398.7z"/>
<path class="st2" d="M796.4,398.9l-39.1,22.6c-4.2,2.5-9.5,2.5-13.7,0l-39.1-22.6c-4.3-2.5-6.9-7-6.9-11.9v-45.1
	c0-4.9,2.6-9.4,6.9-11.9l39.1-22.6c4.2-2.5,9.5-2.5,13.7,0l39.1,22.6c4.2,2.5,6.9,7,6.9,11.9V387
	C803.2,391.9,800.6,396.5,796.4,398.9z"/>
<path class="st2" d="M495.2,398.7l-39.1,22.6c-4.2,2.5-9.5,2.5-13.7,0l-39.1-22.6c-4.2-2.5-6.9-7-6.9-11.9v-45.2
	c0-4.9,2.6-9.4,6.9-11.9l39.1-22.6c4.2-2.5,9.5-2.5,13.7,0l39.1,22.6c4.2,2.5,6.9,7,6.9,11.9v45.2
	C502.1,391.7,499.5,396.2,495.2,398.7z"/>
<polygon id="rect3531-0" class="st6" points="175.3,77.3 175.7,77.8 167.7,84.5 167.3,84.1 "/>
<polygon id="rect3531-6" class="st6" points="161.5,71.2 161.9,71.4 158.6,77.2 158.2,77 "/>
<polygon id="rect3531-0-4" class="st6" points="121.5,75.6 121.1,76 129.1,82.8 129.5,82.3 "/>
<polygon id="rect3531-6-9" class="st6" points="133.9,70.8 133.4,71 136.7,76.8 137.2,76.6 "/>
<polygon id="rect3531-6-2" class="st6" points="178.4,92.7 178.4,93.2 171.6,93.5 171.6,93 "/>
<polygon id="rect3531-6-2-5" class="st6" points="117.5,90.6 117.4,91.1 124.3,91.4 124.3,90.9 "/>
<path class="st4" d="M151.9,106.7c0.2-0.2,0.4-0.4,0.4-0.4l0.4-0.4c0.1-0.1,0.3-0.2,0.4-0.3s0.5-0.3,0.7-0.4l0.7-0.3h-0.2
	c-0.1,0-0.3,0-0.5,0c-0.3,0-0.6,0.1-0.8,0.2c-0.2,0.1-0.3,0.1-0.5,0.2l-0.5,0.3l-0.6,0.4c-0.2,0.2-0.4,0.3-0.6,0.5s-0.4,0.4-0.5,0.6
	s-0.4,0.4-0.5,0.7c-0.2,0.2-0.3,0.5-0.5,0.7c-0.2,0.3-0.3,0.5-0.4,0.8c-0.3,0.6-0.5,1.1-0.7,1.7c-0.2,0.6-0.4,1.2-0.5,1.7
	c0-0.5,0-1,0-1.6s0-0.8,0-1.2s-0.1-0.8-0.1-1.2l-0.1-0.6l-0.1-0.6c-0.1-0.4-0.2-0.8-0.3-1.2c-0.1-0.4-0.2-0.8-0.4-1.1l-0.5-1
	c-0.2-0.3-0.4-0.7-0.5-1s-0.4-0.6-0.6-0.8c-0.4-0.5-0.8-0.9-1.2-1.4c-0.4-0.3-0.7-0.7-1.1-0.9c-0.2-0.1-0.3-0.2-0.5-0.3l-0.4-0.2
	c-0.2-0.1-0.4-0.2-0.6-0.3l-0.2-0.1c0.3,0.2,0.5,0.4,0.8,0.6c0.1,0.1,0.2,0.2,0.4,0.3s0.3,0.3,0.4,0.4s0.3,0.3,0.5,0.5
	s0.3,0.4,0.5,0.6c0.4,0.5,0.7,0.9,1,1.4c0.1,0.3,0.3,0.5,0.5,0.8s0.3,0.6,0.4,0.9l0.4,1c0.1,0.3,0.2,0.7,0.3,1
	c0.1,0.4,0.2,0.7,0.2,1.1l0.1,0.6l0.1,0.6c0,0.4,0.1,0.8,0.1,1.1l0.1,1.1l0.1,2.3c0.1,2,0.1,2,0.2,4.1c0,1.7,0,2.1,0.1,3.3
	c0.1,0.9,0.2,1.7,0.3,2.2c0.3,0.1,0.6,0.1,0.9,0c0.3-0.3,0-0.8-0.1-1.9c-0.1-0.9-0.2-1.7-0.2-2.6c0-0.6,0.1-1.3,0.2-1.9
	c0.1-0.6,0.2-0.9,0.4-1.6c0.3-1.1,0.6-2.2,0.9-3.3c0.2-0.6,0.4-1.1,0.6-1.6c0.2-0.5,0.5-1,0.7-1.4
	C151,107.8,151.4,107.3,151.9,106.7z"/>
<path class="st4" d="M158.5,102L158.5,102c-0.4-0.2-0.8-0.3-1.3-0.4c-0.2-0.1-0.4-0.1-0.6-0.2l-0.6-0.1h-0.7c-0.2,0-0.4,0-0.7,0
	l-0.7,0.1c-0.2,0-0.4,0.1-0.7,0.2c-0.2,0.1-0.4,0.2-0.6,0.3l-0.3,0.2l-0.3,0.2c-0.2,0.1-0.4,0.3-0.6,0.5c-0.2,0.2-0.4,0.4-0.5,0.6
	l-0.2,0.3l-0.2,0.3c-0.1,0.2-0.2,0.4-0.3,0.7c-0.1,0.2-0.2,0.5-0.2,0.7c-0.1,0.2-0.1,0.5-0.1,0.8c0.1-0.2,0.2-0.4,0.3-0.7
	c0.1-0.2,0.2-0.4,0.4-0.6c0.1-0.2,0.3-0.4,0.4-0.5l0.2-0.2l0.2-0.2c0.1-0.1,0.3-0.3,0.5-0.4c0.2-0.1,0.3-0.2,0.5-0.3
	c0.1,0,0.2-0.1,0.3-0.1l0.3-0.1c0.2-0.1,0.4-0.1,0.6-0.2c0.2,0,0.4-0.1,0.6-0.1h0.6c0.2,0,0.4,0,0.6,0l0.6,0.1l0.6,0.1
	c0.2,0.1,0.4,0.1,0.6,0.2l0.7,0.3l0,0c0,0.2-0.1,0.4-0.1,0.6c0,0.2-0.1,0.4-0.2,0.6l-0.1,0.3l-0.1,0.3c0,0.1-0.1,0.2-0.1,0.3
	l-0.2,0.2c-0.1,0.1-0.1,0.2-0.2,0.2l-0.2,0.2l-0.2,0.2l-0.2,0.2c-0.1,0.1-0.3,0.3-0.4,0.4l-0.5,0.3l-0.5,0.3l-0.2,0.2l-0.3,0.1
	l-0.5,0.2c-0.2,0.1-0.4,0.1-0.6,0.2l-0.6,0.2c-0.4,0.1-0.8,0.2-1.2,0.2c0.4,0.1,0.8,0.1,1.2,0.1c0.2,0,0.4,0,0.6,0s0.4,0,0.6,0
	l0.6-0.1l0.3-0.1l0.3-0.1l0.6-0.2l0.6-0.3c0.2-0.1,0.4-0.3,0.5-0.4l0.3-0.2l0.2-0.3l0.2-0.3c0.1-0.1,0.1-0.2,0.2-0.3l0.2-0.3
	c0.1-0.1,0.1-0.2,0.2-0.3c0.1-0.2,0.2-0.4,0.3-0.7c0.2-0.5,0.3-1,0.4-1.5c0.1-0.3,0.1-0.6,0.1-0.8C159,102.4,158.8,102.1,158.5,102z
	"/>
<path class="st4" d="M142.5,103.8c-0.2-0.1-0.4-0.2-0.6-0.3l-0.6-0.4c-0.2-0.1-0.4-0.3-0.5-0.4c-0.2-0.2-0.4-0.3-0.5-0.4l-0.5-0.5
	c-0.2-0.2-0.3-0.3-0.4-0.5c-0.2-0.2-0.3-0.4-0.4-0.6c-0.1-0.2-0.3-0.4-0.4-0.6c-0.1-0.2-0.2-0.4-0.3-0.6l-0.1-0.3l-0.1-0.3
	c-0.1-0.2-0.1-0.4-0.2-0.7s-0.1-0.5-0.2-0.7v-0.1l0.4-0.1l0.8-0.2l0.8-0.2c0.3,0,0.5-0.1,0.8-0.1h0.4h0.4c0.3,0,0.5,0,0.8,0.1
	l0.4,0.1c0.1,0,0.2,0.1,0.4,0.1c0.1,0,0.2,0.1,0.4,0.2c0.1,0.1,0.2,0.1,0.4,0.2c0.1,0.1,0.2,0.2,0.3,0.2c0.1,0.1,0.2,0.2,0.3,0.3
	c0.2,0.2,0.4,0.4,0.6,0.7c0.4,0.5,0.7,1.1,0.9,1.6c0.1,0.3,0.2,0.6,0.4,0.9s0.2,0.6,0.3,1c0.2,0.7,0.3,1.3,0.4,2
	c0.1-0.7,0.1-1.4,0-2.1c0-0.3-0.1-0.7-0.2-1.1c-0.1-0.7-0.3-1.4-0.6-2.1c-0.1-0.3-0.3-0.7-0.5-1c-0.2-0.3-0.4-0.6-0.6-0.8
	c-0.1-0.1-0.2-0.3-0.4-0.4c-0.1-0.1-0.3-0.2-0.4-0.3c-0.1-0.1-0.3-0.2-0.4-0.3c-0.1-0.1-0.3-0.2-0.4-0.2c-0.1-0.1-0.3-0.1-0.4-0.2
	l-0.5-0.2c-0.1,0-0.3-0.1-0.5-0.1c-0.2,0-0.3-0.1-0.5-0.1h-0.5h-0.5c-0.3,0-0.6,0.1-0.9,0.1l-0.9,0.2l-0.9,0.3l-0.9,0.3l0,0
	c-0.3,0.1-0.4,0.4-0.4,0.7c0,0.3,0.1,0.6,0.1,0.9c0.1,0.3,0.1,0.6,0.2,0.8c0.1,0.3,0.2,0.5,0.3,0.8l0.2,0.4l0.2,0.4
	c0.1,0.2,0.3,0.5,0.4,0.7l0.2,0.3l0.2,0.3c0.2,0.2,0.3,0.4,0.5,0.6c0.2,0.2,0.4,0.4,0.5,0.5l0.6,0.5c0.2,0.2,0.4,0.3,0.6,0.4
	c0.2,0.1,0.4,0.2,0.6,0.3l0.6,0.3c0.2,0.1,0.4,0.2,0.6,0.2l0.6,0.2c0.4,0.1,0.9,0.2,1.3,0.2l-1.2-0.5L142.5,103.8z"/>
<path class="st2" d="M789.9,133.7l-39.1,22.6c-4.2,2.5-9.5,2.5-13.7,0L698,133.7c-4.2-2.5-6.9-7-6.9-11.9V76.7
	c0-4.9,2.6-9.4,6.9-11.9l39.1-22.6c4.2-2.5,9.5-2.5,13.7,0l39.1,22.6c4.2,2.5,6.9,7,6.9,11.9v45.2
	C796.8,126.8,794.2,131.3,789.9,133.7z"/>
<path id="path3400" class="st4" d="M142.8,132.8c1.2,1.6,3.1,2.6,5.1,2.7c2.2,0,4.2-1.1,5.5-2.8L142.8,132.8z"/>
<path class="st4" d="M773.9,104.2v-4.6c0-1.4-1.2-2.6-2.6-2.6h-0.9c-1.7-8.8-7.8-16.1-16.2-19.4h9.8c0.8,2.7,3.7,4.2,6.4,3.4
	c2.7-0.8,4.2-3.7,3.4-6.4s-3.7-4.2-6.4-3.4c-1.6,0.5-2.9,1.8-3.4,3.4h-15v-0.8c0-1.4-1.2-2.6-2.6-2.6h-4.6c-1.4,0-2.6,1.2-2.6,2.6
	l0,0v0.8h-15c-0.8-2.7-3.7-4.2-6.4-3.4c-2.7,0.8-4.2,3.7-3.4,6.4s3.7,4.2,6.4,3.4c1.6-0.5,2.9-1.8,3.4-3.4h9.8
	c-8.4,3.2-14.5,10.5-16.2,19.3h-1.1c-1.4,0-2.6,1.2-2.6,2.6l0,0v4.6c0,1.4,1.2,2.6,2.6,2.6h4.6c1.4,0,2.6-1.2,2.6-2.6l0,0v-4.6
	c0-1.4-1.2-2.6-2.6-2.6h-0.5c2-9.1,9.4-16.1,18.5-17.7c0.4,1.1,1.3,1.8,2.5,1.8h4.6c1.1,0,2.1-0.7,2.5-1.8
	c9.2,1.6,16.5,8.6,18.5,17.7h-0.7c-1.4,0-2.6,1.1-2.6,2.6v4.6c0,1.4,1.2,2.6,2.6,2.6h4.6C772.7,106.8,773.9,105.6,773.9,104.2z
	 M720.9,100v3.8h-3.8V100L720.9,100L720.9,100z M742.2,78.1v-1.9l0,0v-1.9h3.8v3.8H742.2z M767.1,103.8V100h3.8v3.8L767.1,103.8
	L767.1,103.8z"/>
<path class="st7" d="M757.8,113.5c-2.9,3.7-4.6,8.3-4.8,13v0.1l-17-0.2c0-2.2-0.4-4.4-1.2-6.4c-0.8-2.2-2.1-4.2-3.6-6
	c-0.4-0.4-0.4-1.1,0-1.5c5.4-5.9,8.4-13.5,8.5-21.4h9.3c0.1,4.5,1.2,8.9,3.2,13c1.4,2.9,3.3,5.6,5.6,7.9
	C758.2,112.3,758.2,113.1,757.8,113.5z"/>
<path class="st7" d="M733,126.5h22.8c0.4,0.1,0.6,0.4,0.5,0.8v5.5c0.1,0.3-0.2,0.7-0.5,0.7H733c-0.4-0.1-0.6-0.4-0.5-0.8v-5.5
	C732.4,126.9,732.6,126.6,733,126.5C733,126.5,733,126.5,733,126.5z"/>
<path class="st4" d="M742.9,91v15.8c-1.4,0.9-1.9,2.7-1,4.1c0.9,1.4,2.7,1.9,4.1,1c1.4-0.9,1.9-2.7,1-4.1c-0.3-0.4-0.6-0.8-1-1V91
	H742.9z"/>
<path class="st2" d="M494.4,133.3l-39.1,22.6c-4.2,2.5-9.5,2.5-13.7,0l-39.1-22.6c-4.2-2.5-6.9-7-6.9-11.9V76.3
	c0-4.9,2.6-9.4,6.9-11.9l39.1-22.6c4.2-2.5,9.5-2.5,13.7,0l39.1,22.6c4.2,2.5,6.9,7,6.9,11.9v45.2
	C501.2,126.4,498.6,130.9,494.4,133.3z"/>
<path class="st4" d="M457.5,79.1c-0.9-0.3-1.8,0.1-2.2,0.9l-16.8,38.8c-0.3,0.8,0,1.6,0.8,1.9c0,0,0,0,0,0l0.2,0.1
	c0.3,0.1,0.5,0.1,0.8,0.1c0.6,0,1.2-0.4,1.4-1l16.8-38.8c0.3-0.8,0-1.6-0.8-1.9c0,0,0,0,0,0L457.5,79.1z"/>
<path class="st4" d="M417.5,98.6c-0.8,0.7-0.9,2-0.2,2.8c0.1,0.1,0.1,0.1,0.2,0.2l11.6,10c0.9,0.6,2.1,0.4,2.8-0.4
	c0.6-0.8,0.5-1.9-0.2-2.6l-9.9-8.5l9.9-8.5c0.8-0.8,0.7-2.1-0.1-2.8c-0.7-0.7-1.8-0.7-2.6-0.2L417.5,98.6z"/>
<path class="st4" d="M464.9,111.4c0.7,0.8,2,0.9,2.8,0.2c0,0,0,0,0,0l11.6-10c0.8-0.7,0.9-2,0.2-2.8c-0.1-0.1-0.1-0.1-0.2-0.2
	l-11.6-10c-0.9-0.7-2.1-0.5-2.8,0.4c-0.6,0.8-0.5,1.9,0.2,2.6l0,0l9.8,8.5l-9.8,8.5C464.3,109.4,464.2,110.6,464.9,111.4z"/>
<path class="st4" d="M780.2,362.3c-1.7-1.9-4.2-3-6.8-3H770l0.1-4.6c0-0.2,0-0.3-0.1-0.5c-0.2-0.5-0.6-0.8-1.1-0.8h-37.1
	c-0.2,0-0.3,0-0.5,0.1c-0.4,0.2-0.7,0.7-0.7,1.2l0.9,25.8v0.1c0.3,2.5,1.4,4.8,3.1,6.6c0.2,0.2,0.2,0.6,0,0.8
	c-0.1,0.1-0.3,0.1-0.4,0.1h-11.8c-0.4,0-0.7,0.1-1,0.4c-0.4,0.4-0.4,1-0.1,1.4c2.8,4.1,7.4,6.5,12.3,6.4h33.5
	c4.9,0,9.5-2.4,12.3-6.5c0.2-0.3,0.3-0.7,0.2-1c-0.1-0.5-0.6-0.9-1.2-0.9h-11.9c-0.3,0-0.6-0.2-0.6-0.5c0,0,0,0,0,0
	c0-0.1,0.1-0.3,0.1-0.4c1.7-1.8,2.8-4.2,3.1-6.6v-0.1l0.1-3.4h4.1c4.9,0,9-3.9,9-8.9c0,0,0-0.1,0-0.1
	C782.4,365.9,781.6,363.8,780.2,362.3L780.2,362.3L780.2,362.3z M775.9,390.5c-2.3,2.3-5.5,3.6-8.8,3.6h-33.5
	c-3.3,0-6.4-1.3-8.8-3.6H775.9L775.9,390.5z M766.8,380.4c0,0.1,0,0.2-0.1,0.3c-0.8,4.4-4.6,7.6-9.1,7.5h-14.5
	c-4.5,0.1-8.3-3.1-9.1-7.5c0-0.1,0-0.2-0.1-0.3l-0.8-24.5h9.9v6.6c0,0.4-0.4,0.8-0.8,0.8c0,0,0,0,0,0h-0.8c-0.6,0-1.2,0.5-1.2,1.2
	c0,0.5-0.4,0.9-0.9,0.9l0,0c-0.6,0-1.2,0.5-1.2,1.2v8.5c0,0.6,0.5,1.1,1.2,1.2h9.1c0.6,0,1.2-0.5,1.2-1.2l0,0v-8.4
	c0-0.7-0.5-1.2-1.2-1.2c-0.5,0-0.9-0.3-0.9-0.8c0,0,0,0,0,0l0,0c0-0.6-0.5-1.1-1.2-1.2h-0.7c-0.5,0-0.9-0.4-0.9-0.9V356h23.1
	L766.8,380.4z M745.2,365.6c0.3,0.9,1,1.5,1.9,1.9v6.4h-4.3c-1.3,0-2.4-1-2.4-2.4c0,0,0,0,0,0v-4c0.9-0.3,1.5-1,1.9-1.9L745.2,365.6
	L745.2,365.6z M769.8,366.1h3.7c1.2,0,2.1,0.9,2.2,2.1v0.3c-0.1,1.1-1.1,1.9-2.2,1.9h-3.8L769.8,366.1z M780,368.9
	c-0.4,3.3-3.3,5.8-6.6,5.8h-1.9c-1.1,0-2-0.9-2-2v-0.1h3.9c2.5,0,4.5-2,4.6-4.5c0-1.5-0.8-2.9-2-3.7c-0.8-0.5-1.7-0.8-2.7-0.8H772
	c-1.1,0-2-0.9-2-2v-0.1h3.5c3.6-0.1,6.6,2.8,6.6,6.4c0,0,0,0.1,0,0.1C780.2,368.4,780.1,368.7,780,368.9L780,368.9L780,368.9z"/>
<path class="st4" d="M739.3,345.5c0,0.8-0.2,1.5-0.7,2.1c-0.5,0.4-0.6,1.1-0.1,1.6c0.4,0.5,1.2,0.5,1.7,0.1c1-1,1.6-2.4,1.5-3.9
	c-0.1-1.4-0.6-2.7-1.5-3.8c-0.6-0.7-0.9-1.5-1-2.4c0-0.8,0.2-1.5,0.7-2.1c0.5-0.4,0.6-1.1,0.1-1.6c-0.4-0.5-1.2-0.5-1.7-0.1
	c-1,1-1.6,2.4-1.5,3.9c0.1,1.4,0.6,2.7,1.5,3.8C738.9,343.8,739.2,344.6,739.3,345.5z"/>
<path class="st4" d="M759,345.5c0,0.8-0.2,1.5-0.7,2.1c-0.5,0.4-0.6,1.1-0.1,1.6c0.4,0.5,1.2,0.5,1.7,0.1c1-1,1.6-2.4,1.5-3.9
	c-0.1-1.4-0.6-2.7-1.5-3.8c-0.6-0.7-0.9-1.5-1-2.4c0-0.8,0.2-1.5,0.7-2.1c0.5-0.4,0.6-1.1,0.1-1.6c-0.4-0.5-1.2-0.5-1.7-0.1
	c-1,1-1.6,2.4-1.5,3.9c0.1,1.4,0.6,2.7,1.5,3.8C758.6,343.8,759,344.6,759,345.5z"/>
<path class="st4" d="M749.2,341.8c0,0.8-0.2,1.5-0.7,2.1c-0.5,0.4-0.6,1.1-0.1,1.6c0.4,0.5,1.2,0.5,1.7,0.1l0,0c1-1,1.6-2.4,1.5-3.9
	c-0.1-1.4-0.6-2.7-1.5-3.8c-0.6-0.7-1-1.5-1-2.5c0-0.8,0.2-1.5,0.7-2.1c0.5-0.4,0.6-1.1,0.1-1.6c-0.4-0.5-1.2-0.5-1.7-0.1l0,0
	c-1,1-1.6,2.4-1.5,3.9c0.1,1.4,0.6,2.7,1.5,3.8C748.7,340.1,749.1,340.9,749.2,341.8z"/>
<path class="st4" d="M464.7,362.6c-0.5,0-1,0-1.5-0.1c-0.6-0.1-1.1-0.5-1.2-1.1c-0.4-3.3,0.5-6.6,2.7-9.2c2.4-2.8,6.4-4.5,11.1-4.8
	c0.7,0,1.3,0.5,1.3,1.1c0.4,3.7-0.8,7.3-3.2,10.1C471.6,361.3,468.2,362.7,464.7,362.6L464.7,362.6L464.7,362.6z M464.6,360
	c2.8,0.2,5.6-0.9,7.6-3c1.7-1.9,2.6-4.4,2.6-6.9c-3,0.2-5.9,1.6-8,3.8C465.3,355.6,464.5,357.8,464.6,360z"/>
<path class="st4" d="M449.9,359.2L449.9,359.2c-6,0-11.1-2.1-14.7-6.1c-3.8-4.4-5.6-10.2-5-16c0.1-0.7,0.7-1.2,1.3-1.1
	c7.5,0.4,13.8,3.1,17.7,7.5c3.3,4,4.9,9.2,4.2,14.4c-0.1,0.6-0.5,1.1-1.2,1.1C451.5,359.2,450.7,359.2,449.9,359.2z M432.7,338.7
	c-0.2,4.7,1.4,9.2,4.4,12.8c3.1,3.4,7.5,5.2,12.8,5.2l0,0h1c0.3-4.1-1-8.2-3.7-11.4C444.1,341.5,439,339.2,432.7,338.7z"/>
<path class="st4" d="M432.6,391.3h-12.8c-0.7,0-1.3-0.6-1.3-1.3c0,0,0,0,0,0v-23c0-0.7,0.6-1.3,1.3-1.3h12.8c0.7,0,1.3,0.6,1.3,1.3
	v23C433.9,390.7,433.4,391.3,432.6,391.3C432.7,391.3,432.7,391.3,432.6,391.3z M421.2,388.8h10.2v-20.4h-10.2V388.8z"/>
<path class="st4" d="M453.9,395c-4.4,0-9.8-2.6-14.2-4.6c-2.6-1.2-5.2-2.5-6.3-2.5c-0.7,0.1-1.3-0.5-1.4-1.2s0.5-1.3,1.2-1.4
	c0.1,0,0.2,0,0.2,0c1.7,0,4.2,1.2,7.4,2.7c4.1,2,9.3,4.4,13.1,4.4c7.5,0,23.4-9.5,23.4-12.1c0-2.2-0.9-3.2-3-3.2
	c-0.7,0-2.4,1.4-3.7,2.5c-2.8,2.3-6,4.9-9,4c-0.6-0.2-1-0.8-0.9-1.5c0.2-0.6,0.1-1.3-0.3-1.8c-1.4-1.6-5.7-1.4-8-1.3
	c-0.5,0-1,0-1.4,0c-1.4,0-2.5-0.7-4-1.7c-2.5-1.6-6-3.8-13.1-3.9c-0.7-0.1-1.2-0.7-1.2-1.4c0.1-0.6,0.5-1.1,1.2-1.2l0,0
	c7.9,0.1,11.9,2.6,14.5,4.3c0.8,0.6,1.6,1,2.6,1.3c0.3,0,0.8,0,1.3,0c3.2-0.1,7.9-0.3,10.1,2.2c0.6,0.7,1,1.6,1,2.5
	c1.7-0.3,3.9-2.1,5.7-3.6c2.1-1.7,3.7-3,5.3-3c3.5,0,5.6,2.1,5.6,5.7C479.9,385.7,460.7,395,453.9,395z"/>
<path class="st4" d="M462,383.6h-17.9c-0.7,0.1-1.3-0.5-1.4-1.2s0.5-1.3,1.2-1.4c0.1,0,0.2,0,0.2,0H462c0.7,0.1,1.2,0.7,1.2,1.4
	C463.1,383.1,462.6,383.6,462,383.6z"/>
<path class="st4" d="M456,371.3c-0.7,0-1.3-0.6-1.3-1.3c0-2.5-2.1-9.5-3.6-11.4c-0.4-0.6-0.4-1.4,0.2-1.8c0.6-0.4,1.4-0.4,1.8,0.2
	c1.2,1.5,2.6,5.4,3.5,8.6c1.7-2.1,3.8-3.9,6-5.5c0.6-0.4,1.4-0.2,1.8,0.3s0.2,1.4-0.3,1.8c-2.6,1.8-6.8,5.4-6.8,7.7
	C457.2,370.7,456.7,371.3,456,371.3z"/>
<path class="st4" d="M149.1,362.6c-0.5-0.1-1,0.3-1.1,0.8l-0.3,1.9c0,0.3,0.1,0.6,0.3,0.8c0.2,0.2,0.4,0.3,0.7,0.3h0.1l1.9-0.3
	c0.5-0.2,0.8-0.8,0.6-1.3c-0.1-0.4-0.5-0.6-0.8-0.6l-0.6,0.1l0.1-0.6C149.9,363.1,149.6,362.7,149.1,362.6z"/>
<path class="st4" d="M154.9,377.6c0.3,0,0.6-0.2,0.8-0.4c0.9-1.1,1.5-2.4,1.9-3.8c0-0.6-0.5-1-1.1-0.9c-0.3,0-0.6,0.2-0.8,0.5
	c-0.3,1.1-0.8,2.1-1.5,3c-0.3,0.4-0.3,1,0.1,1.4C154.4,377.5,154.7,377.6,154.9,377.6z"/>
<path class="st4" d="M155.6,369.8c0.1,0.4,0.5,0.6,0.9,0.6c0.1,0,0.2,0,0.3-0.1c0.5-0.2,0.8-0.7,0.6-1.2c0,0,0,0,0,0
	c-0.5-1.4-1.5-2.6-2.8-3.3c-0.4-0.4-1-0.5-1.4-0.1c-0.4,0.4-0.5,1-0.1,1.4c0.1,0.1,0.3,0.2,0.4,0.3
	C154.4,368,155.2,368.8,155.6,369.8z"/>
<path class="st4" d="M140.6,380.4l3.8,0.3h0.1c0.5,0,0.9-0.4,1-0.9c0-0.5-0.4-0.9-0.9-1l-3.8-0.3c-0.5,0-0.9,0.4-1,0.9
	C139.7,379.9,140.1,380.4,140.6,380.4C140.6,380.4,140.6,380.4,140.6,380.4z"/>
<path class="st4" d="M148.3,380.9L148.3,380.9c1.4,0,2.8-0.4,4.1-1c0.5-0.1,0.9-0.6,0.8-1.1s-0.6-0.9-1.1-0.8
	c-0.2,0-0.4,0.1-0.5,0.2c-1,0.5-2.1,0.8-3.3,0.8c-0.6,0-1,0.4-1,1C147.4,380.5,147.8,380.9,148.3,380.9z"/>
<path class="st4" d="M134.9,380.2h2c0.5,0,0.9-0.4,1-0.9c0-0.5-0.4-0.9-0.9-1h-1v-1c0.1-0.5-0.3-1.1-0.8-1.2
	c-0.5-0.1-1.1,0.3-1.2,0.8c0,0.2,0,0.3,0,0.5v1.9C134,379.7,134.4,380.1,134.9,380.2C134.9,380.2,134.9,380.2,134.9,380.2z"/>
<path class="st4" d="M134.1,366.8c0.6,0,1-0.4,1-1c0-1.1,0.3-2.2,0.8-3.3c0.1-0.5-0.3-1.1-0.8-1.1c-0.3-0.1-0.7,0.1-0.9,0.3
	c-0.6,1.3-1,2.7-1,4.1c0,0.6,0.4,1,1,1l0,0L134.1,366.8z"/>
<path class="st4" d="M134.6,374.5L134.6,374.5c0.6,0,1-0.4,1-1l-0.3-3.8c0.1-0.5-0.3-1.1-0.8-1.2c-0.5-0.1-1.1,0.3-1.2,0.8
	c0,0.2,0,0.3,0,0.5l0.3,3.8C133.7,374.1,134.1,374.5,134.6,374.5z"/>
<path class="st4" d="M146.7,360.5c0.2,0.3,0.5,0.4,0.8,0.5c0.2,0,0.4-0.1,0.5-0.2c0.4-0.3,0.5-0.9,0.3-1.4c-0.8-1.3-2-2.2-3.3-2.8
	c-0.4-0.3-1.1-0.2-1.4,0.2c-0.3,0.4-0.2,1.1,0.2,1.4c0.2,0.1,0.4,0.2,0.6,0.2C145.3,358.9,146.1,359.6,146.7,360.5z"/>
<path class="st4" d="M141.1,358.5c0.5-0.3,0.6-0.9,0.4-1.4c-0.2-0.3-0.5-0.5-0.8-0.5c-1.4,0.3-2.7,1-3.8,1.9
	c-0.4,0.3-0.5,0.9-0.2,1.3c0,0,0,0,0,0c0.2,0.3,0.5,0.4,0.8,0.4c0.2,0,0.4-0.1,0.6-0.2C138.9,359.3,140,358.7,141.1,358.5z"/>
<path class="st4" d="M160,351c0.6,0,1-0.4,1-1s-0.4-1-1-1c-2.9,0-5.3,2.4-5.3,5.3c0,2.9,2.4,5.3,5.3,5.3s5.3-2.4,5.3-5.3l0,0
	c-0.1-0.5-0.7-0.8-1.2-0.7c-0.3,0.1-0.6,0.4-0.7,0.7c0,1.9-1.5,3.4-3.3,3.5c-1.9,0-3.4-1.5-3.5-3.3C156.6,352.6,158.1,351,160,351
	C160,351,160,351,160,351z"/>
<path class="st8" d="M170.9,349.2c-0.6,0-1,0.4-1,1v18.5l-28.7,28.7l-12.1-12.1c0,0-0.1,0-0.1-0.1s0-0.1-0.1-0.1l-12-12l28.8-28.8
	h18.8c0.5,0.1,1.1-0.2,1.2-0.7c0.1-0.5-0.2-1.1-0.7-1.2c-0.2,0-0.4,0-0.5,0h-19.2c-0.3,0-0.5,0.1-0.7,0.3L115,372.7
	c-0.2,0.2-0.3,0.4-0.3,0.6c0,0.3,0.1,0.5,0.3,0.7l12.7,12.7c0,0,0.1,0,0.1,0.1s0,0.1,0.1,0.1l12.7,12.7c0.4,0.3,1,0.3,1.4,0
	l29.7-29.7c0.2-0.2,0.3-0.4,0.3-0.7v-18.9C171.9,349.7,171.5,349.3,170.9,349.2z"/>
<path class="st4" d="M177.8,336.7c-0.5-0.5-1.3-0.5-1.8,0c0,0,0,0,0,0l-16.9,16.9c-0.5,0.5-0.5,1.3,0,1.8c0,0,0,0,0,0
	c0.5,0.5,1.3,0.5,1.8,0c0,0,0,0,0,0l16.9-16.9C178.3,338,178.3,337.2,177.8,336.7z"/>
<circle class="st9" cx="719.3" cy="76.2" r="2.8"/>
<circle class="st9" cx="769.1" cy="76.2" r="2.8"/>
<path class="st10" d="M682.6,206v14.3H680V206H682.6L682.6,206z"/>
<path class="st10" d="M685.6,206h2.6v12.1h5.9v2.2h-8.5L685.6,206L685.6,206z"/>
<path class="st10" d="M696.1,206h2.6v12.1h5.9v2.2h-8.5L696.1,206L696.1,206z"/>
<path class="st10" d="M708.4,206v8.3c0,2.8,1.2,4.1,2.9,4.1s3-1.3,3-4.1V206h2.6v8.2c0,4.4-2.3,6.4-5.7,6.4s-5.5-1.8-5.5-6.3V206
	H708.4L708.4,206z"/>
<path class="st10" d="M719.8,217.4c1.1,0.6,2.2,0.9,3.5,0.9c1.7,0,2.6-0.8,2.6-1.9s-0.7-1.7-2.5-2.4c-2.3-0.9-3.9-2.1-3.9-4.1
	c0-2.3,2-4.1,5-4.1c1.2,0,2.4,0.2,3.4,0.7l-0.6,2.1c-0.9-0.5-1.9-0.7-2.8-0.7c-1.7,0-2.4,0.9-2.4,1.7c0,1.1,0.8,1.6,2.7,2.4
	c2.5,0.9,3.7,2.2,3.7,4.2c0,2.3-1.7,4.3-5.4,4.3c-1.3,0-2.7-0.3-3.9-0.9L719.8,217.4z"/>
<path class="st10" d="M733.6,208.2h-4.1V206h10.8v2.2h-4.1v12.1h-2.6L733.6,208.2L733.6,208.2z"/>
<path class="st10" d="M742,206.2c1.3-0.2,2.6-0.3,3.9-0.3c2,0,3.5,0.3,4.4,1.1c0.8,0.7,1.3,1.8,1.2,2.9c0,1.6-1.1,3.1-2.6,3.6v0.1
	c1.1,0.5,1.8,1.6,2,2.8c0.3,1.4,0.6,2.7,1.1,4h-2.7c-0.4-1.1-0.8-2.2-1-3.4c-0.4-1.9-1.1-2.5-2.6-2.5h-1.3v5.9H742V206.2z
	 M744.6,212.5h1.5c1.8,0,2.9-0.9,2.9-2.4s-1.1-2.3-2.8-2.3c-0.5,0-1.1,0-1.6,0.1V212.5z"/>
<path class="st10" d="M757.1,216.2l-1.2,4h-2.7l4.6-14.2h3.3l4.6,14.3h-2.8l-1.3-4L757.1,216.2L757.1,216.2z M761.2,214.2l-1.2-3.5
	c-0.3-0.9-0.5-1.8-0.7-2.7l0,0c-0.2,0.8-0.4,1.8-0.7,2.7l-1.1,3.5L761.2,214.2L761.2,214.2z"/>
<path class="st10" d="M768.7,208.2h-4.1V206h10.8v2.2h-4.1v12.1h-2.6V208.2L768.7,208.2z"/>
<path class="st10" d="M779.7,206v14.3h-2.6V206H779.7z"/>
<path class="st10" d="M795.3,213c0,4.8-2.9,7.5-6.8,7.5s-6.6-3.1-6.6-7.3c0-4.4,2.8-7.5,6.8-7.5S795.3,208.9,795.3,213z
	 M784.7,213.2c0,2.9,1.5,5.2,4,5.2s3.9-2.3,3.9-5.3c0-2.7-1.3-5.2-3.9-5.2S784.7,210.2,784.7,213.2L784.7,213.2z"/>
<path class="st10" d="M797.6,220.3V206h3l3.7,6.1c0.9,1.5,1.7,3.1,2.4,4.8l0,0c-0.2-1.9-0.2-3.8-0.2-5.9v-5h2.4v14.3h-2.7l-3.7-6.3
	c-0.9-1.6-1.8-3.2-2.6-4.9h-0.1c0.1,1.8,0.1,3.7,0.1,6.1v5.1L797.6,220.3L797.6,220.3z"/>
<path class="st10" d="M394.7,222.3l-3.5-14.3h2.8l1.4,6.5c0.4,1.7,0.7,3.6,0.9,5l0,0c0.2-1.5,0.6-3.2,1-5l1.5-6.5h2.7l1.4,6.6
	c0.4,1.7,0.7,3.3,0.9,4.8l0,0c0.2-1.6,0.6-3.2,1-4.9l1.5-6.5h2.6l-3.8,14.3h-2.8l-1.5-6.7c-0.3-1.5-0.6-3-0.8-4.5l0,0
	c-0.2,1.5-0.5,2.9-1,4.5l-1.6,6.7L394.7,222.3L394.7,222.3z"/>
<path class="st10" d="M418.8,215.9h-5.4v4.2h6v2.1h-8.6V208h8.3v2.1h-5.7v3.7h5.4L418.8,215.9L418.8,215.9z"/>
<path class="st10" d="M421.7,208.2c1.3-0.2,2.5-0.3,3.8-0.3c1.4-0.1,2.9,0.2,4.1,0.9c0.9,0.6,1.5,1.6,1.5,2.7c0,1.4-1,2.7-2.4,3.1
	l0,0c1.7,0.3,2.9,1.8,2.9,3.5c0,1.1-0.5,2.2-1.4,2.9c-1,0.9-2.7,1.3-5.3,1.3c-1.1,0-2.1-0.1-3.2-0.2L421.7,208.2L421.7,208.2z
	 M424.3,213.8h1.3c1.8,0,2.8-0.9,2.8-2.1s-1-1.9-2.7-1.9c-0.5,0-1,0-1.5,0.1L424.3,213.8L424.3,213.8z M424.3,220.4
	c0.5,0,0.9,0.1,1.4,0.1c1.7,0,3.2-0.6,3.2-2.4s-1.4-2.3-3.2-2.3h-1.3L424.3,220.4L424.3,220.4z"/>
<path class="st10" d="M438.3,208.2c1.4-0.2,2.8-0.3,4.1-0.3c2.7,0,4.5,0.6,5.8,1.6c1.5,1.3,2.3,3.2,2.2,5.2c0.1,2.1-0.7,4.2-2.2,5.7
	c-1.4,1.3-3.7,1.9-6.5,1.9c-1.2,0-2.4-0.1-3.5-0.2V208.2L438.3,208.2z M440.9,220.3c0.5,0.1,1,0.1,1.4,0.1c3.4,0,5.4-1.8,5.4-5.5
	c0-3.2-1.8-5-5.1-5c-0.6,0-1.2,0-1.8,0.1V220.3L440.9,220.3z"/>
<path class="st10" d="M460.7,215.9h-5.4v4.2h6v2.1h-8.6V208h8.3v2.1h-5.7v3.7h5.4L460.7,215.9L460.7,215.9z"/>
<path class="st10" d="M463.6,219.4c1.1,0.6,2.2,0.9,3.5,0.9c1.7,0,2.6-0.8,2.6-1.9s-0.7-1.7-2.5-2.4c-2.4-0.9-3.9-2.1-3.9-4.1
	c0-2.3,2-4.1,5-4.1c1.2,0,2.4,0.2,3.4,0.7l-0.6,2.1c-0.9-0.5-1.9-0.7-2.8-0.7c-1.6,0-2.4,0.9-2.4,1.7c0,1.1,0.8,1.6,2.7,2.4
	c2.5,0.9,3.7,2.2,3.7,4.2c0,2.3-1.7,4.3-5.4,4.3c-1.3,0-2.7-0.3-3.9-0.9L463.6,219.4z"/>
<path class="st10" d="M477.2,208v14.3h-2.6V208H477.2z"/>
<path class="st10" d="M491.7,221.6c-1.5,0.5-3,0.8-4.6,0.8c-2,0.1-4.1-0.6-5.6-1.9c-1.4-1.4-2.1-3.3-2-5.2c0-4.5,3.2-7.4,8-7.4
	c1.3,0,2.6,0.2,3.8,0.7l-0.6,2.1c-1-0.4-2.1-0.6-3.2-0.6c-3,0-5.2,1.8-5.2,5.1s2,5.2,5,5.2c0.7,0,1.4-0.1,2-0.3v-3.6h-2.5v-2.1h5
	L491.7,221.6L491.7,221.6z"/>
<path class="st10" d="M494.3,222.3V208h3l3.7,6.1c0.9,1.5,1.7,3.1,2.4,4.8l0,0c-0.2-1.9-0.2-3.8-0.2-5.9v-5h2.4v14.3H503l-3.7-6.3
	c-0.9-1.6-1.8-3.2-2.6-4.9h-0.1c0.1,1.8,0.1,3.7,0.1,6.1v5.1L494.3,222.3L494.3,222.3z"/>
<path class="st10" d="M60,208v14.3h-2.6V208H60z"/>
<path class="st10" d="M63,208.1c1.4-0.2,2.8-0.3,4.2-0.3c2.7,0,4.5,0.6,5.8,1.6c1.5,1.3,2.3,3.2,2.2,5.2c0.1,2.1-0.7,4.2-2.2,5.7
	c-1.4,1.3-3.7,1.9-6.5,1.9c-1.2,0-2.4-0.1-3.5-0.2V208.1L63,208.1z M65.6,220.2c0.5,0.1,1,0.1,1.4,0.1c3.4,0,5.4-1.8,5.4-5.5
	c0-3.2-1.8-5-5.1-5c-0.6,0-1.2,0-1.8,0.1L65.6,220.2L65.6,220.2z"/>
<path class="st10" d="M85.5,215.9h-5.4v4.2h6v2.1h-8.6V208h8.3v2.1h-5.7v3.7h5.4L85.5,215.9L85.5,215.9z"/>
<path class="st10" d="M91.3,218.2l-1.2,4h-2.7l4.6-14.2h3.3l4.6,14.3h-2.8l-1.3-4L91.3,218.2L91.3,218.2z M95.4,216.2l-1.1-3.5
	c-0.3-0.9-0.5-1.8-0.7-2.7l0,0c-0.2,0.8-0.4,1.8-0.7,2.7l-1.1,3.5H95.4L95.4,216.2z"/>
<path class="st10" d="M106.2,208.1c1.4-0.2,2.8-0.3,4.2-0.3c2.7,0,4.5,0.6,5.8,1.6c1.5,1.3,2.3,3.2,2.2,5.2c0.1,2.1-0.7,4.2-2.2,5.7
	c-1.4,1.3-3.7,1.9-6.5,1.9c-1.2,0-2.4-0.1-3.5-0.2L106.2,208.1L106.2,208.1z M108.9,220.2c0.5,0.1,1,0.1,1.4,0.1
	c3.4,0,5.4-1.8,5.4-5.5c0-3.2-1.8-5-5.1-5c-0.6,0-1.2,0-1.8,0.1L108.9,220.2L108.9,220.2z"/>
<path class="st10" d="M128.7,215.9h-5.4v4.2h6v2.1h-8.6V208h8.3v2.1h-5.7v3.7h5.4L128.7,215.9L128.7,215.9z"/>
<path class="st10" d="M135.1,222.2l-4.6-14.2h2.8l1.9,6.5c0.6,1.8,1,3.5,1.4,5.2l0,0c0.4-1.7,0.9-3.4,1.5-5.2l2.1-6.5h2.8l-5,14.2
	H135.1L135.1,222.2z"/>
<path class="st10" d="M152.5,215.9h-5.4v4.2h6v2.1h-8.6V208h8.3v2.1h-5.7v3.7h5.4L152.5,215.9L152.5,215.9z"/>
<path class="st10" d="M155.4,208h2.6v12.1h5.9v2.2h-8.5L155.4,208L155.4,208z"/>
<path class="st10" d="M177.7,215c0,4.8-2.9,7.5-6.8,7.5s-6.6-3.1-6.6-7.3c0-4.4,2.8-7.5,6.8-7.5S177.7,210.9,177.7,215z
	 M167.1,215.2c0,2.9,1.5,5.2,4,5.2s3.9-2.4,3.9-5.4c0-2.7-1.3-5.2-3.9-5.2S167.1,212.2,167.1,215.2L167.1,215.2z"/>
<path class="st10" d="M179.9,208.1c1.3-0.2,2.7-0.3,4-0.3c1.5-0.1,3,0.3,4.2,1.2c0.9,0.8,1.4,1.9,1.4,3.2c0.1,1.2-0.4,2.4-1.2,3.2
	c-1.2,1.1-2.9,1.6-4.5,1.5c-0.4,0-0.8,0-1.3-0.1v5.4H180L179.9,208.1L179.9,208.1z M182.5,214.8c0.4,0.1,0.8,0.1,1.3,0.1
	c1.9,0,3.1-1,3.1-2.6s-1.1-2.4-2.9-2.4c-0.5,0-1,0-1.5,0.1L182.5,214.8L182.5,214.8z"/>
<path class="st10" d="M203.6,216.4c-0.1-1.8-0.2-4.1-0.2-6h-0.1c-0.5,1.7-1.1,3.7-1.7,5.5l-2.1,6.2h-2l-1.9-6.1
	c-0.6-1.8-1.1-3.8-1.4-5.6l0,0c-0.1,1.9-0.1,4.1-0.2,6.1l-0.3,5.7h-2.4l1-14.3h3.4l1.9,5.7c0.5,1.7,1,3.4,1.3,5h0.1
	c0.4-1.6,0.9-3.3,1.4-5l2-5.7h3.4l0.8,14.3H204L203.6,216.4z"/>
<path class="st10" d="M217,215.9h-5.4v4.2h6v2.1H209V208h8.3v2.1h-5.7v3.7h5.4V215.9L217,215.9z"/>
<path class="st10" d="M219.9,222.2V208h3l3.7,6.1c0.9,1.5,1.7,3.1,2.4,4.8l0,0c-0.2-1.9-0.2-3.8-0.2-5.9v-5h2.4v14.3h-2.7l-3.7-6.3
	c-0.9-1.6-1.8-3.2-2.6-4.9h-0.1c0.1,1.8,0.1,3.7,0.1,6.1v5.1L219.9,222.2L219.9,222.2z"/>
<path class="st10" d="M237,210.1h-4.1V208h10.8v2.2h-4.1v12.1H237V210.1L237,210.1z"/>
<path class="st10" d="M689.8,475.2h-4.1V473h10.8v2.2h-4.1v12.1h-2.6V475.2L689.8,475.2z"/>
<path class="st10" d="M706.2,480.9h-5.4v4.2h6v2.1h-8.6V473h8.3v2.1h-5.7v3.7h5.4L706.2,480.9L706.2,480.9z"/>
<path class="st10" d="M712,483.2l-1.2,4H708l4.6-14.2h3.3l4.6,14.3h-2.8l-1.3-4L712,483.2L712,483.2z M716,481.2l-1.1-3.5
	c-0.3-0.9-0.5-1.8-0.7-2.7l0,0c-0.2,0.8-0.4,1.8-0.7,2.7l-1.1,3.5H716L716,481.2z"/>
<path class="st10" d="M726.9,473.2c1.4-0.2,2.8-0.3,4.2-0.3c2.7,0,4.5,0.5,5.8,1.6c1.5,1.3,2.3,3.2,2.2,5.2c0.1,2.1-0.7,4.2-2.2,5.7
	c-1.4,1.3-3.7,2-6.5,2c-1.2,0-2.4-0.1-3.5-0.2V473.2L726.9,473.2z M729.5,485.3c0.5,0.1,1,0.1,1.4,0.1c3.4,0,5.4-1.8,5.4-5.5
	c0-3.2-1.8-5-5.1-5c-0.6,0-1.2,0-1.8,0.1V485.3L729.5,485.3z"/>
<path class="st10" d="M741.4,473.2c1.3-0.2,2.6-0.3,3.9-0.3c2,0,3.5,0.3,4.4,1.1c0.8,0.7,1.3,1.8,1.2,2.9c0,1.6-1.1,3.1-2.6,3.6v0.1
	c1.1,0.5,1.8,1.6,2,2.8c0.3,1.4,0.6,2.7,1.1,4h-2.7c-0.4-1.1-0.8-2.2-1-3.4c-0.4-1.9-1.1-2.5-2.6-2.5H744v5.9h-2.6V473.2z
	 M744,479.5h1.5c1.8,0,2.9-0.9,2.9-2.4s-1.1-2.3-2.8-2.3c-0.5,0-1.1,0-1.6,0.2L744,479.5L744,479.5z"/>
<path class="st10" d="M756.1,473v14.3h-2.6V473H756.1z"/>
<path class="st10" d="M759,487.3V473h3l3.7,6.1c0.9,1.5,1.7,3.1,2.4,4.8l0,0c-0.2-1.9-0.2-3.8-0.2-5.9v-5h2.4v14.3h-2.7l-3.7-6.3
	c-0.9-1.6-1.8-3.2-2.6-4.9h-0.1c0.1,1.8,0.1,3.7,0.1,6.1v5.1L759,487.3L759,487.3z"/>
<path class="st10" d="M773.4,473h2.6v6.6h0c0.3-0.5,0.7-1.1,1-1.5l3.7-5h3.3l-4.9,6.1l5.2,8.2h-3l-4-6.5l-1.3,1.5v5h-2.6L773.4,473
	L773.4,473z"/>
<path class="st10" d="M788.3,473v14.3h-2.6V473H788.3z"/>
<path class="st10" d="M791.3,487.3V473h3l3.7,6.1c0.9,1.5,1.7,3.1,2.4,4.8l0,0c-0.2-1.9-0.2-3.8-0.2-5.9v-5h2.4v14.3h-2.7l-3.7-6.3
	c-0.9-1.6-1.8-3.2-2.6-4.9h-0.1c0.1,1.8,0.1,3.7,0.1,6.1v5.1L791.3,487.3L791.3,487.3z"/>
<path class="st10" d="M817,486.6c-1.5,0.5-3,0.8-4.6,0.8c-2,0.1-4.1-0.6-5.6-1.9c-1.4-1.4-2.1-3.3-2-5.2c0-4.5,3.2-7.4,8-7.4
	c1.3,0,2.6,0.2,3.8,0.7l-0.6,2.1c-1-0.4-2.1-0.6-3.2-0.6c-3,0-5.2,1.8-5.2,5.1s2,5.2,5,5.2c0.7,0,1.4-0.1,2-0.3v-3.6H812v-2.1h5
	V486.6L817,486.6z"/>
<path class="st10" d="M357.3,473.3v14.3h-2.6v-14.3H357.3z"/>
<path class="st10" d="M360.3,487.6v-14.3h3l3.7,6.1c0.9,1.5,1.7,3.1,2.4,4.8l0,0c-0.2-1.9-0.2-3.8-0.2-5.9v-5h2.4v14.3h-2.7
	l-3.7-6.3c-0.9-1.6-1.8-3.2-2.6-4.9h-0.1c0.1,1.8,0.1,3.7,0.1,6.1v5.1L360.3,487.6L360.3,487.6z"/>
<path class="st10" d="M377.3,475.5h-4.1v-2.2H384v2.2h-4.1v12.1h-2.6L377.3,475.5L377.3,475.5z"/>
<path class="st10" d="M393.7,481.2h-5.4v4.2h6v2.1h-8.6v-14.3h8.3v2.1h-5.7v3.7h5.4L393.7,481.2L393.7,481.2z"/>
<path class="st10" d="M396.6,473.5c1.3-0.2,2.6-0.3,3.9-0.3c2,0,3.5,0.3,4.4,1.1c0.8,0.7,1.3,1.8,1.2,2.9c0,1.6-1.1,3.1-2.6,3.6v0.1
	c1.1,0.5,1.8,1.6,2,2.8c0.3,1.4,0.6,2.7,1.1,4H404c-0.4-1.1-0.8-2.2-1-3.4c-0.4-1.9-1.1-2.5-2.6-2.5h-1.3v5.9h-2.6L396.6,473.5
	L396.6,473.5z M399.2,479.8h1.5c1.8,0,2.9-0.9,2.9-2.4s-1.1-2.3-2.8-2.3c-0.5,0-1.1,0-1.6,0.1V479.8z"/>
<path class="st10" d="M411.7,483.5l-1.2,4h-2.7l4.6-14.3h3.3l4.6,14.3h-2.8l-1.3-4H411.7L411.7,483.5z M415.8,481.5l-1.1-3.5
	c-0.3-0.9-0.5-1.8-0.7-2.7l0,0c-0.2,0.8-0.4,1.8-0.7,2.7l-1.1,3.5H415.8L415.8,481.5z"/>
<path class="st10" d="M432.1,487.2c-1.2,0.5-2.4,0.7-3.7,0.6c-4.5,0-7.3-2.8-7.3-7.2c0-4.7,3.3-7.5,7.6-7.5c1.2,0,2.4,0.2,3.5,0.6
	l-0.6,2.1c-0.9-0.4-1.8-0.6-2.8-0.5c-2.9,0-5,1.8-5,5.2c0,3.1,1.8,5.1,5,5.1c1,0,1.9-0.2,2.8-0.5L432.1,487.2z"/>
<path class="st10" d="M437.4,475.5h-4.1v-2.2h10.8v2.2H440v12.1h-2.6L437.4,475.5L437.4,475.5z"/>
<path class="st10" d="M448.4,473.3v14.3h-2.6v-14.3H448.4z"/>
<path class="st10" d="M464.1,480.3c0,4.8-2.9,7.5-6.8,7.5s-6.6-3.1-6.6-7.3c0-4.4,2.8-7.5,6.8-7.5S464.1,476.2,464.1,480.3z
	 M453.4,480.5c0,2.9,1.5,5.2,4,5.2s3.9-2.3,3.9-5.3c0-2.7-1.3-5.2-3.9-5.2S453.4,477.6,453.4,480.5L453.4,480.5z"/>
<path class="st10" d="M466.3,487.6v-14.3h3l3.7,6.1c0.9,1.5,1.7,3.1,2.4,4.8l0,0c-0.2-1.9-0.2-3.8-0.2-5.9v-5h2.4v14.3H475l-3.7-6.3
	c-0.9-1.6-1.8-3.2-2.6-4.9h-0.1c0.1,1.8,0.1,3.7,0.1,6.1v5.1L466.3,487.6L466.3,487.6z"/>
<path class="st10" d="M485,473.5c1.4-0.2,2.8-0.3,4.1-0.3c2.7,0,4.5,0.5,5.8,1.6c1.5,1.3,2.3,3.2,2.2,5.2c0.1,2.1-0.7,4.2-2.2,5.7
	c-1.4,1.3-3.7,2-6.5,2c-1.2,0-2.4-0.1-3.5-0.2V473.5L485,473.5z M487.6,485.6c0.5,0.1,1,0.1,1.4,0.1c3.4,0,5.4-1.8,5.4-5.5
	c0-3.2-1.8-5-5.1-5c-0.6,0-1.2,0-1.8,0.1V485.6L487.6,485.6z"/>
<path class="st10" d="M507.5,481.2h-5.4v4.2h6v2.1h-8.6v-14.3h8.3v2.1h-5.7v3.7h5.4L507.5,481.2L507.5,481.2z"/>
<path class="st10" d="M510.3,484.8c1.1,0.6,2.2,0.9,3.5,0.9c1.7,0,2.6-0.8,2.6-2s-0.7-1.7-2.5-2.4c-2.4-0.9-3.9-2.1-3.9-4.1
	c0-2.3,2-4.1,5-4.1c1.2,0,2.4,0.2,3.4,0.7l-0.6,2.1c-0.9-0.5-1.9-0.7-2.8-0.7c-1.7,0-2.4,0.9-2.4,1.7c0,1.1,0.8,1.6,2.7,2.4
	c2.5,0.9,3.7,2.2,3.7,4.2c0,2.3-1.7,4.3-5.4,4.3c-1.3,0-2.7-0.3-3.9-0.9L510.3,484.8z"/>
<path class="st10" d="M524,473.3v14.3h-2.6v-14.3H524z"/>
<path class="st10" d="M538.4,486.9c-1.5,0.5-3,0.8-4.6,0.8c-2,0.1-4.1-0.6-5.6-1.9c-1.4-1.4-2.1-3.3-2-5.2c0-4.5,3.2-7.4,8-7.4
	c1.3,0,2.6,0.2,3.8,0.7l-0.6,2.1c-1-0.4-2.1-0.6-3.2-0.6c-3,0-5.2,1.8-5.2,5.1s2,5.2,5,5.2c0.7,0,1.4-0.1,2-0.3v-3.6h-2.5v-2.1h5
	L538.4,486.9L538.4,486.9z"/>
<path class="st10" d="M541.1,487.6v-14.3h3l3.7,6.1c0.9,1.5,1.7,3.1,2.4,4.8l0,0c-0.2-1.9-0.2-3.8-0.2-5.9v-5h2.4v14.3h-2.7
	l-3.7-6.2c-0.9-1.6-1.8-3.2-2.6-4.9h-0.1c0.1,1.8,0.1,3.7,0.1,6.1v5.1L541.1,487.6L541.1,487.6z"/>
<path class="st10" d="M98.8,473.8c1.3-0.2,2.5-0.3,3.8-0.3c1.4-0.1,2.9,0.2,4.1,0.9c0.9,0.6,1.5,1.6,1.5,2.7c0,1.4-1,2.7-2.4,3.1
	l0,0c1.7,0.3,2.9,1.8,2.9,3.5c0,1.1-0.5,2.2-1.4,3c-1,0.9-2.7,1.3-5.3,1.3c-1.1,0-2.1-0.1-3.2-0.2L98.8,473.8L98.8,473.8z
	 M101.4,479.5h1.3c1.8,0,2.8-0.9,2.8-2.1s-1-2-2.7-2c-0.5,0-1,0-1.5,0.1V479.5L101.4,479.5z M101.4,486c0.5,0,0.9,0.1,1.4,0.1
	c1.7,0,3.2-0.6,3.2-2.4s-1.4-2.3-3.2-2.3h-1.3L101.4,486L101.4,486z"/>
<path class="st10" d="M111,473.8c1.3-0.2,2.6-0.3,3.9-0.3c2.1,0,3.4,0.3,4.4,1.1c0.8,0.7,1.3,1.8,1.2,2.9c0,1.6-1,3.1-2.6,3.6v0.1
	c1.1,0.5,1.8,1.6,2,2.8c0.3,1.4,0.6,2.7,1.1,4h-2.7c-0.4-1.1-0.8-2.2-1-3.4c-0.4-1.9-1.1-2.5-2.6-2.5h-1.3v5.9H111V473.8z
	 M113.6,480.1h1.6c1.8,0,2.9-0.9,2.9-2.4s-1.1-2.3-2.8-2.3c-0.5,0-1.1,0-1.6,0.1V480.1z"/>
<path class="st10" d="M126.1,483.9l-1.2,4h-2.7l4.6-14.3h3.3l4.6,14.3h-2.8l-1.3-4H126.1L126.1,483.9z M130.2,481.9l-1.2-3.5
	c-0.3-0.9-0.5-1.8-0.7-2.7l0,0c-0.2,0.8-0.4,1.8-0.7,2.7l-1.1,3.5L130.2,481.9L130.2,481.9z"/>
<path class="st10" d="M136.7,487.9v-14.3h3l3.7,6.1c0.9,1.5,1.7,3.1,2.4,4.8l0,0c-0.2-1.9-0.2-3.8-0.2-5.9v-5h2.4v14.3h-2.7
	l-3.7-6.3c-1-1.6-1.8-3.2-2.6-4.9h-0.1c0.1,1.8,0.1,3.7,0.1,6.1v5.1L136.7,487.9L136.7,487.9z"/>
<path class="st10" d="M151,473.8c1.4-0.2,2.8-0.3,4.1-0.3c2.7,0,4.5,0.5,5.8,1.6c1.5,1.3,2.3,3.2,2.2,5.2c0.1,2.1-0.7,4.2-2.2,5.7
	c-1.4,1.3-3.7,2-6.5,2c-1.2,0-2.4-0.1-3.5-0.2L151,473.8L151,473.8z M153.6,485.9c0.5,0.1,0.9,0.1,1.4,0.1c3.4,0,5.4-1.8,5.4-5.5
	c0-3.2-1.8-5-5.1-5c-0.6,0-1.2,0-1.8,0.1L153.6,485.9L153.6,485.9z"/>
<path class="st10" d="M168.1,473.6v14.3h-2.6v-14.3H168.1z"/>
<path class="st10" d="M171.1,487.9v-14.3h3l3.7,6.1c0.9,1.5,1.7,3.1,2.4,4.8l0,0c-0.2-1.9-0.2-3.8-0.2-5.9v-5h2.4v14.3h-2.7
	l-3.7-6.3c-0.9-1.6-1.8-3.2-2.6-4.9h-0.1c0.1,1.8,0.1,3.7,0.1,6.1v5.1L171.1,487.9L171.1,487.9z"/>
<path class="st10" d="M196.8,487.2c-1.5,0.5-3,0.8-4.6,0.8c-2,0.1-4.1-0.6-5.6-1.9c-1.4-1.4-2.1-3.3-2-5.2c0-4.5,3.2-7.4,7.9-7.4
	c1.3,0,2.6,0.2,3.8,0.7l-0.6,2.1c-1-0.4-2.1-0.6-3.2-0.6c-3.1,0-5.2,1.8-5.2,5.1s2,5.2,5,5.2c0.7,0,1.4-0.1,2-0.3v-3.6h-2.5V480h5
	L196.8,487.2L196.8,487.2z"/>
</svg>
