<svg id="Layer_1" data-name="Layer 1" xmlns="http://www.w3.org/2000/svg" viewBox="0 0 889.76 526.78"><defs><style>.cls-1,.cls-2,.cls-4,.cls-5,.cls-6,.cls-8{fill:none;}.cls-1,.cls-2,.cls-4,.cls-5{stroke:#70c49b;}.cls-1,.cls-10,.cls-2,.cls-4,.cls-6,.cls-8{stroke-miterlimit:10;}.cls-1{stroke-width:3px;}.cls-2{opacity:0.53;}.cls-3{fill:#70c49b;}.cls-4{stroke-width:2.49px;}.cls-5{stroke-linecap:round;stroke-linejoin:round;stroke-width:1.64px;}.cls-6{stroke:#addbc2;stroke-width:2px;}.cls-10,.cls-7{fill:#70c59b;}.cls-10,.cls-8{stroke:#70c59b;}.cls-8{stroke-width:2.43px;}.cls-9{fill:#71c59c;}.cls-10{stroke-width:1.17px;}.cls-11{fill:#fff;}.cls-12{fill:#474648;}</style></defs><title>skills</title><line class="cls-1" x1="76.37" y1="179.5" x2="218.87" y2="179.5"/><line class="cls-1" x1="377.16" y1="179.5" x2="519.66" y2="179.5"/><line class="cls-2" x1="305.36" y1="27.01" x2="305.36" y2="241.06"/><line class="cls-2" x1="600.25" y1="27.01" x2="600.25" y2="241.06"/><line class="cls-1" x1="672.99" y1="181.88" x2="815.49" y2="181.88"/><line class="cls-1" x1="76.37" y1="447.12" x2="218.87" y2="447.12"/><line class="cls-2" x1="305.88" y1="299.53" x2="305.88" y2="513.58"/><line class="cls-2" x1="600.25" y1="299.53" x2="600.25" y2="513.58"/><line class="cls-2" x1="12.84" y1="270.43" x2="873.65" y2="270.43"/><line class="cls-1" x1="381.01" y1="448.48" x2="523.5" y2="448.48"/><line class="cls-1" x1="680.72" y1="447.24" x2="823.22" y2="447.24"/><path id="rect3368" class="cls-3" d="M142.36,126h11.82a0.56,0.56,0,0,1,.52.61h0v1.15a0.56,0.56,0,0,1-.51.61H142.36a0.56,0.56,0,0,1-.52-0.61h0V126.6a0.56,0.56,0,0,1,.51-0.61h0Z"/><path id="rect3368-1" class="cls-3" d="M142.31,129.33h11.82a0.56,0.56,0,0,1,.52.61h0v1.15a0.56,0.56,0,0,1-.51.61H142.31a0.56,0.56,0,0,1-.52-0.61h0v-1.15a0.56,0.56,0,0,1,.51-0.61h0Z"/><path class="cls-4" d="M164.29,96.88a15.94,15.94,0,0,0-31.85,0,14.73,14.73,0,0,0,2.94,8.8,42.47,42.47,0,0,1,4.57,9.8,0.85,0.85,0,0,1,0,.28v6.18a0.85,0.85,0,0,0,.85.85h14.73a0.85,0.85,0,0,0,.85-0.85v-6.08h0A44.38,44.38,0,0,1,161.78,105h0A14.7,14.7,0,0,0,164.29,96.88Z"/><rect id="rect3531" class="cls-5" x="147.43" y="64.56" width="0.58" height="10.3"/><polygon id="rect3531-0" class="cls-5" points="175.31 77.35 175.71 77.78 167.72 84.52 167.33 84.09 175.31 77.35"/><polygon id="rect3531-6" class="cls-5" points="161.46 71.16 161.91 71.37 158.61 77.19 158.16 76.97 161.46 71.16"/><polygon id="rect3531-0-4" class="cls-5" points="121.47 75.59 121.09 76.02 129.08 82.76 129.46 82.33 121.47 75.59"/><polygon id="rect3531-6-9" class="cls-5" points="133.89 70.78 133.45 70.99 136.74 76.79 137.18 76.57 133.89 70.78"/><polygon id="rect3531-6-2" class="cls-5" points="178.4 92.68 178.44 93.16 171.63 93.46 171.58 92.98 178.4 92.68"/><polygon id="rect3531-6-2-5" class="cls-5" points="117.5 90.65 117.45 91.13 124.26 91.43 124.31 90.95 117.5 90.65"/><path class="cls-3" d="M151.86,106.73c0.22-.24.44-0.44,0.44-0.44l0.43-.36c0.14-.11.28-0.2,0.41-0.29s0.51-.29.71-0.42l0.66-.3h-0.19c-0.12,0-.3,0-0.53,0a4.85,4.85,0,0,0-.82.19c-0.16.06-.33,0.11-0.5,0.18l-0.53.28-0.56.37c-0.18.15-.36,0.31-0.55,0.48s-0.36.37-.54,0.57-0.35.43-.51,0.66a8.66,8.66,0,0,0-.47.74,8.54,8.54,0,0,0-.43.8,15.88,15.88,0,0,0-.71,1.72c-0.19.57-.36,1.15-0.5,1.72,0-.52,0-1,0-1.6s0-.82,0-1.24-0.09-.83-0.13-1.24l-0.09-.62-0.14-.61a11.63,11.63,0,0,0-.3-1.19c-0.13-.38-0.24-0.77-0.39-1.13L146.13,104c-0.18-.33-0.36-0.65-0.54-1s-0.4-.57-0.58-0.85a10.43,10.43,0,0,0-1.21-1.37,8.64,8.64,0,0,0-1.15-.94,4.82,4.82,0,0,0-.51-0.33l-0.44-.25a5.55,5.55,0,0,0-.64-0.29l-0.23-.08a9.47,9.47,0,0,1,.75.61c0.12,0.1.24,0.22,0.38,0.35s0.28,0.27.43,0.43,0.31,0.32.46,0.51,0.33,0.37.49,0.59a15.79,15.79,0,0,1,1,1.44c0.15,0.27.32,0.54,0.47,0.84s0.29,0.6.43,0.91l0.38,1c0.11,0.34.2,0.7,0.32,1a10.54,10.54,0,0,1,.25,1.08l0.12,0.55,0.07,0.57c0,0.38.12,0.75,0.13,1.13l0.06,1.14,0.06,2.3c0.06,2,.13,2,0.18,4.09,0,1.74,0,2.07.09,3.27,0.08,0.91.19,1.65,0.28,2.15a1,1,0,0,0,.86,0c0.29-.26,0-0.81-0.14-1.94a12.71,12.71,0,0,1-.17-2.6,13.75,13.75,0,0,1,.25-1.92c0.1-.55.19-0.92,0.35-1.59,0.26-1.09.57-2.23,0.95-3.33,0.19-.55.4-1.09,0.62-1.6a13.46,13.46,0,0,1,.73-1.44A12.28,12.28,0,0,1,151.86,106.73Z"/><path class="cls-3" d="M158.5,102h0c-0.42-.15-0.84-0.28-1.27-0.43-0.21-.07-0.43-0.1-0.65-0.15l-0.65-.13-0.67,0a3.37,3.37,0,0,0-.67,0l-0.67.07a6.76,6.76,0,0,0-.67.18,3.06,3.06,0,0,0-.65.27l-0.32.16-0.3.2a3.6,3.6,0,0,0-.56.46,4,4,0,0,0-.5.55l-0.22.3-0.2.33a5.33,5.33,0,0,0-.34.68,7.2,7.2,0,0,0-.25.73,4.66,4.66,0,0,0-.14.76,5.19,5.19,0,0,1,.31-0.66,6.23,6.23,0,0,1,.36-0.61,6.33,6.33,0,0,1,.42-0.54l0.22-.25,0.24-.21a3,3,0,0,1,.49-0.39,2.73,2.73,0,0,1,.53-0.3c0.09,0,.18-0.1.27-0.13l0.28-.09a2.34,2.34,0,0,1,.57-0.15c0.19,0,.38-0.07.58-0.08h0.59a2.8,2.8,0,0,1,.59,0l0.59,0.07,0.59,0.14c0.2,0.05.39,0.08,0.59,0.15l0.71,0.26v0c0,0.2-.08.4-0.12,0.6a5.79,5.79,0,0,1-.18.58l-0.11.29-0.13.27c0,0.09-.08.18-0.13,0.27l-0.16.25c-0.05.08-.1,0.17-0.16,0.25l-0.18.23-0.18.23-0.2.21a3.31,3.31,0,0,1-.42.4l-0.46.35-0.5.29-0.25.15-0.27.11-0.53.23c-0.18.07-.37,0.12-0.55,0.18l-0.56.17c-0.38.08-.77,0.16-1.16,0.25,0.39,0.06.78,0.09,1.18,0.13,0.2,0,.4,0,0.6,0s0.4,0,.6,0l0.6-.13,0.3-.07,0.3-.11,0.59-.23,0.57-.33a3.93,3.93,0,0,0,.54-0.4l0.27-.22,0.24-.26,0.24-.26c0.08-.09.14-0.2,0.22-0.29l0.21-.3c0.07-.1.12-0.22,0.19-0.32a4.61,4.61,0,0,0,.33-0.68,6.68,6.68,0,0,0,.43-1.5,5.75,5.75,0,0,0,.09-0.84A0.67,0.67,0,0,0,158.5,102Z"/><path class="cls-3" d="M142.49,103.85a5.39,5.39,0,0,1-.58-0.33l-0.56-.37a4.36,4.36,0,0,1-.54-0.41c-0.17-.15-0.36-0.27-0.52-0.44l-0.48-.48c-0.16-.16-0.3-0.35-0.45-0.52a4.63,4.63,0,0,1-.41-0.56,5.59,5.59,0,0,1-.37-0.59,5.24,5.24,0,0,1-.32-0.62l-0.15-.32L138,98.88c-0.09-.22-0.15-0.45-0.22-0.68s-0.12-.46-0.16-0.69l0-.14,0.36-.14,0.8-.25,0.81-.2c0.27,0,.54-0.1.81-0.11l0.4,0h0.4a5.2,5.2,0,0,1,.79.09l0.38,0.1c0.13,0,.25.09,0.37,0.14a2.56,2.56,0,0,1,.36.17,2.23,2.23,0,0,1,.35.21,2.33,2.33,0,0,1,.34.24,2.86,2.86,0,0,1,.32.28,4.81,4.81,0,0,1,.58.66,7.87,7.87,0,0,1,.93,1.63c0.13,0.3.25,0.61,0.35,0.92s0.2,0.64.28,1a16.13,16.13,0,0,1,.39,2,12,12,0,0,0,0-2.13c0-.35-0.09-0.71-0.16-1.06a9.86,9.86,0,0,0-.62-2.06,6.53,6.53,0,0,0-.49-1,6.08,6.08,0,0,0-.63-0.85,4,4,0,0,0-.36-0.38,3.26,3.26,0,0,0-.39-0.34,3,3,0,0,0-.42-0.29,3.5,3.5,0,0,0-.44-0.24c-0.15-.07-0.3-0.14-0.45-0.2l-0.46-.15c-0.15,0-.31-0.07-0.47-0.1a2.42,2.42,0,0,0-.47-0.06l-0.47,0-0.46,0c-0.31,0-.61.07-0.92,0.1l-0.9.2-0.87.29-0.85.35h0a0.67,0.67,0,0,0-.37.68,6.47,6.47,0,0,0,.13.91,7.53,7.53,0,0,0,.21.83c0.09,0.27.18,0.53,0.29,0.78l0.16,0.38,0.19,0.36a6.23,6.23,0,0,0,.41.7l0.22,0.33,0.24,0.3a5.17,5.17,0,0,0,.51.58c0.18,0.17.35,0.37,0.54,0.52l0.57,0.46c0.19,0.15.4,0.26,0.6,0.39a4.44,4.44,0,0,0,.62.34l0.63,0.28a5.26,5.26,0,0,0,.64.22L143,104.5c0.44,0.09.88,0.15,1.31,0.21l-1.23-.54Z"/><path class="cls-6" d="M193.82,133.35L154.7,155.93a13.73,13.73,0,0,1-13.73,0l-39.11-22.58A13.73,13.73,0,0,1,95,121.46V76.3a13.73,13.73,0,0,1,6.86-11.89L141,41.84a13.73,13.73,0,0,1,13.73,0l39.11,22.58a13.73,13.73,0,0,1,6.86,11.89v45.16A13.73,13.73,0,0,1,193.82,133.35Z"/><path id="path3400" class="cls-3" d="M142.81,132.76a6.8,6.8,0,0,0,5.14,2.7,6.88,6.88,0,0,0,5.48-2.8Z"/><path class="cls-7" d="M773.9,104.21V99.63a2.6,2.6,0,0,0-2.6-2.6h-0.9a26,26,0,0,0-16.23-19.36H764a5.09,5.09,0,1,0,0-3H749V73.91a2.6,2.6,0,0,0-2.6-2.6h-4.58a2.6,2.6,0,0,0-2.6,2.6h0v0.76h-15a5.09,5.09,0,1,0,0,3h9.85A26,26,0,0,0,717.82,97h-1.08a2.6,2.6,0,0,0-2.6,2.6h0v4.58a2.6,2.6,0,0,0,2.6,2.6h4.58a2.6,2.6,0,0,0,2.6-2.6h0V99.58a2.6,2.6,0,0,0-2.6-2.6h-0.5a23,23,0,0,1,18.55-17.67,2.57,2.57,0,0,0,2.45,1.76h4.58a2.6,2.6,0,0,0,2.45-1.76A23,23,0,0,1,767.36,97h-0.65a2.6,2.6,0,0,0-2.61,2.58v4.58a2.6,2.6,0,0,0,2.6,2.6h4.58A2.6,2.6,0,0,0,773.9,104.21Zm-53-4.25v3.82h-3.82V100h3.82ZM742.2,78.07V76.16h0V74.25H746v3.82H742.2Zm24.9,25.76V100h3.82v3.82h-3.82Z"/><path class="cls-8" d="M757.8,113.55A22.57,22.57,0,0,0,753,126.6v0.06l-17-.24a18,18,0,0,0-1.25-6.45,18.84,18.84,0,0,0-3.64-6,1.13,1.13,0,0,1,0-1.53A32.4,32.4,0,0,0,739.66,91h9.26A31.71,31.71,0,0,0,752.14,104a29.74,29.74,0,0,0,5.58,7.88A1.21,1.21,0,0,1,757.8,113.55Z"/><path class="cls-8" d="M733,126.51h22.76a0.66,0.66,0,0,1,.53.76l0,5.53a0.63,0.63,0,0,1-.51.73H733a0.66,0.66,0,0,1-.53-0.76l0-5.53A0.63,0.63,0,0,1,733,126.51Z"/><path class="cls-9" d="M742.92,91V106.8a3,3,0,1,0,3.1,0V91h-3.1Z"/><path class="cls-6" d="M789.92,133.75l-39.11,22.58a13.73,13.73,0,0,1-13.73,0L698,133.75a13.73,13.73,0,0,1-6.86-11.89V76.7A13.73,13.73,0,0,1,698,64.81l39.09-22.58a13.73,13.73,0,0,1,13.73,0L789.9,64.81a13.73,13.73,0,0,1,6.86,11.89v45.16A13.73,13.73,0,0,1,789.92,133.75Z"/><path class="cls-6" d="M494.39,133.35l-39.11,22.58a13.73,13.73,0,0,1-13.73,0l-39.11-22.58a13.73,13.73,0,0,1-6.86-11.89V76.3a13.73,13.73,0,0,1,6.86-11.89l39.09-22.58a13.73,13.73,0,0,1,13.73,0l39.11,22.58a13.73,13.73,0,0,1,6.86,11.89v45.16A13.73,13.73,0,0,1,494.39,133.35Z"/><path class="cls-3" d="M457.45,79.1a1.8,1.8,0,0,0-2.22.91L438.4,118.85a1.47,1.47,0,0,0,.8,1.92l0.17,0.06a1.85,1.85,0,0,0,.78.09,1.74,1.74,0,0,0,1.44-1l16.83-38.84a1.47,1.47,0,0,0-.8-1.92Z"/><path class="cls-3" d="M417.55,98.6a2,2,0,0,0,0,3l11.61,10a2,2,0,0,0,2.62-3l-9.85-8.48,9.85-8.49a2,2,0,0,0-2.62-3Z"/><path class="cls-3" d="M464.89,111.45a2,2,0,0,0,2.84.21l11.61-10a2,2,0,0,0,0-3l-11.61-10a2,2,0,0,0-2.63,3h0l9.84,8.49-9.84,8.48A2,2,0,0,0,464.89,111.45Z"/><path class="cls-7" d="M780.19,362.3a9.18,9.18,0,0,0-6.79-3H770l0.14-4.59a1.14,1.14,0,0,0-.07-0.48,1.2,1.2,0,0,0-1.12-.75H731.87a1.22,1.22,0,0,0-.49.07,1.25,1.25,0,0,0-.7,1.16l0.91,25.82v0.07a11.52,11.52,0,0,0,3.08,6.64,0.61,0.61,0,0,1,0,.82,1,1,0,0,1-.42.14H722.42a1.4,1.4,0,0,0-1,.41,1.12,1.12,0,0,0-.07,1.44,14.82,14.82,0,0,0,12.32,6.44h33.47A14.78,14.78,0,0,0,779.42,390a1.33,1.33,0,0,0,.21-1,1.2,1.2,0,0,0-1.19-.89h-11.9a0.55,0.55,0,0,1-.56-0.55,1,1,0,0,1,.14-0.41,11.52,11.52,0,0,0,3.08-6.64v-0.07l0.14-3.43h4.06a8.94,8.94,0,0,0,9-9,8.52,8.52,0,0,0-2.24-5.75h0Zm-4.27,28.22a12.55,12.55,0,0,1-8.75,3.56H733.69a12.55,12.55,0,0,1-8.75-3.56h51Zm-9.1-10.14a0.61,0.61,0,0,1-.07.34,9,9,0,0,1-9.1,7.47h-14.5a9.07,9.07,0,0,1-9.1-7.47,0.61,0.61,0,0,0-.07-0.34l-0.84-24.52H743v6.64a0.79,0.79,0,0,1-.84.75h-0.84a1.21,1.21,0,0,0-1.19,1.16,0.92,0.92,0,0,1-.91.89h0a1.21,1.21,0,0,0-1.19,1.16V375a1.21,1.21,0,0,0,1.19,1.16h9.1a1.21,1.21,0,0,0,1.19-1.16h0v-8.43a1.27,1.27,0,0,0-1.19-1.23,0.86,0.86,0,0,1-.91-0.82h0a1.21,1.21,0,0,0-1.19-1.16h-0.7a0.92,0.92,0,0,1-.91-0.89v-6.51h23.11Zm-21.57-14.73a3.31,3.31,0,0,0,1.89,1.85v6.37h-4.27a2.41,2.41,0,0,1-2.45-2.4v-4a3.31,3.31,0,0,0,1.89-1.85h2.94Zm24.51,0.41h3.71a2.16,2.16,0,0,1,2.17,2.12v0.27a2.12,2.12,0,0,1-2.17,1.85h-3.85ZM780,368.94a6.6,6.6,0,0,1-6.58,5.75h-1.89a2,2,0,0,1-2-2v-0.07h3.92a4.6,4.6,0,0,0,4.62-4.45,4.41,4.41,0,0,0-2-3.7,4.16,4.16,0,0,0-2.66-.75H772a2,2,0,0,1-2-2v-0.07h3.5a6.53,6.53,0,0,1,6.65,6.51,3,3,0,0,1-.07.75h0Z"/><path class="cls-7" d="M739.29,345.51a3,3,0,0,1-.7,2.12,1.17,1.17,0,0,0-.14,1.64,1.23,1.23,0,0,0,1.68.14,5.15,5.15,0,0,0,1.54-3.9,6.18,6.18,0,0,0-1.47-3.77,4.31,4.31,0,0,1-1-2.4,3,3,0,0,1,.7-2.12,1.17,1.17,0,0,0,.14-1.64,1.23,1.23,0,0,0-1.68-.14,5.15,5.15,0,0,0-1.54,3.9,6.18,6.18,0,0,0,1.47,3.77A4.12,4.12,0,0,1,739.29,345.51Z"/><path class="cls-7" d="M759,345.51a3,3,0,0,1-.7,2.12,1.17,1.17,0,0,0-.14,1.64,1.23,1.23,0,0,0,1.68.14,5.15,5.15,0,0,0,1.54-3.9,6.18,6.18,0,0,0-1.47-3.77,4.31,4.31,0,0,1-1-2.4,3,3,0,0,1,.7-2.12,1.17,1.17,0,0,0,.14-1.64,1.23,1.23,0,0,0-1.68-.14,5.15,5.15,0,0,0-1.54,3.9,6.18,6.18,0,0,0,1.47,3.77A3.71,3.71,0,0,1,759,345.51Z"/><path class="cls-7" d="M749.17,341.82a3,3,0,0,1-.7,2.12,1.17,1.17,0,0,0-.14,1.64,1.23,1.23,0,0,0,1.68.14h0a5.15,5.15,0,0,0,1.54-3.9,6.18,6.18,0,0,0-1.47-3.77,3.55,3.55,0,0,1-1-2.47,3,3,0,0,1,.7-2.12,1.17,1.17,0,0,0,.14-1.64,1.23,1.23,0,0,0-1.68-.14h0a5.15,5.15,0,0,0-1.54,3.9,6.18,6.18,0,0,0,1.47,3.77A4.73,4.73,0,0,1,749.17,341.82Z"/><path class="cls-7" d="M464.74,362.6c-0.48,0-1,0-1.47-.06a1.28,1.28,0,0,1-1.16-1.14,11.92,11.92,0,0,1,2.68-9.16c2.44-2.83,6.39-4.52,11.12-4.77a1.26,1.26,0,0,1,1.33,1.14A13.32,13.32,0,0,1,474,358.73a12.17,12.17,0,0,1-9.31,3.86h0ZM464.58,360a9.75,9.75,0,0,0,7.59-3,10.56,10.56,0,0,0,2.59-6.91,12.31,12.31,0,0,0-8,3.78A9.16,9.16,0,0,0,464.58,360Z"/><path class="cls-7" d="M449.92,359.23h0c-6,0-11.07-2.09-14.68-6.07a21,21,0,0,1-5-16,1.28,1.28,0,0,1,1.33-1.15c7.53,0.39,13.8,3.06,17.66,7.54a18.71,18.71,0,0,1,4.19,14.4,1.27,1.27,0,0,1-1.16,1.14C451.45,359.2,450.68,359.23,449.92,359.23Zm-17.23-20.56a18.26,18.26,0,0,0,4.44,12.77c3.1,3.43,7.53,5.24,12.78,5.24h0l1,0a15.94,15.94,0,0,0-3.66-11.41C444.1,341.54,439,339.24,432.69,338.67Z"/><path class="cls-7" d="M432.64,391.3H419.88A1.28,1.28,0,0,1,418.6,390v-23a1.28,1.28,0,0,1,1.28-1.28h12.76a1.28,1.28,0,0,1,1.28,1.28v23A1.27,1.27,0,0,1,432.64,391.3Zm-11.48-2.55h10.21V368.34H421.16v20.41Z"/><path class="cls-7" d="M453.92,395c-4.38,0-9.8-2.56-14.16-4.62-2.58-1.22-5.25-2.48-6.33-2.48a1.28,1.28,0,1,1,0-2.55c1.66,0,4.2,1.2,7.42,2.72,4.13,2,9.26,4.38,13.07,4.38,7.51,0,23.44-9.5,23.44-12.12,0-2.2-.93-3.19-3-3.19-0.66,0-2.41,1.43-3.69,2.48-2.8,2.29-6,4.9-9,4a1.27,1.27,0,0,1-.9-1.45,2,2,0,0,0-.34-1.84c-1.35-1.56-5.7-1.4-8-1.32-0.52,0-1,0-1.35,0-1.38,0-2.52-.73-4-1.66-2.51-1.61-6-3.82-13.12-3.92a1.28,1.28,0,0,1,0-2.55h0c7.89,0.11,11.85,2.65,14.46,4.32a6.35,6.35,0,0,0,2.58,1.26c0.34,0,.78,0,1.26,0,3.16-.11,7.92-0.28,10.07,2.19a4.2,4.2,0,0,1,1,2.55c1.7-.29,3.88-2.08,5.7-3.56,2.08-1.7,3.73-3,5.3-3,3.55,0,5.58,2.09,5.58,5.74C479.92,385.7,460.74,395,453.92,395Z"/><path class="cls-7" d="M462,383.64H444.12a1.28,1.28,0,1,1,0-2.55H462A1.28,1.28,0,0,1,462,383.64Z"/><path class="cls-7" d="M456,371.31a1.28,1.28,0,0,1-1.28-1.28c0-2.5-2.08-9.49-3.61-11.38a1.28,1.28,0,0,1,2-1.6c1.24,1.54,2.65,5.35,3.46,8.63a28.87,28.87,0,0,1,6-5.48,1.27,1.27,0,0,1,1.43,2.11c-2.62,1.77-6.77,5.44-6.77,7.72A1.27,1.27,0,0,1,456,371.31Z"/><path class="cls-7" d="M149.06,362.59a1,1,0,0,0-1.09.83l-0.26,1.93a1,1,0,0,0,.26.83,1,1,0,0,0,.71.26h0.13l1.93-.26a1,1,0,0,0-.26-1.93l-0.64.06,0.06-.64A1,1,0,0,0,149.06,362.59Z"/><path class="cls-7" d="M154.9,377.6a1,1,0,0,0,.77-0.39,9.51,9.51,0,0,0,1.86-3.79,1,1,0,0,0-1.86-.45,7.79,7.79,0,0,1-1.48,3,1,1,0,0,0,.13,1.35A0.63,0.63,0,0,0,154.9,377.6Z"/><path class="cls-7" d="M155.6,369.78a1,1,0,0,0,.9.64,0.58,0.58,0,0,0,.32-0.06,0.93,0.93,0,0,0,.58-1.22,6.83,6.83,0,0,0-2.76-3.34,1,1,0,1,0-1.09,1.6A5.53,5.53,0,0,1,155.6,369.78Z"/><path class="cls-7" d="M140.59,380.43l3.79,0.26h0.06a1,1,0,0,0,1-.9,1,1,0,0,0-.9-1l-3.79-.26a1,1,0,0,0-1,.9A0.91,0.91,0,0,0,140.59,380.43Z"/><path class="cls-7" d="M148.29,380.94h0a10,10,0,0,0,4.11-1,1,1,0,1,0-.83-1.73,8.23,8.23,0,0,1-3.27.83,1,1,0,0,0-1,1A1,1,0,0,0,148.29,380.94Z"/><path class="cls-7" d="M134.88,380.17h2a1,1,0,0,0,1-.9,1,1,0,0,0-.9-1h-1v-1a1,1,0,1,0-1.93.13v1.86A0.86,0.86,0,0,0,134.88,380.17Z"/><path class="cls-7" d="M134.11,366.82a1,1,0,0,0,1-1,8.23,8.23,0,0,1,.83-3.27,1,1,0,0,0-1.73-.83,10,10,0,0,0-1,4.11,1,1,0,0,0,1,1h0Z"/><path class="cls-7" d="M134.62,374.46h0a1,1,0,0,0,1-1l-0.26-3.79a1,1,0,1,0-1.93.13l0.26,3.79A0.93,0.93,0,0,0,134.62,374.46Z"/><path class="cls-7" d="M146.68,360.54a1.1,1.1,0,0,0,.83.45,0.73,0.73,0,0,0,.51-0.19,1,1,0,0,0,.26-1.35,6.83,6.83,0,0,0-3.34-2.76,1,1,0,1,0-.64,1.8A4.79,4.79,0,0,1,146.68,360.54Z"/><path class="cls-7" d="M141.1,358.48a1,1,0,0,0-.45-1.86,9.51,9.51,0,0,0-3.79,1.86,0.94,0.94,0,0,0-.13,1.35,0.91,0.91,0,0,0,.77.39,0.9,0.9,0,0,0,.58-0.19A6.77,6.77,0,0,1,141.1,358.48Z"/><path class="cls-7" d="M160,351a1,1,0,0,0,1-1,1,1,0,0,0-1-1,5.33,5.33,0,1,0,5.33,5.33,1,1,0,0,0-1.93,0A3.4,3.4,0,1,1,160,351Z"/><path class="cls-10" d="M170.94,349.24a1,1,0,0,0-1,1v18.54L141.23,397.5l-12.06-12.06a0.06,0.06,0,0,1-.06-0.06,0.06,0.06,0,0,0-.06-0.06l-12-12,28.75-28.75h18.8a1,1,0,1,0,0-1.93H145.4a1.35,1.35,0,0,0-.71.26L115,372.66a1,1,0,0,0-.26.64,1.35,1.35,0,0,0,.26.71l12.71,12.71a0.06,0.06,0,0,1,.06.06,0.06,0.06,0,0,0,.06.06l12.71,12.71a1.1,1.1,0,0,0,1.41,0l29.71-29.71a1,1,0,0,0,.26-0.71V350.2A1,1,0,0,0,170.94,349.24Z"/><path class="cls-7" d="M177.81,336.67a1.24,1.24,0,0,0-1.8,0l-16.94,16.88a1.24,1.24,0,0,0,0,1.8,1.24,1.24,0,0,0,1.8,0l16.94-16.88A1.37,1.37,0,0,0,177.81,336.67Z"/><path class="cls-6" d="M192.64,398.68l-39.11,22.58a13.73,13.73,0,0,1-13.73,0l-39.11-22.58a13.73,13.73,0,0,1-6.86-11.89V341.63a13.73,13.73,0,0,1,6.86-11.89l39.09-22.58a13.73,13.73,0,0,1,13.73,0l39.11,22.58a13.73,13.73,0,0,1,6.86,11.89v45.16A13.73,13.73,0,0,1,192.64,398.68Z"/><path class="cls-6" d="M796.36,398.93l-39.11,22.58a13.73,13.73,0,0,1-13.73,0l-39.11-22.58A13.73,13.73,0,0,1,697.55,387V341.88A13.73,13.73,0,0,1,704.41,330l39.09-22.58a13.73,13.73,0,0,1,13.73,0L796.34,330a13.73,13.73,0,0,1,6.86,11.89V387A13.73,13.73,0,0,1,796.36,398.93Z"/><path class="cls-6" d="M495.24,398.68l-39.11,22.58a13.73,13.73,0,0,1-13.73,0l-39.11-22.58a13.73,13.73,0,0,1-6.86-11.89V341.63a13.73,13.73,0,0,1,6.86-11.89l39.09-22.58a13.73,13.73,0,0,1,13.73,0l39.11,22.58a13.73,13.73,0,0,1,6.86,11.89v45.16A13.73,13.73,0,0,1,495.24,398.68Z"/><circle class="cls-11" cx="719.31" cy="76.16" r="2.82"/><circle class="cls-11" cx="769.06" cy="76.24" r="2.82"/><path class="cls-12" d="M682.64,206v14.28H680V206h2.61Z"/><path class="cls-12" d="M685.62,206h2.61v12.1h5.87v2.18h-8.47V206Z"/><path class="cls-12" d="M696.06,206h2.61v12.1h5.87v2.18h-8.47V206Z"/><path class="cls-12" d="M708.39,206v8.33c0,2.8,1.16,4.09,2.92,4.09s3-1.29,3-4.09V206h2.61v8.16c0,4.41-2.27,6.36-5.7,6.36s-5.45-1.84-5.45-6.34V206h2.61Z"/><path class="cls-12" d="M719.84,217.43a7.21,7.21,0,0,0,3.45.91c1.67,0,2.61-.78,2.61-1.95s-0.72-1.72-2.54-2.37c-2.35-.85-3.86-2.1-3.86-4.15,0-2.33,1.95-4.11,5-4.11a7.54,7.54,0,0,1,3.43.72l-0.64,2.1a6.06,6.06,0,0,0-2.84-.68c-1.65,0-2.37.89-2.37,1.72,0,1.1.83,1.61,2.73,2.35,2.48,0.93,3.69,2.18,3.69,4.24,0,2.29-1.74,4.28-5.42,4.28a8.49,8.49,0,0,1-3.86-.89Z"/><path class="cls-12" d="M733.63,208.17h-4.07V206h10.78v2.18h-4.11v12.1h-2.61v-12.1Z"/><path class="cls-12" d="M742,206.18a24.7,24.7,0,0,1,3.94-.3c2.05,0,3.45.34,4.41,1.14a3.62,3.62,0,0,1,1.23,2.86,3.81,3.81,0,0,1-2.59,3.58v0.06a3.64,3.64,0,0,1,2,2.75,28.46,28.46,0,0,0,1.12,4h-2.69a20.46,20.46,0,0,1-1-3.37c-0.4-1.86-1.08-2.46-2.56-2.5H744.6v5.87H742V206.18Zm2.59,6.31h1.55c1.76,0,2.86-.93,2.86-2.35s-1.1-2.29-2.8-2.29a7.49,7.49,0,0,0-1.61.13v4.51Z"/><path class="cls-12" d="M757.07,216.22l-1.23,4h-2.69L757.73,206h3.33l4.64,14.28h-2.8l-1.29-4h-4.53Zm4.09-2L760,210.73c-0.28-.87-0.51-1.84-0.72-2.67h0c-0.21.83-.42,1.82-0.68,2.67l-1.1,3.52h3.67Z"/><path class="cls-12" d="M768.7,208.17h-4.07V206h10.78v2.18H771.3v12.1H768.7v-12.1Z"/><path class="cls-12" d="M779.69,206v14.28h-2.61V206h2.61Z"/><path class="cls-12" d="M795.34,213c0,4.79-2.9,7.52-6.84,7.52s-6.57-3.07-6.57-7.27c0-4.39,2.75-7.48,6.78-7.48S795.34,208.91,795.34,213Zm-10.66.21c0,2.9,1.46,5.21,4,5.21s3.94-2.33,3.94-5.32c0-2.69-1.34-5.23-3.94-5.23S784.69,210.25,784.69,213.19Z"/><path class="cls-12" d="M797.58,220.27V206h3l3.69,6.12a39.21,39.21,0,0,1,2.44,4.79h0c-0.17-1.91-.23-3.75-0.23-5.93v-5h2.41v14.28H806.2L802.47,214a50.06,50.06,0,0,1-2.56-4.94l-0.06,0c0.11,1.84.13,3.73,0.13,6.08v5.11h-2.39Z"/><path class="cls-12" d="M394.68,222.27L391.19,208H394l1.36,6.48c0.36,1.74.7,3.56,0.93,5h0c0.23-1.5.64-3.2,1-5l1.55-6.46h2.73l1.42,6.57c0.36,1.7.66,3.28,0.87,4.83h0c0.25-1.57.59-3.2,1-4.94L406.4,208H409l-3.84,14.28h-2.8l-1.48-6.72a40.75,40.75,0,0,1-.78-4.53h0c-0.25,1.53-.53,2.9-1,4.53l-1.65,6.72h-2.82Z"/><path class="cls-12" d="M418.76,215.94h-5.38v4.2h6v2.14h-8.62V208h8.31v2.14h-5.7v3.69h5.38v2.12Z"/><path class="cls-12" d="M421.68,208.18a21.74,21.74,0,0,1,3.79-.3,6.77,6.77,0,0,1,4.09.91,3,3,0,0,1,1.48,2.67,3.32,3.32,0,0,1-2.37,3.09v0a3.6,3.6,0,0,1,2.88,3.54,3.71,3.71,0,0,1-1.38,2.95c-1,.89-2.69,1.33-5.3,1.33a25.36,25.36,0,0,1-3.2-.19v-14Zm2.59,5.64h1.33c1.8,0,2.82-.85,2.82-2.06s-1-1.95-2.67-1.95a7.1,7.1,0,0,0-1.48.11v3.9Zm0,6.57a11.57,11.57,0,0,0,1.38.06c1.67,0,3.16-.64,3.16-2.39s-1.44-2.33-3.24-2.33h-1.29v4.66Z"/><path class="cls-12" d="M438.26,208.18a26.32,26.32,0,0,1,4.15-.3c2.67,0,4.51.55,5.83,1.65a6.39,6.39,0,0,1,2.22,5.25,7.39,7.39,0,0,1-2.22,5.68c-1.42,1.29-3.69,1.95-6.46,1.95a28.52,28.52,0,0,1-3.52-.19v-14Zm2.61,12.1a9.72,9.72,0,0,0,1.44.06c3.39,0,5.4-1.84,5.4-5.47,0-3.16-1.8-5-5.06-5a8.33,8.33,0,0,0-1.78.15v10.21Z"/><path class="cls-12" d="M460.72,215.94h-5.38v4.2h6v2.14h-8.62V208H461v2.14h-5.7v3.69h5.38v2.12Z"/><path class="cls-12" d="M463.57,219.43a7.21,7.21,0,0,0,3.45.91c1.67,0,2.61-.78,2.61-1.95s-0.72-1.72-2.54-2.37c-2.35-.85-3.86-2.1-3.86-4.15,0-2.33,1.95-4.11,5-4.11a7.55,7.55,0,0,1,3.43.72l-0.64,2.1a6.05,6.05,0,0,0-2.84-.68c-1.65,0-2.37.89-2.37,1.72,0,1.1.83,1.61,2.73,2.35,2.48,0.93,3.69,2.18,3.69,4.24,0,2.29-1.74,4.28-5.42,4.28a8.49,8.49,0,0,1-3.86-.89Z"/><path class="cls-12" d="M477.23,208v14.28h-2.61V208h2.61Z"/><path class="cls-12" d="M491.66,221.61a14.14,14.14,0,0,1-4.6.81,7.69,7.69,0,0,1-5.59-1.91,7.07,7.07,0,0,1-2-5.25c0-4.51,3.22-7.42,7.95-7.42a9.48,9.48,0,0,1,3.79.68l-0.57,2.1a7.69,7.69,0,0,0-3.24-.61c-3.05,0-5.19,1.8-5.19,5.13s2,5.17,5,5.17a5,5,0,0,0,2-.3v-3.56h-2.52v-2.06h5v7.23Z"/><path class="cls-12" d="M494.32,222.27V208h3l3.69,6.12a39.42,39.42,0,0,1,2.44,4.79h0c-0.17-1.91-.23-3.75-0.23-5.93v-5h2.42v14.28h-2.69L499.21,216a49.74,49.74,0,0,1-2.56-4.94l-0.06,0c0.11,1.84.13,3.73,0.13,6.08v5.11h-2.39Z"/><path class="cls-12" d="M60,208v14.28H57.44V208H60Z"/><path class="cls-12" d="M63,208.15a26.32,26.32,0,0,1,4.15-.3c2.67,0,4.51.55,5.83,1.65a6.39,6.39,0,0,1,2.22,5.25A7.39,7.39,0,0,1,73,220.44c-1.42,1.29-3.69,1.95-6.46,1.95A28.52,28.52,0,0,1,63,222.2v-14Zm2.61,12.1a9.72,9.72,0,0,0,1.44.06c3.39,0,5.4-1.84,5.4-5.47,0-3.16-1.8-5-5.06-5a8.33,8.33,0,0,0-1.78.15v10.21Z"/><path class="cls-12" d="M85.48,215.9H80.1v4.2h6v2.14H77.5V208H85.8v2.14H80.1v3.69h5.38v2.12Z"/><path class="cls-12" d="M91.26,218.19l-1.23,4H87.34L91.92,208h3.33l4.64,14.28h-2.8l-1.29-4H91.26Zm4.09-2-1.12-3.52c-0.28-.87-0.51-1.84-0.72-2.67h0c-0.21.83-.42,1.82-0.68,2.67l-1.1,3.52h3.67Z"/><path class="cls-12" d="M106.25,208.15a26.32,26.32,0,0,1,4.15-.3c2.67,0,4.51.55,5.83,1.65a6.39,6.39,0,0,1,2.22,5.25,7.39,7.39,0,0,1-2.22,5.68c-1.42,1.29-3.69,1.95-6.46,1.95a28.52,28.52,0,0,1-3.52-.19v-14Zm2.61,12.1a9.72,9.72,0,0,0,1.44.06c3.39,0,5.4-1.84,5.4-5.47,0-3.16-1.8-5-5.06-5a8.33,8.33,0,0,0-1.78.15v10.21Z"/><path class="cls-12" d="M128.71,215.9h-5.38v4.2h6v2.14h-8.62V208H129v2.14h-5.7v3.69h5.38v2.12Z"/><path class="cls-12" d="M135.06,222.24L130.44,208h2.84l1.95,6.48c0.55,1.8,1,3.48,1.4,5.21h0c0.38-1.7.89-3.43,1.46-5.17L140.2,208H143L138,222.24h-3Z"/><path class="cls-12" d="M152.51,215.9h-5.38v4.2h6v2.14h-8.62V208h8.31v2.14h-5.7v3.69h5.38v2.12Z"/><path class="cls-12" d="M155.43,208H158v12.1h5.87v2.18h-8.48V208Z"/><path class="cls-12" d="M177.71,215c0,4.79-2.9,7.52-6.84,7.52s-6.57-3.07-6.57-7.27c0-4.39,2.75-7.48,6.78-7.48S177.71,210.88,177.71,215Zm-10.66.21c0,2.9,1.46,5.21,4,5.21S175,218,175,215.06c0-2.69-1.34-5.23-3.94-5.23S167.05,212.22,167.05,215.16Z"/><path class="cls-12" d="M179.95,208.15a22.55,22.55,0,0,1,4-.3,6.46,6.46,0,0,1,4.22,1.17,4,4,0,0,1,1.4,3.16,4.33,4.33,0,0,1-1.23,3.24,6.3,6.3,0,0,1-4.51,1.53,7.34,7.34,0,0,1-1.27-.08v5.38h-2.59V208.15Zm2.59,6.65a5.29,5.29,0,0,0,1.27.11c1.95,0,3.14-1,3.14-2.63s-1.1-2.44-2.9-2.44a7.2,7.2,0,0,0-1.5.13v4.83Z"/><path class="cls-12" d="M203.57,216.41c-0.08-1.84-.19-4.07-0.17-6h-0.06c-0.47,1.74-1.06,3.67-1.7,5.47l-2.08,6.19h-2l-1.91-6.1c-0.55-1.82-1.06-3.77-1.44-5.55h0c-0.06,1.86-.15,4.13-0.25,6.08l-0.32,5.74h-2.44l1-14.28h3.43l1.86,5.74c0.51,1.67,1,3.37,1.31,5h0.06c0.38-1.55.87-3.31,1.42-5l2-5.72h3.39l0.83,14.28h-2.54Z"/><path class="cls-12" d="M217,215.9h-5.38v4.2h6v2.14H209V208h8.31v2.14h-5.7v3.69H217v2.12Z"/><path class="cls-12" d="M219.93,222.24V208h3l3.69,6.12a39.32,39.32,0,0,1,2.44,4.79h0c-0.17-1.91-.23-3.75-0.23-5.93v-5h2.42v14.28h-2.69L224.82,216a49.58,49.58,0,0,1-2.56-4.94l-0.06,0c0.11,1.84.13,3.73,0.13,6.08v5.11h-2.39Z"/><path class="cls-12" d="M237,210.14h-4.07V208h10.78v2.18h-4.11v12.1H237v-12.1Z"/><path class="cls-12" d="M689.8,475.17h-4.07V473h10.78v2.18H692.4v12.1H689.8v-12.1Z"/><path class="cls-12" d="M706.17,480.93h-5.38v4.2h6v2.14h-8.62V473h8.3v2.14h-5.7v3.69h5.38v2.12Z"/><path class="cls-12" d="M711.95,483.22l-1.23,4H708L712.6,473h3.33l4.64,14.28h-2.8l-1.29-4h-4.53Zm4.09-2-1.12-3.52c-0.28-.87-0.51-1.84-0.72-2.67h0c-0.21.83-.42,1.82-0.68,2.67l-1.1,3.52H716Z"/><path class="cls-12" d="M726.94,473.18a26.32,26.32,0,0,1,4.15-.3c2.67,0,4.51.55,5.83,1.65a6.39,6.39,0,0,1,2.22,5.25,7.39,7.39,0,0,1-2.22,5.68c-1.42,1.29-3.69,1.95-6.46,1.95a28.53,28.53,0,0,1-3.52-.19v-14Zm2.61,12.1a9.73,9.73,0,0,0,1.44.06c3.39,0,5.4-1.84,5.4-5.47,0-3.16-1.8-5-5.06-5a8.33,8.33,0,0,0-1.78.15v10.21Z"/><path class="cls-12" d="M741.4,473.18a24.67,24.67,0,0,1,3.94-.3c2.05,0,3.45.34,4.41,1.14a3.61,3.61,0,0,1,1.23,2.86,3.81,3.81,0,0,1-2.59,3.58v0.06a3.63,3.63,0,0,1,2,2.75,28.19,28.19,0,0,0,1.12,4h-2.69a20.15,20.15,0,0,1-1-3.37c-0.4-1.86-1.08-2.46-2.56-2.5H744v5.87H741.4V473.18Zm2.59,6.31h1.55c1.76,0,2.86-.93,2.86-2.35s-1.1-2.29-2.8-2.29A7.49,7.49,0,0,0,744,475v4.51Z"/><path class="cls-12" d="M756.06,473v14.28h-2.61V473h2.61Z"/><path class="cls-12" d="M759,487.27V473h3l3.69,6.12a39.21,39.21,0,0,1,2.44,4.79h0c-0.17-1.91-.23-3.75-0.23-5.93v-5h2.41v14.28h-2.69L763.94,481a50.06,50.06,0,0,1-2.56-4.94l-0.06,0c0.11,1.84.13,3.73,0.13,6.08v5.11H759Z"/><path class="cls-12" d="M773.36,473h2.59v6.57H776c0.34-.55.7-1.06,1-1.55l3.73-5H784l-4.92,6.08,5.24,8.2h-3.05l-4-6.55-1.27,1.53v5h-2.59V473Z"/><path class="cls-12" d="M788.29,473v14.28h-2.61V473h2.61Z"/><path class="cls-12" d="M791.27,487.27V473h3l3.69,6.12a39.44,39.44,0,0,1,2.44,4.79h0c-0.17-1.91-.23-3.75-0.23-5.93v-5h2.42v14.28H799.9L796.17,481a49.12,49.12,0,0,1-2.56-4.94l-0.06,0c0.11,1.84.13,3.73,0.13,6.08v5.11h-2.39Z"/><path class="cls-12" d="M817,486.61a14.13,14.13,0,0,1-4.6.81,7.69,7.69,0,0,1-5.59-1.91,7.07,7.07,0,0,1-2-5.25c0-4.51,3.22-7.42,7.95-7.42a9.49,9.49,0,0,1,3.79.68l-0.57,2.1a7.69,7.69,0,0,0-3.24-.61c-3.05,0-5.19,1.8-5.19,5.13s2,5.17,5,5.17a5,5,0,0,0,2-.3v-3.56H812v-2.06h5v7.23Z"/><path class="cls-12" d="M357.28,473.3v14.28h-2.61V473.3h2.61Z"/><path class="cls-12" d="M360.27,487.58V473.3h3l3.69,6.12a39.42,39.42,0,0,1,2.44,4.79h0c-0.17-1.91-.23-3.75-0.23-5.93v-5h2.42v14.28h-2.69l-3.73-6.27a49.74,49.74,0,0,1-2.56-4.94l-0.06,0c0.11,1.84.13,3.73,0.13,6.08v5.11h-2.39Z"/><path class="cls-12" d="M377.32,475.49h-4.07V473.3H384v2.18h-4.11v12.1h-2.61v-12.1Z"/><path class="cls-12" d="M393.69,481.25h-5.38v4.2h6v2.14H385.7V473.3H394v2.14h-5.7v3.69h5.38v2.12Z"/><path class="cls-12" d="M396.61,473.49a24.7,24.7,0,0,1,3.94-.3c2.05,0,3.45.34,4.41,1.14a3.62,3.62,0,0,1,1.23,2.86,3.81,3.81,0,0,1-2.59,3.58v0.06a3.64,3.64,0,0,1,2,2.75,28.46,28.46,0,0,0,1.12,4H404a20.36,20.36,0,0,1-1-3.37c-0.4-1.86-1.08-2.46-2.56-2.5h-1.31v5.87h-2.59V473.49Zm2.59,6.31h1.55c1.76,0,2.86-.93,2.86-2.35s-1.1-2.29-2.8-2.29a7.5,7.5,0,0,0-1.61.13v4.51Z"/><path class="cls-12" d="M411.67,483.54l-1.23,4h-2.69l4.58-14.28h3.33l4.64,14.28h-2.8l-1.29-4h-4.53Zm4.09-2-1.12-3.52c-0.28-.87-0.51-1.84-0.72-2.67h0c-0.21.83-.42,1.82-0.68,2.67l-1.1,3.52h3.67Z"/><path class="cls-12" d="M432.06,487.16a9,9,0,0,1-3.69.64c-4.53,0-7.29-2.84-7.29-7.18,0-4.7,3.26-7.54,7.63-7.54a8.21,8.21,0,0,1,3.48.64l-0.57,2.08a6.93,6.93,0,0,0-2.8-.55c-2.9,0-5,1.82-5,5.25,0,3.14,1.84,5.15,5,5.15a7.3,7.3,0,0,0,2.84-.53Z"/><path class="cls-12" d="M437.44,475.49h-4.07V473.3h10.78v2.18H440v12.1h-2.61v-12.1Z"/><path class="cls-12" d="M448.43,473.3v14.28h-2.61V473.3h2.61Z"/><path class="cls-12" d="M464.08,480.3c0,4.79-2.9,7.52-6.84,7.52s-6.57-3.07-6.57-7.27c0-4.39,2.75-7.48,6.78-7.48S464.08,476.23,464.08,480.3Zm-10.66.21c0,2.9,1.46,5.21,4,5.21s3.94-2.33,3.94-5.32c0-2.69-1.34-5.23-3.94-5.23S453.42,477.56,453.42,480.51Z"/><path class="cls-12" d="M466.32,487.58V473.3h3l3.69,6.12a39.23,39.23,0,0,1,2.44,4.79h0c-0.17-1.91-.23-3.75-0.23-5.93v-5h2.42v14.28h-2.69l-3.73-6.27a49.43,49.43,0,0,1-2.56-4.94l-0.06,0c0.11,1.84.13,3.73,0.13,6.08v5.11h-2.39Z"/><path class="cls-12" d="M485,473.49a26.33,26.33,0,0,1,4.15-.3c2.67,0,4.51.55,5.83,1.65a6.39,6.39,0,0,1,2.22,5.25,7.39,7.39,0,0,1-2.22,5.68c-1.42,1.29-3.69,1.95-6.46,1.95a28.53,28.53,0,0,1-3.52-.19v-14Zm2.61,12.1a9.73,9.73,0,0,0,1.44.06c3.39,0,5.4-1.84,5.4-5.47,0-3.16-1.8-5-5.06-5a8.33,8.33,0,0,0-1.78.15v10.21Z"/><path class="cls-12" d="M507.47,481.25h-5.38v4.2h6v2.14h-8.62V473.3h8.31v2.14h-5.7v3.69h5.38v2.12Z"/><path class="cls-12" d="M510.32,484.75a7.22,7.22,0,0,0,3.45.91c1.67,0,2.61-.78,2.61-1.95s-0.72-1.72-2.54-2.37c-2.35-.85-3.86-2.1-3.86-4.15,0-2.33,1.95-4.11,5-4.11a7.54,7.54,0,0,1,3.43.72l-0.64,2.1a6.06,6.06,0,0,0-2.84-.68c-1.65,0-2.37.89-2.37,1.72,0,1.1.83,1.61,2.73,2.35,2.48,0.93,3.69,2.18,3.69,4.24,0,2.29-1.74,4.28-5.42,4.28a8.48,8.48,0,0,1-3.86-.89Z"/><path class="cls-12" d="M524,473.3v14.28h-2.61V473.3H524Z"/><path class="cls-12" d="M538.41,486.93a14.15,14.15,0,0,1-4.6.81,7.69,7.69,0,0,1-5.59-1.91,7.08,7.08,0,0,1-2-5.25c0-4.51,3.22-7.42,7.95-7.42a9.48,9.48,0,0,1,3.79.68l-0.57,2.1a7.69,7.69,0,0,0-3.24-.61c-3.05,0-5.19,1.8-5.19,5.13s2,5.17,5,5.17a5,5,0,0,0,2-.3v-3.56h-2.52V479.7h5v7.23Z"/><path class="cls-12" d="M541.07,487.58V473.3h3l3.69,6.12a39.23,39.23,0,0,1,2.44,4.79h0c-0.17-1.91-.23-3.75-0.23-5.93v-5h2.42v14.28H549.7L546,481.31a49.43,49.43,0,0,1-2.56-4.94l-0.06,0c0.11,1.84.13,3.73,0.13,6.08v5.11h-2.39Z"/><path class="cls-12" d="M98.82,473.81a21.74,21.74,0,0,1,3.79-.3,6.77,6.77,0,0,1,4.09.91,3,3,0,0,1,1.48,2.67,3.32,3.32,0,0,1-2.37,3.09v0a3.6,3.6,0,0,1,2.88,3.54,3.71,3.71,0,0,1-1.38,2.95c-1,.89-2.69,1.33-5.3,1.33a25.36,25.36,0,0,1-3.2-.19v-14Zm2.59,5.64h1.33c1.8,0,2.82-.85,2.82-2.06s-1-1.95-2.67-1.95a7.1,7.1,0,0,0-1.48.11v3.9Zm0,6.57a11.57,11.57,0,0,0,1.38.06c1.67,0,3.16-.64,3.16-2.39s-1.44-2.33-3.24-2.33h-1.29V486Z"/><path class="cls-12" d="M111,473.81a24.69,24.69,0,0,1,3.94-.3c2.05,0,3.45.34,4.41,1.14a3.62,3.62,0,0,1,1.23,2.86A3.81,3.81,0,0,1,118,481.1v0.06a3.63,3.63,0,0,1,2,2.75,28.53,28.53,0,0,0,1.12,4h-2.69a20.28,20.28,0,0,1-1-3.37c-0.4-1.86-1.08-2.46-2.56-2.5h-1.31v5.87H111V473.81Zm2.59,6.31h1.55c1.76,0,2.86-.93,2.86-2.35s-1.1-2.29-2.8-2.29a7.5,7.5,0,0,0-1.61.13v4.51Z"/><path class="cls-12" d="M126.08,483.86l-1.23,4h-2.69l4.58-14.28h3.33l4.64,14.28h-2.8l-1.29-4h-4.53Zm4.09-2L129,478.37c-0.28-.87-0.51-1.84-0.72-2.67h0c-0.21.83-.42,1.82-0.68,2.67l-1.1,3.52h3.67Z"/><path class="cls-12" d="M136.69,487.9V473.62h3l3.69,6.12a39.32,39.32,0,0,1,2.44,4.79h0c-0.17-1.91-.23-3.75-0.23-5.93v-5H148V487.9h-2.69l-3.73-6.27A49.58,49.58,0,0,1,139,476.7l-0.06,0c0.11,1.84.13,3.73,0.13,6.08v5.11h-2.39Z"/><path class="cls-12" d="M151,473.81a26.32,26.32,0,0,1,4.15-.3c2.67,0,4.51.55,5.83,1.65a6.39,6.39,0,0,1,2.22,5.25A7.39,7.39,0,0,1,161,486.1c-1.42,1.29-3.69,1.95-6.46,1.95a28.52,28.52,0,0,1-3.52-.19v-14Zm2.61,12.1A9.72,9.72,0,0,0,155,486c3.39,0,5.4-1.84,5.4-5.47,0-3.16-1.8-5-5.06-5a8.33,8.33,0,0,0-1.78.15v10.21Z"/><path class="cls-12" d="M168.07,473.62V487.9h-2.61V473.62h2.61Z"/><path class="cls-12" d="M171.06,487.9V473.62h3l3.69,6.12a39.32,39.32,0,0,1,2.44,4.79h0c-0.17-1.91-.23-3.75-0.23-5.93v-5h2.42V487.9h-2.69L176,481.63a49.58,49.58,0,0,1-2.56-4.94l-0.06,0c0.11,1.84.13,3.73,0.13,6.08v5.11h-2.39Z"/><path class="cls-12" d="M196.81,487.25a14.15,14.15,0,0,1-4.6.81,7.69,7.69,0,0,1-5.59-1.91,7.07,7.07,0,0,1-2-5.25c0-4.51,3.22-7.42,7.95-7.42a9.48,9.48,0,0,1,3.79.68l-0.57,2.1a7.69,7.69,0,0,0-3.24-.61c-3.05,0-5.19,1.8-5.19,5.13s2,5.17,5,5.17a5,5,0,0,0,2-.3v-3.56h-2.52V480h5v7.23Z"/></svg>