<svg id="Layer_1" data-name="Layer 1" xmlns="http://www.w3.org/2000/svg" viewBox="0 0 126 135"><defs><style>.cls-1{fill:#6fc39a;}</style></defs><title>study-cube-icons</title><path class="cls-1" d="M84.61,15.32h-43a6.11,6.11,0,0,0-6.21,6V114a6.12,6.12,0,0,0,6.21,6h43a6.12,6.12,0,0,0,6.21-6V21.3A6.11,6.11,0,0,0,84.61,15.32ZM57,21H69.22a1.41,1.41,0,1,1,0,2.81H57A1.41,1.41,0,1,1,57,21Zm6.11,95.71A3.79,3.79,0,1,1,67,112.9,3.86,3.86,0,0,1,63.11,116.68ZM86,105.84H40.2V29.44H86v76.4h0Z"/><path class="cls-1" d="M55.2,63.18l8.38,4.7L72,63.18,63.28,58.5Z"/><polygon class="cls-1" points="54.65 64.06 54.65 73.46 62.98 78.06 62.98 68.85 54.65 64.06"/><path class="cls-1" d="M72.39,64.15l0,9.31-8.33,4.61V68.85Z"/></svg>