<svg id="Layer_1" data-name="Layer 1" xmlns="http://www.w3.org/2000/svg" viewBox="0 0 126 135"><defs><style>.cls-1{fill:#6fc39a;}</style></defs><title>study-cube-icons</title><path class="cls-1" d="M53.09,30.48a7.37,7.37,0,0,1,9.67-2.35,7.26,7.26,0,0,1,4,6.67c0,4.64.1,9.29,0.12,13.93a22,22,0,0,1-.23,4.32,7.61,7.61,0,0,1-14.81.14,9.33,9.33,0,0,1-.23-1.94c0-2.13,0-4.26,0-6.39a1.92,1.92,0,1,1,3.8-.05c0,2.24,0,4.48,0,6.72a3.71,3.71,0,0,0,5,3.55,3.57,3.57,0,0,0,2.48-3.32q0-8.65,0-17.3A3.67,3.67,0,0,0,58.64,31a21.93,21.93,0,0,1-4.43-.32C53.86,30.63,53.51,30.55,53.09,30.48Z"/><path class="cls-1" d="M58.52,34.45L58.86,38,26.62,34.58,17.54,103.5l70.77,7.43L97.3,42,69.87,39.1l0-4.13,34.83-2.08a1.65,1.65,0,0,1,1.75,1.55l4.69,76.27a1.77,1.77,0,0,1-1.66,1.87L33.18,116.9a1.34,1.34,0,0,1-1.41-1.25l-0.45-6.88-15.15-2a2.24,2.24,0,0,1-1.74-.74,2.29,2.29,0,0,1-.42-2l9.35-70.84A2.39,2.39,0,0,1,25.91,31Z"/></svg>