<?xml version="1.0" encoding="utf-8"?>
<!-- Generator: Adobe Illustrator 19.2.1, SVG Export Plug-In . SVG Version: 6.00 Build 0)  -->
<svg version="1.1" id="Layer_1" xmlns="http://www.w3.org/2000/svg" xmlns:xlink="http://www.w3.org/1999/xlink" x="0px" y="0px"
	 viewBox="0 0 60.9 62.5" style="enable-background:new 0 0 60.9 62.5;" xml:space="preserve">
<style type="text/css">
	.st0{fill:none;stroke:#F9F9F9;stroke-width:1.23;stroke-miterlimit:10;}
	.st1{fill:none;stroke:#F9F9F9;stroke-width:0.36;stroke-miterlimit:10;}
	.st2{fill:#F9F9F9;}
	.st3{fill:none;stroke:#F9F9F9;stroke-width:0.82;stroke-miterlimit:10;}
</style>
<title>visual-marque</title>
<path class="st0" d="M39.1,31.8h19.1c0.5,0,0.9,0.4,0.9,0.9v8c0,0.5-0.4,0.8-0.8,0.9H41.6"/>
<path class="st0" d="M18.7,41.5H2c-0.5,0-0.9-0.4-0.9-0.9v-8c0-0.5,0.4-0.9,0.9-0.9h19.9"/>
<line class="st0" x1="30.6" y1="41.5" x2="30.2" y2="41.5"/>
<line class="st1" x1="3" y1="32.2" x2="3" y2="36.6"/>
<line class="st1" x1="4.4" y1="32.2" x2="4.4" y2="34.4"/>
<line class="st1" x1="5.9" y1="32.2" x2="5.9" y2="36.6"/>
<line class="st1" x1="7.3" y1="32.2" x2="7.3" y2="34.4"/>
<line class="st1" x1="8.6" y1="32.2" x2="8.6" y2="36.6"/>
<line class="st1" x1="10" y1="32.2" x2="10" y2="34.4"/>
<line class="st1" x1="11.6" y1="32.2" x2="11.6" y2="36.6"/>
<line class="st1" x1="13" y1="32.2" x2="13" y2="34.4"/>
<line class="st1" x1="14.5" y1="32.2" x2="14.4" y2="36.6"/>
<line class="st1" x1="15.9" y1="32.2" x2="15.9" y2="34.4"/>
<line class="st1" x1="17.4" y1="32.2" x2="17.4" y2="36.6"/>
<line class="st1" x1="18.8" y1="32.2" x2="18.8" y2="34.4"/>
<line class="st1" x1="20.1" y1="32.2" x2="20" y2="36.6"/>
<line class="st1" x1="21.5" y1="32.2" x2="21.5" y2="34.4"/>
<line class="st1" x1="39.2" y1="32.2" x2="39.2" y2="34.4"/>
<line class="st1" x1="40.4" y1="32.2" x2="40.4" y2="36.7"/>
<line class="st1" x1="41.8" y1="32.2" x2="41.8" y2="34.4"/>
<line class="st1" x1="43.1" y1="32.2" x2="43.1" y2="36.7"/>
<line class="st1" x1="44.5" y1="32.2" x2="44.5" y2="34.4"/>
<line class="st1" x1="46" y1="32.2" x2="46" y2="36.7"/>
<line class="st1" x1="47.4" y1="32.2" x2="47.4" y2="34.4"/>
<line class="st1" x1="48.6" y1="32.2" x2="48.6" y2="36.6"/>
<line class="st1" x1="50" y1="32.2" x2="50" y2="34.4"/>
<line class="st1" x1="51.6" y1="32.2" x2="51.6" y2="36.6"/>
<line class="st1" x1="53" y1="32.2" x2="53" y2="34.4"/>
<line class="st1" x1="54.2" y1="32.2" x2="54.2" y2="36.6"/>
<line class="st1" x1="55.6" y1="32.2" x2="55.6" y2="34.4"/>
<line class="st1" x1="57.2" y1="32.2" x2="57.2" y2="36.6"/>
<path class="st0" d="M35.9,35.2l5.6,6.3l12.7,14.2c0.5,0.5,0.6,1.3,0.1,1.8c0,0,0,0,0,0l-4.6,4.1c-0.4,0.3-1.1,0.3-1.4-0.2
	c0,0,0-0.1-0.1-0.1L30.6,41.5l-0.2-0.2"/>
<path class="st0" d="M24.6,34.9l-2.8-3.1l-5.7-6.4l-0.1-0.1c2-1.8,4.1-3.6,6.1-5.5l0.1,0.1l7.9,8.8"/>
<path class="st0" d="M14.7,22.8c-0.6-0.6-1.3-1.2-2.1-1.6c-0.8-0.4-1.7-0.7-2.7-0.8c-0.2,0-0.4-0.2-0.4-0.5c0-1.4-0.2-2.9-0.7-4.3
	c-0.6-1.6-1.4-3-2.5-4.3L9,9c1.3,1.3,2.8,2.3,4.4,2.9c1.2,0.5,2.4,0.8,3.7,0.8c0.2,0,0.4,0.2,0.5,0.5c0.1,1,0.3,2,0.7,2.9
	c0.3,0.8,0.8,1.6,1.4,2.2L14.7,22.8z"/>
<path class="st2" d="M7.2,10.8c1.8,1.9,3.6,3.8,5.3,5.8c-0.2,0.5,0,1,0.5,1.3c0.4,0.3,1,0.3,1.4-0.1c0.5-0.4,0.6-1.2,0.2-1.7
	c-0.3-0.3-0.7-0.5-1.2-0.4L8,9.9L7.2,10.8z"/>
<path class="st0" d="M13.7,23.7l7.1-6.3c0.1-0.1,0.3,0,0.4,0.1l1.6,1.7c0.1,0.1,0.1,0.3,0,0.4c0,0,0,0,0,0l-7.1,6.4
	c-0.1,0.1-0.3,0-0.4-0.1l-1.6-1.7C13.6,24.1,13.5,23.9,13.7,23.7C13.6,23.8,13.6,23.8,13.7,23.7z"/>
<path class="st2" d="M49.9,11.9l1.6,1.4c0.2,0.1,0.4,0.1,0.5,0c0,0,0.1-0.1,0.1-0.1l1.2-2.9c0.1-0.2,0-0.4-0.2-0.5
	c-0.1,0-0.2,0-0.3,0l-2.8,1.5c-0.2,0.1-0.3,0.3-0.2,0.5C49.8,11.9,49.8,11.9,49.9,11.9z"/>
<path class="st0" d="M10.8,61.8c0.2,0.1,0.5,0.2,0.7,0.1c0.2-0.1,0.4-0.2,0.5-0.3l35.4-39c0.1-0.1,0.1-0.2,0.2-0.2
	c2-4.2,3.9-8.4,5.9-12.6c0.1-0.2-0.1-0.3-0.2-0.2c-4,2.3-8,4.7-12,7c-0.1,0-0.1,0.1-0.2,0.2c-11.7,13-23.4,25.9-35.1,38.9
	c-0.3,0.4-0.3,1,0,1.3L10.8,61.8z"/>
<path class="st0" d="M10.5,50.4l6.4,6.1"/>
<path class="st3" d="M41.1,16.7c0.7-0.2,1.4-0.1,2,0.4c0.4,0.4,0.6,0.8,0.7,1.3c0.4,0,0.9,0.1,1.2,0.4c0.4,0.4,0.7,0.9,0.7,1.5
	c0.4,0,0.8,0.1,1.1,0.4c0.7,0.7,0.8,1.8,0.4,2.6"/>
<path class="st0" d="M15.2,45.3c2.1,2,4.3,4.1,6.4,6.1"/>
<line class="st3" x1="43.8" y1="18" x2="17.4" y2="47.4"/>
<line class="st3" x1="45.7" y1="19.9" x2="19.3" y2="49.5"/>
<path class="st2" d="M1.5,1.4l0.3-1.4C1.8,0,1.9,0,2,0.1l0.6,1.3c0.1,0.1,0.2,0.2,0.3,0.3l1.3,0.3c0.1,0,0.1,0.2,0,0.2L3,2.8
	C2.9,2.9,2.8,3,2.8,3.1L2.5,4.4c0,0.1-0.2,0.1-0.2,0L1.7,3.2C1.6,3.1,1.5,3,1.4,2.9L0.1,2.6C0,2.6,0,2.4,0.1,2.4l1.2-0.6
	C1.4,1.8,1.5,1.6,1.5,1.4z"/>
<path class="st2" d="M7.5,4.4l0.1-0.9c0,0,0-0.1,0.1-0.1s0.1,0,0.1,0.1l0.4,0.8c0,0.1,0.1,0.2,0.2,0.2l0.8,0.2c0,0,0.1,0.1,0,0.1
	L8.4,5.2c-0.1,0-0.1,0.1-0.2,0.2L8.1,6.2c0,0,0,0.1-0.1,0.1S8,6.3,8,6.2l0,0L7.6,5.4c0-0.1-0.1-0.2-0.2-0.2L6.6,5.1
	c0,0-0.1-0.1,0-0.1l0.7-0.3C7.4,4.6,7.5,4.5,7.5,4.4z"/>
<path class="st2" d="M2.2,8.2l0.1-0.5c0,0,0.1-0.1,0.1,0l0.2,0.5c0,0.1,0.1,0.1,0.1,0.1l0.5,0.1c0,0,0.1,0.1,0,0.1L2.7,8.6
	c-0.1,0-0.1,0.1-0.1,0.2L2.5,9.3c0,0-0.1,0.1-0.1,0L2.2,8.9c0-0.1-0.1-0.1-0.1-0.1L1.6,8.6c0,0-0.1-0.1,0-0.1l0.5-0.2L2.2,8.2z"/>
<path class="st2" d="M59.2,1.9l1.5-0.5c0.1,0,0.3,0.1,0.2,0.2L60,3c-0.1,0.1-0.1,0.3,0,0.5L60.4,5c0,0.1,0,0.2-0.1,0.2
	c0,0-0.1,0-0.1,0l-1.3-0.9c-0.1-0.1-0.3-0.1-0.5,0l-1.5,0.5c-0.1,0-0.3-0.1-0.2-0.2l0.9-1.4c0.1-0.1,0.1-0.3,0-0.5l-0.5-1.5
	c0-0.1,0-0.2,0.1-0.2c0,0,0.1,0,0.1,0l1.3,0.9C58.9,2,59.1,2,59.2,1.9z"/>
<path class="st2" d="M58,8.1h1c0.1,0,0.1,0.1,0,0.2l-0.8,0.6c-0.1,0.1-0.2,0.2-0.2,0.3l0,1c0,0.1-0.1,0.1-0.2,0l-0.5-0.8
	c-0.1-0.1-0.2-0.2-0.3-0.2h-1C56,9.2,56,9,56.1,9l0.8-0.6C57,8.4,57,8.3,57,8.1l0-1c0-0.1,0.1-0.1,0.2,0l0.5,0.9
	C57.8,8,57.9,8.1,58,8.1z"/>
<path class="st2" d="M52.4,5.1H53c0,0,0,0,0,0.1l-0.5,0.4c-0.1,0-0.1,0.1-0.1,0.2l0,0.6c0,0,0,0-0.1,0L52,6c0-0.1-0.1-0.1-0.2-0.1
	h-0.6c0,0,0,0,0-0.1l0.5-0.4c0.1,0,0.1-0.1,0.1-0.2l0-0.6c0,0,0,0,0.1,0L52.2,5C52.2,5.1,52.3,5.1,52.4,5.1z"/>
</svg>
