<?xml version="1.0" encoding="utf-8"?>
<!-- Generator: Adobe Illustrator 19.2.1, SVG Export Plug-In . SVG Version: 6.00 Build 0)  -->
<svg version="1.1" id="Layer_1" xmlns="http://www.w3.org/2000/svg" xmlns:xlink="http://www.w3.org/1999/xlink" x="0px" y="0px"
	 viewBox="0 0 180.3 178.7" style="enable-background:new 0 0 180.3 178.7;" xml:space="preserve">
<style type="text/css">
	.st0{fill:#2E5B72;stroke:#091D29;stroke-width:3;stroke-miterlimit:10;}
	.st1{fill:none;stroke:#8CD4E2;stroke-width:0.99;stroke-miterlimit:10;}
	.st2{fill:url(#SVGID_1_);stroke:#001A2A;stroke-width:3;stroke-miterlimit:10;}
	.st3{fill:#8E9191;stroke:#001A2A;stroke-width:3;stroke-miterlimit:10;}
	.st4{fill:#001A2A;}
	.st5{fill:#E8B17C;}
	.st6{fill:#82BFD2;}
	.st7{fill:#76ABB9;}
	.st8{fill:#2E5B72;}
	.st9{fill:#1A4455;}
	.st10{fill:url(#SVGID_2_);}
	.st11{fill:none;stroke:#001A2A;stroke-width:3;stroke-miterlimit:10;}
	.st12{fill:#96D7E4;}
	.st13{fill:none;stroke:#001A2A;stroke-width:2;stroke-miterlimit:10;}
</style>
<title>visual-marque</title>
<path class="st0" d="M18.6,90.1h140.5c1.7,0,3,1.4,3,3v17.3c0,1.7-1.4,3-3,3H18.6c-1.7,0-3-1.4-3-3V93.2
	C15.6,91.5,17,90.1,18.6,90.1z"/>
<line class="st1" x1="20.4" y1="91.6" x2="20.3" y2="104.4"/>
<line class="st1" x1="23.9" y1="91.6" x2="23.9" y2="98"/>
<line class="st1" x1="27.9" y1="91.7" x2="27.8" y2="104.4"/>
<line class="st1" x1="31.4" y1="91.7" x2="31.4" y2="98.1"/>
<line class="st1" x1="34.6" y1="91.6" x2="34.5" y2="104.4"/>
<line class="st1" x1="38.1" y1="91.6" x2="38.1" y2="98"/>
<line class="st1" x1="42.1" y1="91.7" x2="42" y2="104.4"/>
<line class="st1" x1="45.6" y1="91.7" x2="45.6" y2="98.1"/>
<line class="st1" x1="49.4" y1="91.6" x2="49.3" y2="104.4"/>
<line class="st1" x1="52.9" y1="91.6" x2="52.9" y2="98"/>
<line class="st1" x1="56.9" y1="91.6" x2="56.8" y2="104.4"/>
<line class="st1" x1="60.4" y1="91.6" x2="60.4" y2="98"/>
<line class="st1" x1="63.6" y1="91.6" x2="63.5" y2="104.4"/>
<line class="st1" x1="67.1" y1="91.6" x2="67.1" y2="98"/>
<line class="st1" x1="71.1" y1="91.6" x2="71" y2="104.4"/>
<line class="st1" x1="74.6" y1="91.6" x2="74.6" y2="98"/>
<line class="st1" x1="78.2" y1="91.6" x2="78.1" y2="104.4"/>
<line class="st1" x1="82" y1="91.7" x2="82" y2="98.1"/>
<line class="st1" x1="86" y1="91.7" x2="85.9" y2="104.5"/>
<line class="st1" x1="89.5" y1="91.7" x2="89.5" y2="98.1"/>
<line class="st1" x1="92.7" y1="91.7" x2="92.6" y2="104.5"/>
<line class="st1" x1="96.2" y1="91.7" x2="96.2" y2="98.1"/>
<line class="st1" x1="100.2" y1="91.7" x2="100.1" y2="104.5"/>
<line class="st1" x1="103.7" y1="91.7" x2="103.7" y2="98.1"/>
<line class="st1" x1="107.5" y1="91.7" x2="107.5" y2="104.5"/>
<line class="st1" x1="111" y1="91.7" x2="111" y2="98.1"/>
<line class="st1" x1="115" y1="91.7" x2="114.9" y2="104.5"/>
<line class="st1" x1="118.5" y1="91.7" x2="118.5" y2="98.1"/>
<line class="st1" x1="121.7" y1="91.7" x2="121.6" y2="104.5"/>
<line class="st1" x1="125.2" y1="91.7" x2="125.2" y2="98.1"/>
<line class="st1" x1="129.2" y1="91.7" x2="129.1" y2="104.5"/>
<line class="st1" x1="132.7" y1="91.7" x2="132.7" y2="98.1"/>
<line class="st1" x1="135.8" y1="91.6" x2="135.7" y2="104.4"/>
<line class="st1" x1="139.3" y1="91.6" x2="139.3" y2="98"/>
<line class="st1" x1="143.2" y1="91.6" x2="143.2" y2="104.4"/>
<line class="st1" x1="146.8" y1="91.6" x2="146.8" y2="98"/>
<line class="st1" x1="149.9" y1="91.6" x2="149.9" y2="104.4"/>
<line class="st1" x1="153.4" y1="91.6" x2="153.4" y2="98"/>
<line class="st1" x1="157.4" y1="91.6" x2="157.4" y2="104.4"/>
<linearGradient id="SVGID_1_" gradientUnits="userSpaceOnUse" x1="341.1682" y1="-627.2081" x2="362.0281" y2="-627.2081" gradientTransform="matrix(0.75 -0.67 0.67 0.75 262.9837 816.4825)">
	<stop  offset="0.45" style="stop-color:#78ADBA"/>
	<stop  offset="0.46" style="stop-color:#76ABB9"/>
	<stop  offset="0.63" style="stop-color:#96D7E4"/>
</linearGradient>
<path class="st2" d="M54.8,72.5l15.5-13.8l81.2,90.8c1.3,1.2,1.4,3.3,0.2,4.6l-11.6,10.3c-1.2,0.8-2.9,0.6-3.8-0.6L54.8,72.5z"/>
<path class="st3" d="M51.2,66.3c-3.2-3.3-7.4-5.4-12-5.9c-0.6-0.1-1.1-0.6-1-1.2c0-7.9-2.9-15.6-8.2-21.6l6.8-6.2
	c5.4,5.6,12.8,9,20.6,9.6c0.6,0,1.1,0.5,1.1,1.1c0.3,4.8,2.2,9.3,5.3,13L51.2,66.3z"/>
<path class="st4" d="M32.3,35.8l13.5,14.6c-0.6,1.6,0.3,3.4,1.9,3.9c1.6,0.6,3.4-0.3,3.9-1.9c0.6-1.6-0.3-3.4-1.9-3.9
	c-0.5-0.2-1.1-0.2-1.6-0.1L34.4,33.7L32.3,35.8z"/>
<path class="st0" d="M48.7,68.6l18-16.1c0.3-0.2,0.7-0.1,0.9,0.2l4,4.4c0.3,0.3,0.3,0.7,0,0.9l-18,16.1c-0.3,0.2-0.7,0.1-0.9-0.2
	l-4-4.4C48.4,69.3,48.4,68.9,48.7,68.6z"/>
<path class="st5" d="M117.3,51.8L144,33.7l3.8,3.7l-15,30.2L117.3,51.8z"/>
<path class="st6" d="M118.4,52.3c1-0.6,2.1-1,3.2-1.3c1.1-0.3,2-0.5,2.5,0c0.4,0.6,0.5,1.4,0.3,2.1c-0.2,1.3-0.6,2.6-1.2,3.7
	c1-0.7,2.2-1.1,3.4-1.4c0.6-0.2,1.3-0.2,1.9,0c0.6,0.6,0.8,1.5,0.6,2.3c-0.1,1.3-0.6,2.6-1.2,3.7c0.7-0.8,1.7-1.3,2.8-1.4
	c1.1-0.3,2.2,0.3,2.6,1.3c0.1,0.3,0.1,0.7,0.1,1c0,0.9-0.4,1.7-0.9,2.3l-66.8,73.7l-13.2-13.2L118.4,52.3z"/>
<path class="st7" d="M66.2,139.1l66.9-73.6c0.4-0.6,0.6-1.4,0.5-2.1c-0.1-0.9-0.5-1.7-1.1-2.2c-0.8-0.7-1.8-1-2.8-0.9
	c-0.9,0.1-1.7,0.5-2.3,1.2l-66,72.7L66.2,139.1z"/>
<polygon class="st8" points="54,151.9 40.2,138 53,124 66.8,137.9 "/>
<path class="st9" d="M46.6,142L59,128.2l-3.2-3.2l-12.6,13.8L46.6,142z"/>
<linearGradient id="SVGID_2_" gradientUnits="userSpaceOnUse" x1="213.689" y1="432.3327" x2="232.1677" y2="432.3327" gradientTransform="matrix(0.78 0.75 -0.81 0.84 217.6509 -379.3576)">
	<stop  offset="0.61" style="stop-color:#D976AF"/>
	<stop  offset="1" style="stop-color:#E5A3C9"/>
</linearGradient>
<path class="st10" d="M41.8,163.8l-12.4-12.4c-0.3-0.7-0.1-1.5,0.5-2l10.5-11.6l13.8,13.8l-10.4,11.5
	C43.1,163.9,42.2,164.2,41.8,163.8z"/>
<polygon class="st4" points="139.1,37.9 144.9,43.6 149.9,32.1 "/>
<path class="st11" d="M41.5,164.8c0.7,0.7,2,0.4,3-0.6L134,65.6c0.2-0.2,0.3-0.4,0.4-0.6l14.9-31.8c0.1-0.2,0-0.5-0.2-0.6
	c-0.1-0.1-0.3-0.1-0.4,0l-30.4,17.7c-0.2,0.1-0.4,0.3-0.6,0.5L29,149.3c-0.9,1-0.8,2.5,0.1,3.4L41.5,164.8z"/>
<path class="st11" d="M40.5,136.7l16.4,15.1"/>
<path class="st12" d="M58,129.4l65.4-72.1c0.4-0.8,0.7-1.6,0.9-2.4c0.3-1,0.3-2-0.1-2.9c-0.7-0.6-1.7-0.9-2.6-0.7
	c-1,0.1-2,0.4-2.9,0.9l-65.5,72.4L58,129.4z"/>
<path class="st11" d="M53,123l16.2,15.4"/>
<path class="st13" d="M118.1,50.7c1.7-0.5,3.6-0.2,5,1c1,0.9,1.6,2.1,1.7,3.5c1.1,0,2.2,0.3,3,1c1,1,1.6,2.3,1.6,3.8
	c1,0,1.9,0.3,2.6,0.9c1.6,1.3,2,3.9,0.9,6.6"/>
<path class="st12" d="M15.9,10.9l1.5-4c0.1-0.2,0.3-0.3,0.5-0.2c0.1,0,0.2,0.1,0.2,0.2l1.2,4.1c0.1,0.4,0.4,0.8,0.9,1l3.8,1.6
	c0.2,0.1,0.3,0.3,0.2,0.5c0,0.1-0.1,0.2-0.2,0.2L20,15.5c-0.4,0.1-0.8,0.5-0.9,0.9l-1.5,4c-0.1,0.2-0.3,0.3-0.5,0.2
	c-0.1,0-0.2-0.1-0.2-0.2l-1.2-4.1c-0.1-0.4-0.5-0.8-0.9-0.9l-3.8-1.6c-0.2-0.1-0.3-0.3-0.2-0.5c0-0.1,0.1-0.2,0.2-0.2l3.9-1.2
	C15.4,11.7,15.8,11.3,15.9,10.9z"/>
<path class="st12" d="M31.4,20.9l0.9-2.5c0-0.1,0.2-0.2,0.3-0.2c0.1,0,0.2,0.1,0.2,0.2l0.7,2.6c0.1,0.3,0.3,0.5,0.5,0.6l2.4,1
	c0.1,0,0.2,0.2,0.2,0.3c0,0.1-0.1,0.1-0.2,0.2l-2.4,0.8c-0.3,0.1-0.5,0.3-0.6,0.6l-0.9,2.5c0,0.1-0.2,0.2-0.3,0.2
	c-0.1,0-0.2-0.1-0.2-0.2l-0.7-2.6c-0.1-0.3-0.3-0.5-0.5-0.6l-2.4-1c-0.1,0-0.2-0.2-0.2-0.3c0-0.1,0.1-0.1,0.2-0.2l2.4-0.8
	C31,21.4,31.3,21.2,31.4,20.9z"/>
<path class="st12" d="M15.9,29.1l0.6-1.5c0-0.1,0.1-0.1,0.2-0.1c0,0,0.1,0.1,0.1,0.1l0.5,1.6c0,0.2,0.2,0.3,0.3,0.4l1.5,0.6
	c0.1,0,0.1,0.1,0.1,0.2c0,0,0,0-0.1,0.1L17.5,31c-0.2,0.1-0.3,0.2-0.4,0.4L16.5,33c0,0.1-0.1,0.1-0.2,0.1c0,0-0.1-0.1-0.1-0.1
	l-0.5-1.6c0-0.2-0.2-0.3-0.3-0.4L14,30.4c-0.1,0-0.1-0.1-0.1-0.2c0,0,0,0,0.1-0.1l1.5-0.5C15.7,29.5,15.8,29.3,15.9,29.1z"/>
<path class="st12" d="M164.3,10.3l4.2-1.6c0.2-0.1,0.5,0.1,0.5,0.3c0,0.1,0,0.2,0,0.3l-2.4,3.9c-0.3,0.4-0.3,1-0.2,1.5l1.4,4.3
	c0.1,0.2-0.1,0.5-0.3,0.5c-0.1,0-0.2,0-0.3,0l-3.7-2.5c-0.4-0.3-0.9-0.3-1.4-0.2l-4.2,1.6c-0.2,0.1-0.5-0.1-0.5-0.3
	c0-0.1,0-0.2,0-0.3l2.4-3.9c0.3-0.4,0.3-1,0.2-1.5l-1.4-4.3c-0.1-0.2,0.1-0.5,0.3-0.5c0.1,0,0.2,0,0.3,0l3.7,2.5
	C163.4,10.4,163.9,10.5,164.3,10.3z"/>
<path class="st12" d="M160.3,27.3h2.7c0.1,0,0.2,0.1,0.2,0.3c0,0.1-0.1,0.2-0.1,0.2l-2.3,1.7c-0.3,0.2-0.4,0.5-0.4,0.8l-0.2,2.9
	c0,0.1-0.1,0.3-0.3,0.3c-0.1,0-0.2,0-0.2-0.1l-1.6-2.3c-0.2-0.2-0.4-0.3-0.7-0.3h-2.8c-0.1,0-0.3,0-0.3-0.2c0-0.1,0-0.3,0.2-0.3
	l2.3-1.7c0.3-0.2,0.4-0.5,0.4-0.8l0.1-2.9c0-0.1,0.1-0.3,0.3-0.3c0.1,0,0.2,0,0.2,0.1l1.6,2.3C159.7,27.2,160,27.3,160.3,27.3z"/>
<path class="st12" d="M147,18.4h1.8c0.1,0,0.1,0.1,0.1,0.2c0,0,0,0.1-0.1,0.1l-1.5,1.1c-0.2,0.1-0.3,0.3-0.3,0.5v1.8
	c0,0.1-0.1,0.2-0.2,0.1c0,0,0,0,0,0h-0.1l-0.9-1.5c-0.1-0.2-0.3-0.3-0.5-0.3h-1.7c-0.1,0-0.1-0.1-0.1-0.2c0,0,0-0.1,0.1-0.1l1.5-1.1
	c0.2-0.1,0.3-0.3,0.3-0.5v-1.8c0-0.1,0.1-0.2,0.2-0.1c0,0,0,0,0,0h0.1l1,1.4C146.7,18.3,146.9,18.4,147,18.4z"/>
</svg>
