<svg id="Layer_1" data-name="Layer 1" xmlns="http://www.w3.org/2000/svg" viewBox="0 0 512 486"><defs><style>.cls-1,.cls-4,.cls-5{fill:#6fc39a;}.cls-10,.cls-14,.cls-2,.cls-3,.cls-6,.cls-8{fill:none;}.cls-10,.cls-2,.cls-3,.cls-4,.cls-5,.cls-6,.cls-8{stroke:#6fc39a;}.cls-10,.cls-14,.cls-2,.cls-4,.cls-5,.cls-6,.cls-8{stroke-miterlimit:10;}.cls-2{stroke-width:3.06px;}.cls-3{stroke-linecap:round;stroke-linejoin:round;stroke-width:2.02px;}.cls-4{stroke-width:0.93px;}.cls-5,.cls-6{stroke-width:0.96px;}.cls-7{fill:#fff;}.cls-8{stroke-width:2.03px;}.cls-9{font-size:16px;font-weight:700;}.cls-11,.cls-9{fill:#474648;font-family:Myriad Pro;}.cls-10{stroke-width:2px;}.cls-11{font-size:9px;}.cls-12{white-space:pre;}.cls-13{letter-spacing:-1px;}.cls-14{stroke:#88cca8;opacity:0.64;}</style></defs><title>what-i-do</title><path id="rect3368" class="cls-1" d="M115.22,85.84h14.51a0.69,0.69,0,0,1,.63.75h0V88a0.69,0.69,0,0,1-.63.75H115.22a0.69,0.69,0,0,1-.63-0.75h0V86.6a0.69,0.69,0,0,1,.63-0.75h0Z"/><path id="rect3368-1" class="cls-1" d="M115.16,89.94h14.51a0.69,0.69,0,0,1,.63.75h0V92.1a0.69,0.69,0,0,1-.63.75H115.16a0.69,0.69,0,0,1-.63-0.75h0V90.69a0.69,0.69,0,0,1,.63-0.75h0Z"/><path id="rect3368-1-2" class="cls-1" d="M115.16,94h14.51a0.69,0.69,0,0,1,.63.75h0v1.41a0.69,0.69,0,0,1-.63.75H115.16a0.69,0.69,0,0,1-.63-0.75h0V94.71a0.69,0.69,0,0,1,.63-0.75h0Z"/><path id="path3400" class="cls-1" d="M117.83,98.3a5.85,5.85,0,0,0,4.42,2.32,5.91,5.91,0,0,0,4.71-2.4Z"/><path class="cls-2" d="M142.14,50.12a19.57,19.57,0,0,0-39.09,0,18.08,18.08,0,0,0,3.61,10.8,52.11,52.11,0,0,1,5.6,12,1,1,0,0,1,0,.35v7.58a1,1,0,0,0,1,1h18.08a1,1,0,0,0,1-1V73.42h0a54.46,54.46,0,0,1,6.64-13.29h0A18,18,0,0,0,142.14,50.12Z"/><rect id="rect3531" class="cls-3" x="121.45" y="10.46" width="0.71" height="12.64"/><polygon id="rect3531-0" class="cls-3" points="155.67 28.38 156.16 28.91 146.35 37.18 145.87 36.65 155.67 28.38"/><polygon id="rect3531-6" class="cls-3" points="138.67 18.55 139.22 18.82 135.16 25.95 134.61 25.69 138.67 18.55"/><polygon id="rect3531-0-4" class="cls-3" points="89.59 28.44 89.12 28.97 98.93 37.24 99.4 36.71 89.59 28.44"/><polygon id="rect3531-6-9" class="cls-3" points="104.84 18.09 104.29 18.35 108.32 25.46 108.87 25.2 104.84 18.09"/><polygon id="rect3531-6-2" class="cls-3" points="159.46 44.97 159.5 45.56 151.14 45.93 151.08 45.34 159.46 44.97"/><polygon id="rect3531-6-2-5" class="cls-3" points="86.94 44.7 86.88 45.29 95.24 45.66 95.3 45.07 86.94 44.7"/><path class="cls-1" d="M126.88,62.2c0.27-.3.53-0.54,0.53-0.54l0.53-.44c0.17-.14.35-0.24,0.51-0.36,0.32-.23.63-0.36,0.87-0.51l0.81-.36h-0.23c-0.15,0-.37,0-0.65,0a6,6,0,0,0-1,.23c-0.19.07-.4,0.13-0.61,0.22l-0.66.34-0.68.46c-0.22.18-.45,0.38-0.68,0.59s-0.45.45-.66,0.71-0.43.52-.63,0.82a10.63,10.63,0,0,0-.58.91,10.48,10.48,0,0,0-.52,1,19.48,19.48,0,0,0-.88,2.12c-0.23.7-.44,1.41-0.61,2.12,0-.64,0-1.28,0-2,0-.5,0-1,0-1.52s-0.11-1-.16-1.52l-0.1-.76L121.28,63a14.27,14.27,0,0,0-.37-1.46c-0.15-.47-0.3-0.95-0.48-1.39l-0.58-1.29c-0.22-.4-0.44-0.8-0.66-1.17s-0.49-.7-0.72-1A12.79,12.79,0,0,0,117,55a10.61,10.61,0,0,0-1.41-1.16,5.91,5.91,0,0,0-.62-0.41c-0.19-.12-0.38-0.22-0.54-0.3a6.81,6.81,0,0,0-.78-0.35l-0.28-.1a11.62,11.62,0,0,1,.93.75c0.14,0.12.3,0.27,0.46,0.43s0.35,0.33.53,0.52,0.38,0.39.57,0.63,0.41,0.45.6,0.73a19.38,19.38,0,0,1,1.21,1.76c0.18,0.34.39,0.67,0.57,1s0.36,0.74.53,1.12l0.46,1.21c0.14,0.42.25,0.85,0.39,1.28a12.94,12.94,0,0,1,.31,1.33L120,64.1l0.08,0.69c0,0.46.15,0.92,0.16,1.38l0.07,1.39,0.08,2.82c0.07,2.41.16,2.42,0.22,5,0.05,2.14,0,2.54.1,4,0.1,1.11.23,2,.34,2.63a1.16,1.16,0,0,0,1.06,0c0.35-.32.06-1-0.17-2.38a15.6,15.6,0,0,1-.21-3.18,16.87,16.87,0,0,1,.3-2.36c0.12-.67.24-1.13,0.43-1.95,0.32-1.34.7-2.74,1.16-4.09,0.23-.67.49-1.33,0.76-2a16.52,16.52,0,0,1,.89-1.77A15.07,15.07,0,0,1,126.88,62.2Z"/><path class="cls-1" d="M135,56.43h0c-0.51-.19-1-0.35-1.55-0.52-0.26-.08-0.53-0.12-0.8-0.18l-0.8-.16-0.82,0a4.14,4.14,0,0,0-.82,0l-0.83.09a8.3,8.3,0,0,0-.82.23,3.76,3.76,0,0,0-.79.33l-0.39.19a3.91,3.91,0,0,0-.37.25,4.41,4.41,0,0,0-.69.57,4.86,4.86,0,0,0-.62.67l-0.28.37-0.24.4a6.54,6.54,0,0,0-.42.84,8.84,8.84,0,0,0-.3.9,5.71,5.71,0,0,0-.18.93,6.37,6.37,0,0,1,.38-0.81,7.65,7.65,0,0,1,.44-0.74,7.77,7.77,0,0,1,.51-0.66l0.27-.3,0.29-.26a3.66,3.66,0,0,1,.6-0.48,3.35,3.35,0,0,1,.65-0.37c0.11-.05.21-0.12,0.33-0.16l0.34-.11a2.87,2.87,0,0,1,.69-0.18c0.24,0,.47-0.08.71-0.1l0.72,0a3.43,3.43,0,0,1,.72.05l0.72,0.09,0.72,0.17c0.24,0.06.48,0.1,0.72,0.18L134,57.89v0.06c0,0.25-.1.49-0.15,0.74a7.1,7.1,0,0,1-.23.71l-0.13.35c0,0.11-.1.22-0.16,0.33s-0.1.23-.16,0.33l-0.19.31c-0.07.1-.12,0.21-0.19,0.31l-0.22.28-0.22.28-0.25.25a4.06,4.06,0,0,1-.52.49l-0.56.43-0.61.36-0.31.18-0.33.14-0.65.28c-0.22.09-.45,0.14-0.68,0.22l-0.69.21c-0.47.09-.94,0.19-1.42,0.31,0.48,0.07,1,.11,1.45.16,0.24,0,.49,0,0.73,0s0.49,0,.74-0.05l0.73-.16,0.37-.08,0.36-.13c0.24-.09.49-0.18,0.73-0.28l0.69-.41a4.83,4.83,0,0,0,.67-0.49c0.11-.09.22-0.17,0.33-0.27l0.29-.32,0.29-.32c0.09-.11.18-0.24,0.26-0.36l0.26-.37c0.08-.13.15-0.27,0.23-0.4a5.66,5.66,0,0,0,.4-0.84,8.19,8.19,0,0,0,.52-1.84,7.05,7.05,0,0,0,.11-1A0.83,0.83,0,0,0,135,56.43Z"/><path class="cls-1" d="M115.39,58.67a6.62,6.62,0,0,1-.72-0.4L114,57.81a5.34,5.34,0,0,1-.66-0.5c-0.21-.18-0.44-0.34-0.63-0.54l-0.59-.59c-0.2-.19-0.36-0.43-0.55-0.64a5.68,5.68,0,0,1-.5-0.68,6.86,6.86,0,0,1-.45-0.73,6.43,6.43,0,0,1-.4-0.76L110,53l-0.15-.41c-0.11-.27-0.18-0.55-0.26-0.83s-0.15-.56-0.19-0.85l0-.17,0.44-.17,1-.31,1-.24c0.33,0,.66-0.12,1-0.13l0.49,0,0.49,0a6.38,6.38,0,0,1,1,.11l0.47,0.12c0.16,0,.3.11,0.46,0.17a3.14,3.14,0,0,1,.44.21,2.74,2.74,0,0,1,.43.26A2.86,2.86,0,0,1,117,51a3.52,3.52,0,0,1,.39.34,5.9,5.9,0,0,1,.71.81,9.66,9.66,0,0,1,1.14,2c0.16,0.36.3,0.74,0.43,1.13s0.24,0.79.35,1.19a19.8,19.8,0,0,1,.48,2.5,14.73,14.73,0,0,0,0-2.61c-0.05-.43-0.11-0.87-0.2-1.3a12.1,12.1,0,0,0-.76-2.52,8,8,0,0,0-.6-1.17,7.46,7.46,0,0,0-.77-1,4.89,4.89,0,0,0-.44-0.46,4,4,0,0,0-.48-0.41,3.66,3.66,0,0,0-.51-0.35,4.3,4.3,0,0,0-.53-0.3c-0.18-.08-0.37-0.17-0.55-0.24L115,48.39c-0.19-.06-0.38-0.08-0.57-0.12a3,3,0,0,0-.57-0.08l-0.57,0-0.57,0c-0.38,0-.75.09-1.13,0.13l-1.1.24-1.07.35-1,.43h0a0.82,0.82,0,0,0-.45.83,7.94,7.94,0,0,0,.16,1.11,9.24,9.24,0,0,0,.26,1c0.11,0.33.22,0.66,0.36,1l0.2,0.47,0.23,0.44a7.65,7.65,0,0,0,.5.85c0.09,0.14.17,0.28,0.27,0.41l0.3,0.37a6.35,6.35,0,0,0,.62.71c0.22,0.21.43,0.45,0.66,0.64l0.7,0.56c0.24,0.18.5,0.32,0.74,0.47a5.45,5.45,0,0,0,.76.42L114.43,59a6.46,6.46,0,0,0,.79.27L116,59.48c0.54,0.11,1.08.18,1.61,0.26l-1.51-.67Z"/><path class="cls-4" d="M426.09,32.27v-6a2,2,0,0,0-2-2H341.89a2,2,0,0,0-2,2V99.65h86.24V32.27Zm-61.31-6.06h49.86a2,2,0,0,1,0,4H364.78A2,2,0,0,1,364.78,26.21Zm-11.26.87a1.15,1.15,0,1,1-1.15,1.15A1.15,1.15,0,0,1,353.52,27.08Zm-3.45,0a1.15,1.15,0,1,1-1.15,1.15A1.15,1.15,0,0,1,350.07,27.08Zm-3.45,0a1.15,1.15,0,1,1-1.15,1.15A1.15,1.15,0,0,1,346.62,27.08ZM424.74,98.3H341.2v-66h83.55v66Z"/><rect class="cls-5" x="349.29" y="61.23" width="13.48" height="12.13"/><rect class="cls-1" x="370.85" y="62.58" width="45.82" height="1.35"/><rect class="cls-1" x="370.85" y="66.62" width="45.82" height="1.35"/><rect class="cls-1" x="370.85" y="70.67" width="45.82" height="1.35"/><rect class="cls-5" x="349.29" y="78.75" width="13.48" height="12.13"/><rect class="cls-1" x="370.85" y="80.1" width="45.82" height="1.35"/><rect class="cls-1" x="370.85" y="84.14" width="45.82" height="1.35"/><rect class="cls-1" x="370.85" y="88.18" width="45.82" height="1.35"/><rect class="cls-6" x="349.29" y="39.67" width="67.38" height="14.82"/><circle class="cls-7" cx="346.62" cy="28.23" r="1.15"/><circle class="cls-7" cx="350.07" cy="28.23" r="1.15"/><circle class="cls-7" cx="353.52" cy="28.23" r="1.15"/><path class="cls-1" d="M345.64,310.59c-0.36.95-.68,1.93-1,2.91a1.47,1.47,0,0,0,1,1.83,1.46,1.46,0,0,0,.41.06,1.48,1.48,0,0,0,1.42-1.07c0.26-.91.56-1.81,0.89-2.69a1.48,1.48,0,1,0-2.76-1"/><path class="cls-1" d="M402.48,291.5a1.48,1.48,0,0,0,.44,2c0.8,0.51,1.58,1.06,2.33,1.63a1.48,1.48,0,1,0,1.78-2.35c-0.81-.61-1.65-1.2-2.51-1.76a1.47,1.47,0,0,0-2,.44"/><path class="cls-1" d="M363.16,290c-0.88.5-1.76,1.05-2.6,1.63a1.48,1.48,0,1,0,1.66,2.44c0.78-.53,1.59-1,2.41-1.5a1.48,1.48,0,0,0-1.47-2.56"/><path class="cls-1" d="M419.12,311.56a1.48,1.48,0,0,0-1,1.86c0.28,0.89.54,1.81,0.75,2.73a1.48,1.48,0,0,0,2.87-.67c-0.23-1-.51-2-0.81-3a1.48,1.48,0,0,0-1.85-1"/><path class="cls-1" d="M417.35,309a1.48,1.48,0,0,0,1.32-2.13c-0.46-.92-1-1.82-1.48-2.69a1.48,1.48,0,0,0-2.53,1.52c0.48,0.8.94,1.64,1.36,2.49a1.48,1.48,0,0,0,1.32.82"/><path class="cls-1" d="M422.72,321.53a1.48,1.48,0,0,0-2.94.22c0,0.45,0,.91.05,1.36h-4.37v11.81h11.81V323.12h-4.49c0-.53,0-1.06-0.06-1.58"/><path class="cls-1" d="M411.61,296.87a1.48,1.48,0,1,0-2.12,2.06c0.65,0.67,1.29,1.39,1.89,2.11a1.48,1.48,0,0,0,2.27-1.89c-0.65-.79-1.34-1.55-2-2.28"/><path class="cls-1" d="M357.79,297.61a1.48,1.48,0,0,0-2-2.16c-0.74.69-1.47,1.43-2.16,2.18a1.48,1.48,0,1,0,2.17,2c0.64-.69,1.31-1.37,2-2"/><path class="cls-1" d="M346.11,322.7c0-.94.13-1.9,0.25-2.83a1.48,1.48,0,0,0-2.93-.37c-0.13,1-.22,2-0.27,3.05a1.46,1.46,0,0,0,.08.56h-4.57v11.81h11.81V323.12H346a1.44,1.44,0,0,0,.1-0.41"/><path class="cls-1" d="M349.83,302.43c-0.57.84-1.11,1.72-1.61,2.61a1.48,1.48,0,0,0,2.57,1.45c0.46-.82,1-1.63,1.49-2.42a1.48,1.48,0,1,0-2.45-1.64"/><path class="cls-1" d="M344.58,292.11a5.9,5.9,0,0,0,5.7-4.43h17.93a1.48,1.48,0,0,0,1.55,2.45c0.88-.34,1.79-0.65,2.69-0.91a1.45,1.45,0,0,0,1-1.53h3.42a1.44,1.44,0,0,0,.18.16v4.27h11.81v-3.94l0.94,0.15,0.27,0a1.47,1.47,0,0,0,1.22-.67h3.22a1.4,1.4,0,0,0-.14.23,1.48,1.48,0,0,0,.9,1.89c0.89,0.32,1.78.67,2.64,1a1.46,1.46,0,0,0,.6.13,1.48,1.48,0,0,0,.6-2.83c-0.38-.17-0.78-0.31-1.17-0.47h17.71a5.91,5.91,0,1,0,0-3H388.88V280.3H377.07v4.43H350.28a5.9,5.9,0,1,0-5.7,7.38"/><circle class="cls-8" cx="382.81" cy="323.7" r="24.62"/><path class="cls-1" d="M78,276H165.8a1.37,1.37,0,0,1,1.37,1.37v11.51a0,0,0,0,1,0,0H76.75a0,0,0,0,1,0,0V277.29A1.29,1.29,0,0,1,78,276Z"/><path class="cls-1" d="M167.17,350.76H76.75V284.94h90.41v65.82Zm-87.64-2.67h84.71v-62H79.53v62Z"/><circle class="cls-7" cx="83.57" cy="282.63" r="1.16"/><circle class="cls-7" cx="87.58" cy="282.63" r="1.16"/><circle class="cls-7" cx="91.64" cy="282.63" r="1.16"/><path class="cls-1" d="M127.81,304.51a1.15,1.15,0,0,0-1.42.58l-10.77,24.84a0.94,0.94,0,0,0,.62,1.27,1.19,1.19,0,0,0,.5.06,1.11,1.11,0,0,0,.92-0.64l10.77-24.84A0.94,0.94,0,0,0,127.81,304.51Z"/><path class="cls-1" d="M102.28,317a1.28,1.28,0,0,0,0,1.95l7.43,6.4a1.29,1.29,0,0,0,1.68-1.95l-6.3-5.43,6.3-5.43a1.29,1.29,0,0,0-1.68-1.95Z"/><path class="cls-1" d="M132.57,325.2a1.29,1.29,0,0,0,1.81.13l7.43-6.4a1.29,1.29,0,0,0,0-1.95l-7.43-6.4a1.29,1.29,0,1,0-1.68,1.95L139,318l-6.3,5.43A1.29,1.29,0,0,0,132.57,325.2Z"/><text class="cls-9" transform="translate(51.76 146.53)">IDEA D<tspan x="47.81" y="0">E</tspan><tspan x="56.17" y="0">VE</tspan><tspan x="74.03" y="0">L</tspan><tspan x="81.29" y="0">O</tspan><tspan x="92.56" y="0">P</tspan><tspan x="101.29" y="0">MENT</tspan></text><line class="cls-10" x1="85.88" y1="116.17" x2="158.5" y2="116.17"/><text class="cls-11" transform="translate(27.51 171.56)">M<tspan x="7.3" y="0">y b</tspan><tspan x="18.57" y="0">r</tspan><tspan x="21.46" y="0">ain is </tspan><tspan x="42.39" y="0">c</tspan><tspan x="46.37" y="0">onsta</tspan><tspan x="67.18" y="0">n</tspan><tspan x="72.14" y="0">tly fl</tspan><tspan x="88.1" y="0">o</tspan><tspan x="92.98" y="0">wing with ideas due </tspan><tspan x="170.2" y="0">t</tspan><tspan x="173.13" y="0">o </tspan><tspan x="179.98" y="0">m</tspan><tspan x="187.37" y="0">y</tspan><tspan class="cls-12" x="-3.73" y="13.8"> i</tspan><tspan x="0.29" y="13.8">n</tspan><tspan x="5.25" y="13.8">t</tspan><tspan x="8.17" y="13.8">e</tspan><tspan x="12.68" y="13.8">r</tspan><tspan x="15.53" y="13.8">estand </tspan><tspan x="42.9" y="13.8">e</tspan><tspan x="47.38" y="13.8">xpe</tspan><tspan x="61.18" y="13.8">r</tspan><tspan x="64.16" y="13.8">ien</tspan><tspan x="75.77" y="13.8">c</tspan><tspan x="79.75" y="13.8">e in the di</tspan><tspan x="116.75" y="13.8">ff</tspan><tspan x="121.88" y="13.8">e</tspan><tspan x="126.38" y="13.8">r</tspan><tspan x="129.24" y="13.8">e</tspan><tspan x="133.75" y="13.8">n</tspan><tspan x="138.71" y="13.8">t field</tspan><tspan x="160.01" y="13.8">s</tspan><tspan class="cls-12" x="163.47" y="13.8">.  </tspan><tspan x="169.15" y="13.8">D</tspan><tspan x="175.18" y="13.8">esi</tspan><tspan x="185.36" y="13.8">g</tspan><tspan x="190.34" y="13.8">n</tspan><tspan class="cls-12" x="-3.42" y="27.6"> keeps </tspan><tspan x="22.32" y="27.6">m</tspan><tspan x="29.71" y="27.6">y b</tspan><tspan x="40.98" y="27.6">r</tspan><tspan x="43.88" y="27.6">ain a</tspan><tspan x="61.56" y="27.6">c</tspan><tspan x="65.71" y="27.6">ti</tspan><tspan x="70.8" y="27.6">v</tspan><tspan x="75.04" y="27.6">e and </tspan><tspan x="97.77" y="27.6">m</tspan><tspan x="105.16" y="27.6">y c</tspan><tspan x="115.34" y="27.6">r</tspan><tspan x="118.19" y="27.6">e</tspan><tspan x="122.7" y="27.6">a</tspan><tspan x="127" y="27.6">tivi</tspan><tspan x="138.52" y="27.6">t</tspan><tspan x="141.58" y="27.6">y all</tspan><tspan x="156.31" y="27.6">o</tspan><tspan x="161.19" y="27.6">w</tspan><tspan x="167.76" y="27.6">s me </tspan><tspan x="187.15" y="27.6">t</tspan><tspan x="190.08" y="27.6">o </tspan><tspan x="5.41" y="41.4">gene</tspan><tspan x="24.45" y="41.4">r</tspan><tspan x="27.35" y="41.4">a</tspan><tspan x="31.65" y="41.4">t</tspan><tspan x="34.58" y="41.4">e</tspan><tspan x="38.98" y="41.4">, de</tspan><tspan x="52.33" y="41.4">v</tspan><tspan x="56.57" y="41.4">elo</tspan><tspan x="68.15" y="41.4">p</tspan><tspan x="73.05" y="41.4">, and </tspan><tspan x="93.14" y="41.4">c</tspan><tspan x="97.12" y="41.4">ommunic</tspan><tspan x="133.16" y="41.4">a</tspan><tspan x="137.46" y="41.4">t</tspan><tspan x="140.39" y="41.4">e new idea</tspan><tspan x="180.87" y="41.4">s</tspan><tspan x="184.33" y="41.4">. </tspan></text><text class="cls-9" transform="translate(311.92 146.53)"><tspan class="cls-13">P</tspan><tspan x="7.81" y="0">APER PR</tspan><tspan x="65.63" y="0">O</tspan><tspan x="76.46" y="0">T</tspan><tspan x="84.41" y="0">O</tspan><tspan x="95.25" y="0">T</tspan><tspan x="103.9" y="0">Y</tspan><tspan x="112.89" y="0">PING</tspan></text><line class="cls-10" x1="347.04" y1="116.17" x2="419.66" y2="116.17"/><text class="cls-11" transform="translate(282.4 171.56)">E<tspan x="4.36" y="0">v</tspan><tspan x="8.6" y="0">e</tspan><tspan x="13.11" y="0">r</tspan><tspan x="16.28" y="0">y desi</tspan><tspan x="37.68" y="0">g</tspan><tspan x="42.66" y="0">n </tspan><tspan x="49.56" y="0">f</tspan><tspan x="52.07" y="0">or me sta</tspan><tspan x="86.67" y="0">r</tspan><tspan x="89.83" y="0">ts on pape</tspan><tspan x="129.21" y="0">r</tspan><tspan x="131.68" y="0">. </tspan><tspan x="135.45" y="0">P</tspan><tspan x="140" y="0">aper p</tspan><tspan x="163.94" y="0">r</tspan><tspan x="166.79" y="0">o</tspan><tspan x="171.73" y="0">t</tspan><tspan x="174.66" y="0">o</tspan><tspan x="179.6" y="0">t</tspan><tspan x="182.66" y="0">yping</tspan><tspan class="cls-12" x="9.22" y="13.8"> and wi</tspan><tspan x="36.18" y="13.8">r</tspan><tspan x="39.03" y="13.8">e f</tspan><tspan x="48.08" y="13.8">r</tspan><tspan x="50.97" y="13.8">aming a</tspan><tspan x="81.2" y="13.8">r</tspan><tspan x="84.05" y="13.8">e </tspan><tspan x="90.47" y="13.8">t</tspan><tspan x="93.39" y="13.8">echnique th</tspan><tspan x="138.44" y="13.8">a</tspan><tspan x="142.75" y="13.8">t all</tspan><tspan x="156.22" y="13.8">o</tspan><tspan x="161.1" y="13.8">w</tspan><tspan x="167.67" y="13.8">s me </tspan><tspan x="187.06" y="13.8">t</tspan><tspan x="189.99" y="13.8">o </tspan><tspan x="1.67" y="27.6">c</tspan><tspan x="5.7" y="27.6">r</tspan><tspan x="8.55" y="27.6">e</tspan><tspan x="13.06" y="27.6">a</tspan><tspan x="17.36" y="27.6">t</tspan><tspan x="20.29" y="27.6">e and </tspan><tspan x="43.02" y="27.6">t</tspan><tspan x="45.94" y="27.6">est ideas quic</tspan><tspan x="96.57" y="27.6">k</tspan><tspan x="100.94" y="27.6">ly and cheapl</tspan><tspan x="150.65" y="27.6">y</tspan><tspan x="154.54" y="27.6">. </tspan><tspan x="158.31" y="27.6">I</tspan><tspan x="160.6" y="27.6">t&apos;s easier </tspan><tspan x="194.62" y="27.6">t</tspan><tspan x="197.54" y="27.6">o</tspan><tspan class="cls-12" x="23.9" y="41.4"> change a p</tspan><tspan x="66.99" y="41.4">r</tspan><tspan x="69.84" y="41.4">o</tspan><tspan x="74.78" y="41.4">t</tspan><tspan x="77.7" y="41.4">o</tspan><tspan x="82.65" y="41.4">t</tspan><tspan x="85.71" y="41.4">ype than the final desi</tspan><tspan x="168.41" y="41.4">g</tspan><tspan x="173.39" y="41.4">n. </tspan></text><line class="cls-14" x1="257.5" y1="25.55" x2="257.5" y2="474.75"/><line class="cls-14" x1="18.31" y1="245.67" x2="499.47" y2="245.67"/><text class="cls-9" transform="translate(78.34 399.03)">WEB DESIGN</text><line class="cls-10" x1="85.46" y1="368.67" x2="158.08" y2="368.67"/><text class="cls-11" transform="translate(21.92 424.06)">T<tspan x="4.41" y="0">h</tspan><tspan x="9.41" y="0">r</tspan><tspan x="12.26" y="0">oughout uni</tspan><tspan x="59.03" y="0">v</tspan><tspan x="63.27" y="0">ersi</tspan><tspan x="76.39" y="0">t</tspan><tspan x="79.45" y="0">y I h</tspan><tspan x="94.65" y="0">a</tspan><tspan x="98.92" y="0">v</tspan><tspan x="103.16" y="0">e de</tspan><tspan x="119.16" y="0">v</tspan><tspan x="123.4" y="0">eloped </tspan><tspan x="151.58" y="0">e</tspan><tspan x="156.07" y="0">xpe</tspan><tspan x="169.86" y="0">r</tspan><tspan x="172.84" y="0">ien</tspan><tspan x="184.45" y="0">c</tspan><tspan x="188.43" y="0">e in</tspan><tspan class="cls-12" x="4.5" y="13.8"> desi</tspan><tspan x="21.66" y="13.8">g</tspan><tspan x="26.64" y="13.8">ning and building </tspan><tspan x="95.42" y="13.8">w</tspan><tspan x="101.95" y="13.8">ebsi</tspan><tspan x="117.25" y="13.8">t</tspan><tspan x="120.18" y="13.8">es </tspan><tspan x="130.16" y="13.8">f</tspan><tspan x="132.67" y="13.8">or ma</tspan><tspan x="154.3" y="13.8">n</tspan><tspan x="159.18" y="13.8">y di</tspan><tspan x="172.51" y="13.8">ff</tspan><tspan x="177.64" y="13.8">e</tspan><tspan x="182.15" y="13.8">r</tspan><tspan x="185" y="13.8">e</tspan><tspan x="189.51" y="13.8">n</tspan><tspan x="194.47" y="13.8">t </tspan><tspan x="-2.38" y="27.6">pu</tspan><tspan x="7.7" y="27.6">r</tspan><tspan x="10.68" y="27.6">pose</tspan><tspan x="28.82" y="27.6">s</tspan><tspan x="32.28" y="27.6">. I h</tspan><tspan x="45.11" y="27.6">a</tspan><tspan x="49.37" y="27.6">v</tspan><tspan x="53.61" y="27.6">e gained an understanding of HTML and</tspan><tspan class="cls-12" x="32.33" y="41.4"> CSS </tspan><tspan x="50.24" y="41.4">t</tspan><tspan x="53.16" y="41.4">o c</tspan><tspan x="64.04" y="41.4">r</tspan><tspan x="66.9" y="41.4">e</tspan><tspan x="71.4" y="41.4">a</tspan><tspan x="75.71" y="41.4">t</tspan><tspan x="78.63" y="41.4">e enga</tspan><tspan x="103.92" y="41.4">g</tspan><tspan x="108.9" y="41.4">ing </tspan><tspan x="122.94" y="41.4">e</tspan><tspan x="127.42" y="41.4">xpe</tspan><tspan x="141.21" y="41.4">r</tspan><tspan x="144.19" y="41.4">ien</tspan><tspan x="155.8" y="41.4">c</tspan><tspan x="159.78" y="41.4">e</tspan><tspan x="164.29" y="41.4">s</tspan><tspan x="167.76" y="41.4">.</tspan></text><text class="cls-9" transform="translate(334 399.03)">IL<tspan x="12.11" y="0">L</tspan><tspan x="19.47" y="0">UST</tspan><tspan x="46.83" y="0">R</tspan><tspan class="cls-13" x="56.05" y="0">A</tspan><tspan x="64.93" y="0">TION</tspan></text><line class="cls-10" x1="347.12" y1="368.67" x2="419.73" y2="368.67"/><text class="cls-11" transform="translate(286.17 424.06)">V<tspan x="4.73" y="0">e</tspan><tspan x="9.23" y="0">c</tspan><tspan x="13.38" y="0">t</tspan><tspan x="16.31" y="0">or </tspan><tspan x="26.1" y="0">I</tspan><tspan x="28.34" y="0">llust</tspan><tspan x="44.09" y="0">r</tspan><tspan x="46.99" y="0">a</tspan><tspan x="51.29" y="0">tion is one of </tspan><tspan x="101.63" y="0">m</tspan><tspan x="109.01" y="0">y main passion</tspan><tspan x="164.64" y="0">s</tspan><tspan x="168.11" y="0">. I enj</tspan><tspan x="187.63" y="0">o</tspan><tspan x="192.51" y="0">y</tspan><tspan class="cls-12" x="0.31" y="13.8"> the abili</tspan><tspan x="32.4" y="13.8">t</tspan><tspan x="35.46" y="13.8">y </tspan><tspan x="41.61" y="13.8">t</tspan><tspan x="44.54" y="13.8">o </tspan><tspan x="51.38" y="13.8">c</tspan><tspan x="55.36" y="13.8">ombine a</tspan><tspan x="90.79" y="13.8">r</tspan><tspan x="93.94" y="13.8">t and desi</tspan><tspan x="130.4" y="13.8">g</tspan><tspan x="135.38" y="13.8">n </tspan><tspan x="142.28" y="13.8">t</tspan><tspan x="145.21" y="13.8">o c</tspan><tspan x="156.09" y="13.8">r</tspan><tspan x="158.94" y="13.8">e</tspan><tspan x="163.45" y="13.8">a</tspan><tspan x="167.75" y="13.8">t</tspan><tspan x="170.68" y="13.8">e li</tspan><tspan x="181.32" y="13.8">v</tspan><tspan x="185.56" y="13.8">ely </tspan><tspan x="17.32" y="27.6">illust</tspan><tspan x="35.17" y="27.6">r</tspan><tspan x="38.07" y="27.6">a</tspan><tspan x="42.37" y="27.6">tions th</tspan><tspan x="70.84" y="27.6">a</tspan><tspan x="75.14" y="27.6">t </tspan><tspan x="80.03" y="27.6">c</tspan><tspan x="84" y="27.6">o</tspan><tspan x="88.95" y="27.6">n</tspan><tspan x="93.82" y="27.6">v</tspan><tspan x="98.06" y="27.6">ey a subje</tspan><tspan x="135.3" y="27.6">c</tspan><tspan x="139.45" y="27.6">ti</tspan><tspan x="144.54" y="27.6">v</tspan><tspan x="148.78" y="27.6">e moo</tspan><tspan x="172.58" y="27.6">d</tspan><tspan x="177.57" y="27.6">,</tspan><tspan class="cls-12" x="49.08" y="41.4"> personali</tspan><tspan x="85.63" y="41.4">t</tspan><tspan x="88.69" y="41.4">y and cha</tspan><tspan x="124.52" y="41.4">r</tspan><tspan x="127.42" y="41.4">a</tspan><tspan x="131.75" y="41.4">c</tspan><tspan x="135.9" y="41.4">t</tspan><tspan x="138.83" y="41.4">e</tspan><tspan x="143.34" y="41.4">r</tspan><tspan x="145.8" y="41.4">.</tspan></text></svg>